# Cocos Creator 3D Mesh Extracted
# Source file: 179083718526365.bin
# Type: skinned, Vertices: 541, Triangles: 988, Stride: 72 bytes
# Bounding Box: X=[-3.532001, 3.532004], Y=[-17.10941, 16.96865], Z=[-2.451168, 3.869118]
o Model_1_skinned
v 0.448228 -13.993960 -2.451168
v -0.448228 -13.993960 -2.451168
v -1.173475 -13.467040 -2.451168
v -1.450495 -12.614460 -2.451168
v -1.173476 -11.761880 -2.451168
v -0.448228 -11.234960 -2.451168
v 0.448228 -11.234960 -2.451168
v 1.173475 -11.761880 -2.451168
v 1.450495 -12.614460 -2.451168
v 1.173476 -13.467040 -2.451168
v 1.962944 -12.614460 -1.963801
v 1.588055 -11.460670 -1.963801
v 1.588055 -11.460670 -0.344088
v 1.962944 -12.614460 -0.344088
v 0.606583 -10.747590 -1.963801
v 0.606583 -10.747590 -0.344088
v -0.606583 -10.747590 -1.963801
v -0.606583 -10.747590 -0.344088
v -1.588055 -11.460670 -1.963801
v -1.588055 -11.460670 -0.344088
v -1.962944 -12.614460 -1.963801
v -1.962944 -12.614460 -0.344088
v -1.588055 -13.768250 -1.963801
v -1.588055 -13.768250 -0.344088
v -0.606583 -14.481330 -1.963801
v -0.606583 -14.481330 -0.344088
v 0.606583 -14.481330 -1.963801
v 0.606583 -14.481330 -0.344088
v 1.588056 -13.768250 -1.963801
v 1.588056 -13.768250 -0.344088
v 1.735189 -12.614460 -2.397017
v 1.403798 -11.594540 -2.397017
v 0.536203 -10.964200 -2.397017
v -0.536203 -10.964200 -2.397017
v -1.403798 -11.594540 -2.397017
v -1.735189 -12.614460 -2.397017
v -1.403798 -13.634380 -2.397017
v -0.536203 -14.264720 -2.397017
v 0.536203 -14.264720 -2.397017
v 1.403798 -13.634380 -2.397017
v 1.906005 -12.614460 -2.234560
v 1.541991 -11.494140 -2.234560
v 0.588988 -10.801740 -2.234560
v -0.588988 -10.801740 -2.234560
v -1.541991 -11.494140 -2.234560
v -1.906005 -12.614460 -2.234560
v -1.541991 -13.734780 -2.234560
v -0.588988 -14.427180 -2.234560
v 0.588988 -14.427180 -2.234560
v 1.541991 -13.734780 -2.234560
v -0.762791 -17.109410 -0.547900
v 0.795331 -17.109410 -0.547900
v 0.795331 -17.109410 2.115875
v -0.762791 -17.109410 2.115875
v 1.754866 -16.826450 2.115875
v 1.754866 -16.826450 -0.547900
v -1.787609 -16.811540 -0.547900
v -1.787609 -16.811540 2.115875
v 2.632674 -16.192220 -0.547900
v 2.632674 -16.192220 2.115876
v 3.532004 -14.476160 2.115875
v 3.172272 -15.500390 2.115874
v 3.172272 -15.500390 -0.547900
v 3.532004 -14.476160 -0.547900
v -2.632673 -16.192220 2.115876
v -2.632673 -16.192220 -0.547900
v -3.532001 -14.476160 -0.547900
v -3.172271 -15.500390 -0.547900
v -3.172271 -15.500390 2.115874
v -3.532001 -14.476160 2.115875
v 0.770372 -17.033980 -1.049376
v -0.737832 -17.033980 -1.049376
v -0.737832 -17.033980 2.617352
v 0.770372 -17.033980 2.617352
v -3.106309 -15.459500 -1.049376
v -3.460398 -14.467950 -1.049375
v 1.719564 -16.750040 -1.049376
v -1.752308 -16.735120 2.617352
v 3.106310 -15.459500 2.617352
v 3.460401 -14.467950 2.617352
v -1.752308 -16.735130 -1.049376
v -2.582042 -16.133570 -1.049376
v 3.460401 -14.467950 -1.049375
v 3.106310 -15.459500 -1.049376
v 2.582042 -16.133570 -1.049376
v -3.460398 -14.467950 2.617352
v -3.106309 -15.459500 2.617352
v -2.582042 -16.133570 2.617352
v 1.719564 -16.750040 2.617352
v 2.582042 -16.133570 2.617352
v 0.695496 -16.807710 -1.350261
v -0.662956 -16.807710 -1.350261
v 0.570701 -16.430580 -1.450556
v -0.538162 -16.430580 -1.450556
v -0.662956 -16.807700 2.918236
v 0.695496 -16.807700 2.918236
v -0.538161 -16.430580 3.018533
v 0.570702 -16.430580 3.018533
v -2.908423 -15.336810 -1.350261
v -3.245585 -14.443310 -1.350261
v -2.578615 -15.132330 -1.450556
v -2.887566 -14.402240 -1.450555
v 1.613659 -16.520800 -1.350261
v 1.437151 -16.138730 -1.450556
v -1.646403 -16.505880 2.918236
v -1.469895 -16.123820 3.018533
v 2.908424 -15.336810 2.918236
v 3.245587 -14.443310 2.918236
v 2.578616 -15.132330 3.018532
v 2.887567 -14.402240 3.018533
v -1.646403 -16.505890 -1.350261
v -1.469895 -16.123820 -1.450556
v -2.430146 -15.957600 -1.350261
v -2.176988 -15.664330 -1.450556
v 3.245587 -14.443310 -1.350261
v 2.908424 -15.336810 -1.350261
v 2.887567 -14.402240 -1.450555
v 2.578616 -15.132330 -1.450556
v 2.430147 -15.957600 -1.350261
v 2.176989 -15.664330 -1.450556
v -3.245585 -14.443310 2.918236
v -2.908423 -15.336810 2.918236
v -2.887566 -14.402240 3.018533
v -2.578615 -15.132330 3.018532
v -2.430146 -15.957600 2.918236
v -2.176988 -15.664330 3.018532
v 1.613659 -16.520790 2.918236
v 1.437151 -16.138730 3.018533
v 2.430147 -15.957600 2.918236
v 2.176989 -15.664330 3.018532
v -0.762791 -2.253364 -0.547899
v -0.762791 -2.253360 2.115876
v 0.795331 -2.253356 2.115876
v 0.795331 -2.253356 -0.547899
v 1.754866 -2.536315 2.115875
v 1.754866 -2.536319 -0.547899
v -1.787609 -2.551230 -0.547899
v -1.787609 -2.551226 2.115875
v 2.632673 -3.170553 -0.547900
v 2.632673 -3.170549 2.115876
v 3.532002 -4.886610 2.115875
v 3.532002 -4.886612 -0.547899
v 3.172271 -3.862384 -0.547899
v 3.172271 -3.862383 2.115876
v -2.632673 -3.170549 2.115876
v -2.632673 -3.170553 -0.547900
v -3.532001 -4.886612 -0.547899
v -3.532001 -4.886610 2.115875
v -3.172271 -3.862383 2.115876
v -3.172271 -3.862384 -0.547899
v 0.770372 -2.328791 -1.049375
v -0.737832 -2.328791 -1.049375
v -0.737832 -2.328787 2.617351
v 0.770372 -2.328787 2.617351
v -2.887566 -4.960534 -1.450556
v -3.245585 -4.919464 -1.350262
v -3.106309 -3.903275 -1.049375
v -3.460398 -4.894828 -1.049375
v 1.719564 -2.612729 -1.049375
v -1.752308 -2.627640 2.617351
v 3.106309 -3.903275 2.617351
v 3.460398 -4.894828 2.617351
v -1.752308 -2.627644 -1.049375
v -2.582041 -3.229208 -1.049375
v 3.460398 -4.894828 -1.049375
v 3.106309 -3.903275 -1.049375
v 2.582042 -3.229208 -1.049375
v -3.460398 -4.894828 2.617351
v -3.106309 -3.903275 2.617351
v -2.582041 -3.229208 2.617352
v 1.719564 -2.612728 2.617351
v 2.582042 -3.229208 2.617352
v 0.695496 -2.555063 -1.350261
v -0.662956 -2.555063 -1.350261
v 0.570701 -2.932188 -1.450556
v -0.538161 -2.932188 -1.450556
v -0.662956 -2.555063 2.918237
v 0.695496 -2.555063 2.918237
v -0.538161 -2.932187 3.018533
v 0.570702 -2.932187 3.018533
v -2.908423 -4.025963 -1.350261
v -2.578615 -4.230442 -1.450556
v 1.613659 -2.841979 -1.350262
v 1.437151 -3.224042 -1.450556
v -1.646403 -2.856884 2.918237
v -1.469895 -3.238957 3.018533
v 2.908424 -4.025963 2.918237
v 3.245587 -4.919464 2.918236
v 2.578615 -4.230442 3.018532
v 2.887566 -4.960535 3.018533
v -1.646403 -2.856888 -1.350262
v -1.469895 -3.238957 -1.450556
v -2.430146 -3.405169 -1.350261
v -2.176988 -3.698444 -1.450555
v 3.245587 -4.919464 -1.350262
v 2.908424 -4.025963 -1.350261
v 2.887566 -4.960534 -1.450556
v 2.578615 -4.230442 -1.450556
v 2.430146 -3.405169 -1.350261
v 2.176988 -3.698444 -1.450555
v -3.245585 -4.919464 2.918236
v -2.908423 -4.025963 2.918237
v -2.887566 -4.960535 3.018533
v -2.578615 -4.230442 3.018532
v -2.430146 -3.405170 2.918237
v -2.176988 -3.698445 3.018533
v 1.613659 -2.841974 2.918237
v 1.437151 -3.224042 3.018533
v 2.430146 -3.405170 2.918237
v 2.176988 -3.698445 3.018533
v 0.448228 -7.953356 -2.451168
v -0.448228 -7.953356 -2.451168
v -1.173475 -7.426434 -2.451168
v -1.450495 -6.573854 -2.451168
v -1.173475 -5.721274 -2.451168
v -0.448228 -5.194351 -2.451168
v 0.448228 -5.194351 -2.451168
v 1.173475 -5.721274 -2.451168
v 1.450495 -6.573854 -2.451168
v 1.173476 -7.426433 -2.451168
v 1.962944 -6.573854 -1.963801
v 1.588055 -5.420064 -1.963801
v 1.588055 -5.420064 -0.344088
v 1.962944 -6.573854 -0.344088
v 0.606583 -4.706983 -1.963801
v 0.606583 -4.706983 -0.344088
v -0.606583 -4.706983 -1.963801
v -0.606583 -4.706983 -0.344088
v -1.588055 -5.420064 -1.963801
v -1.588055 -5.420064 -0.344088
v -1.962944 -6.573854 -1.963801
v -1.962944 -6.573854 -0.344088
v -1.588055 -7.727643 -1.963801
v -1.588055 -7.727643 -0.344088
v -0.606583 -8.440724 -1.963801
v -0.606583 -8.440724 -0.344088
v 0.606583 -8.440724 -1.963801
v 0.606583 -8.440724 -0.344088
v 1.588056 -7.727643 -1.963801
v 1.588056 -7.727643 -0.344088
v 1.735189 -6.573854 -2.397017
v 1.403797 -5.553936 -2.397017
v 0.536203 -4.923591 -2.397017
v -0.536203 -4.923591 -2.397017
v -1.403798 -5.553936 -2.397017
v -1.735189 -6.573854 -2.397017
v -1.403797 -7.593772 -2.397017
v -0.536203 -8.224116 -2.397017
v 0.536203 -8.224116 -2.397017
v 1.403798 -7.593772 -2.397017
v 1.906005 -6.573854 -2.234560
v 1.541991 -5.453532 -2.234560
v 0.588988 -4.761135 -2.234560
v -0.588988 -4.761135 -2.234560
v -1.541991 -5.453532 -2.234560
v -1.906005 -6.573854 -2.234560
v -1.541991 -7.694176 -2.234560
v -0.588988 -8.386573 -2.234560
v 0.588988 -8.386573 -2.234560
v 1.541991 -7.694175 -2.234560
v 0.273301 12.660790 -0.102399
v -0.273301 12.660790 -0.102399
v -0.715510 12.660790 0.250721
v -0.884419 12.660790 0.822083
v -0.715510 12.660790 1.393444
v -0.273301 12.660790 1.746565
v 0.273301 12.660790 1.746565
v 0.715510 12.660790 1.393444
v 0.884419 12.660790 0.822083
v 0.715511 12.660790 0.250722
v 0.715510 12.660790 1.393444
v 0.715510 5.655042 1.393444
v 0.884419 5.655042 0.822083
v 0.884419 12.660790 0.822083
v 0.273301 12.660790 1.746565
v 0.273301 5.655040 1.746565
v -0.273301 12.660790 1.746565
v -0.273301 5.655040 1.746565
v -0.715510 12.660790 1.393444
v -0.715510 5.655042 1.393444
v -0.884419 12.660790 0.822083
v -0.884419 5.655042 0.822083
v -0.715510 12.660790 0.250721
v -0.715510 5.655042 0.250721
v -0.273301 12.660790 -0.102399
v -0.273301 5.655042 -0.102400
v 0.273301 12.660790 -0.102399
v 0.273301 5.655042 -0.102400
v 0.715511 12.660790 0.250722
v 0.715511 5.655042 0.250721
v 0.884419 -5.005922 0.822082
v 0.715510 -5.005922 1.393444
v 0.273301 -5.005922 1.746565
v -0.273301 -5.005922 1.746565
v -0.715510 -5.005922 1.393443
v -0.884419 -5.005922 0.822082
v -0.715510 -5.005923 0.250721
v -0.273301 -5.005924 -0.102400
v 0.273301 -5.005924 -0.102400
v 0.715511 -5.005923 0.250721
v 1.855075 16.061320 0.822086
v 1.500788 16.061320 -0.376346
v 0.573250 16.061320 -1.117019
v -0.573244 16.061320 -1.117019
v -1.500782 16.061320 -0.376346
v -1.855070 16.061320 0.822086
v -1.500782 16.061320 2.020518
v -0.573244 16.061320 2.761191
v 0.573250 16.061320 2.761191
v 1.500788 16.061320 2.020518
v 1.552592 11.653660 2.061885
v 1.919109 11.653670 0.822085
v 1.919109 15.956180 0.822086
v 1.552592 15.956180 2.061886
v 0.593040 11.653660 2.828123
v 0.593040 15.956180 2.828124
v -0.593035 11.653660 2.828123
v -0.593035 15.956180 2.828124
v -1.552587 11.653660 2.061885
v -1.552587 15.956180 2.061886
v -1.919104 11.653670 0.822085
v -1.919104 15.956180 0.822086
v -1.552587 11.653670 -0.417715
v -1.552587 15.956190 -0.417714
v -0.593035 11.653670 -1.183955
v -0.593035 15.956190 -1.183953
v 0.593040 11.653670 -1.183955
v 0.593040 15.956190 -1.183953
v 1.552593 11.653670 -0.417715
v 1.552593 15.956190 -0.417714
v 0.430372 10.955040 -0.633710
v 1.126727 10.955040 -0.077645
v 1.392710 10.955040 0.822085
v 1.126727 10.955040 1.721815
v 0.430372 10.955040 2.277879
v -0.430367 10.955040 2.277879
v -1.126720 10.955040 1.721815
v -1.392702 10.955040 0.822085
v -1.126720 10.955040 -0.077646
v -0.430367 10.955040 -0.633710
v 1.505274 11.279490 2.024099
v 1.860620 11.279490 0.822085
v 0.574965 11.279490 2.766985
v -0.574959 11.279490 2.766985
v -1.505267 11.279490 2.024099
v -1.860615 11.279490 0.822085
v -1.505267 11.279490 -0.379931
v -0.574959 11.279490 -1.122816
v 0.574966 11.279490 -1.122816
v 1.505275 11.279490 -0.379929
v 1.363318 11.017920 1.910742
v 1.685153 11.017920 0.822085
v 0.520743 11.017920 2.583570
v -0.520737 11.017920 2.583570
v -1.363312 11.017920 1.910742
v -1.685148 11.017920 0.822084
v -1.363312 11.017920 -0.266574
v -0.520737 11.017920 -0.939401
v 0.520743 11.017920 -0.939401
v 1.363320 11.017920 -0.266573
v 1.500788 16.061320 2.020518
v 0.573250 16.061320 2.761191
v 1.855075 16.061320 0.822086
v 1.500788 16.061320 -0.376346
v 0.573250 16.061320 -1.117019
v -0.573244 16.061320 -1.117019
v -1.500782 16.061320 -0.376346
v -1.855070 16.061320 0.822086
v -1.500782 16.061320 2.020518
v -0.573244 16.061320 2.761191
v -2.279582 16.968650 2.642421
v -0.870719 16.968650 3.767450
v 0.870725 16.968650 3.767450
v 2.279588 16.968650 2.642421
v 2.817725 16.968650 0.822088
v 2.279588 16.968650 -0.998245
v 0.870725 16.968650 -2.123274
v -0.870719 16.968650 -2.123274
v -2.279582 16.968650 -0.998245
v -2.817720 16.968650 0.822088
v 2.914988 16.922350 0.822088
v 2.358274 16.922350 2.705256
v 2.358274 15.027390 2.705255
v 2.914988 15.027390 0.822088
v 0.900784 16.922350 3.869118
v 0.900784 15.027390 3.869116
v -0.900777 16.922350 3.869118
v -0.900777 15.027390 3.869116
v -2.358267 16.922350 2.705256
v -2.358267 15.027390 2.705255
v -2.914980 16.922350 0.822088
v -2.914980 15.027390 0.822087
v -2.358267 16.922360 -1.061081
v -2.358267 15.027390 -1.061081
v -0.900777 16.922360 -2.224942
v -0.900777 15.027400 -2.224943
v 0.900784 16.922360 -2.224942
v 0.900784 15.027400 -2.224943
v 2.358276 16.922360 -1.061079
v 2.358276 15.027390 -1.061080
v -1.711407 14.719700 2.188713
v -2.115416 14.719700 0.822087
v -1.711407 14.719700 -0.544540
v -0.653698 14.719700 -1.389161
v 0.653704 14.719700 -1.389161
v 1.711413 14.719700 -0.544538
v 2.115425 14.719700 0.822087
v 1.711413 14.719700 2.188713
v 0.653704 14.719700 3.033335
v -0.653698 14.719700 3.033335
v 2.826146 14.862600 0.822087
v 2.286401 14.862600 2.647861
v 0.873328 14.862600 3.776252
v -0.873321 14.862600 3.776252
v -2.286394 14.862600 2.647861
v -2.826141 14.862600 0.822087
v -2.286394 14.862600 -1.003687
v -0.873321 14.862600 -2.132078
v 0.873333 14.862600 -2.132078
v 2.286403 14.862600 -1.003686
v 2.559626 14.747390 0.822087
v 2.070781 14.747390 2.475682
v 0.790969 14.747390 3.497659
v -0.790963 14.747390 3.497659
v -2.070775 14.747390 2.475681
v -2.559622 14.747390 0.822087
v -2.070775 14.747390 -0.831507
v -0.790963 14.747390 -1.853484
v 0.790969 14.747390 -1.853484
v 2.070784 14.747390 -0.831506
v 0.870725 16.968650 3.767450
v 2.279588 16.968650 2.642421
v 2.817725 16.968650 0.822088
v 2.279588 16.968650 -0.998245
v 0.870725 16.968650 -2.123274
v -0.870719 16.968650 -2.123274
v -2.279582 16.968650 -0.998245
v -2.914980 16.922350 0.822088
v -2.817720 16.968650 0.822088
v -2.279582 16.968650 2.642421
v -0.870719 16.968650 3.767450
v 0.448228 -13.993960 -0.535377
v -0.448228 -13.993960 -0.535377
v -1.173475 -13.467040 -0.535377
v -1.450495 -12.614460 -0.535377
v -1.173475 -11.761880 -0.535377
v -0.448228 -11.234960 -0.535377
v 0.448228 -11.234960 -0.535377
v 1.173475 -11.761880 -0.535377
v 1.450495 -12.614460 -0.535377
v 1.173476 -13.467040 -0.535377
v 1.962944 -12.614460 -0.048010
v 1.588055 -11.460670 -0.048010
v 1.588055 -11.460670 1.571704
v 1.962944 -12.614460 1.571704
v 0.606583 -10.747590 -0.048010
v 0.606583 -10.747590 1.571703
v -0.606583 -10.747590 -0.048010
v -0.606583 -10.747590 1.571703
v -1.588055 -11.460670 -0.048010
v -1.588055 -11.460670 1.571704
v -1.962944 -12.614460 -0.048010
v -1.962944 -12.614460 1.571704
v -1.588055 -13.768250 -0.048009
v -1.588055 -13.768250 1.571704
v -0.606583 -14.481330 -0.048009
v -0.606583 -14.481330 1.571704
v 0.606583 -14.481330 -0.048009
v 0.606583 -14.481330 1.571704
v 1.588056 -13.768250 -0.048009
v 1.588056 -13.768250 1.571704
v 1.735189 -12.614460 -0.481226
v 1.403797 -11.594540 -0.481226
v 0.536203 -10.964200 -0.481226
v -0.536203 -10.964200 -0.481226
v -1.403798 -11.594540 -0.481226
v -1.735189 -12.614460 -0.481226
v -1.403797 -13.634380 -0.481225
v -0.536203 -14.264720 -0.481225
v 0.536203 -14.264720 -0.481225
v 1.403798 -13.634380 -0.481225
v 1.906005 -12.614460 -0.318770
v 1.541991 -11.494140 -0.318770
v 0.588988 -10.801740 -0.318770
v -0.588988 -10.801740 -0.318770
v -1.541991 -11.494140 -0.318770
v -1.906005 -12.614460 -0.318770
v -1.541991 -13.734780 -0.318769
v -0.588988 -14.427180 -0.318769
v 0.588988 -14.427180 -0.318769
v 1.541991 -13.734780 -0.318769
v 0.448228 -7.953356 -0.535378
v -0.448228 -7.953356 -0.535378
v -1.173475 -7.426434 -0.535378
v -1.450495 -6.573854 -0.535378
v -1.173475 -5.721275 -0.535378
v -0.448228 -5.194352 -0.535378
v 0.448228 -5.194352 -0.535378
v 1.173475 -5.721275 -0.535378
v 1.450495 -6.573854 -0.535378
v 1.173476 -7.426433 -0.535378
v 1.962944 -6.573854 -0.048010
v 1.588055 -5.420066 -0.048010
v 1.588055 -5.420065 1.571702
v 1.962944 -6.573854 1.571703
v 0.606583 -4.706985 -0.048010
v 0.606583 -4.706984 1.571702
v -0.606583 -4.706985 -0.048010
v -0.606583 -4.706984 1.571702
v -1.588055 -5.420066 -0.048010
v -1.588055 -5.420065 1.571702
v -1.962944 -6.573854 -0.048010
v -1.962944 -6.573854 1.571703
v -1.588055 -7.727644 -0.048010
v -1.588055 -7.727644 1.571703
v -0.606583 -8.440724 -0.048010
v -0.606583 -8.440724 1.571703
v 0.606583 -8.440724 -0.048010
v 0.606583 -8.440724 1.571703
v 1.588055 -7.727643 -0.048010
v 1.588055 -7.727643 1.571703
v 1.735188 -6.573854 -0.481226
v 1.403797 -5.553937 -0.481226
v 0.536203 -4.923593 -0.481226
v -0.536203 -4.923593 -0.481226
v -1.403797 -5.553937 -0.481226
v -1.735188 -6.573854 -0.481226
v -1.403797 -7.593773 -0.481226
v -0.536203 -8.224116 -0.481226
v 0.536203 -8.224116 -0.481226
v 1.403798 -7.593772 -0.481226
v 1.906005 -6.573854 -0.318770
v 1.541991 -5.453534 -0.318770
v 0.588988 -4.761137 -0.318770
v -0.588988 -4.761137 -0.318770
v -1.541991 -5.453534 -0.318770
v -1.906005 -6.573854 -0.318770
v -1.541991 -7.694176 -0.318770
v -0.588988 -8.386573 -0.318770
v 0.588988 -8.386573 -0.318770
v 1.541991 -7.694175 -0.318770
vt 0.904882 0.796003
vt 0.854911 0.796003
vt 0.814484 0.825375
vt 0.799042 0.872900
vt 0.814484 0.920425
vt 0.854911 0.949797
vt 0.904882 0.949797
vt 0.945310 0.920425
vt 0.960752 0.872900
vt 0.945310 0.825375
vt 0.989317 0.872900
vt 0.968420 0.937216
vt 0.968420 0.937216
vt 0.989317 0.872900
vt 0.913710 0.976965
vt 0.913710 0.976965
vt 0.846084 0.976965
vt 0.846084 0.976965
vt 0.791374 0.937216
vt 0.791374 0.937216
vt 0.770477 0.872900
vt 0.770477 0.872900
vt 0.791374 0.808585
vt 0.791374 0.808585
vt 0.846084 0.768835
vt 0.846084 0.768835
vt 0.913710 0.768835
vt 0.913710 0.768835
vt 0.968420 0.808585
vt 0.968420 0.808585
vt 0.976621 0.872900
vt 0.958149 0.929753
vt 0.909786 0.964890
vt 0.850007 0.964890
vt 0.801645 0.929753
vt 0.783172 0.872900
vt 0.801645 0.816047
vt 0.850007 0.780910
vt 0.909786 0.780910
vt 0.958149 0.816047
vt 0.986143 0.872900
vt 0.965852 0.935350
vt 0.912729 0.973946
vt 0.847065 0.973946
vt 0.793942 0.935350
vt 0.773651 0.872900
vt 0.793942 0.810450
vt 0.847065 0.771854
vt 0.912729 0.771854
vt 0.965852 0.810450
vt 0.275998 0.260312
vt 0.350344 0.260312
vt 0.350344 0.260312
vt 0.275998 0.260312
vt 0.396128 0.273814
vt 0.396128 0.273814
vt 0.227099 0.274525
vt 0.227099 0.274525
vt 0.438013 0.304076
vt 0.438013 0.304076
vt 0.480924 0.385958
vt 0.463760 0.337087
vt 0.463760 0.337087
vt 0.480924 0.385958
vt 0.186776 0.304076
vt 0.186776 0.304076
vt 0.143865 0.385958
vt 0.161029 0.337087
vt 0.161029 0.337087
vt 0.143865 0.385958
vt 0.349153 0.263911
vt 0.277189 0.263911
vt 0.277189 0.263911
vt 0.349153 0.263911
vt 0.164177 0.339038
vt 0.147281 0.386350
vt 0.394444 0.277460
vt 0.228783 0.278171
vt 0.460612 0.339038
vt 0.477508 0.386350
vt 0.228783 0.278171
vt 0.189192 0.306875
vt 0.477508 0.386350
vt 0.460612 0.339038
vt 0.435597 0.306875
vt 0.147281 0.386350
vt 0.164177 0.339038
vt 0.189192 0.306875
vt 0.394444 0.277460
vt 0.435597 0.306875
vt 0.345580 0.274708
vt 0.280761 0.274708
vt 0.339626 0.292703
vt 0.286716 0.292703
vt 0.280762 0.274708
vt 0.345580 0.274708
vt 0.286716 0.292703
vt 0.339626 0.292703
vt 0.173619 0.344892
vt 0.157531 0.387526
vt 0.189356 0.354649
vt 0.174614 0.389485
vt 0.389390 0.288398
vt 0.380968 0.306629
vt 0.233836 0.289110
vt 0.242258 0.307340
vt 0.451170 0.344892
vt 0.467258 0.387526
vt 0.435433 0.354649
vt 0.450175 0.389485
vt 0.233836 0.289110
vt 0.242258 0.307340
vt 0.196440 0.315271
vt 0.208519 0.329265
vt 0.467258 0.387526
vt 0.451170 0.344892
vt 0.450175 0.389485
vt 0.435433 0.354649
vt 0.428349 0.315271
vt 0.416270 0.329265
vt 0.157531 0.387526
vt 0.173619 0.344892
vt 0.174614 0.389485
vt 0.189356 0.354649
vt 0.196440 0.315271
vt 0.208519 0.329265
vt 0.389390 0.288398
vt 0.380968 0.306629
vt 0.428349 0.315271
vt 0.416270 0.329265
vt 0.275998 0.969170
vt 0.275998 0.969170
vt 0.350344 0.969170
vt 0.350344 0.969170
vt 0.396128 0.955668
vt 0.396128 0.955668
vt 0.227099 0.954957
vt 0.227099 0.954957
vt 0.438013 0.925406
vt 0.438013 0.925406
vt 0.480924 0.843524
vt 0.480924 0.843524
vt 0.463760 0.892395
vt 0.463760 0.892395
vt 0.186776 0.925406
vt 0.186776 0.925406
vt 0.143865 0.843524
vt 0.143865 0.843524
vt 0.161029 0.892395
vt 0.161029 0.892395
vt 0.349153 0.965571
vt 0.277189 0.965571
vt 0.277189 0.965571
vt 0.349153 0.965571
vt 0.174614 0.839997
vt 0.157531 0.841956
vt 0.164177 0.890444
vt 0.147281 0.843132
vt 0.394444 0.952022
vt 0.228783 0.951311
vt 0.460612 0.890444
vt 0.477507 0.843132
vt 0.228783 0.951311
vt 0.189192 0.922607
vt 0.477507 0.843132
vt 0.460612 0.890444
vt 0.435597 0.922607
vt 0.147281 0.843132
vt 0.164177 0.890444
vt 0.189192 0.922607
vt 0.394444 0.952022
vt 0.435597 0.922607
vt 0.345580 0.954774
vt 0.280762 0.954774
vt 0.339626 0.936779
vt 0.286716 0.936779
vt 0.280762 0.954774
vt 0.345580 0.954774
vt 0.286716 0.936779
vt 0.339626 0.936779
vt 0.173619 0.884590
vt 0.189356 0.874833
vt 0.389390 0.941084
vt 0.380968 0.922854
vt 0.233836 0.940373
vt 0.242258 0.922142
vt 0.451170 0.884590
vt 0.467258 0.841956
vt 0.435433 0.874833
vt 0.450175 0.839997
vt 0.233836 0.940373
vt 0.242258 0.922142
vt 0.196440 0.914211
vt 0.208519 0.900218
vt 0.467258 0.841956
vt 0.451170 0.884590
vt 0.450175 0.839997
vt 0.435433 0.874833
vt 0.428349 0.914211
vt 0.416270 0.900218
vt 0.157531 0.841956
vt 0.173619 0.884590
vt 0.174614 0.839997
vt 0.189356 0.874833
vt 0.196440 0.914211
vt 0.208519 0.900218
vt 0.389390 0.941084
vt 0.380968 0.922854
vt 0.428349 0.914211
vt 0.416270 0.900218
vt 0.663729 0.796977
vt 0.613758 0.796977
vt 0.573331 0.826349
vt 0.557889 0.873874
vt 0.573331 0.921400
vt 0.613758 0.950772
vt 0.663729 0.950772
vt 0.704157 0.921400
vt 0.719598 0.873874
vt 0.704157 0.826349
vt 0.748164 0.873874
vt 0.727266 0.938190
vt 0.727266 0.938190
vt 0.748164 0.873874
vt 0.672556 0.977939
vt 0.672556 0.977939
vt 0.604931 0.977939
vt 0.604931 0.977939
vt 0.550221 0.938190
vt 0.550221 0.938190
vt 0.529323 0.873874
vt 0.529323 0.873874
vt 0.550221 0.809559
vt 0.550221 0.809559
vt 0.604931 0.769810
vt 0.604931 0.769810
vt 0.672556 0.769810
vt 0.672556 0.769810
vt 0.727266 0.809559
vt 0.727266 0.809559
vt 0.735468 0.873874
vt 0.716995 0.930728
vt 0.668633 0.965865
vt 0.608854 0.965865
vt 0.560492 0.930728
vt 0.542019 0.873874
vt 0.560492 0.817021
vt 0.608854 0.781884
vt 0.668633 0.781884
vt 0.716995 0.817021
vt 0.744990 0.873874
vt 0.724699 0.936324
vt 0.671576 0.974920
vt 0.605912 0.974920
vt 0.552789 0.936324
vt 0.532497 0.873874
vt 0.552789 0.811424
vt 0.605912 0.772828
vt 0.671576 0.772828
vt 0.724699 0.811424
vt 0.067510 0.976355
vt 0.044831 0.976355
vt 0.026484 0.976355
vt 0.019476 0.976355
vt 0.026484 0.976355
vt 0.044831 0.976355
vt 0.067510 0.976355
vt 0.085857 0.976355
vt 0.092865 0.976355
vt 0.085857 0.976355
vt 0.085857 0.976355
vt 0.085857 0.685690
vt 0.092865 0.685690
vt 0.092865 0.976355
vt 0.067510 0.976355
vt 0.067510 0.685690
vt 0.044831 0.976355
vt 0.044831 0.685690
vt 0.026484 0.976355
vt 0.026484 0.685690
vt 0.019476 0.976355
vt 0.019476 0.685690
vt 0.026484 0.976355
vt 0.026484 0.685690
vt 0.044831 0.976355
vt 0.044831 0.685690
vt 0.067510 0.976355
vt 0.067510 0.685690
vt 0.085857 0.976355
vt 0.085857 0.685690
vt 0.092865 0.243373
vt 0.085857 0.243373
vt 0.067510 0.243373
vt 0.044831 0.243373
vt 0.026484 0.243373
vt 0.019476 0.243373
vt 0.026484 0.243373
vt 0.044831 0.243373
vt 0.067510 0.243373
vt 0.085857 0.243373
vt 0.900197 0.221588
vt 0.900197 0.241748
vt 0.900197 0.294527
vt 0.900197 0.359767
vt 0.900197 0.412546
vt 0.900197 0.432706
vt 0.900197 0.412546
vt 0.900197 0.359767
vt 0.900197 0.294527
vt 0.900197 0.241748
vt 0.649387 0.238800
vt 0.649387 0.217944
vt 0.894214 0.217944
vt 0.894214 0.238800
vt 0.649387 0.293401
vt 0.894214 0.293401
vt 0.649387 0.360893
vt 0.894214 0.360893
vt 0.649387 0.415494
vt 0.894214 0.415494
vt 0.649387 0.436350
vt 0.894214 0.436350
vt 0.649387 0.415494
vt 0.894214 0.415494
vt 0.649387 0.360893
vt 0.894214 0.360893
vt 0.649387 0.293401
vt 0.894214 0.293401
vt 0.649387 0.238800
vt 0.894214 0.238800
vt 0.609633 0.302658
vt 0.609633 0.263033
vt 0.609633 0.247898
vt 0.609633 0.263033
vt 0.609633 0.302658
vt 0.609633 0.351636
vt 0.609633 0.391261
vt 0.609633 0.406396
vt 0.609633 0.391261
vt 0.609633 0.351636
vt 0.628095 0.241492
vt 0.628095 0.221272
vt 0.628095 0.294430
vt 0.628095 0.359864
vt 0.628095 0.412802
vt 0.628095 0.433022
vt 0.628095 0.412802
vt 0.628095 0.359864
vt 0.628095 0.294430
vt 0.628095 0.241492
vt 0.613211 0.249570
vt 0.613211 0.231257
vt 0.613211 0.297515
vt 0.613211 0.356779
vt 0.613211 0.404724
vt 0.613211 0.423037
vt 0.613211 0.404724
vt 0.613211 0.356779
vt 0.613211 0.297515
vt 0.613211 0.249570
vt 0.900197 0.241748
vt 0.900197 0.294527
vt 0.900197 0.221588
vt 0.900197 0.241748
vt 0.900197 0.294527
vt 0.900197 0.359767
vt 0.900197 0.412546
vt 0.900197 0.432706
vt 0.900197 0.412546
vt 0.900197 0.359767
vt 0.605743 0.180603
vt 0.697170 0.180603
vt 0.810180 0.180603
vt 0.901607 0.180603
vt 0.936530 0.180603
vt 0.901607 0.180603
vt 0.810180 0.180603
vt 0.697170 0.180603
vt 0.605743 0.180603
vt 0.570821 0.180603
vt 0.942841 0.177598
vt 0.906714 0.177598
vt 0.906714 0.054626
vt 0.942841 0.054626
vt 0.812131 0.177598
vt 0.812131 0.054626
vt 0.695219 0.177598
vt 0.695219 0.054626
vt 0.600637 0.177598
vt 0.600637 0.054626
vt 0.564509 0.177598
vt 0.564509 0.054626
vt 0.600637 0.177598
vt 0.600637 0.054626
vt 0.695219 0.177598
vt 0.695219 0.054626
vt 0.812131 0.177598
vt 0.812131 0.054626
vt 0.906714 0.177598
vt 0.906714 0.054626
vt 0.642614 0.034658
vt 0.616396 0.034658
vt 0.642614 0.034658
vt 0.711254 0.034658
vt 0.796097 0.034658
vt 0.864736 0.034658
vt 0.890954 0.034658
vt 0.864736 0.034658
vt 0.796097 0.034658
vt 0.711254 0.034658
vt 0.937076 0.043931
vt 0.902050 0.043931
vt 0.810349 0.043931
vt 0.697001 0.043931
vt 0.605301 0.043931
vt 0.570274 0.043931
vt 0.605301 0.043931
vt 0.697001 0.043931
vt 0.810349 0.043931
vt 0.902050 0.043931
vt 0.919780 0.036455
vt 0.888057 0.036455
vt 0.805004 0.036455
vt 0.702346 0.036455
vt 0.619293 0.036455
vt 0.587570 0.036455
vt 0.619293 0.036455
vt 0.702346 0.036455
vt 0.805004 0.036455
vt 0.888057 0.036455
vt 0.810180 0.180603
vt 0.901607 0.180603
vt 0.936530 0.180603
vt 0.901607 0.180603
vt 0.810180 0.180603
vt 0.697170 0.180603
vt 0.605743 0.180603
vt 0.564509 0.177598
vt 0.570821 0.180603
vt 0.605743 0.180603
vt 0.697170 0.180603
vt 0.903448 0.539172
vt 0.853477 0.539172
vt 0.813050 0.568544
vt 0.797608 0.616069
vt 0.813050 0.663594
vt 0.853477 0.692966
vt 0.903448 0.692966
vt 0.943876 0.663594
vt 0.959317 0.616069
vt 0.943876 0.568544
vt 0.987883 0.616069
vt 0.966985 0.680385
vt 0.966985 0.680385
vt 0.987883 0.616069
vt 0.912275 0.720134
vt 0.912275 0.720134
vt 0.844650 0.720134
vt 0.844650 0.720134
vt 0.789940 0.680385
vt 0.789940 0.680385
vt 0.769043 0.616069
vt 0.769043 0.616069
vt 0.789940 0.551754
vt 0.789940 0.551754
vt 0.844650 0.512004
vt 0.844650 0.512004
vt 0.912275 0.512004
vt 0.912275 0.512004
vt 0.966985 0.551754
vt 0.966985 0.551754
vt 0.975187 0.616069
vt 0.956714 0.672922
vt 0.908352 0.708060
vt 0.848573 0.708060
vt 0.800211 0.672922
vt 0.781738 0.616069
vt 0.800211 0.559216
vt 0.848573 0.524079
vt 0.908352 0.524079
vt 0.956714 0.559216
vt 0.984709 0.616069
vt 0.964418 0.678519
vt 0.911295 0.717115
vt 0.845631 0.717115
vt 0.792508 0.678519
vt 0.772216 0.616069
vt 0.792508 0.553619
vt 0.845631 0.515023
vt 0.911295 0.515023
vt 0.964418 0.553619
vt 0.664784 0.537106
vt 0.614813 0.537106
vt 0.574386 0.566478
vt 0.558944 0.614004
vt 0.574386 0.661529
vt 0.614813 0.690901
vt 0.664784 0.690901
vt 0.705212 0.661529
vt 0.720654 0.614004
vt 0.705212 0.566478
vt 0.749219 0.614004
vt 0.728322 0.678319
vt 0.728322 0.678319
vt 0.749219 0.614004
vt 0.673612 0.718068
vt 0.673612 0.718068
vt 0.605986 0.718068
vt 0.605986 0.718068
vt 0.551276 0.678319
vt 0.551276 0.678319
vt 0.530379 0.614004
vt 0.530379 0.614004
vt 0.551276 0.549688
vt 0.551276 0.549688
vt 0.605986 0.509939
vt 0.605986 0.509939
vt 0.673612 0.509939
vt 0.673612 0.509939
vt 0.728322 0.549688
vt 0.728322 0.549688
vt 0.736523 0.614004
vt 0.718051 0.670857
vt 0.669689 0.705994
vt 0.609910 0.705994
vt 0.561547 0.670857
vt 0.543075 0.614004
vt 0.561547 0.557150
vt 0.609910 0.522013
vt 0.669689 0.522013
vt 0.718051 0.557150
vt 0.746045 0.614004
vt 0.725754 0.676453
vt 0.672631 0.715050
vt 0.606967 0.715050
vt 0.553844 0.676453
vt 0.533553 0.614004
vt 0.553844 0.551554
vt 0.606967 0.512957
vt 0.672631 0.512957
vt 0.725754 0.551554
vn 0.034726 -0.106874 -0.993666
vn -0.034726 -0.106874 -0.993666
vn -0.090913 -0.066052 -0.993666
vn -0.112374 0.000000 -0.993666
vn -0.090913 0.066052 -0.993666
vn -0.034726 0.106874 -0.993666
vn 0.034726 0.106874 -0.993666
vn 0.090913 0.066052 -0.993666
vn 0.112374 0.000000 -0.993666
vn 0.090913 -0.066052 -0.993666
vn 0.994844 0.000000 -0.101417
vn 0.804846 0.584755 -0.101416
vn 0.619112 0.449811 0.643717
vn 0.765264 0.000000 0.643717
vn 0.307424 0.946153 -0.101416
vn 0.236480 0.727809 0.643717
vn -0.307424 0.946153 -0.101416
vn -0.236480 0.727809 0.643717
vn -0.804846 0.584755 -0.101416
vn -0.619112 0.449811 0.643717
vn -0.994844 0.000000 -0.101417
vn -0.765264 0.000000 0.643717
vn -0.804846 -0.584755 -0.101416
vn -0.619111 -0.449811 0.643717
vn -0.307424 -0.946153 -0.101416
vn -0.236480 -0.727809 0.643717
vn 0.307424 -0.946153 -0.101416
vn 0.236480 -0.727809 0.643717
vn 0.804846 -0.584755 -0.101416
vn 0.619112 -0.449811 0.643717
vn 0.498845 0.000000 -0.866691
vn 0.403574 0.293214 -0.866691
vn 0.154151 0.474430 -0.866691
vn -0.154152 0.474429 -0.866692
vn -0.403574 0.293214 -0.866691
vn -0.498845 0.000000 -0.866691
vn -0.403574 -0.293214 -0.866691
vn -0.154152 -0.474430 -0.866692
vn 0.154152 -0.474429 -0.866692
vn 0.403574 -0.293213 -0.866691
vn 0.885925 0.000000 -0.463828
vn 0.716729 0.520734 -0.463828
vn 0.273766 0.842565 -0.463828
vn -0.273766 0.842565 -0.463828
vn -0.716729 0.520734 -0.463828
vn -0.885925 0.000000 -0.463828
vn -0.716728 -0.520734 -0.463828
vn -0.273766 -0.842565 -0.463828
vn 0.273766 -0.842565 -0.463828
vn 0.716729 -0.520734 -0.463828
vn -0.141733 -0.986924 -0.076766
vn 0.144314 -0.986502 -0.077375
vn 0.143659 -0.986644 0.076789
vn -0.142357 -0.986791 0.077318
vn 0.439493 -0.894519 0.081738
vn 0.438886 -0.894765 -0.082304
vn -0.440727 -0.893911 -0.081750
vn -0.440151 -0.894146 0.082284
vn 0.691207 -0.718555 -0.076891
vn 0.691207 -0.718555 0.076889
vn 0.983172 -0.168139 0.071429
vn 0.874807 -0.478475 0.075991
vn 0.874428 -0.479285 -0.075240
vn 0.983375 -0.167265 -0.070675
vn -0.693628 -0.716218 0.076888
vn -0.693628 -0.716218 -0.076890
vn -0.983172 -0.168138 -0.071430
vn -0.874808 -0.478474 -0.075992
vn -0.874428 -0.479285 0.075240
vn -0.983376 -0.167265 0.070675
vn 0.137295 -0.910104 -0.390974
vn -0.133012 -0.911179 -0.389950
vn -0.135306 -0.910440 0.390886
vn 0.134876 -0.910895 0.389974
vn -0.809112 -0.444085 -0.384872
vn -0.916527 -0.160362 -0.366419
vn 0.401769 -0.820052 -0.407549
vn -0.402882 -0.819654 0.407251
vn 0.809111 -0.444086 0.384873
vn 0.916526 -0.160363 0.366420
vn -0.405024 -0.818946 -0.406551
vn -0.638660 -0.664185 -0.388550
vn 0.917563 -0.157007 -0.365277
vn 0.807846 -0.447327 -0.383776
vn 0.636483 -0.666356 -0.388405
vn -0.917563 -0.157007 0.365277
vn -0.807846 -0.447327 0.383776
vn -0.638659 -0.664187 0.388548
vn 0.404039 -0.819309 0.406800
vn 0.636483 -0.666358 0.388403
vn 0.083372 -0.561669 -0.823151
vn -0.079087 -0.561942 -0.823387
vn 0.019795 -0.136448 -0.990449
vn -0.018190 -0.135912 -0.990554
vn -0.081896 -0.561725 0.823260
vn 0.080385 -0.561895 0.823293
vn -0.019311 -0.136330 0.990475
vn 0.018591 -0.135999 0.990535
vn -0.502475 -0.276117 -0.819316
vn -0.586378 -0.109986 -0.802536
vn -0.120557 -0.067009 -0.990442
vn -0.149395 -0.032301 -0.988250
vn 0.241876 -0.493368 -0.835515
vn 0.056029 -0.114784 -0.991809
vn -0.242723 -0.493762 0.835036
vn -0.056256 -0.115155 0.991753
vn 0.502474 -0.276117 0.819316
vn 0.586377 -0.109986 0.802537
vn 0.120558 -0.067011 0.990442
vn 0.149397 -0.032302 0.988250
vn -0.245036 -0.492055 -0.835367
vn -0.056917 -0.114038 -0.991845
vn -0.394221 -0.412852 -0.821062
vn -0.096048 -0.102068 -0.990130
vn 0.586485 -0.104719 -0.803162
vn 0.499338 -0.280092 -0.819884
vn 0.148034 -0.029050 -0.988556
vn 0.117941 -0.068245 -0.990673
vn 0.393114 -0.414466 -0.820779
vn 0.095859 -0.102549 -0.990098
vn -0.586487 -0.104718 0.803161
vn -0.499339 -0.280092 0.819883
vn -0.148037 -0.029051 0.988555
vn -0.117942 -0.068247 0.990673
vn -0.394221 -0.412852 0.821062
vn -0.096049 -0.102069 0.990130
vn 0.244322 -0.491550 0.835874
vn 0.056719 -0.113591 0.991907
vn 0.393114 -0.414467 0.820780
vn 0.095860 -0.102551 0.990098
vn -0.141732 0.986924 -0.076768
vn -0.142357 0.986791 0.077316
vn 0.143659 0.986644 0.076788
vn 0.144314 0.986502 -0.077379
vn 0.439494 0.894519 0.081740
vn 0.438888 0.894764 -0.082303
vn -0.440727 0.893911 -0.081751
vn -0.440151 0.894146 0.082279
vn 0.691207 0.718555 -0.076890
vn 0.691207 0.718554 0.076892
vn 0.983172 0.168138 0.071430
vn 0.983376 0.167265 -0.070675
vn 0.874429 0.479284 -0.075239
vn 0.874808 0.478473 0.075991
vn -0.693629 0.716217 0.076890
vn -0.693628 0.716218 -0.076889
vn -0.983172 0.168138 -0.071430
vn -0.983376 0.167265 0.070675
vn -0.874429 0.479284 0.075240
vn -0.874808 0.478474 -0.075991
vn 0.137294 0.910104 -0.390974
vn -0.133011 0.911180 -0.389947
vn -0.135305 0.910440 0.390885
vn 0.134877 0.910895 0.389973
vn -0.149394 0.032301 -0.988250
vn -0.586379 0.109987 -0.802536
vn -0.809112 0.444086 -0.384870
vn -0.916527 0.160361 -0.366418
vn 0.401770 0.820052 -0.407549
vn -0.402883 0.819654 0.407250
vn 0.809112 0.444085 0.384872
vn 0.916527 0.160361 0.366418
vn -0.405024 0.818946 -0.406551
vn -0.638661 0.664187 -0.388547
vn 0.917564 0.157006 -0.365274
vn 0.807847 0.447327 -0.383773
vn 0.636484 0.666358 -0.388402
vn -0.917563 0.157006 0.365276
vn -0.807846 0.447326 0.383775
vn -0.638661 0.664184 0.388550
vn 0.404041 0.819308 0.406799
vn 0.636484 0.666356 0.388405
vn 0.083373 0.561672 -0.823148
vn -0.079086 0.561946 -0.823385
vn 0.019796 0.136449 -0.990449
vn -0.018190 0.135912 -0.990554
vn -0.081896 0.561726 0.823260
vn 0.080386 0.561897 0.823292
vn -0.019311 0.136330 0.990475
vn 0.018591 0.135998 0.990535
vn -0.502475 0.276118 -0.819316
vn -0.120556 0.067010 -0.990442
vn 0.241875 0.493367 -0.835515
vn 0.056029 0.114783 -0.991809
vn -0.242723 0.493759 0.835037
vn -0.056256 0.115156 0.991753
vn 0.502476 0.276117 0.819315
vn 0.586381 0.109987 0.802534
vn 0.120558 0.067010 0.990442
vn 0.149397 0.032302 0.988250
vn -0.245036 0.492053 -0.835369
vn -0.056917 0.114036 -0.991845
vn -0.394222 0.412855 -0.821060
vn -0.096049 0.102070 -0.990130
vn 0.586488 0.104719 -0.803160
vn 0.499339 0.280093 -0.819883
vn 0.148033 0.029050 -0.988556
vn 0.117938 0.068245 -0.990673
vn 0.393115 0.414469 -0.820778
vn 0.095857 0.102548 -0.990099
vn -0.586489 0.104719 0.803159
vn -0.499340 0.280093 0.819883
vn -0.148038 0.029050 0.988555
vn -0.117946 0.068248 0.990672
vn -0.394223 0.412854 0.821060
vn -0.096049 0.102070 0.990130
vn 0.244324 0.491552 0.835872
vn 0.056719 0.113589 0.991908
vn 0.393116 0.414468 0.820778
vn 0.095857 0.102547 0.990099
vn 0.034726 -0.106874 -0.993666
vn -0.034726 -0.106874 -0.993666
vn -0.090913 -0.066052 -0.993666
vn -0.112374 0.000000 -0.993666
vn -0.090913 0.066052 -0.993666
vn -0.034725 0.106874 -0.993666
vn 0.034726 0.106874 -0.993666
vn 0.090913 0.066052 -0.993666
vn 0.112374 0.000000 -0.993666
vn 0.090913 -0.066052 -0.993666
vn 0.994844 0.000000 -0.101417
vn 0.804846 0.584755 -0.101416
vn 0.619112 0.449811 0.643717
vn 0.765264 0.000000 0.643717
vn 0.307424 0.946153 -0.101416
vn 0.236480 0.727809 0.643717
vn -0.307424 0.946153 -0.101416
vn -0.236480 0.727809 0.643717
vn -0.804846 0.584755 -0.101416
vn -0.619112 0.449811 0.643717
vn -0.994844 0.000000 -0.101417
vn -0.765264 0.000000 0.643717
vn -0.804846 -0.584755 -0.101416
vn -0.619112 -0.449811 0.643717
vn -0.307424 -0.946153 -0.101416
vn -0.236480 -0.727809 0.643717
vn 0.307424 -0.946153 -0.101416
vn 0.236480 -0.727809 0.643717
vn 0.804846 -0.584755 -0.101416
vn 0.619112 -0.449811 0.643717
vn 0.498845 0.000000 -0.866691
vn 0.403574 0.293214 -0.866691
vn 0.154152 0.474429 -0.866692
vn -0.154152 0.474429 -0.866691
vn -0.403574 0.293214 -0.866691
vn -0.498845 0.000000 -0.866692
vn -0.403574 -0.293214 -0.866691
vn -0.154152 -0.474429 -0.866692
vn 0.154152 -0.474429 -0.866692
vn 0.403574 -0.293213 -0.866691
vn 0.885925 0.000000 -0.463828
vn 0.716729 0.520734 -0.463828
vn 0.273766 0.842565 -0.463828
vn -0.273766 0.842565 -0.463828
vn -0.716729 0.520734 -0.463828
vn -0.885925 0.000000 -0.463828
vn -0.716729 -0.520734 -0.463828
vn -0.273766 -0.842565 -0.463828
vn 0.273766 -0.842565 -0.463828
vn 0.716729 -0.520734 -0.463828
vn 0.000000 1.000000 0.000000
vn 0.000000 1.000000 0.000000
vn 0.000000 1.000000 0.000000
vn 0.000000 1.000000 0.000000
vn 0.000000 1.000000 0.000000
vn 0.000000 1.000000 0.000000
vn 0.000000 1.000000 0.000000
vn 0.000000 1.000000 0.000000
vn 0.000000 1.000000 0.000000
vn 0.000000 1.000000 0.000000
vn 0.829718 0.000000 0.558183
vn 0.829718 0.000000 0.558182
vn 1.000000 0.000000 0.000000
vn 1.000000 0.000000 0.000000
vn 0.330585 0.000000 0.943776
vn 0.330586 0.000000 0.943776
vn -0.330586 0.000000 0.943776
vn -0.330586 0.000000 0.943776
vn -0.829718 0.000000 0.558183
vn -0.829718 0.000000 0.558182
vn -1.000000 0.000000 0.000000
vn -1.000000 0.000000 0.000000
vn -0.829718 0.000000 -0.558182
vn -0.829718 0.000000 -0.558182
vn -0.330586 0.000000 -0.943776
vn -0.330586 0.000000 -0.943776
vn 0.330586 0.000000 -0.943776
vn 0.330586 0.000000 -0.943776
vn 0.829719 0.000000 -0.558182
vn 0.829718 0.000000 -0.558182
vn 0.761201 -0.648516 0.000001
vn 0.633781 -0.645393 0.426368
vn 0.254092 -0.639717 0.725397
vn -0.254092 -0.639717 0.725396
vn -0.633781 -0.645393 0.426368
vn -0.761202 -0.648515 0.000000
vn -0.633781 -0.645393 -0.426368
vn -0.254092 -0.639718 -0.725396
vn 0.254092 -0.639717 -0.725396
vn 0.633781 -0.645393 -0.426367
vn 0.000000 1.000000 0.000000
vn 0.000000 1.000000 0.000000
vn 0.000000 1.000000 0.000000
vn 0.000000 1.000000 0.000000
vn 0.000000 1.000000 0.000000
vn 0.000000 1.000000 0.000000
vn 0.000000 1.000000 0.000000
vn 0.000000 1.000000 0.000000
vn 0.000000 1.000000 0.000000
vn 0.000000 1.000000 0.000000
vn 0.826495 -0.078699 0.557415
vn 0.997078 -0.076394 0.000001
vn 0.966083 0.258232 0.000001
vn 0.798616 0.263851 0.540921
vn 0.328690 -0.082739 0.940807
vn 0.316105 0.273113 0.908563
vn -0.328690 -0.082740 0.940807
vn -0.316105 0.273114 0.908563
vn -0.826496 -0.078701 0.557415
vn -0.798616 0.263855 0.540920
vn -0.997078 -0.076393 0.000000
vn -0.966083 0.258230 0.000000
vn -0.826496 -0.078699 -0.557415
vn -0.798614 0.263861 -0.540918
vn -0.328690 -0.082740 -0.940807
vn -0.316105 0.273123 -0.908560
vn 0.328690 -0.082739 -0.940807
vn 0.316104 0.273122 -0.908561
vn 0.826496 -0.078698 -0.557415
vn 0.798615 0.263860 -0.540918
vn 0.040655 -0.993010 -0.110804
vn 0.102952 -0.992485 -0.066143
vn 0.124742 -0.992189 0.000000
vn 0.102952 -0.992485 0.066144
vn 0.040655 -0.993010 0.110804
vn -0.040656 -0.993010 0.110804
vn -0.102952 -0.992485 0.066144
vn -0.124741 -0.992189 0.000000
vn -0.102952 -0.992485 -0.066143
vn -0.040656 -0.993010 -0.110804
vn 0.773301 -0.359637 0.522175
vn 0.936090 -0.351762 0.000001
vn 0.305812 -0.372841 0.876053
vn -0.305812 -0.372841 0.876053
vn -0.773301 -0.359638 0.522175
vn -0.936090 -0.351761 0.000000
vn -0.773300 -0.359638 -0.522175
vn -0.305811 -0.372844 -0.876052
vn 0.305813 -0.372843 -0.876052
vn 0.773302 -0.359637 -0.522175
vn 0.499022 -0.801036 0.330634
vn 0.604554 -0.796564 0.000001
vn 0.197411 -0.808597 0.554256
vn -0.197411 -0.808597 0.554256
vn -0.499022 -0.801036 0.330634
vn -0.604554 -0.796565 0.000000
vn -0.499021 -0.801037 -0.330633
vn -0.197411 -0.808598 -0.554254
vn 0.197410 -0.808599 -0.554254
vn 0.499021 -0.801037 -0.330633
vn 0.707269 0.531769 0.465824
vn 0.281013 0.552473 0.784733
vn 0.854064 0.520169 0.000000
vn 0.707261 0.531785 -0.465818
vn 0.281009 0.552490 -0.784722
vn -0.281007 0.552492 -0.784721
vn -0.707260 0.531786 -0.465818
vn -0.854066 0.520164 0.000000
vn -0.707265 0.531776 0.465822
vn -0.281010 0.552475 0.784732
vn 0.000000 1.000000 0.000000
vn 0.000000 1.000000 0.000000
vn 0.000000 1.000000 0.000000
vn 0.000000 1.000000 0.000000
vn 0.000000 1.000000 0.000000
vn 0.000000 1.000000 0.000000
vn 0.000000 1.000000 0.000000
vn 0.000000 1.000000 0.000000
vn 0.000000 1.000000 0.000000
vn 0.000000 1.000000 0.000000
vn 0.869199 0.494463 0.000001
vn 0.718557 0.496960 0.486525
vn 0.803798 -0.240270 0.544224
vn 0.972036 -0.234833 0.000001
vn 0.284698 0.500313 0.817701
vn 0.318318 -0.249317 0.914612
vn -0.284698 0.500312 0.817701
vn -0.318318 -0.249317 0.914612
vn -0.718557 0.496961 0.486525
vn -0.803798 -0.240269 0.544224
vn -1.000000 0.000000 0.000000
vn -0.972037 -0.234826 0.000000
vn -0.718553 0.496971 -0.486521
vn -0.803798 -0.240269 -0.544225
vn -0.284695 0.500331 -0.817690
vn -0.318318 -0.249313 -0.914613
vn 0.284695 0.500331 -0.817690
vn 0.318316 -0.249310 -0.914614
vn 0.718552 0.496973 -0.486520
vn 0.803798 -0.240268 -0.544224
vn -0.030372 -0.999349 0.019488
vn -0.036811 -0.999322 -0.000002
vn -0.030366 -0.999349 -0.019486
vn -0.011982 -0.999396 -0.032617
vn 0.011982 -0.999396 -0.032617
vn 0.030367 -0.999349 -0.019486
vn 0.036813 -0.999322 -0.000001
vn 0.030372 -0.999349 0.019487
vn 0.011984 -0.999396 0.032623
vn -0.011984 -0.999396 0.032624
vn 0.705840 -0.708372 0.000001
vn 0.581452 -0.715049 0.388096
vn 0.229186 -0.726117 0.648250
vn -0.229186 -0.726117 0.648250
vn -0.581452 -0.715048 0.388097
vn -0.705845 -0.708366 0.000000
vn -0.581452 -0.715049 -0.388097
vn -0.229187 -0.726115 -0.648252
vn 0.229191 -0.726113 -0.648253
vn 0.581452 -0.715049 -0.388096
vn 0.262267 -0.964995 0.000000
vn 0.215720 -0.966362 0.140037
vn 0.084749 -0.968726 0.233211
vn -0.084749 -0.968726 0.233212
vn -0.215720 -0.966362 0.140037
vn -0.262268 -0.964995 0.000000
vn -0.215715 -0.966363 -0.140035
vn -0.084747 -0.968728 -0.233206
vn 0.084746 -0.968728 -0.233205
vn 0.215715 -0.966363 -0.140034
vn 0.137570 0.916128 0.376543
vn 0.352467 0.907757 0.227475
vn 0.429799 0.902924 0.000001
vn 0.352440 0.907771 -0.227459
vn 0.137555 0.916148 -0.376499
vn -0.137556 0.916148 -0.376499
vn -0.352447 0.907768 -0.227461
vn -0.429808 0.902920 0.000000
vn -0.429809 0.902920 0.000000
vn -0.352466 0.907757 0.227476
vn -0.137571 0.916128 0.376543
vn 0.034725 -0.106874 -0.993666
vn -0.034725 -0.106874 -0.993666
vn -0.090912 -0.066052 -0.993666
vn -0.112374 0.000000 -0.993666
vn -0.090913 0.066052 -0.993666
vn -0.034725 0.106874 -0.993666
vn 0.034725 0.106874 -0.993666
vn 0.090913 0.066052 -0.993666
vn 0.112374 0.000000 -0.993666
vn 0.090912 -0.066052 -0.993666
vn 0.994844 0.000000 -0.101417
vn 0.804846 0.584755 -0.101416
vn 0.619111 0.449811 0.643717
vn 0.765264 0.000000 0.643717
vn 0.307424 0.946153 -0.101417
vn 0.236480 0.727809 0.643717
vn -0.307424 0.946153 -0.101417
vn -0.236480 0.727809 0.643717
vn -0.804846 0.584755 -0.101417
vn -0.619111 0.449811 0.643717
vn -0.994844 0.000000 -0.101417
vn -0.765264 0.000000 0.643717
vn -0.804846 -0.584755 -0.101416
vn -0.619112 -0.449811 0.643717
vn -0.307424 -0.946153 -0.101417
vn -0.236480 -0.727809 0.643717
vn 0.307424 -0.946153 -0.101417
vn 0.236480 -0.727809 0.643717
vn 0.804846 -0.584755 -0.101417
vn 0.619112 -0.449811 0.643717
vn 0.498844 0.000000 -0.866692
vn 0.403574 0.293213 -0.866692
vn 0.154151 0.474429 -0.866692
vn -0.154152 0.474429 -0.866692
vn -0.403574 0.293213 -0.866692
vn -0.498844 0.000000 -0.866692
vn -0.403574 -0.293213 -0.866692
vn -0.154151 -0.474430 -0.866692
vn 0.154152 -0.474429 -0.866692
vn 0.403574 -0.293213 -0.866692
vn 0.885925 0.000000 -0.463828
vn 0.716728 0.520734 -0.463828
vn 0.273766 0.842565 -0.463828
vn -0.273766 0.842565 -0.463828
vn -0.716728 0.520734 -0.463829
vn -0.885925 0.000000 -0.463828
vn -0.716728 -0.520734 -0.463828
vn -0.273766 -0.842565 -0.463828
vn 0.273766 -0.842565 -0.463828
vn 0.716729 -0.520734 -0.463828
vn 0.034726 -0.106875 -0.993666
vn -0.034726 -0.106875 -0.993666
vn -0.090913 -0.066052 -0.993666
vn -0.112375 0.000000 -0.993666
vn -0.090913 0.066052 -0.993666
vn -0.034726 0.106874 -0.993666
vn 0.034726 0.106874 -0.993666
vn 0.090913 0.066052 -0.993666
vn 0.112375 0.000000 -0.993666
vn 0.090913 -0.066052 -0.993666
vn 0.994844 0.000000 -0.101417
vn 0.804846 0.584755 -0.101417
vn 0.619111 0.449811 0.643717
vn 0.765264 0.000000 0.643717
vn 0.307424 0.946153 -0.101416
vn 0.236480 0.727809 0.643717
vn -0.307424 0.946153 -0.101416
vn -0.236480 0.727810 0.643716
vn -0.804846 0.584755 -0.101416
vn -0.619112 0.449811 0.643717
vn -0.994844 0.000000 -0.101416
vn -0.765264 0.000000 0.643717
vn -0.804846 -0.584755 -0.101416
vn -0.619112 -0.449811 0.643717
vn -0.307424 -0.946153 -0.101416
vn -0.236480 -0.727809 0.643717
vn 0.307424 -0.946153 -0.101416
vn 0.236480 -0.727809 0.643717
vn 0.804846 -0.584755 -0.101416
vn 0.619112 -0.449811 0.643717
vn 0.498845 0.000000 -0.866692
vn 0.403574 0.293214 -0.866691
vn 0.154152 0.474430 -0.866691
vn -0.154152 0.474430 -0.866691
vn -0.403574 0.293214 -0.866691
vn -0.498845 0.000000 -0.866691
vn -0.403574 -0.293214 -0.866691
vn -0.154151 -0.474430 -0.866691
vn 0.154152 -0.474430 -0.866691
vn 0.403574 -0.293214 -0.866691
vn 0.885925 0.000000 -0.463828
vn 0.716729 0.520734 -0.463828
vn 0.273766 0.842565 -0.463828
vn -0.273766 0.842565 -0.463828
vn -0.716729 0.520734 -0.463828
vn -0.885925 0.000000 -0.463828
vn -0.716729 -0.520734 -0.463828
vn -0.273766 -0.842565 -0.463828
vn 0.273766 -0.842565 -0.463828
vn 0.716729 -0.520734 -0.463828
s 1
f 1/1/1 2/2/2 3/3/3
f 3/3/3 4/4/4 5/5/5
f 5/5/5 6/6/6 7/7/7
f 7/7/7 8/8/8 9/9/9
f 5/5/5 7/7/7 9/9/9
f 3/3/3 5/5/5 9/9/9
f 1/1/1 3/3/3 9/9/9
f 10/10/10 1/1/1 9/9/9
f 11/11/11 12/12/12 13/13/13
f 13/13/13 14/14/14 11/11/11
f 12/12/12 15/15/15 16/16/16
f 16/16/16 13/13/13 12/12/12
f 15/15/15 17/17/17 18/18/18
f 18/18/18 16/16/16 15/15/15
f 17/17/17 19/19/19 20/20/20
f 20/20/20 18/18/18 17/17/17
f 19/19/19 21/21/21 22/22/22
f 22/22/22 20/20/20 19/19/19
f 21/21/21 23/23/23 24/24/24
f 24/24/24 22/22/22 21/21/21
f 23/23/23 25/25/25 26/26/26
f 26/26/26 24/24/24 23/23/23
f 25/25/25 27/27/27 28/28/28
f 28/28/28 26/26/26 25/25/25
f 27/27/27 29/29/29 30/30/30
f 30/30/30 28/28/28 27/27/27
f 29/29/29 11/11/11 14/14/14
f 14/14/14 30/30/30 29/29/29
f 14/14/14 13/13/13 16/16/16
f 16/16/16 18/18/18 20/20/20
f 20/20/20 22/22/22 24/24/24
f 24/24/24 26/26/26 28/28/28
f 20/20/20 24/24/24 28/28/28
f 16/16/16 20/20/20 28/28/28
f 14/14/14 16/16/16 28/28/28
f 30/30/30 14/14/14 28/28/28
f 31/31/31 9/9/9 8/8/8
f 8/8/8 32/32/32 31/31/31
f 32/32/32 8/8/8 7/7/7
f 7/7/7 33/33/33 32/32/32
f 33/33/33 7/7/7 6/6/6
f 6/6/6 34/34/34 33/33/33
f 34/34/34 6/6/6 5/5/5
f 5/5/5 35/35/35 34/34/34
f 35/35/35 5/5/5 4/4/4
f 4/4/4 36/36/36 35/35/35
f 36/36/36 4/4/4 3/3/3
f 3/3/3 37/37/37 36/36/36
f 37/37/37 3/3/3 2/2/2
f 2/2/2 38/38/38 37/37/37
f 38/38/38 2/2/2 1/1/1
f 1/1/1 39/39/39 38/38/38
f 39/39/39 1/1/1 10/10/10
f 10/10/10 40/40/40 39/39/39
f 40/40/40 10/10/10 9/9/9
f 9/9/9 31/31/31 40/40/40
f 41/41/41 31/31/31 32/32/32
f 32/32/32 42/42/42 41/41/41
f 11/11/11 41/41/41 42/42/42
f 42/42/42 12/12/12 11/11/11
f 42/42/42 32/32/32 33/33/33
f 33/33/33 43/43/43 42/42/42
f 12/12/12 42/42/42 43/43/43
f 43/43/43 15/15/15 12/12/12
f 43/43/43 33/33/33 34/34/34
f 34/34/34 44/44/44 43/43/43
f 15/15/15 43/43/43 44/44/44
f 44/44/44 17/17/17 15/15/15
f 44/44/44 34/34/34 35/35/35
f 35/35/35 45/45/45 44/44/44
f 17/17/17 44/44/44 45/45/45
f 45/45/45 19/19/19 17/17/17
f 45/45/45 35/35/35 36/36/36
f 36/36/36 46/46/46 45/45/45
f 19/19/19 45/45/45 46/46/46
f 46/46/46 21/21/21 19/19/19
f 46/46/46 36/36/36 37/37/37
f 37/37/37 47/47/47 46/46/46
f 21/21/21 46/46/46 47/47/47
f 47/47/47 23/23/23 21/21/21
f 47/47/47 37/37/37 38/38/38
f 38/38/38 48/48/48 47/47/47
f 23/23/23 47/47/47 48/48/48
f 48/48/48 25/25/25 23/23/23
f 48/48/48 38/38/38 39/39/39
f 39/39/39 49/49/49 48/48/48
f 25/25/25 48/48/48 49/49/49
f 49/49/49 27/27/27 25/25/25
f 49/49/49 39/39/39 40/40/40
f 40/40/40 50/50/50 49/49/49
f 27/27/27 49/49/49 50/50/50
f 50/50/50 29/29/29 27/27/27
f 50/50/50 40/40/40 31/31/31
f 31/31/31 41/41/41 50/50/50
f 29/29/29 50/50/50 41/41/41
f 41/41/41 11/11/11 29/29/29
f 51/51/51 52/52/52 53/53/53
f 53/53/53 54/54/54 51/51/51
f 55/55/55 53/53/53 52/52/52
f 52/52/52 56/56/56 55/55/55
f 57/57/57 51/51/51 54/54/54
f 54/54/54 58/58/58 57/57/57
f 59/59/59 60/60/60 55/55/55
f 55/55/55 56/56/56 59/59/59
f 61/61/61 62/62/62 63/63/63
f 63/63/63 64/64/64 61/61/61
f 65/65/65 66/66/66 57/57/57
f 57/57/57 58/58/58 65/65/65
f 67/67/67 68/68/68 69/69/69
f 69/69/69 70/70/70 67/67/67
f 71/71/71 52/52/52 51/51/51
f 51/51/51 72/72/72 71/71/71
f 73/73/73 54/54/54 53/53/53
f 53/53/53 74/74/74 73/73/73
f 75/75/75 68/68/68 67/67/67
f 67/67/67 76/76/76 75/75/75
f 77/77/77 56/56/56 52/52/52
f 52/52/52 71/71/71 77/77/77
f 78/78/78 58/58/58 54/54/54
f 54/54/54 73/73/73 78/78/78
f 79/79/79 62/62/62 61/61/61
f 61/61/61 80/80/80 79/79/79
f 72/72/72 51/51/51 57/57/57
f 57/57/57 81/81/81 72/72/72
f 75/75/75 82/82/82 66/66/66
f 66/66/66 68/68/68 75/75/75
f 83/83/83 64/64/64 63/63/63
f 63/63/63 84/84/84 83/83/83
f 77/77/77 85/85/85 59/59/59
f 59/59/59 56/56/56 77/77/77
f 86/86/86 70/70/70 69/69/69
f 69/69/69 87/87/87 86/86/86
f 78/78/78 88/88/88 65/65/65
f 65/65/65 58/58/58 78/78/78
f 74/74/74 53/53/53 55/55/55
f 55/55/55 89/89/89 74/74/74
f 79/79/79 90/90/90 60/60/60
f 60/60/60 62/62/62 79/79/79
f 91/91/91 71/71/71 72/72/72
f 72/72/72 92/92/92 91/91/91
f 93/93/93 91/91/91 92/92/92
f 92/92/92 94/94/94 93/93/93
f 95/95/95 73/73/73 74/74/74
f 74/74/74 96/96/96 95/95/95
f 97/97/97 95/95/95 96/96/96
f 96/96/96 98/98/98 97/97/97
f 99/99/99 75/75/75 76/76/76
f 76/76/76 100/100/100 99/99/99
f 101/101/101 99/99/99 100/100/100
f 100/100/100 102/102/102 101/101/101
f 103/103/103 77/77/77 71/71/71
f 71/71/71 91/91/91 103/103/103
f 104/104/104 103/103/103 91/91/91
f 91/91/91 93/93/93 104/104/104
f 105/105/105 78/78/78 73/73/73
f 73/73/73 95/95/95 105/105/105
f 106/106/106 105/105/105 95/95/95
f 95/95/95 97/97/97 106/106/106
f 107/107/107 79/79/79 80/80/80
f 80/80/80 108/108/108 107/107/107
f 109/109/109 107/107/107 108/108/108
f 108/108/108 110/110/110 109/109/109
f 92/92/92 72/72/72 81/81/81
f 81/81/81 111/111/111 92/92/92
f 94/94/94 92/92/92 111/111/111
f 111/111/111 112/112/112 94/94/94
f 99/99/99 113/113/113 82/82/82
f 82/82/82 75/75/75 99/99/99
f 101/101/101 114/114/114 113/113/113
f 113/113/113 99/99/99 101/101/101
f 115/115/115 83/83/83 84/84/84
f 84/84/84 116/116/116 115/115/115
f 117/117/117 115/115/115 116/116/116
f 116/116/116 118/118/118 117/117/117
f 103/103/103 119/119/119 85/85/85
f 85/85/85 77/77/77 103/103/103
f 104/104/104 120/120/120 119/119/119
f 119/119/119 103/103/103 104/104/104
f 121/121/121 86/86/86 87/87/87
f 87/87/87 122/122/122 121/121/121
f 123/123/123 121/121/121 122/122/122
f 122/122/122 124/124/124 123/123/123
f 105/105/105 125/125/125 88/88/88
f 88/88/88 78/78/78 105/105/105
f 106/106/106 126/126/126 125/125/125
f 125/125/125 105/105/105 106/106/106
f 96/96/96 74/74/74 89/89/89
f 89/89/89 127/127/127 96/96/96
f 98/98/98 96/96/96 127/127/127
f 127/127/127 128/128/128 98/98/98
f 107/107/107 129/129/129 90/90/90
f 90/90/90 79/79/79 107/107/107
f 109/109/109 130/130/130 129/129/129
f 129/129/129 107/107/107 109/109/109
f 69/69/69 68/68/68 66/66/66
f 66/66/66 65/65/65 69/69/69
f 81/81/81 57/57/57 66/66/66
f 66/66/66 82/82/82 81/81/81
f 87/87/87 69/69/69 65/65/65
f 65/65/65 88/88/88 87/87/87
f 111/111/111 81/81/81 82/82/82
f 82/82/82 113/113/113 111/111/111
f 112/112/112 111/111/111 113/113/113
f 113/113/113 114/114/114 112/112/112
f 122/122/122 87/87/87 88/88/88
f 88/88/88 125/125/125 122/122/122
f 124/124/124 122/122/122 125/125/125
f 125/125/125 126/126/126 124/124/124
f 63/63/63 62/62/62 60/60/60
f 60/60/60 59/59/59 63/63/63
f 84/84/84 63/63/63 59/59/59
f 59/59/59 85/85/85 84/84/84
f 89/89/89 55/55/55 60/60/60
f 60/60/60 90/90/90 89/89/89
f 116/116/116 84/84/84 85/85/85
f 85/85/85 119/119/119 116/116/116
f 118/118/118 116/116/116 119/119/119
f 119/119/119 120/120/120 118/118/118
f 127/127/127 89/89/89 90/90/90
f 90/90/90 129/129/129 127/127/127
f 128/128/128 127/127/127 129/129/129
f 129/129/129 130/130/130 128/128/128
f 131/131/131 132/132/132 133/133/133
f 133/133/133 134/134/134 131/131/131
f 135/135/135 136/136/136 134/134/134
f 134/134/134 133/133/133 135/135/135
f 137/137/137 138/138/138 132/132/132
f 132/132/132 131/131/131 137/137/137
f 139/139/139 136/136/136 135/135/135
f 135/135/135 140/140/140 139/139/139
f 141/141/141 142/142/142 143/143/143
f 143/143/143 144/144/144 141/141/141
f 145/145/145 138/138/138 137/137/137
f 137/137/137 146/146/146 145/145/145
f 147/147/147 148/148/148 149/149/149
f 149/149/149 150/150/150 147/147/147
f 151/151/151 152/152/152 131/131/131
f 131/131/131 134/134/134 151/151/151
f 153/153/153 154/154/154 133/133/133
f 133/133/133 132/132/132 153/153/153
f 155/155/155 102/102/102 100/100/100
f 100/100/100 156/156/156 155/155/155
f 157/157/157 158/158/158 147/147/147
f 147/147/147 150/150/150 157/157/157
f 159/159/159 151/151/151 134/134/134
f 134/134/134 136/136/136 159/159/159
f 160/160/160 153/153/153 132/132/132
f 132/132/132 138/138/138 160/160/160
f 161/161/161 162/162/162 141/141/141
f 141/141/141 144/144/144 161/161/161
f 152/152/152 163/163/163 137/137/137
f 137/137/137 131/131/131 152/152/152
f 157/157/157 150/150/150 146/146/146
f 146/146/146 164/164/164 157/157/157
f 165/165/165 166/166/166 143/143/143
f 143/143/143 142/142/142 165/165/165
f 159/159/159 136/136/136 139/139/139
f 139/139/139 167/167/167 159/159/159
f 168/168/168 169/169/169 149/149/149
f 149/149/149 148/148/148 168/168/168
f 160/160/160 138/138/138 145/145/145
f 145/145/145 170/170/170 160/160/160
f 154/154/154 171/171/171 135/135/135
f 135/135/135 133/133/133 154/154/154
f 161/161/161 144/144/144 140/140/140
f 140/140/140 172/172/172 161/161/161
f 173/173/173 174/174/174 152/152/152
f 152/152/152 151/151/151 173/173/173
f 175/175/175 176/176/176 174/174/174
f 174/174/174 173/173/173 175/175/175
f 177/177/177 178/178/178 154/154/154
f 154/154/154 153/153/153 177/177/177
f 179/179/179 180/180/180 178/178/178
f 178/178/178 177/177/177 179/179/179
f 100/100/100 76/76/76 158/158/158
f 158/158/158 156/156/156 100/100/100
f 76/76/76 67/67/67 147/147/147
f 147/147/147 158/158/158 76/76/76
f 181/181/181 156/156/156 158/158/158
f 158/158/158 157/157/157 181/181/181
f 182/182/182 155/155/155 156/156/156
f 156/156/156 181/181/181 182/182/182
f 183/183/183 173/173/173 151/151/151
f 151/151/151 159/159/159 183/183/183
f 184/184/184 175/175/175 173/173/173
f 173/173/173 183/183/183 184/184/184
f 185/185/185 177/177/177 153/153/153
f 153/153/153 160/160/160 185/185/185
f 186/186/186 179/179/179 177/177/177
f 177/177/177 185/185/185 186/186/186
f 187/187/187 188/188/188 162/162/162
f 162/162/162 161/161/161 187/187/187
f 189/189/189 190/190/190 188/188/188
f 188/188/188 187/187/187 189/189/189
f 174/174/174 191/191/191 163/163/163
f 163/163/163 152/152/152 174/174/174
f 176/176/176 192/192/192 191/191/191
f 191/191/191 174/174/174 176/176/176
f 181/181/181 157/157/157 164/164/164
f 164/164/164 193/193/193 181/181/181
f 182/182/182 181/181/181 193/193/193
f 193/193/193 194/194/194 182/182/182
f 195/195/195 196/196/196 166/166/166
f 166/166/166 165/165/165 195/195/195
f 197/197/197 198/198/198 196/196/196
f 196/196/196 195/195/195 197/197/197
f 183/183/183 159/159/159 167/167/167
f 167/167/167 199/199/199 183/183/183
f 184/184/184 183/183/183 199/199/199
f 199/199/199 200/200/200 184/184/184
f 201/201/201 202/202/202 169/169/169
f 169/169/169 168/168/168 201/201/201
f 203/203/203 204/204/204 202/202/202
f 202/202/202 201/201/201 203/203/203
f 185/185/185 160/160/160 170/170/170
f 170/170/170 205/205/205 185/185/185
f 186/186/186 185/185/185 205/205/205
f 205/205/205 206/206/206 186/186/186
f 178/178/178 207/207/207 171/171/171
f 171/171/171 154/154/154 178/178/178
f 180/180/180 208/208/208 207/207/207
f 207/207/207 178/178/178 180/180/180
f 187/187/187 161/161/161 172/172/172
f 172/172/172 209/209/209 187/187/187
f 189/189/189 187/187/187 209/209/209
f 209/209/209 210/210/210 189/189/189
f 149/149/149 145/145/145 146/146/146
f 146/146/146 150/150/150 149/149/149
f 163/163/163 164/164/164 146/146/146
f 146/146/146 137/137/137 163/163/163
f 169/169/169 170/170/170 145/145/145
f 145/145/145 149/149/149 169/169/169
f 191/191/191 193/193/193 164/164/164
f 164/164/164 163/163/163 191/191/191
f 192/192/192 194/194/194 193/193/193
f 193/193/193 191/191/191 192/192/192
f 202/202/202 205/205/205 170/170/170
f 170/170/170 169/169/169 202/202/202
f 204/204/204 206/206/206 205/205/205
f 205/205/205 202/202/202 204/204/204
f 143/143/143 139/139/139 140/140/140
f 140/140/140 144/144/144 143/143/143
f 166/166/166 167/167/167 139/139/139
f 139/139/139 143/143/143 166/166/166
f 171/171/171 172/172/172 140/140/140
f 140/140/140 135/135/135 171/171/171
f 196/196/196 199/199/199 167/167/167
f 167/167/167 166/166/166 196/196/196
f 198/198/198 200/200/200 199/199/199
f 199/199/199 196/196/196 198/198/198
f 207/207/207 209/209/209 172/172/172
f 172/172/172 171/171/171 207/207/207
f 208/208/208 210/210/210 209/209/209
f 209/209/209 207/207/207 208/208/208
f 117/117/117 118/118/118 120/120/120
f 120/120/120 104/104/104 93/93/93
f 93/93/93 94/94/94 112/112/112
f 120/120/120 93/93/93 112/112/112
f 112/112/112 114/114/114 101/101/101
f 120/120/120 112/112/112 101/101/101
f 120/120/120 101/101/101 102/102/102
f 117/117/117 120/120/120 102/102/102
f 102/102/102 155/155/155 182/182/182
f 182/182/182 194/194/194 192/192/192
f 192/192/192 176/176/176 175/175/175
f 175/175/175 184/184/184 200/200/200
f 192/192/192 175/175/175 200/200/200
f 182/182/182 192/192/192 200/200/200
f 102/102/102 182/182/182 200/200/200
f 200/200/200 198/198/198 197/197/197
f 102/102/102 200/200/200 197/197/197
f 117/117/117 102/102/102 197/197/197
f 64/64/64 142/142/142 141/141/141
f 141/141/141 61/61/61 64/64/64
f 123/123/123 124/124/124 126/126/126
f 126/126/126 106/106/106 97/97/97
f 97/97/97 98/98/98 128/128/128
f 126/126/126 97/97/97 128/128/128
f 128/128/128 130/130/130 109/109/109
f 126/126/126 128/128/128 109/109/109
f 126/126/126 109/109/109 110/110/110
f 123/123/123 126/126/126 110/110/110
f 110/110/110 190/190/190 189/189/189
f 189/189/189 210/210/210 208/208/208
f 208/208/208 180/180/180 179/179/179
f 179/179/179 186/186/186 206/206/206
f 208/208/208 179/179/179 206/206/206
f 189/189/189 208/208/208 206/206/206
f 110/110/110 189/189/189 206/206/206
f 206/206/206 204/204/204 203/203/203
f 110/110/110 206/206/206 203/203/203
f 123/123/123 110/110/110 203/203/203
f 70/70/70 148/148/148 147/147/147
f 147/147/147 67/67/67 70/70/70
f 115/115/115 117/117/117 197/197/197
f 197/197/197 195/195/195 115/115/115
f 61/61/61 141/141/141 162/162/162
f 162/162/162 80/80/80 61/61/61
f 121/121/121 123/123/123 203/203/203
f 203/203/203 201/201/201 121/121/121
f 115/115/115 195/195/195 165/165/165
f 165/165/165 83/83/83 115/115/115
f 83/83/83 165/165/165 142/142/142
f 142/142/142 64/64/64 83/83/83
f 80/80/80 162/162/162 188/188/188
f 188/188/188 108/108/108 80/80/80
f 108/108/108 188/188/188 190/190/190
f 190/190/190 110/110/110 108/108/108
f 121/121/121 201/201/201 168/168/168
f 168/168/168 86/86/86 121/121/121
f 86/86/86 168/168/168 148/148/148
f 148/148/148 70/70/70 86/86/86
f 211/211/211 212/212/212 213/213/213
f 213/213/213 214/214/214 215/215/215
f 215/215/215 216/216/216 217/217/217
f 217/217/217 218/218/218 219/219/219
f 215/215/215 217/217/217 219/219/219
f 213/213/213 215/215/215 219/219/219
f 211/211/211 213/213/213 219/219/219
f 220/220/220 211/211/211 219/219/219
f 221/221/221 222/222/222 223/223/223
f 223/223/223 224/224/224 221/221/221
f 222/222/222 225/225/225 226/226/226
f 226/226/226 223/223/223 222/222/222
f 225/225/225 227/227/227 228/228/228
f 228/228/228 226/226/226 225/225/225
f 227/227/227 229/229/229 230/230/230
f 230/230/230 228/228/228 227/227/227
f 229/229/229 231/231/231 232/232/232
f 232/232/232 230/230/230 229/229/229
f 231/231/231 233/233/233 234/234/234
f 234/234/234 232/232/232 231/231/231
f 233/233/233 235/235/235 236/236/236
f 236/236/236 234/234/234 233/233/233
f 235/235/235 237/237/237 238/238/238
f 238/238/238 236/236/236 235/235/235
f 237/237/237 239/239/239 240/240/240
f 240/240/240 238/238/238 237/237/237
f 239/239/239 221/221/221 224/224/224
f 224/224/224 240/240/240 239/239/239
f 224/224/224 223/223/223 226/226/226
f 226/226/226 228/228/228 230/230/230
f 230/230/230 232/232/232 234/234/234
f 234/234/234 236/236/236 238/238/238
f 230/230/230 234/234/234 238/238/238
f 226/226/226 230/230/230 238/238/238
f 224/224/224 226/226/226 238/238/238
f 240/240/240 224/224/224 238/238/238
f 241/241/241 219/219/219 218/218/218
f 218/218/218 242/242/242 241/241/241
f 242/242/242 218/218/218 217/217/217
f 217/217/217 243/243/243 242/242/242
f 243/243/243 217/217/217 216/216/216
f 216/216/216 244/244/244 243/243/243
f 244/244/244 216/216/216 215/215/215
f 215/215/215 245/245/245 244/244/244
f 245/245/245 215/215/215 214/214/214
f 214/214/214 246/246/246 245/245/245
f 246/246/246 214/214/214 213/213/213
f 213/213/213 247/247/247 246/246/246
f 247/247/247 213/213/213 212/212/212
f 212/212/212 248/248/248 247/247/247
f 248/248/248 212/212/212 211/211/211
f 211/211/211 249/249/249 248/248/248
f 249/249/249 211/211/211 220/220/220
f 220/220/220 250/250/250 249/249/249
f 250/250/250 220/220/220 219/219/219
f 219/219/219 241/241/241 250/250/250
f 251/251/251 241/241/241 242/242/242
f 242/242/242 252/252/252 251/251/251
f 221/221/221 251/251/251 252/252/252
f 252/252/252 222/222/222 221/221/221
f 252/252/252 242/242/242 243/243/243
f 243/243/243 253/253/253 252/252/252
f 222/222/222 252/252/252 253/253/253
f 253/253/253 225/225/225 222/222/222
f 253/253/253 243/243/243 244/244/244
f 244/244/244 254/254/254 253/253/253
f 225/225/225 253/253/253 254/254/254
f 254/254/254 227/227/227 225/225/225
f 254/254/254 244/244/244 245/245/245
f 245/245/245 255/255/255 254/254/254
f 227/227/227 254/254/254 255/255/255
f 255/255/255 229/229/229 227/227/227
f 255/255/255 245/245/245 246/246/246
f 246/246/246 256/256/256 255/255/255
f 229/229/229 255/255/255 256/256/256
f 256/256/256 231/231/231 229/229/229
f 256/256/256 246/246/246 247/247/247
f 247/247/247 257/257/257 256/256/256
f 231/231/231 256/256/256 257/257/257
f 257/257/257 233/233/233 231/231/231
f 257/257/257 247/247/247 248/248/248
f 248/248/248 258/258/258 257/257/257
f 233/233/233 257/257/257 258/258/258
f 258/258/258 235/235/235 233/233/233
f 258/258/258 248/248/248 249/249/249
f 249/249/249 259/259/259 258/258/258
f 235/235/235 258/258/258 259/259/259
f 259/259/259 237/237/237 235/235/235
f 259/259/259 249/249/249 250/250/250
f 250/250/250 260/260/260 259/259/259
f 237/237/237 259/259/259 260/260/260
f 260/260/260 239/239/239 237/237/237
f 260/260/260 250/250/250 241/241/241
f 241/241/241 251/251/251 260/260/260
f 239/239/239 260/260/260 251/251/251
f 251/251/251 221/221/221 239/239/239
f 261/261/261 262/262/262 263/263/263
f 263/263/263 264/264/264 265/265/265
f 265/265/265 266/266/266 267/267/267
f 267/267/267 268/268/268 269/269/269
f 265/265/265 267/267/267 269/269/269
f 263/263/263 265/265/265 269/269/269
f 261/261/261 263/263/263 269/269/269
f 270/270/270 261/261/261 269/269/269
f 271/271/271 272/272/272 273/273/273
f 273/273/273 274/274/274 271/271/271
f 275/275/275 276/276/276 272/272/272
f 272/272/272 271/271/271 275/275/275
f 277/277/277 278/278/278 276/276/276
f 276/276/276 275/275/275 277/277/277
f 279/279/279 280/280/280 278/278/278
f 278/278/278 277/277/277 279/279/279
f 281/281/281 282/282/282 280/280/280
f 280/280/280 279/279/279 281/281/281
f 283/283/283 284/284/284 282/282/282
f 282/282/282 281/281/281 283/283/283
f 285/285/285 286/286/286 284/284/284
f 284/284/284 283/283/283 285/285/285
f 287/287/287 288/288/288 286/286/286
f 286/286/286 285/285/285 287/287/287
f 289/289/289 290/290/290 288/288/288
f 288/288/288 287/287/287 289/289/289
f 274/274/274 273/273/273 290/290/290
f 290/290/290 289/289/289 274/274/274
f 291/291/291 292/292/292 293/293/293
f 293/293/293 294/294/294 295/295/295
f 295/295/295 296/296/296 297/297/297
f 297/297/297 298/298/298 299/299/299
f 295/295/295 297/297/297 299/299/299
f 293/293/293 295/295/295 299/299/299
f 291/291/291 293/293/293 299/299/299
f 300/300/300 291/291/291 299/299/299
f 292/292/292 291/291/291 273/273/273
f 273/273/273 272/272/272 292/292/292
f 293/293/293 292/292/292 272/272/272
f 272/272/272 276/276/276 293/293/293
f 294/294/294 293/293/293 276/276/276
f 276/276/276 278/278/278 294/294/294
f 295/295/295 294/294/294 278/278/278
f 278/278/278 280/280/280 295/295/295
f 296/296/296 295/295/295 280/280/280
f 280/280/280 282/282/282 296/296/296
f 297/297/297 296/296/296 282/282/282
f 282/282/282 284/284/284 297/297/297
f 298/298/298 297/297/297 284/284/284
f 284/284/284 286/286/286 298/298/298
f 299/299/299 298/298/298 286/286/286
f 286/286/286 288/288/288 299/299/299
f 300/300/300 299/299/299 288/288/288
f 288/288/288 290/290/290 300/300/300
f 291/291/291 300/300/300 290/290/290
f 290/290/290 273/273/273 291/291/291
f 301/301/301 302/302/302 303/303/303
f 303/303/303 304/304/304 305/305/305
f 301/301/301 303/303/303 305/305/305
f 305/305/305 306/306/306 307/307/307
f 301/301/301 305/305/305 307/307/307
f 307/307/307 308/308/308 309/309/309
f 301/301/301 307/307/307 309/309/309
f 301/301/301 309/309/309 310/310/310
f 311/311/311 312/312/312 313/313/313
f 313/313/313 314/314/314 311/311/311
f 315/315/315 311/311/311 314/314/314
f 314/314/314 316/316/316 315/315/315
f 317/317/317 315/315/315 316/316/316
f 316/316/316 318/318/318 317/317/317
f 319/319/319 317/317/317 318/318/318
f 318/318/318 320/320/320 319/319/319
f 321/321/321 319/319/319 320/320/320
f 320/320/320 322/322/322 321/321/321
f 323/323/323 321/321/321 322/322/322
f 322/322/322 324/324/324 323/323/323
f 325/325/325 323/323/323 324/324/324
f 324/324/324 326/326/326 325/325/325
f 327/327/327 325/325/325 326/326/326
f 326/326/326 328/328/328 327/327/327
f 329/329/329 327/327/327 328/328/328
f 328/328/328 330/330/330 329/329/329
f 312/312/312 329/329/329 330/330/330
f 330/330/330 313/313/313 312/312/312
f 331/331/331 332/332/332 333/333/333
f 333/333/333 334/334/334 335/335/335
f 331/331/331 333/333/333 335/335/335
f 335/335/335 336/336/336 337/337/337
f 331/331/331 335/335/335 337/337/337
f 337/337/337 338/338/338 339/339/339
f 331/331/331 337/337/337 339/339/339
f 331/331/331 339/339/339 340/340/340
f 311/311/311 341/341/341 342/342/342
f 342/342/342 312/312/312 311/311/311
f 315/315/315 343/343/343 341/341/341
f 341/341/341 311/311/311 315/315/315
f 317/317/317 344/344/344 343/343/343
f 343/343/343 315/315/315 317/317/317
f 319/319/319 345/345/345 344/344/344
f 344/344/344 317/317/317 319/319/319
f 321/321/321 346/346/346 345/345/345
f 345/345/345 319/319/319 321/321/321
f 323/323/323 347/347/347 346/346/346
f 346/346/346 321/321/321 323/323/323
f 325/325/325 348/348/348 347/347/347
f 347/347/347 323/323/323 325/325/325
f 327/327/327 349/349/349 348/348/348
f 348/348/348 325/325/325 327/327/327
f 329/329/329 350/350/350 349/349/349
f 349/349/349 327/327/327 329/329/329
f 312/312/312 342/342/342 350/350/350
f 350/350/350 329/329/329 312/312/312
f 341/341/341 351/351/351 352/352/352
f 352/352/352 342/342/342 341/341/341
f 351/351/351 334/334/334 333/333/333
f 333/333/333 352/352/352 351/351/351
f 343/343/343 353/353/353 351/351/351
f 351/351/351 341/341/341 343/343/343
f 353/353/353 335/335/335 334/334/334
f 334/334/334 351/351/351 353/353/353
f 344/344/344 354/354/354 353/353/353
f 353/353/353 343/343/343 344/344/344
f 354/354/354 336/336/336 335/335/335
f 335/335/335 353/353/353 354/354/354
f 345/345/345 355/355/355 354/354/354
f 354/354/354 344/344/344 345/345/345
f 355/355/355 337/337/337 336/336/336
f 336/336/336 354/354/354 355/355/355
f 346/346/346 356/356/356 355/355/355
f 355/355/355 345/345/345 346/346/346
f 356/356/356 338/338/338 337/337/337
f 337/337/337 355/355/355 356/356/356
f 347/347/347 357/357/357 356/356/356
f 356/356/356 346/346/346 347/347/347
f 357/357/357 339/339/339 338/338/338
f 338/338/338 356/356/356 357/357/357
f 348/348/348 358/358/358 357/357/357
f 357/357/357 347/347/347 348/348/348
f 358/358/358 340/340/340 339/339/339
f 339/339/339 357/357/357 358/358/358
f 349/349/349 359/359/359 358/358/358
f 358/358/358 348/348/348 349/349/349
f 359/359/359 331/331/331 340/340/340
f 340/340/340 358/358/358 359/359/359
f 350/350/350 360/360/360 359/359/359
f 359/359/359 349/349/349 350/350/350
f 360/360/360 332/332/332 331/331/331
f 331/331/331 359/359/359 360/360/360
f 342/342/342 352/352/352 360/360/360
f 360/360/360 350/350/350 342/342/342
f 352/352/352 333/333/333 332/332/332
f 332/332/332 360/360/360 352/352/352
f 314/314/314 361/361/361 362/362/362
f 362/362/362 316/316/316 314/314/314
f 313/313/313 363/363/363 361/361/361
f 361/361/361 314/314/314 313/313/313
f 330/330/330 364/364/364 363/363/363
f 363/363/363 313/313/313 330/330/330
f 328/328/328 365/365/365 364/364/364
f 364/364/364 330/330/330 328/328/328
f 326/326/326 366/366/366 365/365/365
f 365/365/365 328/328/328 326/326/326
f 324/324/324 367/367/367 366/366/366
f 366/366/366 326/326/326 324/324/324
f 322/322/322 368/368/368 367/367/367
f 367/367/367 324/324/324 322/322/322
f 320/320/320 369/369/369 368/368/368
f 368/368/368 322/322/322 320/320/320
f 318/318/318 370/370/370 369/369/369
f 369/369/369 320/320/320 318/318/318
f 316/316/316 362/362/362 370/370/370
f 370/370/370 318/318/318 316/316/316
f 371/371/371 372/372/372 373/373/373
f 373/373/373 374/374/374 375/375/375
f 371/371/371 373/373/373 375/375/375
f 375/375/375 376/376/376 377/377/377
f 377/377/377 378/378/378 379/379/379
f 375/375/375 377/377/377 379/379/379
f 371/371/371 375/375/375 379/379/379
f 371/371/371 379/379/379 380/380/380
f 381/381/381 382/382/382 383/383/383
f 383/383/383 384/384/384 381/381/381
f 382/382/382 385/385/385 386/386/386
f 386/386/386 383/383/383 382/382/382
f 385/385/385 387/387/387 388/388/388
f 388/388/388 386/386/386 385/385/385
f 387/387/387 389/389/389 390/390/390
f 390/390/390 388/388/388 387/387/387
f 389/389/389 391/391/391 392/392/392
f 392/392/392 390/390/390 389/389/389
f 391/391/391 393/393/393 394/394/394
f 394/394/394 392/392/392 391/391/391
f 393/393/393 395/395/395 396/396/396
f 396/396/396 394/394/394 393/393/393
f 395/395/395 397/397/397 398/398/398
f 398/398/398 396/396/396 395/395/395
f 397/397/397 399/399/399 400/400/400
f 400/400/400 398/398/398 397/397/397
f 399/399/399 381/381/381 384/384/384
f 384/384/384 400/400/400 399/399/399
f 401/401/401 402/402/402 403/403/403
f 403/403/403 404/404/404 405/405/405
f 401/401/401 403/403/403 405/405/405
f 405/405/405 406/406/406 407/407/407
f 407/407/407 408/408/408 409/409/409
f 405/405/405 407/407/407 409/409/409
f 401/401/401 405/405/405 409/409/409
f 401/401/401 409/409/409 410/410/410
f 411/411/411 384/384/384 383/383/383
f 383/383/383 412/412/412 411/411/411
f 412/412/412 383/383/383 386/386/386
f 386/386/386 413/413/413 412/412/412
f 413/413/413 386/386/386 388/388/388
f 388/388/388 414/414/414 413/413/413
f 414/414/414 388/388/388 390/390/390
f 390/390/390 415/415/415 414/414/414
f 415/415/415 390/390/390 392/392/392
f 392/392/392 416/416/416 415/415/415
f 416/416/416 392/392/392 394/394/394
f 394/394/394 417/417/417 416/416/416
f 417/417/417 394/394/394 396/396/396
f 396/396/396 418/418/418 417/417/417
f 418/418/418 396/396/396 398/398/398
f 398/398/398 419/419/419 418/418/418
f 419/419/419 398/398/398 400/400/400
f 400/400/400 420/420/420 419/419/419
f 420/420/420 400/400/400 384/384/384
f 384/384/384 411/411/411 420/420/420
f 421/421/421 411/411/411 412/412/412
f 412/412/412 422/422/422 421/421/421
f 407/407/407 421/421/421 422/422/422
f 422/422/422 408/408/408 407/407/407
f 422/422/422 412/412/412 413/413/413
f 413/413/413 423/423/423 422/422/422
f 408/408/408 422/422/422 423/423/423
f 423/423/423 409/409/409 408/408/408
f 423/423/423 413/413/413 414/414/414
f 414/414/414 424/424/424 423/423/423
f 409/409/409 423/423/423 424/424/424
f 424/424/424 410/410/410 409/409/409
f 424/424/424 414/414/414 415/415/415
f 415/415/415 425/425/425 424/424/424
f 410/410/410 424/424/424 425/425/425
f 425/425/425 401/401/401 410/410/410
f 425/425/425 415/415/415 416/416/416
f 416/416/416 426/426/426 425/425/425
f 401/401/401 425/425/425 426/426/426
f 426/426/426 402/402/402 401/401/401
f 426/426/426 416/416/416 417/417/417
f 417/417/417 427/427/427 426/426/426
f 402/402/402 426/426/426 427/427/427
f 427/427/427 403/403/403 402/402/402
f 427/427/427 417/417/417 418/418/418
f 418/418/418 428/428/428 427/427/427
f 403/403/403 427/427/427 428/428/428
f 428/428/428 404/404/404 403/403/403
f 428/428/428 418/418/418 419/419/419
f 419/419/419 429/429/429 428/428/428
f 404/404/404 428/428/428 429/429/429
f 429/429/429 405/405/405 404/404/404
f 429/429/429 419/419/419 420/420/420
f 420/420/420 430/430/430 429/429/429
f 405/405/405 429/429/429 430/430/430
f 430/430/430 406/406/406 405/405/405
f 430/430/430 420/420/420 411/411/411
f 411/411/411 421/421/421 430/430/430
f 406/406/406 430/430/430 421/421/421
f 421/421/421 407/407/407 406/406/406
f 431/431/431 385/385/385 382/382/382
f 382/382/382 432/432/432 431/431/431
f 432/432/432 382/382/382 381/381/381
f 381/381/381 433/433/433 432/432/432
f 433/433/433 381/381/381 399/399/399
f 399/399/399 434/434/434 433/433/433
f 434/434/434 399/399/399 397/397/397
f 397/397/397 435/435/435 434/434/434
f 435/435/435 397/397/397 395/395/395
f 395/395/395 436/436/436 435/435/435
f 436/436/436 395/395/395 393/393/393
f 393/393/393 437/437/437 436/436/436
f 437/437/437 393/393/393 438/438/438
f 438/438/438 439/439/439 437/437/437
f 439/439/439 438/438/438 389/389/389
f 389/389/389 440/440/440 439/439/439
f 440/440/440 389/389/389 387/387/387
f 387/387/387 441/441/441 440/440/440
f 441/441/441 387/387/387 385/385/385
f 385/385/385 431/431/431 441/441/441
f 442/442/442 443/443/443 444/444/444
f 444/444/444 445/445/445 446/446/446
f 446/446/446 447/447/447 448/448/448
f 448/448/448 449/449/449 450/450/450
f 446/446/446 448/448/448 450/450/450
f 444/444/444 446/446/446 450/450/450
f 442/442/442 444/444/444 450/450/450
f 451/451/451 442/442/442 450/450/450
f 452/452/452 453/453/453 454/454/454
f 454/454/454 455/455/455 452/452/452
f 453/453/453 456/456/456 457/457/457
f 457/457/457 454/454/454 453/453/453
f 456/456/456 458/458/458 459/459/459
f 459/459/459 457/457/457 456/456/456
f 458/458/458 460/460/460 461/461/461
f 461/461/461 459/459/459 458/458/458
f 460/460/460 462/462/462 463/463/463
f 463/463/463 461/461/461 460/460/460
f 462/462/462 464/464/464 465/465/465
f 465/465/465 463/463/463 462/462/462
f 464/464/464 466/466/466 467/467/467
f 467/467/467 465/465/465 464/464/464
f 466/466/466 468/468/468 469/469/469
f 469/469/469 467/467/467 466/466/466
f 468/468/468 470/470/470 471/471/471
f 471/471/471 469/469/469 468/468/468
f 470/470/470 452/452/452 455/455/455
f 455/455/455 471/471/471 470/470/470
f 455/455/455 454/454/454 457/457/457
f 457/457/457 459/459/459 461/461/461
f 461/461/461 463/463/463 465/465/465
f 465/465/465 467/467/467 469/469/469
f 461/461/461 465/465/465 469/469/469
f 457/457/457 461/461/461 469/469/469
f 455/455/455 457/457/457 469/469/469
f 471/471/471 455/455/455 469/469/469
f 472/472/472 450/450/450 449/449/449
f 449/449/449 473/473/473 472/472/472
f 473/473/473 449/449/449 448/448/448
f 448/448/448 474/474/474 473/473/473
f 474/474/474 448/448/448 447/447/447
f 447/447/447 475/475/475 474/474/474
f 475/475/475 447/447/447 446/446/446
f 446/446/446 476/476/476 475/475/475
f 476/476/476 446/446/446 445/445/445
f 445/445/445 477/477/477 476/476/476
f 477/477/477 445/445/445 444/444/444
f 444/444/444 478/478/478 477/477/477
f 478/478/478 444/444/444 443/443/443
f 443/443/443 479/479/479 478/478/478
f 479/479/479 443/443/443 442/442/442
f 442/442/442 480/480/480 479/479/479
f 480/480/480 442/442/442 451/451/451
f 451/451/451 481/481/481 480/480/480
f 481/481/481 451/451/451 450/450/450
f 450/450/450 472/472/472 481/481/481
f 482/482/482 472/472/472 473/473/473
f 473/473/473 483/483/483 482/482/482
f 452/452/452 482/482/482 483/483/483
f 483/483/483 453/453/453 452/452/452
f 483/483/483 473/473/473 474/474/474
f 474/474/474 484/484/484 483/483/483
f 453/453/453 483/483/483 484/484/484
f 484/484/484 456/456/456 453/453/453
f 484/484/484 474/474/474 475/475/475
f 475/475/475 485/485/485 484/484/484
f 456/456/456 484/484/484 485/485/485
f 485/485/485 458/458/458 456/456/456
f 485/485/485 475/475/475 476/476/476
f 476/476/476 486/486/486 485/485/485
f 458/458/458 485/485/485 486/486/486
f 486/486/486 460/460/460 458/458/458
f 486/486/486 476/476/476 477/477/477
f 477/477/477 487/487/487 486/486/486
f 460/460/460 486/486/486 487/487/487
f 487/487/487 462/462/462 460/460/460
f 487/487/487 477/477/477 478/478/478
f 478/478/478 488/488/488 487/487/487
f 462/462/462 487/487/487 488/488/488
f 488/488/488 464/464/464 462/462/462
f 488/488/488 478/478/478 479/479/479
f 479/479/479 489/489/489 488/488/488
f 464/464/464 488/488/488 489/489/489
f 489/489/489 466/466/466 464/464/464
f 489/489/489 479/479/479 480/480/480
f 480/480/480 490/490/490 489/489/489
f 466/466/466 489/489/489 490/490/490
f 490/490/490 468/468/468 466/466/466
f 490/490/490 480/480/480 481/481/481
f 481/481/481 491/491/491 490/490/490
f 468/468/468 490/490/490 491/491/491
f 491/491/491 470/470/470 468/468/468
f 491/491/491 481/481/481 472/472/472
f 472/472/472 482/482/482 491/491/491
f 470/470/470 491/491/491 482/482/482
f 482/482/482 452/452/452 470/470/470
f 492/492/492 493/493/493 494/494/494
f 494/494/494 495/495/495 496/496/496
f 496/496/496 497/497/497 498/498/498
f 498/498/498 499/499/499 500/500/500
f 496/496/496 498/498/498 500/500/500
f 494/494/494 496/496/496 500/500/500
f 492/492/492 494/494/494 500/500/500
f 501/501/501 492/492/492 500/500/500
f 502/502/502 503/503/503 504/504/504
f 504/504/504 505/505/505 502/502/502
f 503/503/503 506/506/506 507/507/507
f 507/507/507 504/504/504 503/503/503
f 506/506/506 508/508/508 509/509/509
f 509/509/509 507/507/507 506/506/506
f 508/508/508 510/510/510 511/511/511
f 511/511/511 509/509/509 508/508/508
f 510/510/510 512/512/512 513/513/513
f 513/513/513 511/511/511 510/510/510
f 512/512/512 514/514/514 515/515/515
f 515/515/515 513/513/513 512/512/512
f 514/514/514 516/516/516 517/517/517
f 517/517/517 515/515/515 514/514/514
f 516/516/516 518/518/518 519/519/519
f 519/519/519 517/517/517 516/516/516
f 518/518/518 520/520/520 521/521/521
f 521/521/521 519/519/519 518/518/518
f 520/520/520 502/502/502 505/505/505
f 505/505/505 521/521/521 520/520/520
f 505/505/505 504/504/504 507/507/507
f 507/507/507 509/509/509 511/511/511
f 511/511/511 513/513/513 515/515/515
f 515/515/515 517/517/517 519/519/519
f 511/511/511 515/515/515 519/519/519
f 507/507/507 511/511/511 519/519/519
f 505/505/505 507/507/507 519/519/519
f 521/521/521 505/505/505 519/519/519
f 522/522/522 500/500/500 499/499/499
f 499/499/499 523/523/523 522/522/522
f 523/523/523 499/499/499 498/498/498
f 498/498/498 524/524/524 523/523/523
f 524/524/524 498/498/498 497/497/497
f 497/497/497 525/525/525 524/524/524
f 525/525/525 497/497/497 496/496/496
f 496/496/496 526/526/526 525/525/525
f 526/526/526 496/496/496 495/495/495
f 495/495/495 527/527/527 526/526/526
f 527/527/527 495/495/495 494/494/494
f 494/494/494 528/528/528 527/527/527
f 528/528/528 494/494/494 493/493/493
f 493/493/493 529/529/529 528/528/528
f 529/529/529 493/493/493 492/492/492
f 492/492/492 530/530/530 529/529/529
f 530/530/530 492/492/492 501/501/501
f 501/501/501 531/531/531 530/530/530
f 531/531/531 501/501/501 500/500/500
f 500/500/500 522/522/522 531/531/531
f 532/532/532 522/522/522 523/523/523
f 523/523/523 533/533/533 532/532/532
f 502/502/502 532/532/532 533/533/533
f 533/533/533 503/503/503 502/502/502
f 533/533/533 523/523/523 524/524/524
f 524/524/524 534/534/534 533/533/533
f 503/503/503 533/533/533 534/534/534
f 534/534/534 506/506/506 503/503/503
f 534/534/534 524/524/524 525/525/525
f 525/525/525 535/535/535 534/534/534
f 506/506/506 534/534/534 535/535/535
f 535/535/535 508/508/508 506/506/506
f 535/535/535 525/525/525 526/526/526
f 526/526/526 536/536/536 535/535/535
f 508/508/508 535/535/535 536/536/536
f 536/536/536 510/510/510 508/508/508
f 536/536/536 526/526/526 527/527/527
f 527/527/527 537/537/537 536/536/536
f 510/510/510 536/536/536 537/537/537
f 537/537/537 512/512/512 510/510/510
f 537/537/537 527/527/527 528/528/528
f 528/528/528 538/538/538 537/537/537
f 512/512/512 537/537/537 538/538/538
f 538/538/538 514/514/514 512/512/512
f 538/538/538 528/528/528 529/529/529
f 529/529/529 539/539/539 538/538/538
f 514/514/514 538/538/538 539/539/539
f 539/539/539 516/516/516 514/514/514
f 539/539/539 529/529/529 530/530/530
f 530/530/530 540/540/540 539/539/539
f 516/516/516 539/539/539 540/540/540
f 540/540/540 518/518/518 516/516/516
f 540/540/540 530/530/530 531/531/531
f 531/531/531 541/541/541 540/540/540
f 518/518/518 540/540/540 541/541/541
f 541/541/541 520/520/520 518/518/518
f 541/541/541 531/531/531 522/522/522
f 522/522/522 532/532/532 541/541/541
f 520/520/520 541/541/541 532/532/532
f 532/532/532 502/502/502 520/520/520
