# Cocos Creator 3D Mesh Extracted
# Source file: 1790837203822101.bin
# Type: static, Vertices: 432, Triangles: 652, Stride: 48 bytes
# Bounding Box: X=[-7.59197, 7.591975], Y=[-10.68201, 12.04403], Z=[1.708126, 22.74545]
o Model_12_static
v 6.918246 -8.633451 7.554718
v 6.918242 -8.587263 4.962357
v 6.918241 8.758925 4.953388
v 6.918242 8.681818 7.558260
v 6.031835 -9.833184 2.841618
v 3.315417 -10.260420 2.841617
v 3.315423 -9.564385 1.808126
v 5.723035 -9.328423 1.808126
v 3.466873 11.406630 2.852834
v 5.922398 10.139510 2.883721
v 5.729719 8.878456 1.816805
v 3.466370 10.247150 1.816806
v 3.315425 -10.494020 4.958340
v 6.031822 -10.092940 4.958340
v 6.011755 -10.139060 7.554319
v 3.315419 -10.538460 7.554317
v 3.291126 -10.513130 9.605955
v 5.947258 -10.119820 9.605955
v 5.416356 -9.912192 19.461270
v 3.193343 -10.389320 19.460800
v 2.804664 -8.614654 21.453060
v 5.197210 -8.263138 21.242350
v 4.983986 -7.278118 21.499630
v 2.716778 -7.475142 21.693810
v 2.647291 6.658233 21.836390
v 4.851453 5.932128 21.632380
v 4.981027 7.755789 21.310810
v 2.753321 8.452986 21.420150
v 5.382485 8.582023 20.355840
v 3.332391 9.664631 20.312160
v 3.512011 10.029480 19.467930
v 5.586395 8.842587 19.465610
v 6.027964 9.777870 9.606923
v 3.555051 11.363110 9.606921
v 6.045577 9.965988 7.558632
v 3.466864 11.582620 7.558635
v 6.054926 10.066200 4.953634
v 3.466872 11.590910 4.953634
v 6.688250 7.377087 19.465600
v 6.688444 -8.501435 19.461070
v 6.874853 -8.611313 9.605971
v 6.874862 8.469850 9.606906
v 3.039901 -9.849426 20.432200
v 5.493472 -9.349682 20.401250
v 6.248683 -7.450169 20.966790
v 6.282609 6.527364 20.976690
v 5.847071 6.057357 21.344300
v 5.857769 -7.054611 21.302940
v 0.000001 -10.637500 4.958341
v 0.000002 -10.403470 2.841621
v 0.000001 10.668450 1.816809
v 0.000001 12.006430 2.883723
v 0.000001 -10.682010 7.554319
v 0.000001 -10.655320 9.605954
v 0.000001 -10.593960 19.460700
v 0.000001 -8.793437 21.491610
v 0.000001 -7.509672 21.729940
v 0.000001 6.932027 21.838840
v 0.000001 8.716467 21.478510
v 0.000001 9.919132 20.353990
v 0.000002 11.740220 9.606924
v 0.000001 10.322660 19.469000
v 0.000001 11.986160 7.558635
v -0.000001 12.044030 4.953634
v 0.000001 -10.037190 20.451740
v 6.893007 8.869000 2.885854
v 6.230396 7.815105 1.814626
v 6.918241 8.758925 4.953388
v 6.918242 8.681818 7.558260
v 6.027987 -9.000422 1.807461
v 6.172691 -8.260367 1.806795
v 6.811317 -8.973318 2.841809
v 6.507149 -9.461336 2.841713
v 6.804420 -9.248299 7.554582
v 6.493371 -9.751817 7.554452
v 6.507149 -9.705564 4.959680
v 6.811309 -9.202069 4.961019
v 6.215156 -9.627114 19.461230
v 6.434224 -9.732046 9.605962
v 6.752520 -9.227532 9.605967
v 6.547038 -9.120880 19.461160
v 6.025649 -7.858132 21.055520
v 6.522362 7.116745 20.366820
v 6.688250 7.377087 19.465600
v 6.874862 8.469850 9.606906
v 5.997171 -9.081109 20.408420
v 6.347412 -8.587296 20.418420
v 0.000002 -9.705533 1.808128
v 6.918238 -8.373836 2.841904
v 6.230389 -7.806965 1.806130
v 6.230396 7.815105 1.814626
v 6.893007 8.869000 2.885854
v 6.515536 -7.486711 20.714900
v 6.522362 7.116745 20.366820
v 6.230389 -7.806965 1.806130
v 6.918238 -8.373836 2.841904
v 6.918242 -8.587263 4.962357
v 6.918246 -8.633451 7.554718
v 6.874853 -8.611313 9.605971
v 6.688444 -8.501435 19.461070
v 6.515536 -7.486711 20.714900
v -6.918242 -8.633451 7.554719
v -6.918240 8.681820 7.558261
v -6.918242 8.758917 4.953388
v -6.918240 -8.587263 4.962356
v -6.031832 -9.833187 2.841617
v -5.723032 -9.328424 1.808125
v -3.315420 -9.564386 1.808126
v -3.315416 -10.260420 2.841617
v -3.466874 11.406630 2.852834
v -3.466370 10.247150 1.816806
v -5.729718 8.878457 1.816805
v -5.922397 10.139510 2.883722
v -3.315420 -10.494020 4.958340
v -3.315416 -10.538460 7.554319
v -6.011751 -10.139060 7.554319
v -6.031821 -10.092940 4.958337
v -3.291123 -10.513130 9.605959
v -3.193344 -10.389320 19.460800
v -5.416353 -9.912192 19.461270
v -5.947256 -10.119820 9.605956
v -2.804665 -8.614654 21.453050
v -2.716780 -7.475142 21.693810
v -4.983986 -7.278119 21.499630
v -5.197206 -8.263138 21.242350
v -2.647290 6.658236 21.836390
v -2.753320 8.452987 21.420160
v -4.981030 7.755789 21.310800
v -4.851451 5.932128 21.632390
v -3.332390 9.664630 20.312160
v -5.382483 8.582027 20.355840
v -3.512010 10.029480 19.467930
v -3.555046 11.363110 9.606926
v -6.027963 9.777872 9.606924
v -5.586393 8.842587 19.465610
v -3.466863 11.582620 7.558635
v -6.045576 9.965988 7.558634
v -6.054924 10.066200 4.953636
v -3.466869 11.590910 4.953634
v -6.688246 7.377084 19.465600
v -6.874859 8.469850 9.606904
v -6.874853 -8.611314 9.605973
v -6.688442 -8.501435 19.461070
v -3.039901 -9.849426 20.432200
v -5.493472 -9.349682 20.401250
v -6.248680 -7.450168 20.966790
v -5.857764 -7.054611 21.302940
v -5.847069 6.057362 21.344300
v -6.282609 6.527363 20.976690
v -6.230397 7.815107 1.814626
v -6.893006 8.869000 2.885855
v -6.918242 8.758917 4.953388
v -6.918240 8.681820 7.558261
v -6.027985 -9.000422 1.807461
v -6.507149 -9.461336 2.841713
v -6.811310 -8.973318 2.841808
v -6.172691 -8.260368 1.806795
v -6.804424 -9.248299 7.554582
v -6.811307 -9.202069 4.961019
v -6.507144 -9.705566 4.959680
v -6.493372 -9.751817 7.554451
v -6.215152 -9.627116 19.461230
v -6.547035 -9.120882 19.461160
v -6.752518 -9.227532 9.605968
v -6.434225 -9.732048 9.605962
v -6.522360 7.116745 20.366820
v -6.874859 8.469850 9.606904
v -6.688246 7.377084 19.465600
v -6.025645 -7.858129 21.055520
v -6.347413 -8.587298 20.418420
v -5.997173 -9.081109 20.408420
v -6.918236 -8.373836 2.841906
v -6.893006 8.869000 2.885855
v -6.230397 7.815107 1.814626
v -6.230388 -7.806965 1.806130
v -6.515538 -7.980793 20.430170
v -6.522360 7.116745 20.366820
v -6.918236 -8.373836 2.841906
v -6.230388 -7.806965 1.806130
v -6.918242 -8.633451 7.554719
v -6.918240 -8.587263 4.962356
v -6.874853 -8.611314 9.605973
v -6.688442 -8.501435 19.461070
v -6.515538 -7.980793 20.430170
v 7.591974 1.924180 3.234708
v 7.591973 1.924176 1.708126
v 7.034873 2.385039 1.714061
v 7.034872 2.385039 3.232676
v 7.591973 1.566691 3.234592
v 7.591973 1.566692 1.708126
v 6.712792 1.165723 3.239247
v 6.712794 1.165727 1.714110
v 7.591973 2.471862 4.471752
v 7.034875 2.849934 4.241814
v 7.591973 2.169712 4.666344
v 6.712793 1.910507 4.880881
v 7.591973 3.442098 5.270558
v 7.034873 3.673778 4.909800
v 7.591974 3.233026 5.619358
v 6.712794 3.231179 5.920213
v 7.591974 4.517452 5.440055
v 7.034878 4.601038 5.051540
v 7.591973 4.517448 5.876226
v 6.712796 4.646461 6.182992
v 7.591973 7.116256 3.234708
v 7.034873 6.823190 3.232676
v 7.034876 6.823190 1.714062
v 7.591974 7.116258 1.708127
v 7.591971 7.475374 3.235274
v 7.591974 7.475374 1.708126
v 6.712792 8.074275 3.239247
v 6.712797 8.145098 1.714111
v 7.591971 6.566476 4.471750
v 7.034873 6.355981 4.241814
v 7.591973 6.869722 4.666344
v 6.712792 7.393455 4.880881
v 7.591973 5.593755 5.270558
v 7.034873 5.529378 4.909801
v 7.591975 5.803233 5.619359
v 6.712796 6.064692 5.920214
v 7.591973 -7.291576 3.234709
v 7.591971 -7.291576 1.708126
v 7.034878 -6.929071 1.714061
v 7.034875 -6.929075 3.232677
v 7.591973 -7.651161 3.234591
v 7.591971 -7.651159 1.708126
v 6.712791 -8.193026 3.239247
v 6.712793 -8.193027 1.714111
v 7.591973 -6.741129 4.471750
v 7.034873 -6.466106 4.241814
v 7.591973 -7.044736 4.666345
v 6.712798 -7.454053 4.880881
v 7.591971 -5.767350 5.270558
v 7.034878 -5.646273 4.909801
v 7.591975 -5.977036 5.619358
v 6.712800 -6.144737 5.920214
v 7.591971 -4.690070 5.440055
v 7.034875 -4.724446 5.051538
v 7.591973 -4.690068 5.876226
v 6.712800 -4.743124 6.182992
v 7.591973 -2.095279 3.234709
v 7.034875 -2.519252 3.232677
v 7.034873 -2.519254 1.714062
v 7.591971 -2.095279 1.708126
v 7.591973 -1.737680 3.235274
v 7.591973 -1.737678 1.708126
v 6.712793 -1.354733 3.239247
v 6.712793 -1.284828 1.714111
v 7.591973 -2.643189 4.471750
v 7.034878 -2.982434 4.241815
v 7.591973 -2.340911 4.666345
v 6.712791 -2.027017 4.880881
v 7.591968 -3.613945 5.270558
v 7.034881 -3.802517 4.909801
v 7.591973 -3.404744 5.619359
v 6.712802 -3.340125 5.920216
v -7.591970 1.924180 3.234707
v -7.034872 2.385039 3.232676
v -7.034870 2.385041 1.714062
v -7.591969 1.924176 1.708126
v -7.591970 1.566692 3.234591
v -7.591969 1.566692 1.708126
v -6.712792 1.165723 3.239247
v -6.712792 1.165723 1.714110
v -7.591970 2.471861 4.471750
v -7.034870 2.849935 4.241813
v -7.591970 2.169710 4.666343
v -6.712792 1.910506 4.880881
v -7.591970 3.442087 5.270557
v -7.034870 3.673778 4.909801
v -7.591970 3.233022 5.619359
v -6.712792 3.231180 5.920214
v -7.591970 4.517448 5.440056
v -7.034870 4.601045 5.051540
v -7.591970 4.517448 5.876226
v -6.712792 4.646460 6.182992
v -7.591970 7.116251 3.234707
v -7.591970 7.116256 1.708126
v -7.034870 6.823197 1.714062
v -7.034870 6.823195 3.232676
v -7.591970 7.475369 3.235274
v -7.591969 7.475380 1.708126
v -6.712790 8.074282 3.239248
v -6.712790 8.145098 1.714111
v -7.591970 6.566477 4.471750
v -7.034872 6.355983 4.241814
v -7.591970 6.869725 4.666344
v -6.712793 7.393454 4.880881
v -7.591970 5.593745 5.270556
v -7.034870 5.529379 4.909801
v -7.591970 5.803230 5.619359
v -6.712792 6.064690 5.920211
v -7.591970 -7.291574 3.234709
v -7.034870 -6.929076 3.232677
v -7.034870 -6.929073 1.714062
v -7.591970 -7.291576 1.708126
v -7.591970 -7.651158 3.234592
v -7.591970 -7.651158 1.708126
v -6.712792 -8.193027 3.239247
v -6.712792 -8.193027 1.714110
v -7.591970 -6.741128 4.471752
v -7.034872 -6.466106 4.241814
v -7.591970 -7.044736 4.666344
v -6.712793 -7.454052 4.880881
v -7.591970 -5.767350 5.270559
v -7.034872 -5.646275 4.909798
v -7.591970 -5.977039 5.619358
v -6.712793 -6.144737 5.920214
v -7.591970 -4.690070 5.440055
v -7.034872 -4.724446 5.051540
v -7.591970 -4.690067 5.876226
v -6.712793 -4.743126 6.182992
v -7.591970 -2.095279 3.234708
v -7.591970 -2.095279 1.708127
v -7.034872 -2.519254 1.714062
v -7.034870 -2.519253 3.232677
v -7.591970 -1.737681 3.235275
v -7.591970 -1.737680 1.708126
v -6.712792 -1.354730 3.239247
v -6.712790 -1.284828 1.714110
v -7.591970 -2.643190 4.471752
v -7.034870 -2.982435 4.241814
v -7.591970 -2.340912 4.666343
v -6.712792 -2.027017 4.880879
v -7.591970 -3.613948 5.270559
v -7.034872 -3.802519 4.909801
v -7.591970 -3.404742 5.619358
v -6.712792 -3.340127 5.920214
v 1.535727 -1.024877 21.135070
v 2.775148 -0.923560 21.135070
v 2.669686 -0.856566 21.850070
v 1.490099 -0.956348 21.849890
v 1.308731 -0.267925 22.479620
v 2.425157 -0.165443 22.442050
v 2.325660 0.584743 22.639390
v 1.267722 0.530388 22.704390
v 1.235296 4.751125 22.726000
v 2.263816 4.460260 22.650750
v 2.324280 5.403994 22.532160
v 1.284775 5.652776 22.572490
v 2.511610 5.856721 22.179980
v 1.554984 6.283835 22.163870
v 1.638800 6.476367 21.852520
v 2.606760 6.007287 21.851670
v 2.812809 6.267833 21.135430
v 1.658880 6.894583 21.135430
v 3.120914 5.328939 21.851660
v 3.121005 -0.107024 21.849990
v 3.207990 -0.176338 21.135080
v 3.207993 5.656634 21.135420
v 1.418500 -0.665793 22.208140
v 2.563399 -0.549526 22.196730
v 2.915801 0.475152 22.405290
v 2.931632 4.849167 22.408950
v 2.728397 4.575576 22.544510
v 2.733392 0.704553 22.553230
v 0.000001 -1.053094 21.135070
v 0.000001 -1.020454 21.849850
v 0.000001 -0.328058 22.493840
v 0.000001 0.466417 22.745450
v 0.000001 4.853842 22.726900
v -0.000001 5.737491 22.594010
v 0.000001 6.332245 22.179300
v 0.000001 6.981184 21.135430
v 0.000001 6.531689 21.852910
v 0.000002 -0.724774 22.215350
v 2.900158 -0.676902 21.850050
v 3.002377 -0.744617 21.135070
v 3.150903 -0.495791 21.135080
v 3.055022 -0.427295 21.850030
v 2.654417 -0.009494 22.430840
v 2.811724 0.178030 22.427740
v 3.043506 5.177581 22.184020
v 2.798439 -0.376021 22.199370
v 2.961869 -0.133220 22.203050
v 3.040323 0.179113 22.207390
v -1.535725 -1.024876 21.135070
v -1.490099 -0.956349 21.849900
v -2.669684 -0.856564 21.850070
v -2.775145 -0.923561 21.135070
v -1.308729 -0.267925 22.479620
v -1.267721 0.530388 22.704390
v -2.325660 0.584736 22.639390
v -2.425152 -0.165445 22.442050
v -1.235295 4.751125 22.726000
v -1.284773 5.652772 22.572490
v -2.324279 5.403993 22.532160
v -2.263815 4.460264 22.650760
v -1.554981 6.283832 22.163870
v -2.511608 5.856721 22.179980
v -1.638796 6.476367 21.852520
v -1.658878 6.894578 21.135430
v -2.812805 6.267837 21.135430
v -2.606756 6.007277 21.851660
v -3.120911 5.328934 21.851660
v -3.207989 5.656630 21.135420
v -3.207986 -0.176337 21.135080
v -3.121002 -0.107029 21.849990
v -1.418499 -0.665793 22.208140
v -2.563397 -0.549524 22.196720
v -2.915797 0.475150 22.405290
v -2.733388 0.704555 22.553240
v -2.728396 4.575572 22.544520
v -2.931630 4.849162 22.408950
v -2.900153 -0.676903 21.850050
v -3.055020 -0.427296 21.850030
v -3.150902 -0.495791 21.135080
v -3.002380 -0.744618 21.135070
v -2.811723 0.178033 22.427740
v -2.654416 -0.009494 22.430840
v -3.043504 5.177583 22.184030
v -2.961869 -0.133220 22.203060
v -2.798438 -0.376021 22.199370
v -3.040321 0.179118 22.207390
v -5.723032 -9.328424 1.808125
v -6.027985 -9.000422 1.807461
v -6.172691 -8.260368 1.806795
v -6.230388 -7.806965 1.806130
v -6.230397 7.815107 1.814626
v -5.729718 8.878457 1.816805
v -3.466370 10.247150 1.816806
v 0.000001 10.668450 1.816809
v 3.466370 10.247150 1.816806
v 5.729719 8.878456 1.816805
v 6.230396 7.815105 1.814626
v 6.230389 -7.806965 1.806130
v 6.172691 -8.260367 1.806795
v 6.027987 -9.000422 1.807461
v 5.723035 -9.328423 1.808126
v 3.315423 -9.564385 1.808126
v 0.000002 -9.705533 1.808128
v -3.315420 -9.564386 1.808126
vt 0.325037 0.297503
vt 0.325900 0.251758
vt 0.636704 0.251598
vt 0.635286 0.297567
vt 0.086372 0.453025
vt 0.084793 0.501779
vt 0.062337 0.500464
vt 0.065464 0.455158
vt 0.874717 0.496234
vt 0.874232 0.447730
vt 0.902309 0.439401
vt 0.901412 0.490267
vt 0.123036 0.502152
vt 0.123879 0.453325
vt 0.169675 0.453475
vt 0.168913 0.501891
vt 0.204359 0.502084
vt 0.205761 0.454699
vt 0.288508 0.464150
vt 0.285436 0.503623
vt 0.328792 0.509184
vt 0.331815 0.465424
vt 0.349266 0.468540
vt 0.346849 0.510049
vt 0.606365 0.510226
vt 0.594344 0.469753
vt 0.627065 0.468206
vt 0.636524 0.508940
vt 0.649747 0.460622
vt 0.663037 0.499223
vt 0.676201 0.496148
vt 0.667183 0.455584
vt 0.751534 0.442041
vt 0.757915 0.494282
vt 0.789782 0.441435
vt 0.792730 0.495798
vt 0.837408 0.442551
vt 0.837817 0.496042
vt 0.620908 0.415504
vt 0.327304 0.415457
vt 0.325387 0.333323
vt 0.631442 0.333340
vt 0.302731 0.505902
vt 0.307547 0.462150
vt 0.343781 0.441749
vt 0.607896 0.440816
vt 0.597120 0.451032
vt 0.352305 0.451427
vt 0.123084 0.561145
vt 0.085512 0.561248
vt 0.903884 0.558080
vt 0.873870 0.558092
vt 0.168614 0.560878
vt 0.203793 0.560442
vt 0.284233 0.559971
vt 0.326726 0.559414
vt 0.346647 0.559261
vt 0.610920 0.558278
vt 0.639543 0.558189
vt 0.664794 0.558127
vt 0.759346 0.558108
vt 0.678055 0.558120
vt 0.793504 0.558098
vt 0.838069 0.558094
vt 0.301120 0.559675
vt 0.877937 0.419994
vt 0.908739 0.418549
vt 0.838101 0.414549
vt 0.787993 0.413699
vt 0.064568 0.445546
vt 0.060435 0.431993
vt 0.085587 0.433323
vt 0.086239 0.442970
vt 0.171398 0.432022
vt 0.170611 0.442580
vt 0.124191 0.442510
vt 0.124060 0.432168
vt 0.290565 0.450703
vt 0.207482 0.444204
vt 0.209433 0.433814
vt 0.294072 0.442061
vt 0.335918 0.448158
vt 0.632707 0.432529
vt 0.657168 0.424968
vt 0.746870 0.414572
vt 0.310255 0.453137
vt 0.316019 0.444776
vt 0.063379 0.561566
vt 0.329747 0.214216
vt 0.339934 0.192115
vt 0.619845 0.192514
vt 0.638699 0.214968
vt 0.345439 0.436826
vt 0.616194 0.430619
vt 0.057800 0.424058
vt 0.083244 0.422995
vt 0.123343 0.421089
vt 0.171821 0.420862
vt 0.211006 0.422712
vt 0.298132 0.432321
vt 0.332667 0.432987
vt 0.326239 0.819301
vt 0.636489 0.819237
vt 0.637926 0.865210
vt 0.327122 0.865050
vt 0.087770 0.669692
vt 0.066861 0.667761
vt 0.063468 0.622591
vt 0.085582 0.620871
vt 0.874762 0.619949
vt 0.901461 0.625895
vt 0.902393 0.676758
vt 0.874309 0.668447
vt 0.123315 0.620315
vt 0.168879 0.620014
vt 0.171172 0.668757
vt 0.125306 0.669252
vt 0.204230 0.619005
vt 0.285512 0.615903
vt 0.289309 0.654920
vt 0.207138 0.666738
vt 0.329062 0.609556
vt 0.347154 0.608390
vt 0.349886 0.649653
vt 0.332402 0.653057
vt 0.606661 0.606366
vt 0.636766 0.607454
vt 0.627608 0.648237
vt 0.594952 0.646937
vt 0.663234 0.617041
vt 0.650192 0.655718
vt 0.676322 0.620108
vt 0.757999 0.621925
vt 0.751741 0.674172
vt 0.667486 0.660717
vt 0.792792 0.620392
vt 0.789915 0.674755
vt 0.837499 0.673634
vt 0.837867 0.620145
vt 0.622052 0.701276
vt 0.632619 0.783460
vt 0.326564 0.783477
vt 0.328448 0.701354
vt 0.303016 0.613370
vt 0.308257 0.657058
vt 0.344953 0.675738
vt 0.353177 0.666401
vt 0.597947 0.665632
vt 0.608787 0.675771
vt 0.908838 0.697604
vt 0.878037 0.696176
vt 0.838220 0.701635
vt 0.788162 0.702496
vt 0.066046 0.677369
vt 0.087738 0.679702
vt 0.087186 0.689375
vt 0.062050 0.690960
vt 0.173037 0.690265
vt 0.125675 0.690343
vt 0.125704 0.680006
vt 0.172167 0.679797
vt 0.291694 0.668567
vt 0.295387 0.677585
vt 0.211026 0.687767
vt 0.208979 0.677400
vt 0.633287 0.683886
vt 0.747127 0.701653
vt 0.657554 0.691359
vt 0.336836 0.669837
vt 0.317243 0.674773
vt 0.311253 0.666176
vt 0.330981 0.902593
vt 0.639933 0.901841
vt 0.621083 0.924296
vt 0.341172 0.924694
vt 0.337686 0.685039
vt 0.617297 0.686123
vt 0.084929 0.699731
vt 0.059489 0.698918
vt 0.173578 0.701391
vt 0.125038 0.701425
vt 0.212770 0.698838
vt 0.299594 0.687464
vt 0.324853 0.682807
vt 0.000117 0.000254
vt 0.000109 0.000200
vt 0.000114 0.000187
vt 0.000122 0.000241
vt 0.000114 0.000262
vt 0.000106 0.000210
vt 0.000109 0.000277
vt 0.000100 0.000226
vt 0.000128 0.000289
vt 0.000131 0.000271
vt 0.000125 0.000301
vt 0.000122 0.000319
vt 0.000140 0.000308
vt 0.000142 0.000287
vt 0.000138 0.000323
vt 0.000138 0.000341
vt 0.000152 0.000311
vt 0.000152 0.000290
vt 0.000152 0.000327
vt 0.000152 0.000346
vt 0.000185 0.000253
vt 0.000180 0.000241
vt 0.000187 0.000191
vt 0.000192 0.000203
vt 0.000188 0.000260
vt 0.000195 0.000212
vt 0.000192 0.000272
vt 0.000200 0.000226
vt 0.000175 0.000287
vt 0.000172 0.000269
vt 0.000178 0.000297
vt 0.000181 0.000313
vt 0.000164 0.000307
vt 0.000162 0.000287
vt 0.000165 0.000321
vt 0.000166 0.000338
vt 0.000117 0.000254
vt 0.000109 0.000200
vt 0.000114 0.000186
vt 0.000122 0.000241
vt 0.000113 0.000262
vt 0.000105 0.000210
vt 0.000108 0.000277
vt 0.000100 0.000226
vt 0.000127 0.000289
vt 0.000131 0.000270
vt 0.000125 0.000301
vt 0.000122 0.000318
vt 0.000140 0.000308
vt 0.000141 0.000287
vt 0.000138 0.000323
vt 0.000137 0.000341
vt 0.000152 0.000311
vt 0.000151 0.000290
vt 0.000152 0.000327
vt 0.000152 0.000345
vt 0.000184 0.000252
vt 0.000180 0.000241
vt 0.000187 0.000191
vt 0.000191 0.000203
vt 0.000188 0.000260
vt 0.000195 0.000211
vt 0.000192 0.000271
vt 0.000200 0.000226
vt 0.000175 0.000286
vt 0.000172 0.000269
vt 0.000177 0.000297
vt 0.000180 0.000313
vt 0.000163 0.000306
vt 0.000162 0.000286
vt 0.000165 0.000320
vt 0.000166 0.000338
vt 0.000117 0.000254
vt 0.000122 0.000241
vt 0.000114 0.000187
vt 0.000109 0.000200
vt 0.000114 0.000262
vt 0.000106 0.000210
vt 0.000109 0.000277
vt 0.000100 0.000226
vt 0.000128 0.000289
vt 0.000131 0.000271
vt 0.000125 0.000301
vt 0.000122 0.000319
vt 0.000140 0.000308
vt 0.000142 0.000287
vt 0.000138 0.000323
vt 0.000138 0.000341
vt 0.000152 0.000311
vt 0.000152 0.000290
vt 0.000152 0.000327
vt 0.000152 0.000346
vt 0.000185 0.000253
vt 0.000192 0.000203
vt 0.000187 0.000191
vt 0.000180 0.000241
vt 0.000188 0.000260
vt 0.000195 0.000212
vt 0.000192 0.000272
vt 0.000200 0.000226
vt 0.000175 0.000287
vt 0.000172 0.000269
vt 0.000178 0.000297
vt 0.000181 0.000313
vt 0.000164 0.000307
vt 0.000162 0.000287
vt 0.000165 0.000321
vt 0.000166 0.000338
vt 0.000117 0.000254
vt 0.000122 0.000241
vt 0.000114 0.000186
vt 0.000109 0.000200
vt 0.000113 0.000262
vt 0.000105 0.000210
vt 0.000108 0.000277
vt 0.000100 0.000226
vt 0.000127 0.000289
vt 0.000131 0.000270
vt 0.000125 0.000301
vt 0.000122 0.000318
vt 0.000140 0.000308
vt 0.000141 0.000287
vt 0.000138 0.000323
vt 0.000137 0.000341
vt 0.000152 0.000311
vt 0.000151 0.000290
vt 0.000152 0.000327
vt 0.000152 0.000345
vt 0.000184 0.000252
vt 0.000191 0.000203
vt 0.000187 0.000191
vt 0.000180 0.000241
vt 0.000188 0.000260
vt 0.000195 0.000211
vt 0.000192 0.000271
vt 0.000200 0.000226
vt 0.000175 0.000286
vt 0.000172 0.000269
vt 0.000177 0.000297
vt 0.000180 0.000313
vt 0.000163 0.000306
vt 0.000162 0.000286
vt 0.000165 0.000320
vt 0.000166 0.000338
vt 0.457223 0.529814
vt 0.463753 0.506006
vt 0.473937 0.512342
vt 0.469234 0.532633
vt 0.484797 0.537059
vt 0.487580 0.518580
vt 0.500350 0.520961
vt 0.498910 0.538188
vt 0.571749 0.538680
vt 0.566785 0.521730
vt 0.582604 0.520775
vt 0.587110 0.537679
vt 0.591047 0.516251
vt 0.599150 0.532179
vt 0.604385 0.529758
vt 0.595149 0.512585
vt 0.604486 0.503407
vt 0.617988 0.526704
vt 0.582349 0.504131
vt 0.487554 0.503950
vt 0.485131 0.492348
vt 0.590051 0.493787
vt 0.476827 0.534697
vt 0.480622 0.515524
vt 0.498029 0.511251
vt 0.573496 0.510741
vt 0.568956 0.514092
vt 0.502201 0.514453
vt 0.454950 0.558963
vt 0.467218 0.558963
vt 0.483373 0.558964
vt 0.497666 0.558965
vt 0.573545 0.558968
vt 0.588728 0.558969
vt 0.600909 0.558969
vt 0.621627 0.558970
vt 0.607160 0.558969
vt 0.475158 0.558964
vt 0.477108 0.508258
vt 0.469039 0.499171
vt 0.476318 0.494479
vt 0.481597 0.505391
vt 0.490223 0.515326
vt 0.493281 0.513146
vt 0.579092 0.508109
vt 0.483643 0.512084
vt 0.487661 0.509794
vt 0.492793 0.508569
vt 0.457220 0.588111
vt 0.469232 0.585294
vt 0.473932 0.605586
vt 0.463747 0.611921
vt 0.484795 0.580870
vt 0.498908 0.579742
vt 0.500346 0.596971
vt 0.487576 0.599350
vt 0.571747 0.579255
vt 0.587108 0.580257
vt 0.582600 0.597160
vt 0.566782 0.596204
vt 0.599148 0.585759
vt 0.591043 0.601685
vt 0.604382 0.588180
vt 0.617985 0.591235
vt 0.604480 0.614531
vt 0.595144 0.605351
vt 0.582343 0.613803
vt 0.590044 0.624147
vt 0.485124 0.625585
vt 0.487548 0.613983
vt 0.476825 0.583231
vt 0.480617 0.602406
vt 0.498024 0.606681
vt 0.502196 0.603479
vt 0.568952 0.603842
vt 0.573491 0.607193
vt 0.477103 0.609671
vt 0.481591 0.612540
vt 0.476311 0.623451
vt 0.469033 0.618758
vt 0.493276 0.604786
vt 0.490219 0.602605
vt 0.579087 0.609824
vt 0.487656 0.608137
vt 0.483638 0.605846
vt 0.492788 0.609364
vt 0.655950 0.644710
vt 0.650932 0.649292
vt 0.638828 0.651461
vt 0.631332 0.656886
vt 0.321496 0.652162
vt 0.306047 0.644628
vt 0.290901 0.610597
vt 0.288247 0.558490
vt 0.290956 0.506386
vt 0.306137 0.472372
vt 0.321594 0.464854
vt 0.591294 0.460324
vt 0.638925 0.465888
vt 0.651027 0.468069
vt 0.656040 0.472656
vt 0.659680 0.558636
vt 0.658179 0.558685
vt 0.657451 0.644737
vn 0.995658 -0.092365 0.011581
vn 0.996094 -0.088103 -0.005846
vn 0.956393 0.292078 -0.001551
vn 0.953946 0.298316 0.031546
vn 0.381440 -0.872708 -0.304771
vn 0.091412 -0.935486 -0.341337
vn 0.045156 -0.481352 -0.875364
vn 0.232164 -0.520171 -0.821901
vn 0.281009 0.856710 -0.432530
vn 0.591452 0.710258 -0.381730
vn 0.331027 0.289527 -0.898107
vn 0.150129 0.386596 -0.909948
vn 0.094512 -0.993526 -0.063039
vn 0.401141 -0.913976 -0.061100
vn 0.401322 -0.915929 0.003958
vn 0.095161 -0.995460 -0.001818
vn 0.097230 -0.995122 0.016662
vn 0.399535 -0.916204 0.030688
vn 0.259623 -0.930764 0.257439
vn 0.132834 -0.956631 0.259255
vn 0.084844 -0.429517 0.899064
vn 0.231345 -0.393631 0.889682
vn 0.167536 -0.112259 0.979454
vn 0.055069 -0.106010 0.992839
vn 0.060811 0.107021 0.992395
vn 0.188034 0.063539 0.980105
vn 0.340461 0.420016 0.841233
vn 0.122542 0.450272 0.884443
vn 0.532013 0.657099 0.534026
vn 0.222216 0.771628 0.595995
vn 0.289194 0.918491 0.269704
vn 0.643986 0.732742 0.219937
vn 0.701542 0.707622 0.084324
vn 0.330670 0.937516 0.108262
vn 0.694212 0.717903 0.051820
vn 0.321077 0.945718 0.050280
vn 0.693134 0.720809 0.000518
vn 0.320273 0.947011 -0.024412
vn 0.934602 0.319061 0.157225
vn 0.980899 -0.133920 0.141076
vn 0.994944 -0.098114 0.021457
vn 0.957215 0.285470 0.047388
vn 0.109244 -0.755685 0.645760
vn 0.248902 -0.713308 0.655164
vn 0.649592 -0.123953 0.750111
vn 0.734034 0.182015 0.654267
vn 0.454213 0.080838 0.887218
vn 0.436847 -0.069166 0.896873
vn 0.000000 -0.997984 -0.063468
vn 0.000000 -0.939492 -0.342572
vn 0.000000 0.359590 -0.933110
vn 0.000000 0.901264 -0.433271
vn 0.000000 -0.999998 -0.002088
vn 0.000000 -0.999924 0.012324
vn 0.000000 -0.967293 0.253661
vn 0.000000 -0.435938 0.899977
vn 0.000385 -0.096580 0.995325
vn 0.000342 0.107224 0.994235
vn 0.000000 0.464069 0.885799
vn 0.000000 0.814347 0.580379
vn 0.000000 0.992194 0.124707
vn 0.000000 0.960280 0.279037
vn 0.000000 0.997775 0.066678
vn 0.000001 0.999998 0.002021
vn 0.000000 -0.770282 0.637704
vn 0.889995 0.326148 -0.318648
vn 0.491993 0.066200 -0.868079
vn 0.956393 0.292078 -0.001551
vn 0.953946 0.298316 0.031546
vn 0.456264 -0.249690 -0.854095
vn 0.453833 -0.072630 -0.888122
vn 0.893769 -0.325920 -0.308147
vn 0.717290 -0.628703 -0.300378
vn 0.932493 -0.360966 0.012688
vn 0.749296 -0.662149 0.010687
vn 0.751054 -0.658799 -0.043611
vn 0.934384 -0.355540 -0.022777
vn 0.595106 -0.762982 0.252402
vn 0.741586 -0.670102 0.031829
vn 0.928717 -0.369962 0.024758
vn 0.890423 -0.402020 0.213371
vn 0.519360 -0.280343 0.807263
vn 0.851454 0.307055 0.425139
vn 0.934602 0.319061 0.157225
vn 0.957215 0.285470 0.047388
vn 0.507941 -0.576665 0.639885
vn 0.765612 -0.359897 0.533210
vn 0.000000 -0.479022 -0.877803
vn 0.949477 -0.086932 -0.301557
vn 0.472173 -0.022363 -0.881222
vn 0.491993 0.066200 -0.868079
vn 0.889995 0.326148 -0.318648
vn 0.863307 -0.114307 0.491564
vn 0.851454 0.307055 0.425139
vn 0.472173 -0.022363 -0.881222
vn 0.949477 -0.086932 -0.301557
vn 0.996094 -0.088103 -0.005846
vn 0.995658 -0.092365 0.011581
vn 0.994944 -0.098114 0.021457
vn 0.980899 -0.133920 0.141076
vn 0.863307 -0.114307 0.491564
vn -0.995658 -0.092360 0.011580
vn -0.953946 0.298317 0.031546
vn -0.956394 0.292077 -0.001551
vn -0.996094 -0.088103 -0.005847
vn -0.381440 -0.872707 -0.304771
vn -0.231992 -0.519754 -0.822214
vn -0.045155 -0.481354 -0.875363
vn -0.091412 -0.935486 -0.341336
vn -0.281009 0.856709 -0.432531
vn -0.150143 0.386713 -0.909896
vn -0.331027 0.289527 -0.898107
vn -0.591453 0.710258 -0.381730
vn -0.094512 -0.993526 -0.063039
vn -0.095161 -0.995460 -0.001818
vn -0.401319 -0.915930 0.003958
vn -0.401142 -0.913976 -0.061100
vn -0.097230 -0.995122 0.016662
vn -0.132834 -0.956631 0.259254
vn -0.259623 -0.930764 0.257438
vn -0.399533 -0.916205 0.030688
vn -0.084844 -0.429518 0.899064
vn -0.055467 -0.106559 0.992758
vn -0.167536 -0.112260 0.979454
vn -0.231345 -0.393631 0.889682
vn -0.061282 0.107624 0.992301
vn -0.122542 0.450273 0.884442
vn -0.340462 0.420015 0.841233
vn -0.188034 0.063540 0.980105
vn -0.222215 0.771628 0.595996
vn -0.532013 0.657099 0.534025
vn -0.289193 0.918491 0.269706
vn -0.330670 0.937516 0.108261
vn -0.701542 0.707622 0.084324
vn -0.643987 0.732741 0.219935
vn -0.321077 0.945717 0.050281
vn -0.694212 0.717903 0.051820
vn -0.693134 0.720808 0.000519
vn -0.320273 0.947011 -0.024411
vn -0.934759 0.318396 0.157641
vn -0.957216 0.285469 0.047388
vn -0.994944 -0.098115 0.021456
vn -0.981228 -0.130427 0.142057
vn -0.109244 -0.755685 0.645760
vn -0.248903 -0.713307 0.655164
vn -0.754318 -0.090022 0.650307
vn -0.436848 -0.069167 0.896872
vn -0.454213 0.080840 0.887218
vn -0.736838 0.179427 0.651825
vn -0.492093 0.066233 -0.868019
vn -0.889995 0.326149 -0.318648
vn -0.956394 0.292077 -0.001551
vn -0.953946 0.298317 0.031546
vn -0.456264 -0.249689 -0.854095
vn -0.717293 -0.628700 -0.300378
vn -0.893769 -0.325919 -0.308147
vn -0.452246 -0.072341 -0.888955
vn -0.932494 -0.360962 0.012688
vn -0.934384 -0.355540 -0.022778
vn -0.751054 -0.658799 -0.043612
vn -0.749293 -0.662152 0.010686
vn -0.595106 -0.762984 0.252399
vn -0.890423 -0.402022 0.213369
vn -0.928717 -0.369961 0.024758
vn -0.741586 -0.670102 0.031829
vn -0.852288 0.305101 0.424875
vn -0.957216 0.285469 0.047388
vn -0.934759 0.318396 0.157641
vn -0.519360 -0.280342 0.807263
vn -0.760604 -0.364076 0.537522
vn -0.507941 -0.576665 0.639885
vn -0.949477 -0.086935 -0.301556
vn -0.889995 0.326149 -0.318648
vn -0.492093 0.066233 -0.868019
vn -0.472175 -0.022363 -0.881221
vn -0.909101 -0.129680 0.395877
vn -0.852288 0.305101 0.424875
vn -0.949477 -0.086935 -0.301556
vn -0.472175 -0.022363 -0.881221
vn -0.995658 -0.092360 0.011580
vn -0.996094 -0.088103 -0.005847
vn -0.994944 -0.098115 0.021456
vn -0.981228 -0.130427 0.142057
vn -0.909101 -0.129680 0.395877
vn 0.924529 0.374022 -0.073168
vn 0.905350 0.424667 -0.000002
vn 0.637415 0.770521 -0.000002
vn 0.630455 0.755736 -0.177173
vn 0.805698 -0.577962 0.129661
vn 0.841802 -0.539786 -0.000001
vn 0.408699 -0.894001 0.183652
vn 0.414950 -0.909844 -0.000002
vn 0.924037 0.305393 -0.229980
vn 0.620467 0.615025 -0.486586
vn 0.782367 -0.500105 0.371209
vn 0.364302 -0.736768 0.569611
vn 0.924873 0.159766 -0.345088
vn 0.605164 0.310010 -0.733261
vn 0.755922 -0.305664 0.578923
vn 0.314603 -0.390175 0.865326
vn 0.905000 0.004717 -0.425385
vn 0.570941 -0.010437 -0.820925
vn 0.781067 -0.011479 0.624342
vn 0.338363 0.014754 0.940900
vn 0.884741 -0.457001 -0.091564
vn 0.460649 -0.865234 -0.197922
vn 0.465570 -0.885011 -0.000001
vn 0.856968 -0.515370 0.000000
vn 0.857118 0.503520 0.108700
vn 0.891855 0.452144 0.012663
vn 0.565819 0.809072 0.158910
vn 0.605717 0.794824 0.036911
vn 0.893025 -0.353640 -0.278290
vn 0.483781 -0.698622 -0.527147
vn 0.839924 0.426362 0.335773
vn 0.528236 0.685069 0.501645
vn 0.910576 -0.160972 -0.380709
vn 0.536804 -0.360985 -0.762582
vn 0.794042 0.258249 0.550277
vn 0.418511 0.403035 0.813887
vn 0.903661 0.420043 -0.083434
vn 0.879771 0.475398 -0.000001
vn 0.545403 0.838174 0.000000
vn 0.538449 0.820966 -0.189970
vn 0.842235 -0.525721 0.119408
vn 0.873624 -0.486602 -0.000001
vn 0.517798 -0.838682 0.168812
vn 0.524684 -0.851297 0.000002
vn 0.906522 0.334079 -0.258087
vn 0.541465 0.667237 -0.511479
vn 0.818019 -0.456631 0.349761
vn 0.465951 -0.707918 0.530794
vn 0.915666 0.161155 -0.368218
vn 0.562553 0.344421 -0.751604
vn 0.782017 -0.274289 0.559656
vn 0.379005 -0.401814 0.833607
vn 0.904910 -0.001953 -0.425599
vn 0.571841 0.004376 -0.820353
vn 0.781764 0.004790 0.623556
vn 0.335764 -0.006145 0.941926
vn 0.917383 -0.390543 -0.076716
vn 0.598558 -0.780183 -0.181773
vn 0.605608 -0.795763 -0.000001
vn 0.896587 -0.442868 -0.000001
vn 0.803811 0.582345 0.121501
vn 0.848309 0.529277 0.015414
vn 0.405308 0.896959 0.176604
vn 0.457748 0.888150 0.040709
vn 0.917932 -0.315995 -0.239891
vn 0.592666 -0.634841 -0.495706
vn 0.796201 0.484064 0.362968
vn 0.393975 0.734263 0.552849
vn 0.921408 -0.160614 -0.353851
vn 0.589758 -0.323491 -0.739959
vn 0.766470 0.293741 0.571175
vn 0.338491 0.395930 0.853618
vn -0.924529 0.374022 -0.073168
vn -0.630457 0.755734 -0.177173
vn -0.637417 0.770519 -0.000002
vn -0.905350 0.424666 -0.000002
vn -0.805699 -0.577960 0.129660
vn -0.841803 -0.539785 0.000000
vn -0.408702 -0.893999 0.183652
vn -0.414955 -0.909842 0.000000
vn -0.924037 0.305394 -0.229979
vn -0.620468 0.615025 -0.486584
vn -0.782368 -0.500105 0.371209
vn -0.364304 -0.736767 0.569611
vn -0.924873 0.159767 -0.345085
vn -0.605165 0.310008 -0.733260
vn -0.755921 -0.305666 0.578924
vn -0.314603 -0.390174 0.865326
vn -0.904999 0.004717 -0.425387
vn -0.570940 -0.010440 -0.820926
vn -0.781067 -0.011479 0.624341
vn -0.338363 0.014755 0.940900
vn -0.884736 -0.457009 -0.091565
vn -0.856964 -0.515376 -0.000002
vn -0.465557 -0.885018 -0.000002
vn -0.460639 -0.865239 -0.197923
vn -0.857122 0.503514 0.108701
vn -0.891854 0.452146 0.012661
vn -0.565823 0.809068 0.158910
vn -0.605713 0.794827 0.036906
vn -0.893026 -0.353638 -0.278289
vn -0.483778 -0.698621 -0.527150
vn -0.839923 0.426364 0.335774
vn -0.528237 0.685067 0.501646
vn -0.910576 -0.160972 -0.380710
vn -0.536795 -0.360991 -0.762585
vn -0.794040 0.258250 0.550279
vn -0.418510 0.403034 0.813888
vn -0.903660 0.420046 -0.083434
vn -0.538445 0.820968 -0.189971
vn -0.545397 0.838178 0.000000
vn -0.879769 0.475401 0.000000
vn -0.842236 -0.525719 0.119409
vn -0.873625 -0.486601 0.000000
vn -0.517802 -0.838680 0.168813
vn -0.524685 -0.851297 0.000000
vn -0.906523 0.334078 -0.258087
vn -0.541466 0.667235 -0.511480
vn -0.818019 -0.456631 0.349761
vn -0.465952 -0.707917 0.530794
vn -0.915669 0.161152 -0.368213
vn -0.562551 0.344423 -0.751604
vn -0.782014 -0.274292 0.559659
vn -0.379004 -0.401815 0.833607
vn -0.904910 -0.001954 -0.425598
vn -0.571838 0.004377 -0.820355
vn -0.781762 0.004790 0.623558
vn -0.335763 -0.006144 0.941927
vn -0.917383 -0.390544 -0.076715
vn -0.896588 -0.442865 0.000000
vn -0.605608 -0.795763 0.000000
vn -0.598558 -0.780184 -0.181773
vn -0.803812 0.582344 0.121501
vn -0.848307 0.529280 0.015413
vn -0.405312 0.896958 0.176604
vn -0.457749 0.888149 0.040706
vn -0.917932 -0.315994 -0.239891
vn -0.592663 -0.634842 -0.495708
vn -0.796202 0.484063 0.362968
vn -0.393978 0.734260 0.552850
vn -0.921410 -0.160611 -0.353848
vn -0.589752 -0.323494 -0.739963
vn -0.766465 0.293746 0.571179
vn -0.338488 0.395930 0.853619
vn 0.051814 -0.993698 0.099401
vn 0.378478 -0.914726 0.141533
vn 0.324233 -0.853675 0.407568
vn 0.054635 -0.924029 0.378398
vn 0.048143 -0.416689 0.907773
vn 0.161223 -0.378871 0.911298
vn 0.141804 -0.122321 0.982308
vn 0.048590 -0.138208 0.989211
vn 0.044127 0.079443 0.995862
vn 0.146564 0.047087 0.988080
vn 0.268320 0.340737 0.901056
vn 0.080329 0.355022 0.931400
vn 0.459242 0.601989 0.653227
vn 0.155974 0.691774 0.705069
vn 0.221890 0.828641 0.513926
vn 0.564277 0.696026 0.444004
vn 0.594591 0.688551 0.415163
vn 0.223568 0.839224 0.495702
vn 0.912942 0.283229 0.293800
vn 0.964393 -0.119465 0.235954
vn 0.986355 -0.095752 0.133925
vn 0.906533 0.331192 0.261743
vn 0.052719 -0.666507 0.743633
vn 0.236953 -0.599968 0.764128
vn 0.703924 -0.069705 0.706847
vn 0.667287 0.139949 0.731534
vn 0.377801 0.058529 0.924035
vn 0.418095 -0.055852 0.906685
vn 0.000000 -0.998186 0.060203
vn 0.000001 -0.935927 0.352195
vn -0.000001 -0.441147 0.897435
vn 0.001319 -0.156791 0.987631
vn 0.001267 0.082495 0.996591
vn -0.000001 0.370326 0.928902
vn 0.000000 0.729382 0.684107
vn 0.000000 0.852269 0.523103
vn 0.000000 0.849885 0.526969
vn 0.000000 -0.682279 0.731092
vn 0.670092 -0.623230 0.403189
vn 0.741774 -0.649194 0.168282
vn 0.922328 -0.351671 0.160124
vn 0.865760 -0.369205 0.337857
vn 0.314945 -0.303972 0.899117
vn 0.477394 -0.219273 0.850890
vn 0.803077 0.274604 0.528828
vn 0.499063 -0.472155 0.726640
vn 0.719837 -0.308669 0.621739
vn 0.871287 -0.108594 0.478608
vn -0.051815 -0.993698 0.099399
vn -0.054637 -0.924029 0.378399
vn -0.324234 -0.853672 0.407575
vn -0.378472 -0.914727 0.141537
vn -0.048142 -0.416687 0.907774
vn -0.050117 -0.140113 0.988866
vn -0.141804 -0.122325 0.982308
vn -0.161219 -0.378874 0.911297
vn -0.045779 0.081492 0.995622
vn -0.080331 0.355020 0.931401
vn -0.268320 0.340742 0.901055
vn -0.146565 0.047090 0.988080
vn -0.155976 0.691770 0.705072
vn -0.459246 0.601995 0.653219
vn -0.221891 0.828640 0.513927
vn -0.223568 0.839225 0.495700
vn -0.594590 0.688548 0.415169
vn -0.564281 0.696024 0.444003
vn -0.912943 0.283230 0.293795
vn -0.906535 0.331189 0.261740
vn -0.986355 -0.095749 0.133925
vn -0.964393 -0.119467 0.235952
vn -0.052719 -0.666501 0.743638
vn -0.236946 -0.599974 0.764126
vn -0.703924 -0.069703 0.706847
vn -0.418098 -0.055850 0.906684
vn -0.377805 0.058531 0.924034
vn -0.667286 0.139949 0.731535
vn -0.670089 -0.623233 0.403190
vn -0.865760 -0.369209 0.337853
vn -0.922329 -0.351664 0.160129
vn -0.741775 -0.649191 0.168289
vn -0.477395 -0.219270 0.850891
vn -0.314937 -0.303972 0.899119
vn -0.803075 0.274609 0.528829
vn -0.719842 -0.308664 0.621735
vn -0.499054 -0.472163 0.726641
vn -0.871290 -0.108588 0.478605
vn -0.231992 -0.519754 -0.822214
vn -0.456264 -0.249689 -0.854095
vn -0.452246 -0.072341 -0.888955
vn -0.472175 -0.022363 -0.881221
vn -0.492093 0.066233 -0.868019
vn -0.331027 0.289527 -0.898107
vn -0.150143 0.386713 -0.909896
vn 0.000000 0.359590 -0.933110
vn 0.150129 0.386596 -0.909948
vn 0.331027 0.289527 -0.898107
vn 0.491993 0.066200 -0.868079
vn 0.472173 -0.022363 -0.881222
vn 0.453833 -0.072630 -0.888122
vn 0.456264 -0.249690 -0.854095
vn 0.232164 -0.520171 -0.821901
vn 0.045156 -0.481352 -0.875364
vn 0.000000 -0.479022 -0.877803
vn -0.045155 -0.481354 -0.875363
s 1
f 1/1/1 2/2/2 3/3/3
f 3/3/3 4/4/4 1/1/1
f 5/5/5 6/6/6 7/7/7
f 7/7/7 8/8/8 5/5/5
f 9/9/9 10/10/10 11/11/11
f 11/11/11 12/12/12 9/9/9
f 13/13/13 14/14/14 15/15/15
f 15/15/15 16/16/16 13/13/13
f 17/17/17 18/18/18 19/19/19
f 19/19/19 20/20/20 17/17/17
f 21/21/21 22/22/22 23/23/23
f 23/23/23 24/24/24 21/21/21
f 25/25/25 26/26/26 27/27/27
f 27/27/27 28/28/28 25/25/25
f 28/28/28 27/27/27 29/29/29
f 29/29/29 30/30/30 28/28/28
f 31/31/31 32/32/32 33/33/33
f 33/33/33 34/34/34 31/31/31
f 34/34/34 33/33/33 35/35/35
f 35/35/35 36/36/36 34/34/34
f 37/37/37 38/38/38 36/36/36
f 36/36/36 35/35/35 37/37/37
f 10/10/10 9/9/9 38/38/38
f 38/38/38 37/37/37 10/10/10
f 39/39/39 40/40/40 41/41/41
f 41/41/41 42/42/42 39/39/39
f 16/16/16 15/15/15 18/18/18
f 18/18/18 17/17/17 16/16/16
f 43/43/43 44/44/44 22/22/22
f 22/22/22 21/21/21 43/43/43
f 45/45/45 46/46/46 47/47/47
f 47/47/47 48/48/48 45/45/45
f 41/41/41 1/1/1 4/4/4
f 4/4/4 42/42/42 41/41/41
f 49/49/49 50/50/50 6/6/6
f 6/6/6 13/13/13 49/49/49
f 51/51/51 52/52/52 9/9/9
f 9/9/9 12/12/12 51/51/51
f 53/53/53 49/49/49 13/13/13
f 13/13/13 16/16/16 53/53/53
f 54/54/54 17/17/17 20/20/20
f 20/20/20 55/55/55 54/54/54
f 56/56/56 21/21/21 24/24/24
f 24/24/24 57/57/57 56/56/56
f 58/58/58 25/25/25 28/28/28
f 28/28/28 59/59/59 58/58/58
f 59/59/59 28/28/28 30/30/30
f 30/30/30 60/60/60 59/59/59
f 61/61/61 62/62/62 31/31/31
f 31/31/31 34/34/34 61/61/61
f 61/61/61 34/34/34 36/36/36
f 36/36/36 63/63/63 61/61/61
f 38/38/38 64/64/64 63/63/63
f 63/63/63 36/36/36 38/38/38
f 52/52/52 64/64/64 38/38/38
f 38/38/38 9/9/9 52/52/52
f 53/53/53 16/16/16 17/17/17
f 17/17/17 54/54/54 53/53/53
f 65/65/65 43/43/43 21/21/21
f 21/21/21 56/56/56 65/65/65
f 11/11/11 10/10/10 66/66/66
f 66/66/66 67/67/67 11/11/11
f 10/10/10 37/37/37 68/68/68
f 68/68/68 66/66/66 10/10/10
f 37/37/37 35/35/35 69/69/69
f 69/69/69 68/68/68 37/37/37
f 70/70/70 71/71/71 72/72/72
f 72/72/72 73/73/73 70/70/70
f 74/74/74 75/75/75 76/76/76
f 76/76/76 77/77/77 74/74/74
f 78/78/78 79/79/79 80/80/80
f 80/80/80 81/81/81 78/78/78
f 82/82/82 48/48/48 22/22/22
f 48/48/48 47/47/47 26/26/26
f 26/26/26 23/23/23 48/48/48
f 27/27/27 26/26/26 47/47/47
f 47/47/47 46/46/46 27/27/27
f 29/29/29 27/27/27 46/46/46
f 46/46/46 83/83/83 29/29/29
f 33/33/33 32/32/32 84/84/84
f 84/84/84 85/85/85 33/33/33
f 35/35/35 33/33/33 85/85/85
f 85/85/85 69/69/69 35/35/35
f 79/79/79 75/75/75 74/74/74
f 74/74/74 80/80/80 79/79/79
f 82/82/82 22/22/22 86/86/86
f 86/86/86 87/87/87 82/82/82
f 14/14/14 13/13/13 6/6/6
f 6/6/6 5/5/5 14/14/14
f 50/50/50 88/88/88 7/7/7
f 7/7/7 6/6/6 50/50/50
f 73/73/73 72/72/72 77/77/77
f 77/77/77 76/76/76 73/73/73
f 89/89/89 90/90/90 91/91/91
f 91/91/91 92/92/92 89/89/89
f 2/2/2 89/89/89 92/92/92
f 92/92/92 3/3/3 2/2/2
f 93/93/93 94/94/94 46/46/46
f 46/46/46 45/45/45 93/93/93
f 71/71/71 95/95/95 96/96/96
f 96/96/96 72/72/72 71/71/71
f 73/73/73 5/5/5 8/8/8
f 8/8/8 70/70/70 73/73/73
f 75/75/75 15/15/15 14/14/14
f 14/14/14 76/76/76 75/75/75
f 77/77/77 97/97/97 98/98/98
f 98/98/98 74/74/74 77/77/77
f 19/19/19 18/18/18 79/79/79
f 79/79/79 78/78/78 19/19/19
f 99/99/99 100/100/100 81/81/81
f 81/81/81 80/80/80 99/99/99
f 82/82/82 45/45/45 48/48/48
f 18/18/18 15/15/15 75/75/75
f 75/75/75 79/79/79 18/18/18
f 98/98/98 99/99/99 80/80/80
f 80/80/80 74/74/74 98/98/98
f 86/86/86 22/22/22 44/44/44
f 87/87/87 101/101/101 45/45/45
f 45/45/45 82/82/82 87/87/87
f 72/72/72 96/96/96 97/97/97
f 97/97/97 77/77/77 72/72/72
f 76/76/76 14/14/14 5/5/5
f 5/5/5 73/73/73 76/76/76
f 19/19/19 44/44/44 43/43/43
f 43/43/43 20/20/20 19/19/19
f 29/29/29 32/32/32 31/31/31
f 31/31/31 30/30/30 29/29/29
f 39/39/39 94/94/94 93/93/93
f 93/93/93 40/40/40 39/39/39
f 20/20/20 43/43/43 65/65/65
f 65/65/65 55/55/55 20/20/20
f 30/30/30 31/31/31 62/62/62
f 62/62/62 60/60/60 30/30/30
f 81/81/81 87/87/87 86/86/86
f 86/86/86 78/78/78 81/81/81
f 83/83/83 84/84/84 32/32/32
f 32/32/32 29/29/29 83/83/83
f 78/78/78 86/86/86 44/44/44
f 44/44/44 19/19/19 78/78/78
f 100/100/100 101/101/101 87/87/87
f 87/87/87 81/81/81 100/100/100
f 102/102/102 103/103/103 104/104/104
f 104/104/104 105/105/105 102/102/102
f 106/106/106 107/107/107 108/108/108
f 108/108/108 109/109/109 106/106/106
f 110/110/110 111/111/111 112/112/112
f 112/112/112 113/113/113 110/110/110
f 114/114/114 115/115/115 116/116/116
f 116/116/116 117/117/117 114/114/114
f 118/118/118 119/119/119 120/120/120
f 120/120/120 121/121/121 118/118/118
f 122/122/122 123/123/123 124/124/124
f 124/124/124 125/125/125 122/122/122
f 126/126/126 127/127/127 128/128/128
f 128/128/128 129/129/129 126/126/126
f 127/127/127 130/130/130 131/131/131
f 131/131/131 128/128/128 127/127/127
f 132/132/132 133/133/133 134/134/134
f 134/134/134 135/135/135 132/132/132
f 133/133/133 136/136/136 137/137/137
f 137/137/137 134/134/134 133/133/133
f 138/138/138 137/137/137 136/136/136
f 136/136/136 139/139/139 138/138/138
f 113/113/113 138/138/138 139/139/139
f 139/139/139 110/110/110 113/113/113
f 140/140/140 141/141/141 142/142/142
f 142/142/142 143/143/143 140/140/140
f 115/115/115 118/118/118 121/121/121
f 121/121/121 116/116/116 115/115/115
f 144/144/144 122/122/122 125/125/125
f 125/125/125 145/145/145 144/144/144
f 146/146/146 147/147/147 148/148/148
f 148/148/148 149/149/149 146/146/146
f 142/142/142 141/141/141 103/103/103
f 103/103/103 102/102/102 142/142/142
f 49/49/49 114/114/114 109/109/109
f 109/109/109 50/50/50 49/49/49
f 51/51/51 111/111/111 110/110/110
f 110/110/110 52/52/52 51/51/51
f 53/53/53 115/115/115 114/114/114
f 114/114/114 49/49/49 53/53/53
f 54/54/54 55/55/55 119/119/119
f 119/119/119 118/118/118 54/54/54
f 56/56/56 57/57/57 123/123/123
f 123/123/123 122/122/122 56/56/56
f 58/58/58 59/59/59 127/127/127
f 127/127/127 126/126/126 58/58/58
f 59/59/59 60/60/60 130/130/130
f 130/130/130 127/127/127 59/59/59
f 61/61/61 133/133/133 132/132/132
f 132/132/132 62/62/62 61/61/61
f 61/61/61 63/63/63 136/136/136
f 136/136/136 133/133/133 61/61/61
f 139/139/139 136/136/136 63/63/63
f 63/63/63 64/64/64 139/139/139
f 52/52/52 110/110/110 139/139/139
f 139/139/139 64/64/64 52/52/52
f 53/53/53 54/54/54 118/118/118
f 118/118/118 115/115/115 53/53/53
f 65/65/65 56/56/56 122/122/122
f 122/122/122 144/144/144 65/65/65
f 112/112/112 150/150/150 151/151/151
f 151/151/151 113/113/113 112/112/112
f 113/113/113 151/151/151 152/152/152
f 152/152/152 138/138/138 113/113/113
f 138/138/138 152/152/152 153/153/153
f 153/153/153 137/137/137 138/138/138
f 154/154/154 155/155/155 156/156/156
f 156/156/156 157/157/157 154/154/154
f 158/158/158 159/159/159 160/160/160
f 160/160/160 161/161/161 158/158/158
f 162/162/162 163/163/163 164/164/164
f 164/164/164 165/165/165 162/162/162
f 125/125/125 124/124/124 147/147/147
f 147/147/147 124/124/124 129/129/129
f 129/129/129 148/148/148 147/147/147
f 128/128/128 149/149/149 148/148/148
f 148/148/148 129/129/129 128/128/128
f 131/131/131 166/166/166 149/149/149
f 149/149/149 128/128/128 131/131/131
f 134/134/134 167/167/167 168/168/168
f 168/168/168 135/135/135 134/134/134
f 137/137/137 153/153/153 167/167/167
f 167/167/167 134/134/134 137/137/137
f 165/165/165 164/164/164 158/158/158
f 158/158/158 161/161/161 165/165/165
f 169/169/169 170/170/170 171/171/171
f 171/171/171 125/125/125 169/169/169
f 117/117/117 106/106/106 109/109/109
f 109/109/109 114/114/114 117/117/117
f 50/50/50 109/109/109 108/108/108
f 108/108/108 88/88/88 50/50/50
f 155/155/155 160/160/160 159/159/159
f 159/159/159 156/156/156 155/155/155
f 172/172/172 173/173/173 174/174/174
f 174/174/174 175/175/175 172/172/172
f 105/105/105 104/104/104 173/173/173
f 173/173/173 172/172/172 105/105/105
f 176/176/176 146/146/146 149/149/149
f 149/149/149 177/177/177 176/176/176
f 157/157/157 156/156/156 178/178/178
f 178/178/178 179/179/179 157/157/157
f 155/155/155 154/154/154 107/107/107
f 107/107/107 106/106/106 155/155/155
f 161/161/161 160/160/160 117/117/117
f 117/117/117 116/116/116 161/161/161
f 159/159/159 158/158/158 180/180/180
f 180/180/180 181/181/181 159/159/159
f 120/120/120 162/162/162 165/165/165
f 165/165/165 121/121/121 120/120/120
f 182/182/182 164/164/164 163/163/163
f 163/163/163 183/183/183 182/182/182
f 169/169/169 147/147/147 146/146/146
f 121/121/121 165/165/165 161/161/161
f 161/161/161 116/116/116 121/121/121
f 180/180/180 158/158/158 164/164/164
f 164/164/164 182/182/182 180/180/180
f 171/171/171 145/145/145 125/125/125
f 170/170/170 169/169/169 146/146/146
f 146/146/146 184/184/184 170/170/170
f 156/156/156 159/159/159 181/181/181
f 181/181/181 178/178/178 156/156/156
f 160/160/160 155/155/155 106/106/106
f 106/106/106 117/117/117 160/160/160
f 120/120/120 119/119/119 144/144/144
f 144/144/144 145/145/145 120/120/120
f 131/131/131 130/130/130 132/132/132
f 132/132/132 135/135/135 131/131/131
f 140/140/140 143/143/143 176/176/176
f 176/176/176 177/177/177 140/140/140
f 119/119/119 55/55/55 65/65/65
f 65/65/65 144/144/144 119/119/119
f 130/130/130 60/60/60 62/62/62
f 62/62/62 132/132/132 130/130/130
f 163/163/163 162/162/162 171/171/171
f 171/171/171 170/170/170 163/163/163
f 166/166/166 131/131/131 135/135/135
f 135/135/135 168/168/168 166/166/166
f 162/162/162 120/120/120 145/145/145
f 145/145/145 171/171/171 162/162/162
f 183/183/183 163/163/163 170/170/170
f 170/170/170 184/184/184 183/183/183
f 129/129/129 124/124/124 123/123/123
f 123/123/123 126/126/126 129/129/129
f 24/24/24 23/23/23 26/26/26
f 26/26/26 25/25/25 24/24/24
f 24/24/24 25/25/25 58/58/58
f 58/58/58 57/57/57 24/24/24
f 57/57/57 58/58/58 126/126/126
f 126/126/126 123/123/123 57/57/57
f 185/185/185 186/186/186 187/187/187
f 187/187/187 188/188/188 185/185/185
f 189/189/189 190/190/190 186/186/186
f 186/186/186 185/185/185 189/189/189
f 191/191/191 192/192/192 190/190/190
f 190/190/190 189/189/189 191/191/191
f 193/193/193 185/185/185 188/188/188
f 188/188/188 194/194/194 193/193/193
f 195/195/195 189/189/189 185/185/185
f 185/185/185 193/193/193 195/195/195
f 196/196/196 191/191/191 189/189/189
f 189/189/189 195/195/195 196/196/196
f 197/197/197 193/193/193 194/194/194
f 194/194/194 198/198/198 197/197/197
f 199/199/199 195/195/195 193/193/193
f 193/193/193 197/197/197 199/199/199
f 200/200/200 196/196/196 195/195/195
f 195/195/195 199/199/199 200/200/200
f 201/201/201 197/197/197 198/198/198
f 198/198/198 202/202/202 201/201/201
f 203/203/203 199/199/199 197/197/197
f 197/197/197 201/201/201 203/203/203
f 204/204/204 200/200/200 199/199/199
f 199/199/199 203/203/203 204/204/204
f 205/205/205 206/206/206 207/207/207
f 207/207/207 208/208/208 205/205/205
f 209/209/209 205/205/205 208/208/208
f 208/208/208 210/210/210 209/209/209
f 211/211/211 209/209/209 210/210/210
f 210/210/210 212/212/212 211/211/211
f 213/213/213 214/214/214 206/206/206
f 206/206/206 205/205/205 213/213/213
f 215/215/215 213/213/213 205/205/205
f 205/205/205 209/209/209 215/215/215
f 216/216/216 215/215/215 209/209/209
f 209/209/209 211/211/211 216/216/216
f 217/217/217 218/218/218 214/214/214
f 214/214/214 213/213/213 217/217/217
f 219/219/219 217/217/217 213/213/213
f 213/213/213 215/215/215 219/219/219
f 220/220/220 219/219/219 215/215/215
f 215/215/215 216/216/216 220/220/220
f 201/201/201 202/202/202 218/218/218
f 218/218/218 217/217/217 201/201/201
f 203/203/203 201/201/201 217/217/217
f 217/217/217 219/219/219 203/203/203
f 204/204/204 203/203/203 219/219/219
f 219/219/219 220/220/220 204/204/204
f 221/221/221 222/222/222 223/223/223
f 223/223/223 224/224/224 221/221/221
f 225/225/225 226/226/226 222/222/222
f 222/222/222 221/221/221 225/225/225
f 227/227/227 228/228/228 226/226/226
f 226/226/226 225/225/225 227/227/227
f 229/229/229 221/221/221 224/224/224
f 224/224/224 230/230/230 229/229/229
f 231/231/231 225/225/225 221/221/221
f 221/221/221 229/229/229 231/231/231
f 232/232/232 227/227/227 225/225/225
f 225/225/225 231/231/231 232/232/232
f 233/233/233 229/229/229 230/230/230
f 230/230/230 234/234/234 233/233/233
f 235/235/235 231/231/231 229/229/229
f 229/229/229 233/233/233 235/235/235
f 236/236/236 232/232/232 231/231/231
f 231/231/231 235/235/235 236/236/236
f 237/237/237 233/233/233 234/234/234
f 234/234/234 238/238/238 237/237/237
f 239/239/239 235/235/235 233/233/233
f 233/233/233 237/237/237 239/239/239
f 240/240/240 236/236/236 235/235/235
f 235/235/235 239/239/239 240/240/240
f 241/241/241 242/242/242 243/243/243
f 243/243/243 244/244/244 241/241/241
f 245/245/245 241/241/241 244/244/244
f 244/244/244 246/246/246 245/245/245
f 247/247/247 245/245/245 246/246/246
f 246/246/246 248/248/248 247/247/247
f 249/249/249 250/250/250 242/242/242
f 242/242/242 241/241/241 249/249/249
f 251/251/251 249/249/249 241/241/241
f 241/241/241 245/245/245 251/251/251
f 252/252/252 251/251/251 245/245/245
f 245/245/245 247/247/247 252/252/252
f 253/253/253 254/254/254 250/250/250
f 250/250/250 249/249/249 253/253/253
f 255/255/255 253/253/253 249/249/249
f 249/249/249 251/251/251 255/255/255
f 256/256/256 255/255/255 251/251/251
f 251/251/251 252/252/252 256/256/256
f 237/237/237 238/238/238 254/254/254
f 254/254/254 253/253/253 237/237/237
f 239/239/239 237/237/237 253/253/253
f 253/253/253 255/255/255 239/239/239
f 240/240/240 239/239/239 255/255/255
f 255/255/255 256/256/256 240/240/240
f 257/257/257 258/258/258 259/259/259
f 259/259/259 260/260/260 257/257/257
f 261/261/261 257/257/257 260/260/260
f 260/260/260 262/262/262 261/261/261
f 263/263/263 261/261/261 262/262/262
f 262/262/262 264/264/264 263/263/263
f 265/265/265 266/266/266 258/258/258
f 258/258/258 257/257/257 265/265/265
f 267/267/267 265/265/265 257/257/257
f 257/257/257 261/261/261 267/267/267
f 268/268/268 267/267/267 261/261/261
f 261/261/261 263/263/263 268/268/268
f 269/269/269 270/270/270 266/266/266
f 266/266/266 265/265/265 269/269/269
f 271/271/271 269/269/269 265/265/265
f 265/265/265 267/267/267 271/271/271
f 272/272/272 271/271/271 267/267/267
f 267/267/267 268/268/268 272/272/272
f 273/273/273 274/274/274 270/270/270
f 270/270/270 269/269/269 273/273/273
f 275/275/275 273/273/273 269/269/269
f 269/269/269 271/271/271 275/275/275
f 276/276/276 275/275/275 271/271/271
f 271/271/271 272/272/272 276/276/276
f 277/277/277 278/278/278 279/279/279
f 279/279/279 280/280/280 277/277/277
f 281/281/281 282/282/282 278/278/278
f 278/278/278 277/277/277 281/281/281
f 283/283/283 284/284/284 282/282/282
f 282/282/282 281/281/281 283/283/283
f 285/285/285 277/277/277 280/280/280
f 280/280/280 286/286/286 285/285/285
f 287/287/287 281/281/281 277/277/277
f 277/277/277 285/285/285 287/287/287
f 288/288/288 283/283/283 281/281/281
f 281/281/281 287/287/287 288/288/288
f 289/289/289 285/285/285 286/286/286
f 286/286/286 290/290/290 289/289/289
f 291/291/291 287/287/287 285/285/285
f 285/285/285 289/289/289 291/291/291
f 292/292/292 288/288/288 287/287/287
f 287/287/287 291/291/291 292/292/292
f 273/273/273 289/289/289 290/290/290
f 290/290/290 274/274/274 273/273/273
f 275/275/275 291/291/291 289/289/289
f 289/289/289 273/273/273 275/275/275
f 276/276/276 292/292/292 291/291/291
f 291/291/291 275/275/275 276/276/276
f 293/293/293 294/294/294 295/295/295
f 295/295/295 296/296/296 293/293/293
f 297/297/297 293/293/293 296/296/296
f 296/296/296 298/298/298 297/297/297
f 299/299/299 297/297/297 298/298/298
f 298/298/298 300/300/300 299/299/299
f 301/301/301 302/302/302 294/294/294
f 294/294/294 293/293/293 301/301/301
f 303/303/303 301/301/301 293/293/293
f 293/293/293 297/297/297 303/303/303
f 304/304/304 303/303/303 297/297/297
f 297/297/297 299/299/299 304/304/304
f 305/305/305 306/306/306 302/302/302
f 302/302/302 301/301/301 305/305/305
f 307/307/307 305/305/305 301/301/301
f 301/301/301 303/303/303 307/307/307
f 308/308/308 307/307/307 303/303/303
f 303/303/303 304/304/304 308/308/308
f 309/309/309 310/310/310 306/306/306
f 306/306/306 305/305/305 309/309/309
f 311/311/311 309/309/309 305/305/305
f 305/305/305 307/307/307 311/311/311
f 312/312/312 311/311/311 307/307/307
f 307/307/307 308/308/308 312/312/312
f 313/313/313 314/314/314 315/315/315
f 315/315/315 316/316/316 313/313/313
f 317/317/317 318/318/318 314/314/314
f 314/314/314 313/313/313 317/317/317
f 319/319/319 320/320/320 318/318/318
f 318/318/318 317/317/317 319/319/319
f 321/321/321 313/313/313 316/316/316
f 316/316/316 322/322/322 321/321/321
f 323/323/323 317/317/317 313/313/313
f 313/313/313 321/321/321 323/323/323
f 324/324/324 319/319/319 317/317/317
f 317/317/317 323/323/323 324/324/324
f 325/325/325 321/321/321 322/322/322
f 322/322/322 326/326/326 325/325/325
f 327/327/327 323/323/323 321/321/321
f 321/321/321 325/325/325 327/327/327
f 328/328/328 324/324/324 323/323/323
f 323/323/323 327/327/327 328/328/328
f 309/309/309 325/325/325 326/326/326
f 326/326/326 310/310/310 309/309/309
f 311/311/311 327/327/327 325/325/325
f 325/325/325 309/309/309 311/311/311
f 312/312/312 328/328/328 327/327/327
f 327/327/327 311/311/311 312/312/312
f 329/329/329 330/330/330 331/331/331
f 331/331/331 332/332/332 329/329/329
f 333/333/333 334/334/334 335/335/335
f 335/335/335 336/336/336 333/333/333
f 337/337/337 338/338/338 339/339/339
f 339/339/339 340/340/340 337/337/337
f 340/340/340 339/339/339 341/341/341
f 341/341/341 342/342/342 340/340/340
f 343/343/343 344/344/344 345/345/345
f 345/345/345 346/346/346 343/343/343
f 347/347/347 348/348/348 349/349/349
f 349/349/349 350/350/350 347/347/347
f 351/351/351 352/352/352 334/334/334
f 334/334/334 333/333/333 351/351/351
f 353/353/353 354/354/354 355/355/355
f 355/355/355 356/356/356 353/353/353
f 357/357/357 329/329/329 332/332/332
f 332/332/332 358/358/358 357/357/357
f 359/359/359 333/333/333 336/336/336
f 336/336/336 360/360/360 359/359/359
f 361/361/361 337/337/337 340/340/340
f 340/340/340 362/362/362 361/361/361
f 362/362/362 340/340/340 342/342/342
f 342/342/342 363/363/363 362/362/362
f 364/364/364 365/365/365 343/343/343
f 343/343/343 346/346/346 364/364/364
f 366/366/366 351/351/351 333/333/333
f 333/333/333 359/359/359 366/366/366
f 367/367/367 368/368/368 369/369/369
f 369/369/369 370/370/370 367/367/367
f 335/335/335 371/371/371 372/372/372
f 372/372/372 356/356/356 335/335/335
f 356/356/356 355/355/355 338/338/338
f 338/338/338 335/335/335 356/356/356
f 339/339/339 338/338/338 355/355/355
f 355/355/355 354/354/354 339/339/339
f 341/341/341 339/339/339 354/354/354
f 354/354/354 373/373/373 341/341/341
f 345/345/345 344/344/344 347/347/347
f 347/347/347 350/350/350 345/345/345
f 372/372/372 371/371/371 374/374/374
f 374/374/374 375/375/375 372/372/372
f 376/376/376 373/373/373 354/354/354
f 354/354/354 353/353/353 376/376/376
f 331/331/331 330/330/330 368/368/368
f 368/368/368 367/367/367 331/331/331
f 349/349/349 348/348/348 370/370/370
f 370/370/370 369/369/369 349/349/349
f 335/335/335 334/334/334 371/371/371
f 372/372/372 353/353/353 356/356/356
f 334/334/334 352/352/352 374/374/374
f 374/374/374 371/371/371 334/334/334
f 375/375/375 376/376/376 353/353/353
f 353/353/353 372/372/372 375/375/375
f 331/331/331 352/352/352 351/351/351
f 351/351/351 332/332/332 331/331/331
f 341/341/341 344/344/344 343/343/343
f 343/343/343 342/342/342 341/341/341
f 347/347/347 373/373/373 376/376/376
f 376/376/376 348/348/348 347/347/347
f 332/332/332 351/351/351 366/366/366
f 366/366/366 358/358/358 332/332/332
f 342/342/342 343/343/343 365/365/365
f 365/365/365 363/363/363 342/342/342
f 370/370/370 375/375/375 374/374/374
f 374/374/374 367/367/367 370/370/370
f 373/373/373 347/347/347 344/344/344
f 344/344/344 341/341/341 373/373/373
f 367/367/367 374/374/374 352/352/352
f 352/352/352 331/331/331 367/367/367
f 348/348/348 376/376/376 375/375/375
f 375/375/375 370/370/370 348/348/348
f 377/377/377 378/378/378 379/379/379
f 379/379/379 380/380/380 377/377/377
f 381/381/381 382/382/382 383/383/383
f 383/383/383 384/384/384 381/381/381
f 385/385/385 386/386/386 387/387/387
f 387/387/387 388/388/388 385/385/385
f 386/386/386 389/389/389 390/390/390
f 390/390/390 387/387/387 386/386/386
f 391/391/391 392/392/392 393/393/393
f 393/393/393 394/394/394 391/391/391
f 395/395/395 396/396/396 397/397/397
f 397/397/397 398/398/398 395/395/395
f 399/399/399 381/381/381 384/384/384
f 384/384/384 400/400/400 399/399/399
f 401/401/401 402/402/402 403/403/403
f 403/403/403 404/404/404 401/401/401
f 357/357/357 358/358/358 378/378/378
f 378/378/378 377/377/377 357/357/357
f 359/359/359 360/360/360 382/382/382
f 382/382/382 381/381/381 359/359/359
f 361/361/361 362/362/362 386/386/386
f 386/386/386 385/385/385 361/361/361
f 362/362/362 363/363/363 389/389/389
f 389/389/389 386/386/386 362/362/362
f 364/364/364 392/392/392 391/391/391
f 391/391/391 365/365/365 364/364/364
f 366/366/366 359/359/359 381/381/381
f 381/381/381 399/399/399 366/366/366
f 405/405/405 406/406/406 407/407/407
f 407/407/407 408/408/408 405/405/405
f 383/383/383 402/402/402 409/409/409
f 409/409/409 410/410/410 383/383/383
f 402/402/402 383/383/383 388/388/388
f 388/388/388 403/403/403 402/402/402
f 387/387/387 404/404/404 403/403/403
f 403/403/403 388/388/388 387/387/387
f 390/390/390 411/411/411 404/404/404
f 404/404/404 387/387/387 390/390/390
f 393/393/393 396/396/396 395/395/395
f 395/395/395 394/394/394 393/393/393
f 409/409/409 412/412/412 413/413/413
f 413/413/413 410/410/410 409/409/409
f 414/414/414 401/401/401 404/404/404
f 404/404/404 411/411/411 414/414/414
f 379/379/379 405/405/405 408/408/408
f 408/408/408 380/380/380 379/379/379
f 397/397/397 407/407/407 406/406/406
f 406/406/406 398/398/398 397/397/397
f 383/383/383 410/410/410 384/384/384
f 409/409/409 402/402/402 401/401/401
f 384/384/384 410/410/410 413/413/413
f 413/413/413 400/400/400 384/384/384
f 412/412/412 409/409/409 401/401/401
f 401/401/401 414/414/414 412/412/412
f 379/379/379 378/378/378 399/399/399
f 399/399/399 400/400/400 379/379/379
f 390/390/390 389/389/389 391/391/391
f 391/391/391 394/394/394 390/390/390
f 395/395/395 398/398/398 414/414/414
f 414/414/414 411/411/411 395/395/395
f 378/378/378 358/358/358 366/366/366
f 366/366/366 399/399/399 378/378/378
f 389/389/389 363/363/363 365/365/365
f 365/365/365 391/391/391 389/389/389
f 406/406/406 405/405/405 413/413/413
f 413/413/413 412/412/412 406/406/406
f 411/411/411 390/390/390 394/394/394
f 394/394/394 395/395/395 411/411/411
f 405/405/405 379/379/379 400/400/400
f 400/400/400 413/413/413 405/405/405
f 398/398/398 406/406/406 412/412/412
f 412/412/412 414/414/414 398/398/398
f 388/388/388 383/383/383 382/382/382
f 382/382/382 385/385/385 388/388/388
f 336/336/336 335/335/335 338/338/338
f 338/338/338 337/337/337 336/336/336
f 336/336/336 337/337/337 361/361/361
f 361/361/361 360/360/360 336/336/336
f 360/360/360 361/361/361 385/385/385
f 385/385/385 382/382/382 360/360/360
f 415/415/415 416/416/416 417/417/417
f 417/417/417 418/418/418 419/419/419
f 415/415/415 417/417/417 419/419/419
f 419/419/419 420/420/420 421/421/421
f 421/421/421 422/422/422 423/423/423
f 419/419/419 421/421/421 423/423/423
f 423/423/423 424/424/424 425/425/425
f 425/425/425 426/426/426 427/427/427
f 423/423/423 425/425/425 427/427/427
f 419/419/419 423/423/423 427/427/427
f 415/415/415 419/419/419 427/427/427
f 427/427/427 428/428/428 429/429/429
f 415/415/415 427/427/427 429/429/429
f 429/429/429 430/430/430 431/431/431
f 415/415/415 429/429/429 431/431/431
f 415/415/415 431/431/431 432/432/432
f 147/147/147 169/169/169 125/125/125
f 48/48/48 23/23/23 22/22/22
