# Cocos Creator 3D Mesh Extracted
# Source file: 179083718727969.bin
# Type: skinned, Vertices: 584, Triangles: 1032, Stride: 72 bytes
# Bounding Box: X=[-27.71795, 3.81908], Y=[-6.723486, 6.723484], Z=[0.0002239204, 9.602595]
o Model_2_skinned
v -3.819077 -4.473751 0.312446
v -3.819077 -4.473752 1.962891
v -3.819077 4.473749 1.962891
v -3.819077 4.473749 0.312446
v 3.819080 -4.473752 0.312445
v 3.819080 4.473749 0.312445
v 3.819080 4.473748 1.962890
v 3.819080 -4.473752 1.962890
v -1.273024 6.016948 2.275112
v -1.273025 -6.016952 2.275111
v 1.273027 -6.016952 2.275111
v 1.273028 6.016948 2.275111
v -1.273025 -6.723486 1.962891
v -1.273025 -6.723485 0.312445
v 1.273027 -6.723486 0.312445
v 1.273027 -6.723486 1.962890
v -1.273026 -6.016951 0.000225
v -1.273024 6.016949 0.000225
v 1.273028 6.016949 0.000225
v 1.273027 -6.016951 0.000224
v -1.273024 6.723484 0.312446
v -1.273024 6.723484 1.962891
v 1.273028 6.723484 1.962891
v 1.273028 6.723484 0.312446
v 2.856849 -4.386490 2.275111
v 2.856850 4.386484 2.275111
v 2.593941 5.156069 2.275111
v 1.805216 5.698406 2.275111
v 1.805215 -5.698411 2.275111
v 2.593940 -5.156075 2.275111
v -2.856845 4.386485 2.275113
v -2.856846 -4.386490 2.275112
v -2.593937 -5.156074 2.275112
v -1.805212 -5.698410 2.275111
v -1.805211 5.698406 2.275112
v -2.593937 5.156070 2.275112
v 2.376188 -6.273768 0.312445
v 2.376188 -6.273768 1.962890
v -2.376186 -6.273768 1.962891
v -2.376186 -6.273767 0.312446
v 2.856849 4.386486 0.000224
v 2.856848 -4.386489 0.000224
v 2.593940 -5.156073 0.000224
v 1.805214 -5.698409 0.000224
v 1.805215 5.698407 0.000225
v 2.593940 5.156070 0.000225
v -2.856846 -4.386489 0.000225
v -2.856846 4.386486 0.000225
v -2.593937 5.156071 0.000225
v -1.805212 5.698407 0.000225
v -1.805213 -5.698409 0.000225
v -2.593938 -5.156073 0.000225
v 2.376189 6.273765 1.962891
v 2.376190 6.273766 0.312446
v -2.376185 6.273767 0.312446
v -2.376185 6.273766 1.962891
v -3.458354 5.529654 1.962892
v -3.458354 5.529655 0.312446
v -3.458354 -5.529657 0.312446
v -3.458355 -5.529657 1.962891
v 3.458356 -5.529657 1.962890
v 3.458357 -5.529657 0.312445
v 3.458357 5.529655 0.312445
v 3.458357 5.529654 1.962891
v -3.712162 4.464053 0.138990
v -3.712162 -4.464056 0.138990
v -3.712163 -4.464056 2.136347
v -3.712163 4.464052 2.136348
v 3.712164 4.464052 2.136346
v 3.712164 -4.464056 2.136346
v 3.712164 -4.464056 0.138989
v 3.712165 4.464052 0.138989
v -2.122420 -6.018054 2.240420
v -1.273025 -6.409472 2.240420
v 2.122423 6.018049 2.240420
v 1.273028 6.409467 2.240420
v -2.312745 -6.209839 0.138990
v -1.273025 -6.644982 0.138989
v -2.122419 6.018051 0.034916
v -1.273024 6.409469 0.034916
v 1.273027 -6.409472 2.240419
v 2.122422 -6.018055 2.240419
v -1.273024 6.409468 2.240420
v -2.122419 6.018049 2.240420
v 1.273027 -6.644982 0.138989
v 2.312747 -6.209839 0.138989
v 1.273028 6.409469 0.034916
v 2.122423 6.018050 0.034916
v -3.362308 5.488144 2.136348
v -2.312745 -6.209839 2.136347
v -3.362308 -5.488149 2.136347
v -2.312744 6.209837 0.138990
v -3.362307 5.488145 0.138990
v -3.362308 -5.488148 0.138990
v 2.312747 6.209836 2.136347
v 3.362311 5.488144 2.136347
v 3.362310 -5.488149 2.136346
v 3.362311 5.488145 0.138989
v 3.362310 -5.488148 0.138989
v -2.312744 6.209836 2.136347
v 2.312747 -6.209840 2.136346
v 2.312747 6.209837 0.138990
v -3.391418 4.434965 0.034917
v -3.391419 -4.434968 0.034916
v -3.391419 -4.434969 2.240420
v -3.391418 4.434964 2.240421
v 3.391421 4.434964 2.240420
v 3.391421 -4.434970 2.240419
v 3.391421 -4.434968 0.034915
v 3.391421 4.434965 0.034916
v -1.273025 -6.644982 2.136347
v 1.273028 6.644979 2.136347
v -2.122420 -6.018053 0.034916
v -1.273025 -6.409470 0.034916
v -1.273024 6.644980 0.138990
v 1.273027 -6.644983 2.136346
v -1.273024 6.644979 2.136347
v 1.273027 -6.409471 0.034915
v 2.122422 -6.018054 0.034915
v 1.273028 6.644979 0.138990
v -3.074168 5.363616 2.240421
v -3.074169 -5.363621 2.240420
v -3.074168 5.363617 0.034916
v -3.074169 -5.363620 0.034916
v 3.074173 5.363616 2.240420
v 3.074172 -5.363621 2.240419
v 3.074173 5.363617 0.034916
v 3.074172 -5.363620 0.034915
v -2.579279 -2.786251 1.470648
v -2.579278 -4.275704 1.470648
v -2.579278 -4.275707 7.074941
v -2.579278 -2.786251 7.074942
v 2.493015 -2.786251 1.470648
v 2.493016 -2.786252 7.074940
v 2.493016 -4.275707 7.074940
v 2.493015 -4.275704 1.470647
v -0.888513 -4.557471 8.041530
v -0.888514 -4.557470 0.504060
v 0.802251 -4.557470 0.504060
v 0.802252 -4.557471 8.041530
v -0.888514 -4.275704 0.061520
v -0.888514 -2.786250 0.061520
v 0.802251 -2.786251 0.061521
v 0.802251 -4.275704 0.061519
v -0.888514 -2.504484 0.504060
v -0.888513 -2.504486 8.041530
v 0.802252 -2.504487 8.041530
v 0.802251 -2.504485 0.504061
v -0.888513 -2.786252 8.484070
v -0.888513 -4.275706 8.484070
v 0.802252 -4.275706 8.484068
v 0.802252 -2.786252 8.484070
v 1.854023 -4.557470 1.525304
v 1.854024 -4.557472 7.020283
v 1.679434 -4.557472 7.502314
v 1.155663 -4.557471 7.842010
v 1.155662 -4.557470 0.703579
v 1.679433 -4.557470 1.043273
v -1.940286 -4.557471 7.020283
v -1.940287 -4.557468 1.525304
v -1.765697 -4.557469 1.043273
v -1.241925 -4.557470 0.703580
v -1.241924 -4.557471 7.842010
v -1.765696 -4.557471 7.502315
v 1.534831 -2.786250 0.343202
v 1.534830 -4.275704 0.343201
v -1.621093 -4.275703 0.343202
v -1.621093 -2.786251 0.343202
v 1.854024 -2.504486 7.020282
v 1.854023 -2.504485 1.525304
v 1.679433 -2.504485 1.043273
v 1.155662 -2.504485 0.703580
v 1.155663 -2.504487 7.842010
v 1.679434 -2.504486 7.502314
v -1.940287 -2.504485 1.525305
v -1.940287 -2.504486 7.020285
v -1.765696 -2.504486 7.502316
v -1.241924 -2.504486 7.842010
v -1.241925 -2.504485 0.703580
v -1.765697 -2.504485 1.043274
v 1.534832 -4.275706 8.202386
v 1.534832 -2.786252 8.202386
v -1.621092 -2.786252 8.202388
v -1.621092 -4.275705 8.202386
v -2.339731 -4.275705 7.736311
v -2.339731 -2.786251 7.736311
v -2.339733 -2.786251 0.809278
v -2.339732 -4.275703 0.809279
v 2.253468 -4.275704 0.809277
v 2.253469 -2.786250 0.809278
v 2.253470 -2.786251 7.736311
v 2.253470 -4.275707 7.736311
v -2.508279 -2.629715 7.068869
v -2.508280 -2.629714 1.476722
v -2.508279 -4.432240 1.476721
v -2.508278 -4.432242 7.068868
v 2.422017 -4.432243 7.068868
v 2.422016 -4.432241 1.476720
v 2.422015 -2.629714 1.476720
v 2.422017 -2.629715 7.068867
v -1.452574 -4.526162 0.503370
v -0.888514 -4.526163 0.258204
v 1.366312 -4.526164 8.042219
v 0.802252 -4.526164 8.287384
v -1.578964 -2.629714 0.383244
v -0.888514 -2.629714 0.110691
v -1.452573 -2.535794 8.042219
v -0.888513 -2.535793 8.287386
v 0.802251 -4.526163 0.258203
v 1.366311 -4.526163 0.503369
v -0.888513 -4.526164 8.287386
v -1.452573 -4.526164 8.042219
v 0.802251 -2.629714 0.110692
v 1.492700 -2.629714 0.383244
v 0.802252 -2.535793 8.287384
v 1.366312 -2.535793 8.042219
v -2.275949 -4.432242 7.710311
v -1.578964 -4.432240 0.383244
v -2.275950 -4.432240 0.835278
v -1.578962 -2.629716 8.162345
v -2.275949 -2.629715 7.710312
v -2.275950 -2.629714 0.835277
v 1.492701 -4.432242 8.162344
v 2.189689 -4.432243 7.710311
v 2.189687 -4.432241 0.835277
v 2.189688 -2.629715 7.710311
v 2.189687 -2.629714 0.835277
v -1.578962 -4.432242 8.162344
v 1.492701 -4.432241 0.383243
v 1.492702 -2.629715 8.162345
v -2.295282 -2.535793 7.050650
v -2.295283 -2.535792 1.494940
v -2.295282 -4.526161 1.494940
v -2.295281 -4.526163 7.050649
v 2.209019 -4.526165 7.050649
v 2.209018 -4.526163 1.494939
v 2.209018 -2.535792 1.494940
v 2.209019 -2.535793 7.050648
v -0.888514 -4.432241 0.110691
v 0.802252 -4.432242 8.434897
v -1.452574 -2.535792 0.503369
v -0.888514 -2.535792 0.258204
v -0.888513 -2.629715 8.434899
v 0.802251 -4.432240 0.110691
v -0.888512 -4.432242 8.434899
v 0.802251 -2.535792 0.258205
v 1.366311 -2.535791 0.503370
v 0.802252 -2.629716 8.434897
v -2.084603 -4.526163 7.632312
v -2.084605 -4.526161 0.913276
v -2.084604 -2.535793 7.632314
v -2.084605 -2.535792 0.913276
v 1.998343 -4.526165 7.632312
v 1.998342 -4.526163 0.913276
v 1.998343 -2.535793 7.632312
v 1.998341 -2.535792 0.913276
v -2.579279 4.324391 1.470649
v -2.579278 2.834937 1.470648
v -2.579278 2.834936 7.074941
v -2.579278 4.324389 7.074942
v 2.493015 4.324391 1.470648
v 2.493016 4.324389 7.074941
v 2.493016 2.834936 7.074939
v 2.493015 2.834937 1.470648
v -0.888513 2.553170 8.041530
v -0.888515 2.553172 0.504060
v 0.802250 2.553172 0.504060
v 0.802251 2.553170 8.041528
v -0.888515 2.834937 0.061520
v -0.888515 4.324392 0.061521
v 0.802250 4.324391 0.061520
v 0.802250 2.834937 0.061520
v -0.888514 4.606157 0.504061
v -0.888514 4.606155 8.041530
v 0.802251 4.606155 8.041530
v 0.802250 4.606156 0.504060
v -0.888513 4.324389 8.484070
v -0.888513 2.834936 8.484070
v 0.802251 2.834936 8.484070
v 0.802251 4.324389 8.484070
v 1.854024 2.553172 1.525305
v 1.854024 2.553170 7.020282
v 1.679434 2.553170 7.502313
v 1.155662 2.553170 7.842008
v 1.155661 2.553172 0.703580
v 1.679433 2.553172 1.043274
v -1.940286 2.553170 7.020283
v -1.940287 2.553171 1.525305
v -1.765697 2.553172 1.043274
v -1.241926 2.553171 0.703580
v -1.241925 2.553170 7.842010
v -1.765696 2.553170 7.502315
v 1.534830 4.324391 0.343202
v 1.534830 2.834938 0.343202
v -1.621094 2.834937 0.343202
v -1.621094 4.324392 0.343203
v 1.854024 4.606155 7.020283
v 1.854023 4.606156 1.525305
v 1.679433 4.606156 1.043274
v 1.155661 4.606156 0.703580
v 1.155663 4.606155 7.842010
v 1.679434 4.606155 7.502315
v -1.940287 4.606157 1.525306
v -1.940287 4.606155 7.020283
v -1.765696 4.606155 7.502316
v -1.241925 4.606155 7.842010
v -1.241926 4.606157 0.703580
v -1.765697 4.606157 1.043274
v 1.534831 2.834936 8.202386
v 1.534831 4.324389 8.202387
v -1.621093 4.324390 8.202388
v -1.621093 2.834935 8.202388
v -2.339731 2.834936 7.736311
v -2.339732 4.324390 7.736311
v -2.339733 4.324392 0.809279
v -2.339732 2.834937 0.809278
v 2.253468 2.834938 0.809278
v 2.253468 4.324391 0.809278
v 2.253469 4.324389 7.736311
v 2.253469 2.834936 7.736309
v -2.508279 4.480927 7.068869
v -2.508280 4.480928 1.476722
v -2.508280 2.678401 1.476721
v -2.508279 2.678400 7.068869
v 2.422016 2.678400 7.068867
v 2.422016 2.678401 1.476721
v 2.422015 4.480927 1.476721
v 2.422016 4.480926 7.068869
v -1.452574 2.584479 0.503370
v -0.888515 2.584480 0.258204
v 1.366311 2.584478 8.042219
v 0.802251 2.584477 8.287384
v -1.578964 4.480927 0.383245
v -0.888514 4.480928 0.110692
v -1.452574 4.574848 8.042219
v -0.888513 4.574848 8.287386
v 0.802250 2.584479 0.258204
v 1.366311 2.584480 0.503370
v -0.888513 2.584478 8.287384
v -1.452574 2.584477 8.042219
v 0.802250 4.480927 0.110692
v 1.492700 4.480927 0.383244
v 0.802251 4.574848 8.287384
v 1.366312 4.574848 8.042219
v -2.275949 2.678400 7.710311
v -1.578964 2.678401 0.383244
v -2.275951 2.678401 0.835278
v -1.578963 4.480927 8.162345
v -2.275950 4.480927 7.710311
v -2.275951 4.480928 0.835278
v 1.492701 2.678400 8.162344
v 2.189687 2.678400 7.710311
v 2.189686 2.678401 0.835277
v 2.189687 4.480926 7.710311
v 2.189686 4.480927 0.835277
v -1.578963 2.678399 8.162345
v 1.492700 2.678401 0.383244
v 1.492701 4.480926 8.162344
v -2.295282 4.574849 7.050650
v -2.295283 4.574851 1.494940
v -2.295282 2.584479 1.494940
v -2.295282 2.584478 7.050650
v 2.209019 2.584478 7.050648
v 2.209018 2.584479 1.494939
v 2.209018 4.574850 1.494940
v 2.209019 4.574848 7.050650
v -0.888515 2.678401 0.110691
v 0.802251 2.678399 8.434897
v -1.452575 4.574850 0.503370
v -0.888514 4.574850 0.258205
v -0.888513 4.480927 8.434899
v 0.802250 2.678401 0.110691
v -0.888513 2.678400 8.434897
v 0.802250 4.574850 0.258205
v 1.366311 4.574850 0.503369
v 0.802251 4.480926 8.434897
v -2.084604 2.584478 7.632312
v -2.084606 2.584479 0.913276
v -2.084605 4.574848 7.632312
v -2.084606 4.574850 0.913276
v 1.998343 2.584478 7.632312
v 1.998342 2.584480 0.913276
v 1.998343 4.574848 7.632312
v 1.998341 4.574850 0.913276
v -1.705921 1.787142 9.057525
v -1.379873 0.051273 9.599864
v 1.583497 0.051273 9.602595
v 1.584062 1.770287 9.059767
v -2.559524 2.859968 7.637662
v 1.585494 2.831847 7.638548
v -3.614624 2.859969 5.882617
v 1.587286 2.831145 5.881713
v -4.468233 1.787142 4.462752
v 1.588715 1.769079 4.460349
v -4.794273 0.051274 3.920415
v 1.589264 0.051274 3.917428
v -4.468233 -1.684595 4.462755
v 1.588715 -1.666532 4.460349
v -3.614620 -2.757420 5.882617
v 1.587286 -2.728596 5.881713
v -2.559521 -2.757420 7.637657
v 1.585495 -2.729299 7.638551
v -1.705921 -1.684594 9.057527
v 1.584063 -1.667740 9.059771
v -6.018020 1.787142 9.057522
v -5.691968 0.051273 9.599855
v -1.379873 0.051273 9.599864
v -1.705921 1.787142 9.057525
v -6.871618 2.859967 7.637662
v -2.559524 2.859968 7.637662
v -7.926723 2.859969 5.882617
v -3.614624 2.859969 5.882617
v -8.780335 1.787142 4.462756
v -4.468233 1.787142 4.462752
v -9.106378 0.051274 3.920413
v -4.794273 0.051274 3.920415
v -8.780338 -1.684595 4.462755
v -4.468233 -1.684595 4.462755
v -7.926727 -2.757420 5.882616
v -3.614620 -2.757420 5.882617
v -6.871624 -2.757421 7.637661
v -2.559521 -2.757420 7.637657
v -6.018021 -1.684594 9.057522
v -1.705921 -1.684594 9.057527
v -10.330130 1.787141 9.057528
v -10.004080 0.051273 9.599866
v -5.691968 0.051273 9.599855
v -6.018020 1.787142 9.057522
v -11.183720 2.859967 7.637666
v -6.871618 2.859967 7.637662
v -12.238830 2.859968 5.882623
v -7.926723 2.859969 5.882617
v -13.092440 1.787142 4.462762
v -8.780335 1.787142 4.462756
v -13.418470 0.051273 3.920420
v -9.106378 0.051274 3.920413
v -13.092440 -1.684595 4.462758
v -8.780338 -1.684595 4.462755
v -12.238830 -2.757420 5.882621
v -7.926727 -2.757420 5.882616
v -11.183720 -2.757422 7.637664
v -6.871624 -2.757421 7.637661
v -10.330130 -1.684595 9.057528
v -6.018021 -1.684594 9.057522
v -14.642230 1.787142 9.057524
v -14.316180 0.051273 9.599858
v -10.004080 0.051273 9.599866
v -10.330130 1.787141 9.057528
v -15.495810 2.859967 7.637660
v -11.183720 2.859967 7.637666
v -16.550920 2.859967 5.882616
v -12.238830 2.859968 5.882623
v -17.404540 1.787141 4.462756
v -13.092440 1.787142 4.462762
v -17.730590 0.051273 3.920413
v -13.418470 0.051273 3.920420
v -17.404540 -1.684595 4.462754
v -13.092440 -1.684595 4.462758
v -16.550940 -2.757420 5.882614
v -12.238830 -2.757420 5.882621
v -15.495830 -2.757421 7.637660
v -11.183720 -2.757422 7.637664
v -14.642230 -1.684595 9.057520
v -10.330130 -1.684595 9.057528
v -18.954320 1.787141 9.057522
v -18.628270 0.051272 9.599860
v -14.316180 0.051273 9.599858
v -14.642230 1.787142 9.057524
v -19.807930 2.859967 7.637658
v -15.495810 2.859967 7.637660
v -20.863030 2.859967 5.882616
v -16.550920 2.859967 5.882616
v -21.716640 1.787141 4.462756
v -17.404540 1.787141 4.462756
v -22.042690 0.051273 3.920417
v -17.730590 0.051273 3.920413
v -21.716640 -1.684596 4.462755
v -17.404540 -1.684595 4.462754
v -20.863030 -2.757421 5.882614
v -16.550940 -2.757420 5.882614
v -19.807930 -2.757422 7.637662
v -15.495830 -2.757421 7.637660
v -18.954330 -1.684595 9.057525
v -14.642230 -1.684595 9.057520
v -23.266430 1.787140 9.057527
v -22.940400 0.051272 9.599863
v -18.628270 0.051272 9.599860
v -18.954320 1.787141 9.057522
v -24.120040 2.859968 7.637665
v -19.807930 2.859967 7.637658
v -25.175140 2.859967 5.882619
v -20.863030 2.859967 5.882616
v -26.028760 1.787141 4.462761
v -21.716640 1.787141 4.462756
v -26.354790 0.051273 3.920420
v -22.042690 0.051273 3.920417
v -26.028760 -1.684596 4.462757
v -21.716640 -1.684596 4.462755
v -25.175140 -2.757422 5.882619
v -20.863030 -2.757421 5.882614
v -24.120040 -2.757421 7.637661
v -19.807930 -2.757422 7.637662
v -23.266440 -1.684595 9.057524
v -18.954330 -1.684595 9.057525
v -26.704280 1.791958 9.052636
v -26.704280 0.051272 9.593699
v -22.940400 0.051272 9.599863
v -23.266430 1.787140 9.057527
v -26.704280 2.867217 7.635926
v -24.120040 2.859968 7.637665
v -26.704290 2.866038 5.884070
v -25.175140 2.859967 5.882619
v -26.704310 1.789636 4.465289
v -26.028760 1.787141 4.462761
v -26.704310 0.051273 3.922426
v -26.354790 0.051273 3.920420
v -26.704310 -1.687091 4.465290
v -26.028760 -1.684596 4.462757
v -26.704300 -2.763491 5.884071
v -25.175140 -2.757422 5.882619
v -26.704280 -2.764672 7.635927
v -24.120040 -2.757421 7.637661
v -26.704280 -1.689413 9.052637
v -23.266440 -1.684595 9.057524
v -27.717950 -1.175032 5.136384
v -27.717950 -1.937135 6.138628
v -27.717950 -1.937136 7.381646
v -27.717950 -1.175031 8.383898
v -27.717950 0.051272 8.764606
v -27.717950 1.277577 8.383895
v -27.717950 2.039681 7.381646
v -27.717950 2.039681 6.138631
v -27.717950 1.277577 5.136384
v -27.717950 0.051272 4.755672
v 2.151749 2.192093 5.949426
v 2.150094 2.192093 7.570857
v 2.148841 1.260223 8.819784
v 2.148446 0.051274 9.202283
v 2.148841 -1.157676 8.819787
v 2.150094 -2.089545 7.570860
v 2.151751 -2.089545 5.949425
v 2.153011 -1.157677 4.700493
v 2.153399 0.051274 4.317997
v 2.153010 1.260223 4.700495
v -27.267420 1.735436 8.977693
v -27.267420 0.051272 9.500838
v -27.267420 2.776532 7.607370
v -27.267430 2.776009 5.912783
v -27.267440 1.734404 4.541543
v -27.267440 0.051273 4.017593
v -27.267440 -1.631860 4.541542
v -27.267440 -2.673463 5.912780
v -27.267420 -2.673987 7.607370
v -27.267420 -1.632892 8.977694
v -27.605320 1.563975 8.754777
v -27.605320 0.051272 9.224476
v -27.605320 2.500687 7.522611
v -27.605320 2.500556 5.997634
v -27.605330 1.563718 4.765239
v -27.605330 0.051273 4.295340
v -27.605330 -1.461173 4.765238
v -27.605320 -2.398011 5.997633
v -27.605320 -2.398142 7.522612
v -27.605320 -1.461431 8.754781
v 1.897177 0.051273 9.558349
v 1.897718 1.712327 9.033275
v 1.899131 2.759061 7.631079
v 1.900909 2.758750 5.889195
v 1.902321 1.711790 4.486935
v 1.902851 0.051274 3.961818
v 1.902323 -1.609244 4.486934
v 1.900909 -2.656200 5.889192
v 1.899132 -2.656513 7.631084
v 1.897718 -1.609780 9.033278
v 2.085491 0.051273 9.424910
v 2.085978 1.542307 8.953278
v 2.087332 2.545809 7.608518
v 2.089063 2.545732 5.911763
v 2.090418 1.542172 4.566980
v 2.090894 0.051274 4.095344
v 2.090420 -1.439626 4.566979
v 2.089063 -2.443184 5.911763
v 2.087332 -2.443262 7.608520
v 2.085978 -1.439759 8.953281
vt 0.505255 0.583807
vt 0.505255 0.478733
vt 0.253531 0.478733
vt 0.253531 0.583807
vt 0.505255 0.583807
vt 0.253531 0.583807
vt 0.253531 0.478733
vt 0.505255 0.478733
vt 0.210115 0.458856
vt 0.548671 0.458856
vt 0.548671 0.458856
vt 0.210115 0.458856
vt 0.568548 0.478733
vt 0.568548 0.583807
vt 0.568548 0.583807
vt 0.568548 0.478733
vt 0.548671 0.603684
vt 0.210115 0.603684
vt 0.210115 0.603684
vt 0.548671 0.603684
vt 0.190238 0.583807
vt 0.190238 0.478733
vt 0.190238 0.478733
vt 0.190238 0.583807
vt 0.502800 0.458856
vt 0.255986 0.458856
vt 0.234335 0.458856
vt 0.219077 0.458856
vt 0.539709 0.458856
vt 0.524451 0.458856
vt 0.255986 0.458856
vt 0.502800 0.458856
vt 0.524451 0.458856
vt 0.539709 0.458856
vt 0.219077 0.458856
vt 0.234335 0.458856
vt 0.555896 0.583807
vt 0.555896 0.478733
vt 0.555896 0.478733
vt 0.555896 0.583807
vt 0.255986 0.603684
vt 0.502800 0.603684
vt 0.524451 0.603684
vt 0.539709 0.603684
vt 0.219077 0.603684
vt 0.234335 0.603684
vt 0.502800 0.603684
vt 0.255986 0.603684
vt 0.234335 0.603684
vt 0.219077 0.603684
vt 0.539709 0.603684
vt 0.524451 0.603684
vt 0.202890 0.478733
vt 0.202890 0.583807
vt 0.202890 0.583807
vt 0.202890 0.478733
vt 0.223824 0.478733
vt 0.223824 0.583807
vt 0.534961 0.583807
vt 0.534961 0.478733
vt 0.534961 0.478733
vt 0.534961 0.583807
vt 0.223824 0.583807
vt 0.223824 0.478733
vt 0.253803 0.594850
vt 0.504982 0.594850
vt 0.504982 0.467690
vt 0.253803 0.467690
vt 0.253803 0.467690
vt 0.504982 0.467690
vt 0.504982 0.594850
vt 0.253803 0.594850
vt 0.548702 0.461064
vt 0.559713 0.461064
vt 0.210084 0.461064
vt 0.199072 0.461064
vt 0.554097 0.594850
vt 0.566339 0.594850
vt 0.210084 0.601476
vt 0.199072 0.601476
vt 0.559713 0.461064
vt 0.548702 0.461064
vt 0.199072 0.461064
vt 0.210084 0.461064
vt 0.566339 0.594850
vt 0.554097 0.594850
vt 0.199072 0.601476
vt 0.210084 0.601476
vt 0.224992 0.467690
vt 0.554097 0.467690
vt 0.533793 0.467690
vt 0.204688 0.594850
vt 0.224992 0.594850
vt 0.533793 0.594850
vt 0.204688 0.467690
vt 0.224992 0.467690
vt 0.533793 0.467690
vt 0.224992 0.594850
vt 0.533793 0.594850
vt 0.204688 0.467690
vt 0.554097 0.467690
vt 0.204688 0.594850
vt 0.254622 0.601476
vt 0.504164 0.601476
vt 0.504164 0.461064
vt 0.254622 0.461064
vt 0.254622 0.461064
vt 0.504164 0.461064
vt 0.504164 0.601476
vt 0.254622 0.601476
vt 0.566339 0.467690
vt 0.192446 0.467690
vt 0.548702 0.601476
vt 0.559713 0.601476
vt 0.192446 0.594850
vt 0.566339 0.467690
vt 0.192446 0.467690
vt 0.559713 0.601476
vt 0.548702 0.601476
vt 0.192446 0.594850
vt 0.228496 0.461064
vt 0.530290 0.461064
vt 0.228496 0.601476
vt 0.530290 0.601476
vt 0.228496 0.461064
vt 0.530290 0.461064
vt 0.228496 0.601476
vt 0.530290 0.601476
vt 0.131827 0.872026
vt 0.179662 0.872026
vt 0.179662 0.541869
vt 0.131827 0.541869
vt 0.131827 0.872026
vt 0.131827 0.541869
vt 0.179662 0.541869
vt 0.179662 0.872026
vt 0.188711 0.484926
vt 0.188711 0.928969
vt 0.188711 0.928969
vt 0.188711 0.484926
vt 0.179662 0.955040
vt 0.131827 0.955040
vt 0.131827 0.955040
vt 0.179662 0.955040
vt 0.122778 0.928969
vt 0.122778 0.484926
vt 0.122778 0.484926
vt 0.122778 0.928969
vt 0.131827 0.458856
vt 0.179662 0.458856
vt 0.179662 0.458856
vt 0.131827 0.458856
vt 0.188711 0.868806
vt 0.188711 0.545089
vt 0.188711 0.516692
vt 0.188711 0.496680
vt 0.188711 0.917215
vt 0.188711 0.897204
vt 0.188711 0.545089
vt 0.188711 0.868806
vt 0.188711 0.897204
vt 0.188711 0.917215
vt 0.188711 0.496680
vt 0.188711 0.516692
vt 0.131827 0.938446
vt 0.179662 0.938446
vt 0.179662 0.938446
vt 0.131827 0.938446
vt 0.122778 0.545089
vt 0.122778 0.868806
vt 0.122778 0.897204
vt 0.122778 0.917215
vt 0.122778 0.496680
vt 0.122778 0.516692
vt 0.122778 0.868806
vt 0.122778 0.545089
vt 0.122778 0.516692
vt 0.122778 0.496680
vt 0.122778 0.917215
vt 0.122778 0.897204
vt 0.179662 0.475450
vt 0.131827 0.475450
vt 0.131827 0.475450
vt 0.179662 0.475450
vt 0.179662 0.502907
vt 0.131827 0.502907
vt 0.131827 0.910988
vt 0.179662 0.910988
vt 0.179662 0.910988
vt 0.131827 0.910988
vt 0.131827 0.502907
vt 0.179662 0.502907
vt 0.126800 0.542227
vt 0.126800 0.871668
vt 0.184689 0.871668
vt 0.184689 0.542227
vt 0.184689 0.542227
vt 0.184689 0.871668
vt 0.126800 0.871668
vt 0.126800 0.542227
vt 0.187706 0.929010
vt 0.187706 0.943453
vt 0.187706 0.484886
vt 0.187706 0.470443
vt 0.126800 0.936087
vt 0.126800 0.952143
vt 0.123783 0.484886
vt 0.123783 0.470443
vt 0.187706 0.943453
vt 0.187706 0.929010
vt 0.187706 0.470443
vt 0.187706 0.484886
vt 0.126800 0.952143
vt 0.126800 0.936087
vt 0.123783 0.470443
vt 0.123783 0.484886
vt 0.184689 0.504439
vt 0.184689 0.936087
vt 0.184689 0.909457
vt 0.126800 0.477809
vt 0.126800 0.504439
vt 0.126800 0.909457
vt 0.184689 0.477809
vt 0.184689 0.504439
vt 0.184689 0.909457
vt 0.126800 0.504439
vt 0.126800 0.909457
vt 0.184689 0.477809
vt 0.184689 0.936087
vt 0.126800 0.477809
vt 0.123783 0.543301
vt 0.123783 0.870595
vt 0.187706 0.870595
vt 0.187706 0.543301
vt 0.187706 0.543301
vt 0.187706 0.870595
vt 0.123783 0.870595
vt 0.123783 0.543301
vt 0.184689 0.952143
vt 0.184689 0.461752
vt 0.123783 0.929010
vt 0.123783 0.943453
vt 0.126800 0.461752
vt 0.184689 0.952143
vt 0.184689 0.461752
vt 0.123783 0.943453
vt 0.123783 0.929010
vt 0.126800 0.461752
vt 0.187706 0.509034
vt 0.187706 0.904862
vt 0.123783 0.509034
vt 0.123783 0.904862
vt 0.187706 0.509034
vt 0.187706 0.904862
vt 0.123783 0.509034
vt 0.123783 0.904862
vt 0.064367 0.874202
vt 0.112202 0.874203
vt 0.112202 0.544046
vt 0.064367 0.544046
vt 0.064367 0.874202
vt 0.064367 0.544046
vt 0.112202 0.544046
vt 0.112202 0.874202
vt 0.121251 0.487103
vt 0.121251 0.931146
vt 0.121251 0.931146
vt 0.121251 0.487103
vt 0.112202 0.957216
vt 0.064367 0.957216
vt 0.064367 0.957216
vt 0.112202 0.957216
vt 0.055318 0.931146
vt 0.055318 0.487102
vt 0.055318 0.487102
vt 0.055318 0.931146
vt 0.064367 0.461032
vt 0.112202 0.461032
vt 0.112202 0.461032
vt 0.064367 0.461032
vt 0.121251 0.870983
vt 0.121251 0.547266
vt 0.121251 0.518868
vt 0.121251 0.498857
vt 0.121251 0.919392
vt 0.121251 0.899380
vt 0.121251 0.547266
vt 0.121251 0.870983
vt 0.121251 0.899380
vt 0.121251 0.919392
vt 0.121251 0.498857
vt 0.121251 0.518868
vt 0.064367 0.940622
vt 0.112202 0.940622
vt 0.112202 0.940622
vt 0.064367 0.940622
vt 0.055318 0.547265
vt 0.055318 0.870983
vt 0.055318 0.899380
vt 0.055318 0.919392
vt 0.055318 0.498857
vt 0.055318 0.518868
vt 0.055318 0.870983
vt 0.055318 0.547265
vt 0.055318 0.518868
vt 0.055318 0.498857
vt 0.055318 0.919392
vt 0.055318 0.899380
vt 0.112202 0.477626
vt 0.064367 0.477626
vt 0.064367 0.477626
vt 0.112202 0.477626
vt 0.112202 0.505083
vt 0.064367 0.505083
vt 0.064367 0.913165
vt 0.112202 0.913165
vt 0.112202 0.913165
vt 0.064367 0.913165
vt 0.064367 0.505083
vt 0.112202 0.505083
vt 0.059340 0.544403
vt 0.059340 0.873845
vt 0.117230 0.873845
vt 0.117230 0.544403
vt 0.117230 0.544403
vt 0.117230 0.873845
vt 0.059340 0.873845
vt 0.059340 0.544403
vt 0.120246 0.931186
vt 0.120246 0.945629
vt 0.120246 0.487062
vt 0.120246 0.472619
vt 0.059340 0.938263
vt 0.059340 0.954320
vt 0.056323 0.487062
vt 0.056323 0.472619
vt 0.120246 0.945629
vt 0.120246 0.931186
vt 0.120246 0.472619
vt 0.120246 0.487062
vt 0.059340 0.954320
vt 0.059340 0.938263
vt 0.056323 0.472619
vt 0.056323 0.487062
vt 0.117230 0.506615
vt 0.117230 0.938263
vt 0.117230 0.911633
vt 0.059340 0.479985
vt 0.059340 0.506615
vt 0.059340 0.911633
vt 0.117230 0.479985
vt 0.117230 0.506615
vt 0.117230 0.911633
vt 0.059340 0.506615
vt 0.059340 0.911633
vt 0.117230 0.479985
vt 0.117230 0.938263
vt 0.059340 0.479985
vt 0.056323 0.545477
vt 0.056323 0.872771
vt 0.120246 0.872771
vt 0.120246 0.545477
vt 0.120246 0.545477
vt 0.120246 0.872771
vt 0.056323 0.872771
vt 0.056323 0.545477
vt 0.117230 0.954320
vt 0.117230 0.463929
vt 0.056323 0.931186
vt 0.056323 0.945629
vt 0.059340 0.463929
vt 0.117230 0.954320
vt 0.117230 0.463929
vt 0.056323 0.945629
vt 0.056323 0.931186
vt 0.059340 0.463929
vt 0.120246 0.511210
vt 0.120246 0.907038
vt 0.056323 0.511210
vt 0.056323 0.907038
vt 0.120246 0.511210
vt 0.120246 0.907038
vt 0.056323 0.511210
vt 0.056323 0.907038
vt 0.275463 0.654008
vt 0.372940 0.622303
vt 0.372940 0.622143
vt 0.276410 0.653877
vt 0.215220 0.737013
vt 0.216799 0.736961
vt 0.215220 0.839612
vt 0.216838 0.839665
vt 0.275463 0.922617
vt 0.276478 0.922758
vt 0.372940 0.954322
vt 0.372940 0.954496
vt 0.470416 0.922617
vt 0.469402 0.922758
vt 0.530660 0.839612
vt 0.529041 0.839665
vt 0.530660 0.737013
vt 0.529081 0.736961
vt 0.470416 0.654008
vt 0.469470 0.653877
vt 0.702743 0.066539
vt 0.785244 0.039873
vt 0.785244 0.148812
vt 0.780601 0.144023
vt 0.642331 0.155771
vt 0.754051 0.163173
vt 0.647117 0.272452
vt 0.744372 0.213255
vt 0.708023 0.357166
vt 0.762444 0.256101
vt 0.785244 0.384592
vt 0.785244 0.269629
vt 0.862466 0.357166
vt 0.808045 0.256101
vt 0.923372 0.272452
vt 0.826117 0.213255
vt 0.928159 0.155771
vt 0.816438 0.163173
vt 0.867745 0.066539
vt 0.789887 0.144023
vt 0.283974 0.653355
vt 0.361043 0.628446
vt 0.361043 0.730212
vt 0.356706 0.725738
vt 0.227539 0.736712
vt 0.331904 0.743627
vt 0.232011 0.845710
vt 0.322862 0.790411
vt 0.288906 0.924846
vt 0.339744 0.830435
vt 0.361043 0.950466
vt 0.361043 0.843073
vt 0.433180 0.924846
vt 0.382342 0.830435
vt 0.490075 0.845711
vt 0.399224 0.790411
vt 0.494547 0.736713
vt 0.390182 0.743627
vt 0.438112 0.653356
vt 0.365380 0.725738
vt 0.701288 0.066709
vt 0.783790 0.040043
vt 0.783790 0.148982
vt 0.779147 0.144193
vt 0.640876 0.155942
vt 0.752597 0.163343
vt 0.645663 0.272623
vt 0.742918 0.213425
vt 0.706568 0.357336
vt 0.760989 0.256270
vt 0.783790 0.384761
vt 0.783790 0.269799
vt 0.861012 0.357335
vt 0.806591 0.256270
vt 0.921917 0.272622
vt 0.824662 0.213425
vt 0.926704 0.155941
vt 0.814983 0.163343
vt 0.866291 0.066709
vt 0.788433 0.144193
vt 0.322639 0.653355
vt 0.399708 0.628446
vt 0.399708 0.730211
vt 0.395370 0.725737
vt 0.266204 0.736712
vt 0.370569 0.743626
vt 0.270676 0.845710
vt 0.361527 0.790411
vt 0.327571 0.924846
vt 0.378408 0.830435
vt 0.399708 0.950466
vt 0.399708 0.843073
vt 0.471845 0.924846
vt 0.421007 0.830435
vt 0.528740 0.845710
vt 0.437889 0.790411
vt 0.533212 0.736712
vt 0.428847 0.743627
vt 0.476777 0.653355
vt 0.404045 0.725737
vt 0.700070 0.065556
vt 0.782571 0.038890
vt 0.782571 0.147830
vt 0.777928 0.143040
vt 0.639657 0.154788
vt 0.751378 0.162190
vt 0.644444 0.271469
vt 0.741699 0.212272
vt 0.705349 0.356183
vt 0.759771 0.255117
vt 0.782571 0.383609
vt 0.782571 0.268646
vt 0.859793 0.356183
vt 0.805372 0.255117
vt 0.920698 0.271469
vt 0.823443 0.212272
vt 0.925486 0.154788
vt 0.813764 0.162190
vt 0.865072 0.065556
vt 0.787214 0.143041
vt 0.270897 0.653963
vt 0.368644 0.622333
vt 0.368644 0.621973
vt 0.271167 0.653678
vt 0.210516 0.736784
vt 0.210924 0.736682
vt 0.210583 0.839197
vt 0.210924 0.839282
vt 0.271027 0.922139
vt 0.271167 0.922287
vt 0.368644 0.953874
vt 0.368644 0.953992
vt 0.466260 0.922139
vt 0.466120 0.922287
vt 0.526705 0.839197
vt 0.526364 0.839282
vt 0.526771 0.736784
vt 0.526364 0.736682
vt 0.466391 0.653963
vt 0.466120 0.653678
vt 0.437506 0.882907
vt 0.480301 0.824315
vt 0.480301 0.751649
vt 0.437506 0.693058
vt 0.368644 0.670802
vt 0.299781 0.693058
vt 0.256986 0.751649
vt 0.256986 0.824315
vt 0.299781 0.882907
vt 0.368644 0.905163
vt 0.252723 0.835707
vt 0.252723 0.740918
vt 0.305052 0.667906
vt 0.372940 0.645545
vt 0.440827 0.667906
vt 0.493156 0.740918
vt 0.493156 0.835707
vt 0.440827 0.908719
vt 0.372940 0.931080
vt 0.305052 0.908719
vt 0.274071 0.658345
vt 0.368644 0.627762
vt 0.215609 0.738453
vt 0.215638 0.837519
vt 0.274129 0.917681
vt 0.368644 0.948311
vt 0.463159 0.917681
vt 0.521649 0.837519
vt 0.521679 0.738453
vt 0.463217 0.658345
vt 0.283699 0.671376
vt 0.368644 0.643918
vt 0.231099 0.743408
vt 0.231106 0.832558
vt 0.283713 0.904604
vt 0.368644 0.932074
vt 0.453574 0.904604
vt 0.506181 0.832558
vt 0.506189 0.743408
vt 0.453588 0.671376
vt 0.372940 0.629944
vt 0.285957 0.658553
vt 0.228774 0.738280
vt 0.228800 0.838346
vt 0.286002 0.918078
vt 0.372940 0.946691
vt 0.459877 0.918078
vt 0.517080 0.838346
vt 0.517106 0.738280
vt 0.459922 0.658553
vt 0.372940 0.637745
vt 0.295505 0.663230
vt 0.240749 0.739599
vt 0.240762 0.837026
vt 0.295527 0.913398
vt 0.372940 0.938885
vt 0.450352 0.913398
vt 0.505118 0.837026
vt 0.505131 0.739599
vt 0.450375 0.663230
vn -0.951253 -0.156359 -0.265837
vn -0.951254 -0.156359 0.265835
vn -0.951254 0.156359 0.265836
vn -0.951253 0.156359 -0.265837
vn 0.951253 -0.156359 -0.265838
vn 0.951253 0.156359 -0.265837
vn 0.951253 0.156359 0.265838
vn 0.951253 -0.156359 0.265838
vn -0.013627 0.049860 0.998663
vn -0.017682 -0.051587 0.998512
vn 0.013627 -0.049859 0.998663
vn 0.017682 0.051587 0.998512
vn -0.185910 -0.961171 0.203931
vn -0.184290 -0.961724 -0.202789
vn 0.185910 -0.961170 -0.203933
vn 0.184290 -0.961724 0.202791
vn -0.013627 -0.049859 -0.998663
vn -0.017682 0.051586 -0.998512
vn 0.013627 0.049859 -0.998663
vn 0.017682 -0.051586 -0.998512
vn -0.185910 0.961171 -0.203931
vn -0.184290 0.961724 0.202792
vn 0.185911 0.961171 0.203931
vn 0.184290 0.961724 -0.202791
vn 0.035227 -0.006182 0.999360
vn 0.035227 0.006182 0.999360
vn 0.031509 0.027461 0.999126
vn 0.020829 0.036544 0.999115
vn 0.021532 -0.033851 0.999195
vn 0.031509 -0.027461 0.999126
vn -0.035227 0.006182 0.999360
vn -0.035227 -0.006182 0.999360
vn -0.031509 -0.027461 0.999126
vn -0.020829 -0.036544 0.999115
vn -0.021538 0.033861 0.999194
vn -0.031509 0.027462 0.999126
vn 0.465912 -0.855472 -0.226040
vn 0.467481 -0.854886 0.225014
vn -0.465911 -0.855473 0.226039
vn -0.467481 -0.854886 -0.225014
vn 0.035226 0.006182 -0.999360
vn 0.035226 -0.006182 -0.999360
vn 0.031509 -0.027461 -0.999126
vn 0.020828 -0.036544 -0.999115
vn 0.021532 0.033853 -0.999195
vn 0.031509 0.027461 -0.999126
vn -0.035227 -0.006182 -0.999360
vn -0.035226 0.006182 -0.999360
vn -0.031509 0.027461 -0.999126
vn -0.020829 0.036544 -0.999115
vn -0.021534 -0.033855 -0.999195
vn -0.031509 -0.027461 -0.999126
vn 0.465912 0.855472 0.226040
vn 0.467481 0.854886 -0.225014
vn -0.465912 0.855472 -0.226040
vn -0.467481 0.854886 0.225016
vn -0.776896 0.577650 0.250505
vn -0.776896 0.577650 -0.250505
vn -0.776896 -0.577651 -0.250504
vn -0.776897 -0.577651 0.250503
vn 0.776896 -0.577651 0.250503
vn 0.776896 -0.577650 -0.250504
vn 0.776896 0.577651 -0.250504
vn 0.776896 0.577650 0.250505
vn -0.630076 0.105851 -0.769286
vn -0.630076 -0.105851 -0.769285
vn -0.630077 -0.105851 0.769285
vn -0.630076 0.105851 0.769285
vn 0.630074 0.105850 0.769287
vn 0.630075 -0.105850 0.769287
vn 0.630075 -0.105851 -0.769286
vn 0.630075 0.105850 -0.769286
vn -0.112677 -0.210846 0.971004
vn -0.066822 -0.268141 0.961060
vn 0.112677 0.210844 0.971004
vn 0.066822 0.268139 0.961060
vn -0.331487 -0.606099 -0.723022
vn -0.142937 -0.714814 -0.684551
vn -0.112677 0.210845 -0.971004
vn -0.066822 0.268140 -0.961060
vn 0.060454 -0.267059 0.961782
vn 0.115809 -0.206332 0.971605
vn -0.060454 0.267058 0.961782
vn -0.115808 0.206331 0.971605
vn 0.147621 -0.713733 -0.684685
vn 0.327590 -0.608437 -0.722834
vn 0.060454 0.267059 -0.961782
vn 0.115808 0.206332 -0.971605
vn -0.529219 0.413779 0.740753
vn -0.327590 -0.608437 0.722834
vn -0.529220 -0.413781 0.740751
vn -0.327590 0.608436 -0.722835
vn -0.529220 0.413780 -0.740752
vn -0.529221 -0.413781 -0.740750
vn 0.327589 0.608436 0.722836
vn 0.529220 0.413779 0.740752
vn 0.529220 -0.413781 0.740750
vn 0.529221 0.413780 -0.740751
vn 0.529220 -0.413781 -0.740751
vn -0.331485 0.606097 0.723024
vn 0.331486 -0.606099 0.723022
vn 0.331486 0.606099 -0.723023
vn -0.197555 0.034112 -0.979698
vn -0.197555 -0.034111 -0.979698
vn -0.197555 -0.034111 0.979698
vn -0.197555 0.034111 0.979698
vn 0.197556 0.034111 0.979698
vn 0.197555 -0.034112 0.979698
vn 0.197555 -0.034111 -0.979698
vn 0.197555 0.034112 -0.979698
vn -0.147622 -0.713734 0.684684
vn 0.147622 0.713733 0.684685
vn -0.115809 -0.206332 -0.971605
vn -0.060454 -0.267058 -0.961782
vn -0.147622 0.713734 -0.684683
vn 0.142937 -0.714813 0.684552
vn -0.142937 0.714811 0.684554
vn 0.066821 -0.268140 -0.961060
vn 0.112677 -0.210846 -0.971004
vn 0.142937 0.714814 -0.684551
vn -0.172293 0.145093 0.974302
vn -0.172293 -0.145093 0.974301
vn -0.172294 0.145093 -0.974301
vn -0.172294 -0.145093 -0.974301
vn 0.172294 0.145092 0.974301
vn 0.172294 -0.145093 0.974301
vn 0.172294 0.145093 -0.974301
vn 0.172294 -0.145093 -0.974301
vn -0.963977 0.206661 -0.167450
vn -0.963977 -0.206663 -0.167450
vn -0.963976 -0.206664 0.167450
vn -0.963977 0.206661 0.167451
vn 0.963977 0.206662 -0.167450
vn 0.963977 0.206661 0.167449
vn 0.963977 -0.206661 0.167449
vn 0.963977 -0.206661 -0.167450
vn -0.018223 -0.997297 0.071187
vn -0.023627 -0.997013 -0.073533
vn 0.018222 -0.997297 -0.071187
vn 0.023627 -0.997013 0.073534
vn -0.179327 -0.148067 -0.972583
vn -0.177703 0.146871 -0.973062
vn 0.179326 0.148067 -0.972584
vn 0.177703 -0.146871 -0.973063
vn -0.018222 0.997297 -0.071187
vn -0.023627 0.997013 0.073533
vn 0.018222 0.997297 0.071186
vn 0.023627 0.997013 -0.073533
vn -0.179326 0.148065 0.972584
vn -0.177704 -0.146869 0.973063
vn 0.179326 -0.148066 0.972584
vn 0.177704 0.146873 0.973062
vn 0.048048 -0.998804 -0.009008
vn 0.048047 -0.998805 0.009007
vn 0.042666 -0.998289 0.039983
vn 0.028094 -0.998220 0.052606
vn 0.029137 -0.998389 -0.048682
vn 0.042667 -0.998289 -0.039983
vn -0.048050 -0.998804 0.009007
vn -0.048050 -0.998804 -0.009008
vn -0.042668 -0.998289 -0.039983
vn -0.028095 -0.998220 -0.052607
vn -0.029138 -0.998389 0.048683
vn -0.042668 -0.998289 0.039984
vn 0.450800 0.166181 -0.877020
vn 0.452331 -0.165110 -0.876434
vn -0.450801 -0.166179 -0.877019
vn -0.452330 0.165110 -0.876434
vn 0.048048 0.998805 0.009007
vn 0.048049 0.998805 -0.009007
vn 0.042666 0.998289 -0.039982
vn 0.028093 0.998220 -0.052605
vn 0.029144 0.998388 0.048693
vn 0.042666 0.998289 0.039983
vn -0.048048 0.998804 -0.009007
vn -0.048049 0.998804 0.009007
vn -0.042667 0.998289 0.039983
vn -0.028094 0.998220 0.052606
vn -0.029139 0.998389 -0.048684
vn -0.042667 0.998289 -0.039983
vn 0.450800 -0.166182 0.877019
vn 0.452331 0.165109 0.876434
vn -0.450801 0.166179 0.877020
vn -0.452331 -0.165111 0.876433
vn -0.774089 -0.192037 0.603248
vn -0.774090 0.192034 0.603248
vn -0.774090 0.192036 -0.603248
vn -0.774090 -0.192035 -0.603248
vn 0.774089 -0.192034 -0.603249
vn 0.774090 0.192034 -0.603248
vn 0.774090 0.192035 0.603247
vn 0.774090 -0.192034 0.603248
vn -0.711274 0.691612 0.125547
vn -0.711274 0.691613 -0.125546
vn -0.711271 -0.691615 -0.125546
vn -0.711271 -0.691616 0.125546
vn 0.711273 -0.691614 0.125546
vn 0.711273 -0.691614 -0.125546
vn 0.711273 0.691613 -0.125546
vn 0.711273 0.691613 0.125545
vn -0.145640 -0.946156 -0.289098
vn -0.083727 -0.928803 -0.360991
vn 0.145639 -0.946156 0.289100
vn 0.083726 -0.928803 0.360992
vn -0.358816 0.628942 -0.689698
vn -0.148587 0.585895 -0.796649
vn -0.145640 0.946156 0.289099
vn -0.083726 0.928803 0.360992
vn 0.075902 -0.929862 -0.359994
vn 0.149841 -0.947264 -0.283266
vn -0.075903 -0.929862 0.359993
vn -0.149843 -0.947263 0.283268
vn 0.153717 0.586510 -0.795221
vn 0.354405 0.628975 -0.691945
vn 0.075902 0.929862 0.359993
vn 0.149841 0.947264 0.283266
vn -0.585853 -0.657786 0.473386
vn -0.354406 -0.628975 -0.691945
vn -0.585854 -0.657784 -0.473386
vn -0.354405 0.628974 0.691945
vn -0.585854 0.657783 0.473388
vn -0.585854 0.657785 -0.473386
vn 0.354405 -0.628975 0.691945
vn 0.585855 -0.657784 0.473386
vn 0.585855 -0.657784 -0.473386
vn 0.585855 0.657784 0.473385
vn 0.585855 0.657783 -0.473386
vn -0.358817 -0.628941 0.689698
vn 0.358816 -0.628943 -0.689697
vn 0.358816 0.628941 0.689699
vn -0.261595 0.963985 0.047979
vn -0.261595 0.963984 -0.047979
vn -0.261594 -0.963985 -0.047979
vn -0.261595 -0.963985 0.047979
vn 0.261593 -0.963985 0.047978
vn 0.261594 -0.963985 -0.047978
vn 0.261595 0.963985 -0.047978
vn 0.261594 0.963985 0.047978
vn -0.153717 -0.586512 -0.795220
vn 0.153718 -0.586510 0.795222
vn -0.149842 0.947263 -0.283267
vn -0.075902 0.929862 -0.359994
vn -0.153717 0.586510 0.795221
vn 0.148587 -0.585895 -0.796649
vn -0.148588 -0.585894 0.796650
vn 0.083726 0.928803 -0.360992
vn 0.145639 0.946156 -0.289098
vn 0.148588 0.585896 0.796647
vn -0.225542 -0.953236 0.201178
vn -0.225542 -0.953236 -0.201178
vn -0.225542 0.953235 0.201180
vn -0.225542 0.953236 -0.201178
vn 0.225542 -0.953236 0.201179
vn 0.225541 -0.953236 -0.201178
vn 0.225542 0.953235 0.201179
vn 0.225542 0.953236 -0.201178
vn -0.963978 0.206659 -0.167450
vn -0.963977 -0.206661 -0.167450
vn -0.963977 -0.206661 0.167450
vn -0.963977 0.206659 0.167450
vn 0.963977 0.206662 -0.167450
vn 0.963977 0.206662 0.167450
vn 0.963977 -0.206662 0.167450
vn 0.963977 -0.206661 -0.167450
vn -0.018222 -0.997296 0.071188
vn -0.023627 -0.997013 -0.073534
vn 0.018223 -0.997297 -0.071186
vn 0.023627 -0.997013 0.073532
vn -0.179326 -0.148067 -0.972583
vn -0.177704 0.146871 -0.973062
vn 0.179325 0.148068 -0.972583
vn 0.177704 -0.146871 -0.973062
vn -0.018222 0.997297 -0.071185
vn -0.023627 0.997013 0.073534
vn 0.018222 0.997297 0.071187
vn 0.023627 0.997013 -0.073532
vn -0.179326 0.148065 0.972584
vn -0.177703 -0.146873 0.973062
vn 0.179327 -0.148069 0.972583
vn 0.177704 0.146873 0.973062
vn 0.048048 -0.998804 -0.009008
vn 0.048049 -0.998804 0.009007
vn 0.042667 -0.998289 0.039983
vn 0.028094 -0.998220 0.052606
vn 0.029134 -0.998390 -0.048677
vn 0.042667 -0.998289 -0.039984
vn -0.048049 -0.998804 0.009007
vn -0.048048 -0.998804 -0.009008
vn -0.042667 -0.998289 -0.039983
vn -0.028094 -0.998220 -0.052607
vn -0.029138 -0.998389 0.048682
vn -0.042668 -0.998289 0.039984
vn 0.450801 0.166179 -0.877020
vn 0.452331 -0.165111 -0.876433
vn -0.450801 -0.166178 -0.877020
vn -0.452330 0.165111 -0.876433
vn 0.048049 0.998804 0.009007
vn 0.048047 0.998805 -0.009007
vn 0.042666 0.998289 -0.039982
vn 0.028093 0.998220 -0.052604
vn 0.029135 0.998390 0.048678
vn 0.042667 0.998289 0.039982
vn -0.048047 0.998804 -0.009007
vn -0.048048 0.998805 0.009008
vn -0.042667 0.998289 0.039983
vn -0.028094 0.998220 0.052606
vn -0.029139 0.998389 -0.048686
vn -0.042666 0.998289 -0.039983
vn 0.450802 -0.166181 0.877019
vn 0.452331 0.165112 0.876433
vn -0.450801 0.166180 0.877019
vn -0.452331 -0.165112 0.876433
vn -0.774090 -0.192035 0.603248
vn -0.774089 0.192035 0.603248
vn -0.774090 0.192035 -0.603248
vn -0.774090 -0.192034 -0.603248
vn 0.774089 -0.192034 -0.603248
vn 0.774090 0.192035 -0.603248
vn 0.774089 0.192036 0.603248
vn 0.774090 -0.192034 0.603247
vn -0.711275 0.691612 0.125547
vn -0.711275 0.691611 -0.125546
vn -0.711274 -0.691613 -0.125546
vn -0.711273 -0.691614 0.125547
vn 0.711272 -0.691614 0.125546
vn 0.711272 -0.691614 -0.125547
vn 0.711273 0.691614 -0.125546
vn 0.711273 0.691613 0.125546
vn -0.145639 -0.946156 -0.289098
vn -0.083726 -0.928803 -0.360992
vn 0.145640 -0.946156 0.289099
vn 0.083725 -0.928804 0.360990
vn -0.358816 0.628941 -0.689699
vn -0.148587 0.585895 -0.796648
vn -0.145639 0.946156 0.289098
vn -0.083725 0.928804 0.360990
vn 0.075902 -0.929863 -0.359992
vn 0.149842 -0.947263 -0.283267
vn -0.075901 -0.929862 0.359993
vn -0.149841 -0.947264 0.283266
vn 0.153716 0.586511 -0.795221
vn 0.354406 0.628973 -0.691946
vn 0.075902 0.929862 0.359993
vn 0.149842 0.947263 0.283268
vn -0.585854 -0.657785 0.473385
vn -0.354406 -0.628973 -0.691946
vn -0.585855 -0.657783 -0.473387
vn -0.354406 0.628975 0.691944
vn -0.585854 0.657785 0.473386
vn -0.585855 0.657784 -0.473387
vn 0.354406 -0.628975 0.691944
vn 0.585855 -0.657783 0.473387
vn 0.585854 -0.657784 -0.473387
vn 0.585855 0.657785 0.473386
vn 0.585855 0.657784 -0.473386
vn -0.358816 -0.628944 0.689697
vn 0.358816 -0.628943 -0.689697
vn 0.358816 0.628943 0.689697
vn -0.261594 0.963985 0.047979
vn -0.261594 0.963985 -0.047979
vn -0.261595 -0.963985 -0.047979
vn -0.261594 -0.963985 0.047979
vn 0.261595 -0.963985 0.047978
vn 0.261594 -0.963985 -0.047979
vn 0.261594 0.963985 -0.047978
vn 0.261595 0.963985 0.047978
vn -0.153717 -0.586512 -0.795220
vn 0.153717 -0.586514 0.795219
vn -0.149842 0.947263 -0.283268
vn -0.075902 0.929863 -0.359992
vn -0.153717 0.586511 0.795221
vn 0.148587 -0.585895 -0.796648
vn -0.148587 -0.585898 0.796647
vn 0.083725 0.928803 -0.360991
vn 0.145639 0.946156 -0.289099
vn 0.148588 0.585897 0.796647
vn -0.225542 -0.953236 0.201177
vn -0.225542 -0.953236 -0.201178
vn -0.225541 0.953236 0.201178
vn -0.225541 0.953236 -0.201178
vn 0.225543 -0.953235 0.201179
vn 0.225542 -0.953236 -0.201179
vn 0.225543 0.953235 0.201178
vn 0.225542 0.953236 -0.201178
vn 0.001189 0.576558 0.817056
vn -0.000161 -0.000339 1.000000
vn 0.068977 -0.000198 0.997618
vn 0.087910 0.583581 0.807282
vn 0.003211 0.948799 0.315864
vn 0.112385 0.944379 0.309060
vn 0.002563 0.947814 -0.318812
vn 0.111071 0.944299 -0.309777
vn 0.000857 0.575713 -0.817651
vn 0.086382 0.583841 -0.807259
vn -0.000029 0.000110 -1.000000
vn 0.069338 0.000117 -0.997593
vn 0.000319 -0.575751 -0.817625
vn 0.087128 -0.583691 -0.807288
vn 0.001802 -0.948006 -0.318246
vn 0.111870 -0.944254 -0.309628
vn 0.003045 -0.948629 0.316377
vn 0.112349 -0.944278 0.309382
vn 0.001861 -0.576801 0.816883
vn 0.087207 -0.583607 0.807340
vn 0.000000 0.575549 0.817768
vn 0.000000 0.000000 1.000000
vn -0.000161 -0.000339 1.000000
vn 0.001189 0.576558 0.817056
vn 0.000000 0.948118 0.317919
vn 0.003211 0.948799 0.315864
vn 0.000000 0.948118 -0.317918
vn 0.002563 0.947814 -0.318812
vn -0.000001 0.575551 -0.817766
vn 0.000857 0.575713 -0.817651
vn -0.000001 0.000000 -1.000000
vn -0.000029 0.000110 -1.000000
vn 0.000000 -0.575550 -0.817766
vn 0.000319 -0.575751 -0.817625
vn 0.000000 -0.948118 -0.317919
vn 0.001802 -0.948006 -0.318246
vn 0.000000 -0.948118 0.317918
vn 0.003045 -0.948629 0.316377
vn 0.000001 -0.575549 0.817767
vn 0.001861 -0.576801 0.816883
vn 0.000000 0.575550 0.817767
vn 0.000001 0.000000 1.000000
vn 0.000000 0.000000 1.000000
vn 0.000000 0.575549 0.817768
vn 0.000000 0.948118 0.317919
vn 0.000000 0.948118 0.317919
vn 0.000000 0.948118 -0.317918
vn 0.000000 0.948118 -0.317918
vn 0.000000 0.575550 -0.817766
vn -0.000001 0.575551 -0.817766
vn 0.000000 0.000001 -1.000000
vn -0.000001 0.000000 -1.000000
vn 0.000000 -0.575550 -0.817767
vn 0.000000 -0.575550 -0.817766
vn 0.000000 -0.948118 -0.317918
vn 0.000000 -0.948118 -0.317919
vn 0.000000 -0.948118 0.317918
vn 0.000000 -0.948118 0.317918
vn 0.000000 -0.575550 0.817767
vn 0.000001 -0.575549 0.817767
vn -0.000001 0.575549 0.817767
vn -0.000001 -0.000001 1.000000
vn 0.000001 0.000000 1.000000
vn 0.000000 0.575550 0.817767
vn 0.000000 0.948118 0.317918
vn 0.000000 0.948118 0.317919
vn 0.000000 0.948118 -0.317919
vn 0.000000 0.948118 -0.317918
vn 0.000000 0.575550 -0.817767
vn 0.000000 0.575550 -0.817766
vn 0.000000 0.000001 -1.000000
vn 0.000000 0.000001 -1.000000
vn 0.000000 -0.575550 -0.817767
vn 0.000000 -0.575550 -0.817767
vn 0.000000 -0.948118 -0.317919
vn 0.000000 -0.948118 -0.317918
vn 0.000000 -0.948118 0.317918
vn 0.000000 -0.948118 0.317918
vn 0.000000 -0.575549 0.817767
vn 0.000000 -0.575550 0.817767
vn 0.000000 0.575550 0.817767
vn 0.000001 0.000001 1.000000
vn -0.000001 -0.000001 1.000000
vn -0.000001 0.575549 0.817767
vn 0.000000 0.948118 0.317918
vn 0.000000 0.948118 0.317918
vn 0.000000 0.948118 -0.317918
vn 0.000000 0.948118 -0.317919
vn 0.000000 0.575550 -0.817767
vn 0.000000 0.575550 -0.817767
vn -0.000001 0.000000 -1.000000
vn 0.000000 0.000001 -1.000000
vn 0.000000 -0.575550 -0.817767
vn 0.000000 -0.575550 -0.817767
vn 0.000000 -0.948118 -0.317919
vn 0.000000 -0.948118 -0.317919
vn 0.000000 -0.948118 0.317918
vn 0.000000 -0.948118 0.317918
vn 0.000001 -0.575549 0.817767
vn 0.000000 -0.575549 0.817767
vn -0.000057 0.575294 0.817947
vn -0.000628 -0.000068 1.000000
vn 0.000001 0.000001 1.000000
vn 0.000000 0.575550 0.817767
vn 0.001191 0.948231 0.317580
vn 0.000000 0.948118 0.317918
vn 0.001811 0.947701 -0.319155
vn 0.000000 0.948118 -0.317918
vn -0.000435 0.575053 -0.818116
vn 0.000000 0.575550 -0.817767
vn -0.003008 0.000277 -0.999996
vn -0.000001 0.000000 -1.000000
vn -0.000092 -0.574779 -0.818309
vn 0.000000 -0.575550 -0.817767
vn 0.001650 -0.947840 -0.318744
vn 0.000000 -0.948118 -0.317919
vn 0.000732 -0.948100 0.317973
vn 0.000000 -0.948118 0.317918
vn -0.000358 -0.575273 0.817961
vn 0.000001 -0.575549 0.817767
vn -0.081481 0.572791 0.815642
vn -0.081070 -0.000057 0.996708
vn -0.000628 -0.000068 1.000000
vn -0.000057 0.575294 0.817947
vn -0.081277 0.944938 0.316995
vn 0.001191 0.948231 0.317580
vn -0.080183 0.944766 -0.317785
vn 0.001811 0.947701 -0.319155
vn -0.081588 0.573469 -0.815154
vn -0.000435 0.575053 -0.818116
vn -0.084863 0.000052 -0.996393
vn -0.003008 0.000277 -0.999996
vn -0.082136 -0.573313 -0.815209
vn -0.000092 -0.574779 -0.818309
vn -0.080142 -0.944811 -0.317661
vn 0.001650 -0.947840 -0.318744
vn -0.080723 -0.944958 0.317078
vn 0.000732 -0.948100 0.317973
vn -0.081010 -0.572874 0.815631
vn -0.000358 -0.575273 0.817961
vn -0.990064 -0.079268 -0.116144
vn -0.990452 -0.130281 -0.045063
vn -0.990457 -0.130254 0.045043
vn -0.990061 -0.079251 0.116183
vn -0.989825 0.000004 0.142290
vn -0.990060 0.079260 0.116188
vn -0.990455 0.130264 0.045050
vn -0.990453 0.130284 -0.045044
vn -0.990066 0.079265 -0.116129
vn -0.989845 -0.000016 -0.142152
vn 0.994112 0.100961 -0.039350
vn 0.994033 0.100939 0.041349
vn 0.989052 0.068315 0.130804
vn 0.986487 0.000007 0.163842
vn 0.989053 -0.068315 0.130793
vn 0.994033 -0.100940 0.041341
vn 0.994111 -0.100967 -0.039357
vn 0.989302 -0.068353 -0.128876
vn 0.986806 -0.000004 -0.161909
vn 0.989303 0.068353 -0.128868
vn -0.398162 0.527318 0.750602
vn -0.394535 0.000059 0.918881
vn -0.403643 0.867342 0.291188
vn -0.403092 0.867549 -0.291333
vn -0.398731 0.527650 -0.750066
vn -0.397243 -0.000281 -0.917714
vn -0.398617 -0.527598 -0.750163
vn -0.403074 -0.867463 -0.291616
vn -0.403707 -0.867327 0.291143
vn -0.398211 -0.527230 0.750638
vn -0.821516 0.325123 0.468409
vn -0.818813 0.000029 0.574061
vn -0.825852 0.533875 0.181508
vn -0.825709 0.534091 -0.181527
vn -0.821709 0.325281 -0.467961
vn -0.819604 -0.000137 -0.572931
vn -0.821653 -0.325283 -0.468058
vn -0.825700 -0.534057 -0.181667
vn -0.825884 -0.533838 0.181472
vn -0.821541 -0.325066 0.468405
vn 0.354665 0.000105 0.934993
vn 0.416596 0.534143 0.735622
vn 0.482566 0.831898 0.273999
vn 0.482103 0.832359 -0.273415
vn 0.416363 0.534691 -0.735355
vn 0.355355 -0.000056 -0.934732
vn 0.416333 -0.534758 -0.735324
vn 0.482053 -0.832367 -0.273479
vn 0.482582 -0.831942 0.273837
vn 0.416639 -0.534138 0.735601
vn 0.787003 0.000052 0.616950
vn 0.824541 0.300618 0.479335
vn 0.874817 0.454762 0.166995
vn 0.874920 0.455119 -0.165476
vn 0.825032 0.301023 -0.478235
vn 0.787860 -0.000027 -0.615854
vn 0.825015 -0.301045 -0.478249
vn 0.874899 -0.455143 -0.165520
vn 0.874826 -0.454772 0.166920
vn 0.824567 -0.300621 0.479288
s 1
f 1/1/1 2/2/2 3/3/3
f 3/3/3 4/4/4 1/1/1
f 5/5/5 6/6/6 7/7/7
f 7/7/7 8/8/8 5/5/5
f 9/9/9 10/10/10 11/11/11
f 11/11/11 12/12/12 9/9/9
f 13/13/13 14/14/14 15/15/15
f 15/15/15 16/16/16 13/13/13
f 17/17/17 18/18/18 19/19/19
f 19/19/19 20/20/20 17/17/17
f 21/21/21 22/22/22 23/23/23
f 23/23/23 24/24/24 21/21/21
f 25/25/25 26/26/26 27/27/27
f 25/25/25 27/27/27 28/28/28
f 25/25/25 28/28/28 12/12/12
f 25/25/25 12/12/12 11/11/11
f 11/11/11 29/29/29 30/30/30
f 25/25/25 11/11/11 30/30/30
f 31/31/31 32/32/32 33/33/33
f 31/31/31 33/33/33 34/34/34
f 31/31/31 34/34/34 10/10/10
f 31/31/31 10/10/10 9/9/9
f 9/9/9 35/35/35 36/36/36
f 31/31/31 9/9/9 36/36/36
f 16/16/16 15/15/15 37/37/37
f 37/37/37 38/38/38 16/16/16
f 14/14/14 13/13/13 39/39/39
f 39/39/39 40/40/40 14/14/14
f 41/41/41 42/42/42 43/43/43
f 41/41/41 43/43/43 44/44/44
f 41/41/41 44/44/44 20/20/20
f 41/41/41 20/20/20 19/19/19
f 19/19/19 45/45/45 46/46/46
f 41/41/41 19/19/19 46/46/46
f 47/47/47 48/48/48 49/49/49
f 47/47/47 49/49/49 50/50/50
f 47/47/47 50/50/50 18/18/18
f 47/47/47 18/18/18 17/17/17
f 17/17/17 51/51/51 52/52/52
f 47/47/47 17/17/17 52/52/52
f 24/24/24 23/23/23 53/53/53
f 53/53/53 54/54/54 24/24/24
f 22/22/22 21/21/21 55/55/55
f 55/55/55 56/56/56 22/22/22
f 3/3/3 57/57/57 58/58/58
f 58/58/58 4/4/4 3/3/3
f 1/1/1 59/59/59 60/60/60
f 60/60/60 2/2/2 1/1/1
f 8/8/8 61/61/61 62/62/62
f 62/62/62 5/5/5 8/8/8
f 6/6/6 63/63/63 64/64/64
f 64/64/64 7/7/7 6/6/6
f 57/57/57 56/56/56 55/55/55
f 55/55/55 58/58/58 57/57/57
f 59/59/59 40/40/40 39/39/39
f 39/39/39 60/60/60 59/59/59
f 61/61/61 38/38/38 37/37/37
f 37/37/37 62/62/62 61/61/61
f 63/63/63 54/54/54 53/53/53
f 53/53/53 64/64/64 63/63/63
f 4/4/4 65/65/65 66/66/66
f 66/66/66 1/1/1 4/4/4
f 2/2/2 67/67/67 68/68/68
f 68/68/68 3/3/3 2/2/2
f 7/7/7 69/69/69 70/70/70
f 70/70/70 8/8/8 7/7/7
f 5/5/5 71/71/71 72/72/72
f 72/72/72 6/6/6 5/5/5
f 34/34/34 73/73/73 74/74/74
f 74/74/74 10/10/10 34/34/34
f 28/28/28 75/75/75 76/76/76
f 76/76/76 12/12/12 28/28/28
f 40/40/40 77/77/77 78/78/78
f 78/78/78 14/14/14 40/40/40
f 50/50/50 79/79/79 80/80/80
f 80/80/80 18/18/18 50/50/50
f 10/10/10 74/74/74 81/81/81
f 81/81/81 11/11/11 10/10/10
f 11/11/11 81/81/81 82/82/82
f 82/82/82 29/29/29 11/11/11
f 12/12/12 76/76/76 83/83/83
f 83/83/83 9/9/9 12/12/12
f 9/9/9 83/83/83 84/84/84
f 84/84/84 35/35/35 9/9/9
f 14/14/14 78/78/78 85/85/85
f 85/85/85 15/15/15 14/14/14
f 15/15/15 85/85/85 86/86/86
f 86/86/86 37/37/37 15/15/15
f 18/18/18 80/80/80 87/87/87
f 87/87/87 19/19/19 18/18/18
f 19/19/19 87/87/87 88/88/88
f 88/88/88 45/45/45 19/19/19
f 3/3/3 68/68/68 89/89/89
f 89/89/89 57/57/57 3/3/3
f 39/39/39 90/90/90 91/91/91
f 91/91/91 60/60/60 39/39/39
f 55/55/55 92/92/92 93/93/93
f 93/93/93 58/58/58 55/55/55
f 1/1/1 66/66/66 94/94/94
f 94/94/94 59/59/59 1/1/1
f 53/53/53 95/95/95 96/96/96
f 96/96/96 64/64/64 53/53/53
f 8/8/8 70/70/70 97/97/97
f 97/97/97 61/61/61 8/8/8
f 6/6/6 72/72/72 98/98/98
f 98/98/98 63/63/63 6/6/6
f 37/37/37 86/86/86 99/99/99
f 99/99/99 62/62/62 37/37/37
f 57/57/57 89/89/89 100/100/100
f 100/100/100 56/56/56 57/57/57
f 60/60/60 91/91/91 67/67/67
f 67/67/67 2/2/2 60/60/60
f 58/58/58 93/93/93 65/65/65
f 65/65/65 4/4/4 58/58/58
f 59/59/59 94/94/94 77/77/77
f 77/77/77 40/40/40 59/59/59
f 64/64/64 96/96/96 69/69/69
f 69/69/69 7/7/7 64/64/64
f 61/61/61 97/97/97 101/101/101
f 101/101/101 38/38/38 61/61/61
f 63/63/63 98/98/98 102/102/102
f 102/102/102 54/54/54 63/63/63
f 62/62/62 99/99/99 71/71/71
f 71/71/71 5/5/5 62/62/62
f 65/65/65 103/103/103 104/104/104
f 104/104/104 66/66/66 65/65/65
f 103/103/103 48/48/48 47/47/47
f 47/47/47 104/104/104 103/103/103
f 67/67/67 105/105/105 106/106/106
f 106/106/106 68/68/68 67/67/67
f 105/105/105 32/32/32 31/31/31
f 31/31/31 106/106/106 105/105/105
f 69/69/69 107/107/107 108/108/108
f 108/108/108 70/70/70 69/69/69
f 107/107/107 26/26/26 25/25/25
f 25/25/25 108/108/108 107/107/107
f 71/71/71 109/109/109 110/110/110
f 110/110/110 72/72/72 71/71/71
f 109/109/109 42/42/42 41/41/41
f 41/41/41 110/110/110 109/109/109
f 73/73/73 90/90/90 111/111/111
f 111/111/111 74/74/74 73/73/73
f 90/90/90 39/39/39 13/13/13
f 13/13/13 111/111/111 90/90/90
f 75/75/75 95/95/95 112/112/112
f 112/112/112 76/76/76 75/75/75
f 95/95/95 53/53/53 23/23/23
f 23/23/23 112/112/112 95/95/95
f 77/77/77 113/113/113 114/114/114
f 114/114/114 78/78/78 77/77/77
f 113/113/113 51/51/51 17/17/17
f 17/17/17 114/114/114 113/113/113
f 79/79/79 92/92/92 115/115/115
f 115/115/115 80/80/80 79/79/79
f 92/92/92 55/55/55 21/21/21
f 21/21/21 115/115/115 92/92/92
f 74/74/74 111/111/111 116/116/116
f 116/116/116 81/81/81 74/74/74
f 111/111/111 13/13/13 16/16/16
f 16/16/16 116/116/116 111/111/111
f 81/81/81 116/116/116 101/101/101
f 101/101/101 82/82/82 81/81/81
f 116/116/116 16/16/16 38/38/38
f 38/38/38 101/101/101 116/116/116
f 76/76/76 112/112/112 117/117/117
f 117/117/117 83/83/83 76/76/76
f 112/112/112 23/23/23 22/22/22
f 22/22/22 117/117/117 112/112/112
f 83/83/83 117/117/117 100/100/100
f 100/100/100 84/84/84 83/83/83
f 117/117/117 22/22/22 56/56/56
f 56/56/56 100/100/100 117/117/117
f 78/78/78 114/114/114 118/118/118
f 118/118/118 85/85/85 78/78/78
f 114/114/114 17/17/17 20/20/20
f 20/20/20 118/118/118 114/114/114
f 85/85/85 118/118/118 119/119/119
f 119/119/119 86/86/86 85/85/85
f 118/118/118 20/20/20 44/44/44
f 44/44/44 119/119/119 118/118/118
f 80/80/80 115/115/115 120/120/120
f 120/120/120 87/87/87 80/80/80
f 115/115/115 21/21/21 24/24/24
f 24/24/24 120/120/120 115/115/115
f 87/87/87 120/120/120 102/102/102
f 102/102/102 88/88/88 87/87/87
f 120/120/120 24/24/24 54/54/54
f 54/54/54 102/102/102 120/120/120
f 68/68/68 106/106/106 121/121/121
f 121/121/121 89/89/89 68/68/68
f 106/106/106 31/31/31 36/36/36
f 36/36/36 121/121/121 106/106/106
f 90/90/90 73/73/73 122/122/122
f 122/122/122 91/91/91 90/90/90
f 73/73/73 34/34/34 33/33/33
f 33/33/33 122/122/122 73/73/73
f 92/92/92 79/79/79 123/123/123
f 123/123/123 93/93/93 92/92/92
f 79/79/79 50/50/50 49/49/49
f 49/49/49 123/123/123 79/79/79
f 66/66/66 104/104/104 124/124/124
f 124/124/124 94/94/94 66/66/66
f 104/104/104 47/47/47 52/52/52
f 52/52/52 124/124/124 104/104/104
f 95/95/95 75/75/75 125/125/125
f 125/125/125 96/96/96 95/95/95
f 75/75/75 28/28/28 27/27/27
f 27/27/27 125/125/125 75/75/75
f 70/70/70 108/108/108 126/126/126
f 126/126/126 97/97/97 70/70/70
f 108/108/108 25/25/25 30/30/30
f 30/30/30 126/126/126 108/108/108
f 72/72/72 110/110/110 127/127/127
f 127/127/127 98/98/98 72/72/72
f 110/110/110 41/41/41 46/46/46
f 46/46/46 127/127/127 110/110/110
f 86/86/86 119/119/119 128/128/128
f 128/128/128 99/99/99 86/86/86
f 119/119/119 44/44/44 43/43/43
f 43/43/43 128/128/128 119/119/119
f 89/89/89 121/121/121 84/84/84
f 84/84/84 100/100/100 89/89/89
f 121/121/121 36/36/36 35/35/35
f 35/35/35 84/84/84 121/121/121
f 91/91/91 122/122/122 105/105/105
f 105/105/105 67/67/67 91/91/91
f 122/122/122 33/33/33 32/32/32
f 32/32/32 105/105/105 122/122/122
f 93/93/93 123/123/123 103/103/103
f 103/103/103 65/65/65 93/93/93
f 123/123/123 49/49/49 48/48/48
f 48/48/48 103/103/103 123/123/123
f 94/94/94 124/124/124 113/113/113
f 113/113/113 77/77/77 94/94/94
f 124/124/124 52/52/52 51/51/51
f 51/51/51 113/113/113 124/124/124
f 96/96/96 125/125/125 107/107/107
f 107/107/107 69/69/69 96/96/96
f 125/125/125 27/27/27 26/26/26
f 26/26/26 107/107/107 125/125/125
f 97/97/97 126/126/126 82/82/82
f 82/82/82 101/101/101 97/97/97
f 126/126/126 30/30/30 29/29/29
f 29/29/29 82/82/82 126/126/126
f 98/98/98 127/127/127 88/88/88
f 88/88/88 102/102/102 98/98/98
f 127/127/127 46/46/46 45/45/45
f 45/45/45 88/88/88 127/127/127
f 99/99/99 128/128/128 109/109/109
f 109/109/109 71/71/71 99/99/99
f 128/128/128 43/43/43 42/42/42
f 42/42/42 109/109/109 128/128/128
f 129/129/129 130/130/130 131/131/131
f 131/131/131 132/132/132 129/129/129
f 133/133/133 134/134/134 135/135/135
f 135/135/135 136/136/136 133/133/133
f 137/137/137 138/138/138 139/139/139
f 139/139/139 140/140/140 137/137/137
f 141/141/141 142/142/142 143/143/143
f 143/143/143 144/144/144 141/141/141
f 145/145/145 146/146/146 147/147/147
f 147/147/147 148/148/148 145/145/145
f 149/149/149 150/150/150 151/151/151
f 151/151/151 152/152/152 149/149/149
f 153/153/153 154/154/154 155/155/155
f 153/153/153 155/155/155 156/156/156
f 153/153/153 156/156/156 140/140/140
f 153/153/153 140/140/140 139/139/139
f 139/139/139 157/157/157 158/158/158
f 153/153/153 139/139/139 158/158/158
f 159/159/159 160/160/160 161/161/161
f 159/159/159 161/161/161 162/162/162
f 159/159/159 162/162/162 138/138/138
f 159/159/159 138/138/138 137/137/137
f 137/137/137 163/163/163 164/164/164
f 159/159/159 137/137/137 164/164/164
f 144/144/144 143/143/143 165/165/165
f 165/165/165 166/166/166 144/144/144
f 142/142/142 141/141/141 167/167/167
f 167/167/167 168/168/168 142/142/142
f 169/169/169 170/170/170 171/171/171
f 169/169/169 171/171/171 172/172/172
f 169/169/169 172/172/172 148/148/148
f 169/169/169 148/148/148 147/147/147
f 147/147/147 173/173/173 174/174/174
f 169/169/169 147/147/147 174/174/174
f 175/175/175 176/176/176 177/177/177
f 175/175/175 177/177/177 178/178/178
f 175/175/175 178/178/178 146/146/146
f 175/175/175 146/146/146 145/145/145
f 145/145/145 179/179/179 180/180/180
f 175/175/175 145/145/145 180/180/180
f 152/152/152 151/151/151 181/181/181
f 181/181/181 182/182/182 152/152/152
f 150/150/150 149/149/149 183/183/183
f 183/183/183 184/184/184 150/150/150
f 131/131/131 185/185/185 186/186/186
f 186/186/186 132/132/132 131/131/131
f 129/129/129 187/187/187 188/188/188
f 188/188/188 130/130/130 129/129/129
f 136/136/136 189/189/189 190/190/190
f 190/190/190 133/133/133 136/136/136
f 134/134/134 191/191/191 192/192/192
f 192/192/192 135/135/135 134/134/134
f 185/185/185 184/184/184 183/183/183
f 183/183/183 186/186/186 185/185/185
f 187/187/187 168/168/168 167/167/167
f 167/167/167 188/188/188 187/187/187
f 189/189/189 166/166/166 165/165/165
f 165/165/165 190/190/190 189/189/189
f 191/191/191 182/182/182 181/181/181
f 181/181/181 192/192/192 191/191/191
f 132/132/132 193/193/193 194/194/194
f 194/194/194 129/129/129 132/132/132
f 130/130/130 195/195/195 196/196/196
f 196/196/196 131/131/131 130/130/130
f 135/135/135 197/197/197 198/198/198
f 198/198/198 136/136/136 135/135/135
f 133/133/133 199/199/199 200/200/200
f 200/200/200 134/134/134 133/133/133
f 162/162/162 201/201/201 202/202/202
f 202/202/202 138/138/138 162/162/162
f 156/156/156 203/203/203 204/204/204
f 204/204/204 140/140/140 156/156/156
f 168/168/168 205/205/205 206/206/206
f 206/206/206 142/142/142 168/168/168
f 178/178/178 207/207/207 208/208/208
f 208/208/208 146/146/146 178/178/178
f 138/138/138 202/202/202 209/209/209
f 209/209/209 139/139/139 138/138/138
f 139/139/139 209/209/209 210/210/210
f 210/210/210 157/157/157 139/139/139
f 140/140/140 204/204/204 211/211/211
f 211/211/211 137/137/137 140/140/140
f 137/137/137 211/211/211 212/212/212
f 212/212/212 163/163/163 137/137/137
f 142/142/142 206/206/206 213/213/213
f 213/213/213 143/143/143 142/142/142
f 143/143/143 213/213/213 214/214/214
f 214/214/214 165/165/165 143/143/143
f 146/146/146 208/208/208 215/215/215
f 215/215/215 147/147/147 146/146/146
f 147/147/147 215/215/215 216/216/216
f 216/216/216 173/173/173 147/147/147
f 131/131/131 196/196/196 217/217/217
f 217/217/217 185/185/185 131/131/131
f 167/167/167 218/218/218 219/219/219
f 219/219/219 188/188/188 167/167/167
f 183/183/183 220/220/220 221/221/221
f 221/221/221 186/186/186 183/183/183
f 129/129/129 194/194/194 222/222/222
f 222/222/222 187/187/187 129/129/129
f 181/181/181 223/223/223 224/224/224
f 224/224/224 192/192/192 181/181/181
f 136/136/136 198/198/198 225/225/225
f 225/225/225 189/189/189 136/136/136
f 134/134/134 200/200/200 226/226/226
f 226/226/226 191/191/191 134/134/134
f 165/165/165 214/214/214 227/227/227
f 227/227/227 190/190/190 165/165/165
f 185/185/185 217/217/217 228/228/228
f 228/228/228 184/184/184 185/185/185
f 188/188/188 219/219/219 195/195/195
f 195/195/195 130/130/130 188/188/188
f 186/186/186 221/221/221 193/193/193
f 193/193/193 132/132/132 186/186/186
f 187/187/187 222/222/222 205/205/205
f 205/205/205 168/168/168 187/187/187
f 192/192/192 224/224/224 197/197/197
f 197/197/197 135/135/135 192/192/192
f 189/189/189 225/225/225 229/229/229
f 229/229/229 166/166/166 189/189/189
f 191/191/191 226/226/226 230/230/230
f 230/230/230 182/182/182 191/191/191
f 190/190/190 227/227/227 199/199/199
f 199/199/199 133/133/133 190/190/190
f 193/193/193 231/231/231 232/232/232
f 232/232/232 194/194/194 193/193/193
f 231/231/231 176/176/176 175/175/175
f 175/175/175 232/232/232 231/231/231
f 195/195/195 233/233/233 234/234/234
f 234/234/234 196/196/196 195/195/195
f 233/233/233 160/160/160 159/159/159
f 159/159/159 234/234/234 233/233/233
f 197/197/197 235/235/235 236/236/236
f 236/236/236 198/198/198 197/197/197
f 235/235/235 154/154/154 153/153/153
f 153/153/153 236/236/236 235/235/235
f 199/199/199 237/237/237 238/238/238
f 238/238/238 200/200/200 199/199/199
f 237/237/237 170/170/170 169/169/169
f 169/169/169 238/238/238 237/237/237
f 201/201/201 218/218/218 239/239/239
f 239/239/239 202/202/202 201/201/201
f 218/218/218 167/167/167 141/141/141
f 141/141/141 239/239/239 218/218/218
f 203/203/203 223/223/223 240/240/240
f 240/240/240 204/204/204 203/203/203
f 223/223/223 181/181/181 151/151/151
f 151/151/151 240/240/240 223/223/223
f 205/205/205 241/241/241 242/242/242
f 242/242/242 206/206/206 205/205/205
f 241/241/241 179/179/179 145/145/145
f 145/145/145 242/242/242 241/241/241
f 207/207/207 220/220/220 243/243/243
f 243/243/243 208/208/208 207/207/207
f 220/220/220 183/183/183 149/149/149
f 149/149/149 243/243/243 220/220/220
f 202/202/202 239/239/239 244/244/244
f 244/244/244 209/209/209 202/202/202
f 239/239/239 141/141/141 144/144/144
f 144/144/144 244/244/244 239/239/239
f 209/209/209 244/244/244 229/229/229
f 229/229/229 210/210/210 209/209/209
f 244/244/244 144/144/144 166/166/166
f 166/166/166 229/229/229 244/244/244
f 204/204/204 240/240/240 245/245/245
f 245/245/245 211/211/211 204/204/204
f 240/240/240 151/151/151 150/150/150
f 150/150/150 245/245/245 240/240/240
f 211/211/211 245/245/245 228/228/228
f 228/228/228 212/212/212 211/211/211
f 245/245/245 150/150/150 184/184/184
f 184/184/184 228/228/228 245/245/245
f 206/206/206 242/242/242 246/246/246
f 246/246/246 213/213/213 206/206/206
f 242/242/242 145/145/145 148/148/148
f 148/148/148 246/246/246 242/242/242
f 213/213/213 246/246/246 247/247/247
f 247/247/247 214/214/214 213/213/213
f 246/246/246 148/148/148 172/172/172
f 172/172/172 247/247/247 246/246/246
f 208/208/208 243/243/243 248/248/248
f 248/248/248 215/215/215 208/208/208
f 243/243/243 149/149/149 152/152/152
f 152/152/152 248/248/248 243/243/243
f 215/215/215 248/248/248 230/230/230
f 230/230/230 216/216/216 215/215/215
f 248/248/248 152/152/152 182/182/182
f 182/182/182 230/230/230 248/248/248
f 196/196/196 234/234/234 249/249/249
f 249/249/249 217/217/217 196/196/196
f 234/234/234 159/159/159 164/164/164
f 164/164/164 249/249/249 234/234/234
f 218/218/218 201/201/201 250/250/250
f 250/250/250 219/219/219 218/218/218
f 201/201/201 162/162/162 161/161/161
f 161/161/161 250/250/250 201/201/201
f 220/220/220 207/207/207 251/251/251
f 251/251/251 221/221/221 220/220/220
f 207/207/207 178/178/178 177/177/177
f 177/177/177 251/251/251 207/207/207
f 194/194/194 232/232/232 252/252/252
f 252/252/252 222/222/222 194/194/194
f 232/232/232 175/175/175 180/180/180
f 180/180/180 252/252/252 232/232/232
f 223/223/223 203/203/203 253/253/253
f 253/253/253 224/224/224 223/223/223
f 203/203/203 156/156/156 155/155/155
f 155/155/155 253/253/253 203/203/203
f 198/198/198 236/236/236 254/254/254
f 254/254/254 225/225/225 198/198/198
f 236/236/236 153/153/153 158/158/158
f 158/158/158 254/254/254 236/236/236
f 200/200/200 238/238/238 255/255/255
f 255/255/255 226/226/226 200/200/200
f 238/238/238 169/169/169 174/174/174
f 174/174/174 255/255/255 238/238/238
f 214/214/214 247/247/247 256/256/256
f 256/256/256 227/227/227 214/214/214
f 247/247/247 172/172/172 171/171/171
f 171/171/171 256/256/256 247/247/247
f 217/217/217 249/249/249 212/212/212
f 212/212/212 228/228/228 217/217/217
f 249/249/249 164/164/164 163/163/163
f 163/163/163 212/212/212 249/249/249
f 219/219/219 250/250/250 233/233/233
f 233/233/233 195/195/195 219/219/219
f 250/250/250 161/161/161 160/160/160
f 160/160/160 233/233/233 250/250/250
f 221/221/221 251/251/251 231/231/231
f 231/231/231 193/193/193 221/221/221
f 251/251/251 177/177/177 176/176/176
f 176/176/176 231/231/231 251/251/251
f 222/222/222 252/252/252 241/241/241
f 241/241/241 205/205/205 222/222/222
f 252/252/252 180/180/180 179/179/179
f 179/179/179 241/241/241 252/252/252
f 224/224/224 253/253/253 235/235/235
f 235/235/235 197/197/197 224/224/224
f 253/253/253 155/155/155 154/154/154
f 154/154/154 235/235/235 253/253/253
f 225/225/225 254/254/254 210/210/210
f 210/210/210 229/229/229 225/225/225
f 254/254/254 158/158/158 157/157/157
f 157/157/157 210/210/210 254/254/254
f 226/226/226 255/255/255 216/216/216
f 216/216/216 230/230/230 226/226/226
f 255/255/255 174/174/174 173/173/173
f 173/173/173 216/216/216 255/255/255
f 227/227/227 256/256/256 237/237/237
f 237/237/237 199/199/199 227/227/227
f 256/256/256 171/171/171 170/170/170
f 170/170/170 237/237/237 256/256/256
f 257/257/257 258/258/258 259/259/259
f 259/259/259 260/260/260 257/257/257
f 261/261/261 262/262/262 263/263/263
f 263/263/263 264/264/264 261/261/261
f 265/265/265 266/266/266 267/267/267
f 267/267/267 268/268/268 265/265/265
f 269/269/269 270/270/270 271/271/271
f 271/271/271 272/272/272 269/269/269
f 273/273/273 274/274/274 275/275/275
f 275/275/275 276/276/276 273/273/273
f 277/277/277 278/278/278 279/279/279
f 279/279/279 280/280/280 277/277/277
f 281/281/281 282/282/282 283/283/283
f 281/281/281 283/283/283 284/284/284
f 281/281/281 284/284/284 268/268/268
f 281/281/281 268/268/268 267/267/267
f 267/267/267 285/285/285 286/286/286
f 281/281/281 267/267/267 286/286/286
f 287/287/287 288/288/288 289/289/289
f 287/287/287 289/289/289 290/290/290
f 287/287/287 290/290/290 266/266/266
f 287/287/287 266/266/266 265/265/265
f 265/265/265 291/291/291 292/292/292
f 287/287/287 265/265/265 292/292/292
f 272/272/272 271/271/271 293/293/293
f 293/293/293 294/294/294 272/272/272
f 270/270/270 269/269/269 295/295/295
f 295/295/295 296/296/296 270/270/270
f 297/297/297 298/298/298 299/299/299
f 297/297/297 299/299/299 300/300/300
f 297/297/297 300/300/300 276/276/276
f 297/297/297 276/276/276 275/275/275
f 275/275/275 301/301/301 302/302/302
f 297/297/297 275/275/275 302/302/302
f 303/303/303 304/304/304 305/305/305
f 303/303/303 305/305/305 306/306/306
f 303/303/303 306/306/306 274/274/274
f 303/303/303 274/274/274 273/273/273
f 273/273/273 307/307/307 308/308/308
f 303/303/303 273/273/273 308/308/308
f 280/280/280 279/279/279 309/309/309
f 309/309/309 310/310/310 280/280/280
f 278/278/278 277/277/277 311/311/311
f 311/311/311 312/312/312 278/278/278
f 259/259/259 313/313/313 314/314/314
f 314/314/314 260/260/260 259/259/259
f 257/257/257 315/315/315 316/316/316
f 316/316/316 258/258/258 257/257/257
f 264/264/264 317/317/317 318/318/318
f 318/318/318 261/261/261 264/264/264
f 262/262/262 319/319/319 320/320/320
f 320/320/320 263/263/263 262/262/262
f 313/313/313 312/312/312 311/311/311
f 311/311/311 314/314/314 313/313/313
f 315/315/315 296/296/296 295/295/295
f 295/295/295 316/316/316 315/315/315
f 317/317/317 294/294/294 293/293/293
f 293/293/293 318/318/318 317/317/317
f 319/319/319 310/310/310 309/309/309
f 309/309/309 320/320/320 319/319/319
f 260/260/260 321/321/321 322/322/322
f 322/322/322 257/257/257 260/260/260
f 258/258/258 323/323/323 324/324/324
f 324/324/324 259/259/259 258/258/258
f 263/263/263 325/325/325 326/326/326
f 326/326/326 264/264/264 263/263/263
f 261/261/261 327/327/327 328/328/328
f 328/328/328 262/262/262 261/261/261
f 290/290/290 329/329/329 330/330/330
f 330/330/330 266/266/266 290/290/290
f 284/284/284 331/331/331 332/332/332
f 332/332/332 268/268/268 284/284/284
f 296/296/296 333/333/333 334/334/334
f 334/334/334 270/270/270 296/296/296
f 306/306/306 335/335/335 336/336/336
f 336/336/336 274/274/274 306/306/306
f 266/266/266 330/330/330 337/337/337
f 337/337/337 267/267/267 266/266/266
f 267/267/267 337/337/337 338/338/338
f 338/338/338 285/285/285 267/267/267
f 268/268/268 332/332/332 339/339/339
f 339/339/339 265/265/265 268/268/268
f 265/265/265 339/339/339 340/340/340
f 340/340/340 291/291/291 265/265/265
f 270/270/270 334/334/334 341/341/341
f 341/341/341 271/271/271 270/270/270
f 271/271/271 341/341/341 342/342/342
f 342/342/342 293/293/293 271/271/271
f 274/274/274 336/336/336 343/343/343
f 343/343/343 275/275/275 274/274/274
f 275/275/275 343/343/343 344/344/344
f 344/344/344 301/301/301 275/275/275
f 259/259/259 324/324/324 345/345/345
f 345/345/345 313/313/313 259/259/259
f 295/295/295 346/346/346 347/347/347
f 347/347/347 316/316/316 295/295/295
f 311/311/311 348/348/348 349/349/349
f 349/349/349 314/314/314 311/311/311
f 257/257/257 322/322/322 350/350/350
f 350/350/350 315/315/315 257/257/257
f 309/309/309 351/351/351 352/352/352
f 352/352/352 320/320/320 309/309/309
f 264/264/264 326/326/326 353/353/353
f 353/353/353 317/317/317 264/264/264
f 262/262/262 328/328/328 354/354/354
f 354/354/354 319/319/319 262/262/262
f 293/293/293 342/342/342 355/355/355
f 355/355/355 318/318/318 293/293/293
f 313/313/313 345/345/345 356/356/356
f 356/356/356 312/312/312 313/313/313
f 316/316/316 347/347/347 323/323/323
f 323/323/323 258/258/258 316/316/316
f 314/314/314 349/349/349 321/321/321
f 321/321/321 260/260/260 314/314/314
f 315/315/315 350/350/350 333/333/333
f 333/333/333 296/296/296 315/315/315
f 320/320/320 352/352/352 325/325/325
f 325/325/325 263/263/263 320/320/320
f 317/317/317 353/353/353 357/357/357
f 357/357/357 294/294/294 317/317/317
f 319/319/319 354/354/354 358/358/358
f 358/358/358 310/310/310 319/319/319
f 318/318/318 355/355/355 327/327/327
f 327/327/327 261/261/261 318/318/318
f 321/321/321 359/359/359 360/360/360
f 360/360/360 322/322/322 321/321/321
f 359/359/359 304/304/304 303/303/303
f 303/303/303 360/360/360 359/359/359
f 323/323/323 361/361/361 362/362/362
f 362/362/362 324/324/324 323/323/323
f 361/361/361 288/288/288 287/287/287
f 287/287/287 362/362/362 361/361/361
f 325/325/325 363/363/363 364/364/364
f 364/364/364 326/326/326 325/325/325
f 363/363/363 282/282/282 281/281/281
f 281/281/281 364/364/364 363/363/363
f 327/327/327 365/365/365 366/366/366
f 366/366/366 328/328/328 327/327/327
f 365/365/365 298/298/298 297/297/297
f 297/297/297 366/366/366 365/365/365
f 329/329/329 346/346/346 367/367/367
f 367/367/367 330/330/330 329/329/329
f 346/346/346 295/295/295 269/269/269
f 269/269/269 367/367/367 346/346/346
f 331/331/331 351/351/351 368/368/368
f 368/368/368 332/332/332 331/331/331
f 351/351/351 309/309/309 279/279/279
f 279/279/279 368/368/368 351/351/351
f 333/333/333 369/369/369 370/370/370
f 370/370/370 334/334/334 333/333/333
f 369/369/369 307/307/307 273/273/273
f 273/273/273 370/370/370 369/369/369
f 335/335/335 348/348/348 371/371/371
f 371/371/371 336/336/336 335/335/335
f 348/348/348 311/311/311 277/277/277
f 277/277/277 371/371/371 348/348/348
f 330/330/330 367/367/367 372/372/372
f 372/372/372 337/337/337 330/330/330
f 367/367/367 269/269/269 272/272/272
f 272/272/272 372/372/372 367/367/367
f 337/337/337 372/372/372 357/357/357
f 357/357/357 338/338/338 337/337/337
f 372/372/372 272/272/272 294/294/294
f 294/294/294 357/357/357 372/372/372
f 332/332/332 368/368/368 373/373/373
f 373/373/373 339/339/339 332/332/332
f 368/368/368 279/279/279 278/278/278
f 278/278/278 373/373/373 368/368/368
f 339/339/339 373/373/373 356/356/356
f 356/356/356 340/340/340 339/339/339
f 373/373/373 278/278/278 312/312/312
f 312/312/312 356/356/356 373/373/373
f 334/334/334 370/370/370 374/374/374
f 374/374/374 341/341/341 334/334/334
f 370/370/370 273/273/273 276/276/276
f 276/276/276 374/374/374 370/370/370
f 341/341/341 374/374/374 375/375/375
f 375/375/375 342/342/342 341/341/341
f 374/374/374 276/276/276 300/300/300
f 300/300/300 375/375/375 374/374/374
f 336/336/336 371/371/371 376/376/376
f 376/376/376 343/343/343 336/336/336
f 371/371/371 277/277/277 280/280/280
f 280/280/280 376/376/376 371/371/371
f 343/343/343 376/376/376 358/358/358
f 358/358/358 344/344/344 343/343/343
f 376/376/376 280/280/280 310/310/310
f 310/310/310 358/358/358 376/376/376
f 324/324/324 362/362/362 377/377/377
f 377/377/377 345/345/345 324/324/324
f 362/362/362 287/287/287 292/292/292
f 292/292/292 377/377/377 362/362/362
f 346/346/346 329/329/329 378/378/378
f 378/378/378 347/347/347 346/346/346
f 329/329/329 290/290/290 289/289/289
f 289/289/289 378/378/378 329/329/329
f 348/348/348 335/335/335 379/379/379
f 379/379/379 349/349/349 348/348/348
f 335/335/335 306/306/306 305/305/305
f 305/305/305 379/379/379 335/335/335
f 322/322/322 360/360/360 380/380/380
f 380/380/380 350/350/350 322/322/322
f 360/360/360 303/303/303 308/308/308
f 308/308/308 380/380/380 360/360/360
f 351/351/351 331/331/331 381/381/381
f 381/381/381 352/352/352 351/351/351
f 331/331/331 284/284/284 283/283/283
f 283/283/283 381/381/381 331/331/331
f 326/326/326 364/364/364 382/382/382
f 382/382/382 353/353/353 326/326/326
f 364/364/364 281/281/281 286/286/286
f 286/286/286 382/382/382 364/364/364
f 328/328/328 366/366/366 383/383/383
f 383/383/383 354/354/354 328/328/328
f 366/366/366 297/297/297 302/302/302
f 302/302/302 383/383/383 366/366/366
f 342/342/342 375/375/375 384/384/384
f 384/384/384 355/355/355 342/342/342
f 375/375/375 300/300/300 299/299/299
f 299/299/299 384/384/384 375/375/375
f 345/345/345 377/377/377 340/340/340
f 340/340/340 356/356/356 345/345/345
f 377/377/377 292/292/292 291/291/291
f 291/291/291 340/340/340 377/377/377
f 347/347/347 378/378/378 361/361/361
f 361/361/361 323/323/323 347/347/347
f 378/378/378 289/289/289 288/288/288
f 288/288/288 361/361/361 378/378/378
f 349/349/349 379/379/379 359/359/359
f 359/359/359 321/321/321 349/349/349
f 379/379/379 305/305/305 304/304/304
f 304/304/304 359/359/359 379/379/379
f 350/350/350 380/380/380 369/369/369
f 369/369/369 333/333/333 350/350/350
f 380/380/380 308/308/308 307/307/307
f 307/307/307 369/369/369 380/380/380
f 352/352/352 381/381/381 363/363/363
f 363/363/363 325/325/325 352/352/352
f 381/381/381 283/283/283 282/282/282
f 282/282/282 363/363/363 381/381/381
f 353/353/353 382/382/382 338/338/338
f 338/338/338 357/357/357 353/353/353
f 382/382/382 286/286/286 285/285/285
f 285/285/285 338/338/338 382/382/382
f 354/354/354 383/383/383 344/344/344
f 344/344/344 358/358/358 354/354/354
f 383/383/383 302/302/302 301/301/301
f 301/301/301 344/344/344 383/383/383
f 355/355/355 384/384/384 365/365/365
f 365/365/365 327/327/327 355/355/355
f 384/384/384 299/299/299 298/298/298
f 298/298/298 365/365/365 384/384/384
f 385/385/385 386/386/386 387/387/387
f 387/387/387 388/388/388 385/385/385
f 389/389/389 385/385/385 388/388/388
f 388/388/388 390/390/390 389/389/389
f 391/391/391 389/389/389 390/390/390
f 390/390/390 392/392/392 391/391/391
f 393/393/393 391/391/391 392/392/392
f 392/392/392 394/394/394 393/393/393
f 395/395/395 393/393/393 394/394/394
f 394/394/394 396/396/396 395/395/395
f 397/397/397 395/395/395 396/396/396
f 396/396/396 398/398/398 397/397/397
f 399/399/399 397/397/397 398/398/398
f 398/398/398 400/400/400 399/399/399
f 401/401/401 399/399/399 400/400/400
f 400/400/400 402/402/402 401/401/401
f 403/403/403 401/401/401 402/402/402
f 402/402/402 404/404/404 403/403/403
f 386/386/386 403/403/403 404/404/404
f 404/404/404 387/387/387 386/386/386
f 405/405/405 406/406/406 407/407/407
f 407/407/407 408/408/408 405/405/405
f 409/409/409 405/405/405 408/408/408
f 408/408/408 410/410/410 409/409/409
f 411/411/411 409/409/409 410/410/410
f 410/410/410 412/412/412 411/411/411
f 413/413/413 411/411/411 412/412/412
f 412/412/412 414/414/414 413/413/413
f 415/415/415 413/413/413 414/414/414
f 414/414/414 416/416/416 415/415/415
f 417/417/417 415/415/415 416/416/416
f 416/416/416 418/418/418 417/417/417
f 419/419/419 417/417/417 418/418/418
f 418/418/418 420/420/420 419/419/419
f 421/421/421 419/419/419 420/420/420
f 420/420/420 422/422/422 421/421/421
f 423/423/423 421/421/421 422/422/422
f 422/422/422 424/424/424 423/423/423
f 406/406/406 423/423/423 424/424/424
f 424/424/424 407/407/407 406/406/406
f 425/425/425 426/426/426 427/427/427
f 427/427/427 428/428/428 425/425/425
f 429/429/429 425/425/425 428/428/428
f 428/428/428 430/430/430 429/429/429
f 431/431/431 429/429/429 430/430/430
f 430/430/430 432/432/432 431/431/431
f 433/433/433 431/431/431 432/432/432
f 432/432/432 434/434/434 433/433/433
f 435/435/435 433/433/433 434/434/434
f 434/434/434 436/436/436 435/435/435
f 437/437/437 435/435/435 436/436/436
f 436/436/436 438/438/438 437/437/437
f 439/439/439 437/437/437 438/438/438
f 438/438/438 440/440/440 439/439/439
f 441/441/441 439/439/439 440/440/440
f 440/440/440 442/442/442 441/441/441
f 443/443/443 441/441/441 442/442/442
f 442/442/442 444/444/444 443/443/443
f 426/426/426 443/443/443 444/444/444
f 444/444/444 427/427/427 426/426/426
f 445/445/445 446/446/446 447/447/447
f 447/447/447 448/448/448 445/445/445
f 449/449/449 445/445/445 448/448/448
f 448/448/448 450/450/450 449/449/449
f 451/451/451 449/449/449 450/450/450
f 450/450/450 452/452/452 451/451/451
f 453/453/453 451/451/451 452/452/452
f 452/452/452 454/454/454 453/453/453
f 455/455/455 453/453/453 454/454/454
f 454/454/454 456/456/456 455/455/455
f 457/457/457 455/455/455 456/456/456
f 456/456/456 458/458/458 457/457/457
f 459/459/459 457/457/457 458/458/458
f 458/458/458 460/460/460 459/459/459
f 461/461/461 459/459/459 460/460/460
f 460/460/460 462/462/462 461/461/461
f 463/463/463 461/461/461 462/462/462
f 462/462/462 464/464/464 463/463/463
f 446/446/446 463/463/463 464/464/464
f 464/464/464 447/447/447 446/446/446
f 465/465/465 466/466/466 467/467/467
f 467/467/467 468/468/468 465/465/465
f 469/469/469 465/465/465 468/468/468
f 468/468/468 470/470/470 469/469/469
f 471/471/471 469/469/469 470/470/470
f 470/470/470 472/472/472 471/471/471
f 473/473/473 471/471/471 472/472/472
f 472/472/472 474/474/474 473/473/473
f 475/475/475 473/473/473 474/474/474
f 474/474/474 476/476/476 475/475/475
f 477/477/477 475/475/475 476/476/476
f 476/476/476 478/478/478 477/477/477
f 479/479/479 477/477/477 478/478/478
f 478/478/478 480/480/480 479/479/479
f 481/481/481 479/479/479 480/480/480
f 480/480/480 482/482/482 481/481/481
f 483/483/483 481/481/481 482/482/482
f 482/482/482 484/484/484 483/483/483
f 466/466/466 483/483/483 484/484/484
f 484/484/484 467/467/467 466/466/466
f 485/485/485 486/486/486 487/487/487
f 487/487/487 488/488/488 485/485/485
f 489/489/489 485/485/485 488/488/488
f 488/488/488 490/490/490 489/489/489
f 491/491/491 489/489/489 490/490/490
f 490/490/490 492/492/492 491/491/491
f 493/493/493 491/491/491 492/492/492
f 492/492/492 494/494/494 493/493/493
f 495/495/495 493/493/493 494/494/494
f 494/494/494 496/496/496 495/495/495
f 497/497/497 495/495/495 496/496/496
f 496/496/496 498/498/498 497/497/497
f 499/499/499 497/497/497 498/498/498
f 498/498/498 500/500/500 499/499/499
f 501/501/501 499/499/499 500/500/500
f 500/500/500 502/502/502 501/501/501
f 503/503/503 501/501/501 502/502/502
f 502/502/502 504/504/504 503/503/503
f 486/486/486 503/503/503 504/504/504
f 504/504/504 487/487/487 486/486/486
f 505/505/505 506/506/506 507/507/507
f 507/507/507 508/508/508 505/505/505
f 509/509/509 505/505/505 508/508/508
f 508/508/508 510/510/510 509/509/509
f 511/511/511 509/509/509 510/510/510
f 510/510/510 512/512/512 511/511/511
f 513/513/513 511/511/511 512/512/512
f 512/512/512 514/514/514 513/513/513
f 515/515/515 513/513/513 514/514/514
f 514/514/514 516/516/516 515/515/515
f 517/517/517 515/515/515 516/516/516
f 516/516/516 518/518/518 517/517/517
f 519/519/519 517/517/517 518/518/518
f 518/518/518 520/520/520 519/519/519
f 521/521/521 519/519/519 520/520/520
f 520/520/520 522/522/522 521/521/521
f 523/523/523 521/521/521 522/522/522
f 522/522/522 524/524/524 523/523/523
f 506/506/506 523/523/523 524/524/524
f 524/524/524 507/507/507 506/506/506
f 525/525/525 526/526/526 527/527/527
f 527/527/527 528/528/528 529/529/529
f 529/529/529 530/530/530 531/531/531
f 527/527/527 529/529/529 531/531/531
f 531/531/531 532/532/532 533/533/533
f 527/527/527 531/531/531 533/533/533
f 525/525/525 527/527/527 533/533/533
f 525/525/525 533/533/533 534/534/534
f 535/535/535 536/536/536 537/537/537
f 537/537/537 538/538/538 539/539/539
f 539/539/539 540/540/540 541/541/541
f 537/537/537 539/539/539 541/541/541
f 535/535/535 537/537/537 541/541/541
f 541/541/541 542/542/542 543/543/543
f 535/535/535 541/541/541 543/543/543
f 535/535/535 543/543/543 544/544/544
f 505/505/505 545/545/545 546/546/546
f 546/546/546 506/506/506 505/505/505
f 509/509/509 547/547/547 545/545/545
f 545/545/545 505/505/505 509/509/509
f 511/511/511 548/548/548 547/547/547
f 547/547/547 509/509/509 511/511/511
f 513/513/513 549/549/549 548/548/548
f 548/548/548 511/511/511 513/513/513
f 515/515/515 550/550/550 549/549/549
f 549/549/549 513/513/513 515/515/515
f 517/517/517 551/551/551 550/550/550
f 550/550/550 515/515/515 517/517/517
f 519/519/519 552/552/552 551/551/551
f 551/551/551 517/517/517 519/519/519
f 521/521/521 553/553/553 552/552/552
f 552/552/552 519/519/519 521/521/521
f 523/523/523 554/554/554 553/553/553
f 553/553/553 521/521/521 523/523/523
f 506/506/506 546/546/546 554/554/554
f 554/554/554 523/523/523 506/506/506
f 545/545/545 555/555/555 556/556/556
f 556/556/556 546/546/546 545/545/545
f 555/555/555 530/530/530 529/529/529
f 529/529/529 556/556/556 555/555/555
f 547/547/547 557/557/557 555/555/555
f 555/555/555 545/545/545 547/547/547
f 557/557/557 531/531/531 530/530/530
f 530/530/530 555/555/555 557/557/557
f 548/548/548 558/558/558 557/557/557
f 557/557/557 547/547/547 548/548/548
f 558/558/558 532/532/532 531/531/531
f 531/531/531 557/557/557 558/558/558
f 549/549/549 559/559/559 558/558/558
f 558/558/558 548/548/548 549/549/549
f 559/559/559 533/533/533 532/532/532
f 532/532/532 558/558/558 559/559/559
f 550/550/550 560/560/560 559/559/559
f 559/559/559 549/549/549 550/550/550
f 560/560/560 534/534/534 533/533/533
f 533/533/533 559/559/559 560/560/560
f 551/551/551 561/561/561 560/560/560
f 560/560/560 550/550/550 551/551/551
f 561/561/561 525/525/525 534/534/534
f 534/534/534 560/560/560 561/561/561
f 552/552/552 562/562/562 561/561/561
f 561/561/561 551/551/551 552/552/552
f 562/562/562 526/526/526 525/525/525
f 525/525/525 561/561/561 562/562/562
f 553/553/553 563/563/563 562/562/562
f 562/562/562 552/552/552 553/553/553
f 563/563/563 527/527/527 526/526/526
f 526/526/526 562/562/562 563/563/563
f 554/554/554 564/564/564 563/563/563
f 563/563/563 553/553/553 554/554/554
f 564/564/564 528/528/528 527/527/527
f 527/527/527 563/563/563 564/564/564
f 546/546/546 556/556/556 564/564/564
f 564/564/564 554/554/554 546/546/546
f 556/556/556 529/529/529 528/528/528
f 528/528/528 564/564/564 556/556/556
f 387/387/387 565/565/565 566/566/566
f 566/566/566 388/388/388 387/387/387
f 388/388/388 566/566/566 567/567/567
f 567/567/567 390/390/390 388/388/388
f 390/390/390 567/567/567 568/568/568
f 568/568/568 392/392/392 390/390/390
f 392/392/392 568/568/568 569/569/569
f 569/569/569 394/394/394 392/392/392
f 394/394/394 569/569/569 570/570/570
f 570/570/570 396/396/396 394/394/394
f 396/396/396 570/570/570 571/571/571
f 571/571/571 398/398/398 396/396/396
f 398/398/398 571/571/571 572/572/572
f 572/572/572 400/400/400 398/398/398
f 400/400/400 572/572/572 573/573/573
f 573/573/573 402/402/402 400/400/400
f 402/402/402 573/573/573 574/574/574
f 574/574/574 404/404/404 402/402/402
f 404/404/404 574/574/574 565/565/565
f 565/565/565 387/387/387 404/404/404
f 565/565/565 575/575/575 576/576/576
f 576/576/576 566/566/566 565/565/565
f 575/575/575 538/538/538 537/537/537
f 537/537/537 576/576/576 575/575/575
f 566/566/566 576/576/576 577/577/577
f 577/577/577 567/567/567 566/566/566
f 576/576/576 537/537/537 536/536/536
f 536/536/536 577/577/577 576/576/576
f 567/567/567 577/577/577 578/578/578
f 578/578/578 568/568/568 567/567/567
f 577/577/577 536/536/536 535/535/535
f 535/535/535 578/578/578 577/577/577
f 568/568/568 578/578/578 579/579/579
f 579/579/579 569/569/569 568/568/568
f 578/578/578 535/535/535 544/544/544
f 544/544/544 579/579/579 578/578/578
f 569/569/569 579/579/579 580/580/580
f 580/580/580 570/570/570 569/569/569
f 579/579/579 544/544/544 543/543/543
f 543/543/543 580/580/580 579/579/579
f 570/570/570 580/580/580 581/581/581
f 581/581/581 571/571/571 570/570/570
f 580/580/580 543/543/543 542/542/542
f 542/542/542 581/581/581 580/580/580
f 571/571/571 581/581/581 582/582/582
f 582/582/582 572/572/572 571/571/571
f 581/581/581 542/542/542 541/541/541
f 541/541/541 582/582/582 581/581/581
f 572/572/572 582/582/582 583/583/583
f 583/583/583 573/573/573 572/572/572
f 582/582/582 541/541/541 540/540/540
f 540/540/540 583/583/583 582/582/582
f 573/573/573 583/583/583 584/584/584
f 584/584/584 574/574/574 573/573/573
f 583/583/583 540/540/540 539/539/539
f 539/539/539 584/584/584 583/583/583
f 574/574/574 584/584/584 575/575/575
f 575/575/575 565/565/565 574/574/574
f 584/584/584 539/539/539 538/538/538
f 538/538/538 575/575/575 584/584/584
