# Cocos Creator 3D Mesh Extracted
# Source file: 179083718878572.bin
# Type: static, Vertices: 260, Triangles: 476, Stride: 48 bytes
# Bounding Box: X=[-21.52835, 21.52835], Y=[-2.240921, 2.240921], Z=[0.004995819, 18.84068]
o Model_4_static
v 21.109570 2.240919 16.044440
v 21.109570 2.240921 2.801240
v 20.922140 2.240921 1.685228
v 20.408710 2.240921 0.957358
v 19.552990 2.240921 0.520634
v 18.240960 2.240921 0.361205
v -18.240960 2.240921 0.361205
v -19.552990 2.240921 0.520634
v -20.408710 2.240921 0.957358
v -20.922140 2.240921 1.685228
v -21.109570 2.240921 2.801240
v -21.109570 2.240919 16.044440
v -20.922140 2.240920 17.160450
v -20.408710 2.240920 17.888320
v -19.552990 2.240919 18.325040
v -18.240960 2.240919 18.484470
v 18.240960 2.240919 18.484470
v 19.552990 2.240919 18.325040
v 20.408710 2.240920 17.888320
v 20.922140 2.240920 17.160450
v 16.061820 -1.441059 16.241570
v -16.061820 -1.441059 16.241570
v -17.203000 -1.441059 16.120920
v -17.920580 -1.441059 15.802290
v -18.333250 -1.441059 15.293290
v -18.489520 -1.441059 14.483780
v -18.489520 -1.441058 4.361897
v -18.333250 -1.441058 3.552384
v -17.920580 -1.441057 3.043384
v -17.203000 -1.441058 2.724758
v -16.061820 -1.441057 2.604110
v 16.061820 -1.441057 2.604110
v 17.203000 -1.441058 2.724758
v 17.920580 -1.441057 3.043384
v 18.333250 -1.441058 3.552384
v 18.489520 -1.441058 4.361897
v 18.489520 -1.441059 14.483780
v 18.333250 -1.441059 15.293290
v 17.920580 -1.441059 15.802290
v 17.203000 -1.441059 16.120920
v 18.270720 -2.020541 0.004996
v -18.270720 -2.020541 0.004996
v -18.270720 2.020544 0.004997
v 18.270720 2.020544 0.004997
v 21.528350 -2.020543 16.069750
v 21.528350 -2.020543 2.775923
v 21.528350 2.020543 2.775924
v 21.528350 2.020543 16.069750
v -18.270720 -2.020544 18.840680
v 18.270720 -2.020544 18.840680
v 18.270720 2.020542 18.840680
v -18.270720 2.020542 18.840680
v -21.528350 -2.020543 2.775923
v -21.528350 -2.020543 16.069750
v -21.528350 2.020543 16.069750
v -21.528350 2.020543 2.775924
v 19.695930 2.020544 0.178179
v 19.695930 -2.020543 0.178179
v -19.695930 -2.020543 0.178179
v -19.695930 2.020544 0.178179
v 21.324750 2.020542 17.282030
v 21.324750 -2.020544 17.282030
v -19.695930 2.020542 18.667500
v -19.695930 -2.020543 18.667500
v 20.713940 2.020544 0.697729
v 20.713940 -2.020542 0.697728
v 21.324750 2.020544 1.563643
v 21.324750 -2.020542 1.563643
v -20.713940 -2.020542 0.697728
v -20.713940 2.020544 0.697729
v -21.324750 -2.020542 1.563643
v -21.324750 2.020544 1.563643
v 20.713940 2.020541 18.147950
v 20.713940 -2.020544 18.147950
v 19.695930 2.020542 18.667500
v 19.695930 -2.020543 18.667500
v -20.713940 2.020541 18.147950
v -20.713940 -2.020544 18.147950
v -21.324750 2.020542 17.282030
v -21.324750 -2.020544 17.282030
v 16.358040 -2.240920 1.951136
v -16.358040 -2.240920 1.951136
v -18.002130 -2.240919 0.278287
v 18.002130 -2.240919 0.278287
v 17.621730 -2.240919 2.094385
v 19.412280 -2.240919 0.440228
v 18.525870 -2.240919 2.502389
v 20.413300 -2.240920 0.945693
v 19.077520 -2.240918 3.177124
v 21.004740 -2.240919 1.793406
v 19.278120 -2.240920 4.125652
v 21.186110 -2.240920 2.981206
v 19.278120 -2.240920 14.720020
v 21.186110 -2.240921 15.864470
v 19.077520 -2.240921 15.668550
v 21.004740 -2.240921 17.052270
v 18.525870 -2.240921 16.343290
v 20.413300 -2.240921 17.899980
v 17.621730 -2.240921 16.751290
v 19.412280 -2.240921 18.405450
v 16.358040 -2.240921 16.894540
v 18.002130 -2.240921 18.567390
v -16.358040 -2.240921 16.894540
v -18.002130 -2.240921 18.567390
v -17.621730 -2.240921 16.751290
v -19.412280 -2.240921 18.405450
v -18.525870 -2.240921 16.343290
v -20.413300 -2.240921 17.899980
v -19.077520 -2.240921 15.668550
v -21.004740 -2.240921 17.052270
v -19.278120 -2.240920 14.720020
v -21.186110 -2.240921 15.864470
v -19.278120 -2.240920 4.125652
v -21.186110 -2.240920 2.981206
v -19.077520 -2.240918 3.177124
v -21.004740 -2.240919 1.793406
v -18.525870 -2.240919 2.502389
v -20.413300 -2.240920 0.945693
v -17.621730 -2.240919 2.094385
v -19.412280 -2.240919 0.440228
v 16.088090 -1.550360 2.243217
v -16.088090 -1.550360 2.243217
v -16.089110 -1.879374 2.229112
v 16.089110 -1.879374 2.229112
v 17.331390 -1.550360 2.374660
v 17.336410 -1.879374 2.360978
v 18.210150 -1.550359 2.764855
v 18.221460 -1.879374 2.753970
v 18.736520 -1.550360 3.414088
v 18.752280 -1.879374 3.408682
v 18.913800 -1.550360 4.332465
v 18.930380 -1.879374 4.331315
v 18.913800 -1.550360 14.513210
v 18.930380 -1.879374 14.514360
v 18.736520 -1.550361 15.431590
v 18.752280 -1.879374 15.436990
v 18.210150 -1.550361 16.080820
v 18.221460 -1.879376 16.091710
v 17.331390 -1.550360 16.471020
v 17.336410 -1.879376 16.484700
v 16.088090 -1.550361 16.602460
v 16.089110 -1.879374 16.616570
v -16.088090 -1.550361 16.602460
v -16.089110 -1.879374 16.616570
v -17.331390 -1.550360 16.471020
v -17.336410 -1.879376 16.484700
v -18.210150 -1.550361 16.080820
v -18.221460 -1.879376 16.091710
v -18.736520 -1.550361 15.431590
v -18.752280 -1.879374 15.436990
v -18.913800 -1.550360 14.513210
v -18.930380 -1.879374 14.514360
v -18.913800 -1.550360 4.332465
v -18.930380 -1.879374 4.331315
v -18.736520 -1.550360 3.414088
v -18.752280 -1.879374 3.408682
v -18.210150 -1.550359 2.764855
v -18.221460 -1.879374 2.753970
v -17.331390 -1.550360 2.374660
v -17.336410 -1.879374 2.360978
v -21.423650 2.185826 2.782252
v -21.423650 2.185826 16.063420
v -18.263280 2.185825 18.751630
v 18.263280 2.185825 18.751630
v 21.423650 2.185826 16.063420
v 21.423650 2.185826 2.782252
v 18.263280 2.185827 0.094048
v -18.263280 2.185827 0.094048
v -18.203580 -2.185825 0.073319
v 18.203580 -2.185825 0.073319
v 21.442790 -2.185825 2.827244
v 21.442790 -2.185826 16.018430
v 18.203580 -2.185826 18.772360
v -18.203580 -2.185826 18.772360
v -21.442790 -2.185826 16.018430
v -21.442790 -2.185825 2.827244
v -21.224090 2.185827 1.594040
v 19.660200 2.185827 0.263793
v -19.660200 2.185826 18.581880
v 21.224090 2.185825 17.251630
v -19.625020 -2.185826 0.243691
v 21.244740 -2.185825 1.621084
v -21.244740 -2.185826 17.224590
v 19.625020 -2.185827 18.601990
v -19.660200 2.185827 0.263793
v -20.637630 2.185827 0.762636
v 21.224090 2.185827 1.594040
v 20.637630 2.185827 0.762636
v -21.224090 2.185825 17.251630
v -20.637630 2.185826 18.083040
v 19.660200 2.185826 18.581880
v 20.637630 2.185826 18.083040
v -21.244740 -2.185825 1.621084
v -20.638780 -2.185826 0.759719
v 19.625020 -2.185826 0.243691
v 20.638780 -2.185826 0.759719
v -19.625020 -2.185827 18.601990
v -20.638780 -2.185826 18.085960
v 21.244740 -2.185826 17.224590
v 20.638780 -2.185826 18.085960
v -16.156510 -2.185830 2.157276
v 16.156510 -2.185830 2.157276
v 17.408570 -2.185830 2.292057
v 18.299440 -2.185829 2.689268
v 18.836200 -2.185830 3.349896
v 19.020070 -2.185830 4.279709
v 19.020070 -2.185831 14.565970
v 18.836200 -2.185832 15.495780
v 18.299440 -2.185832 16.156410
v 17.408570 -2.185832 16.553620
v 16.156510 -2.185832 16.688400
v -16.156510 -2.185832 16.688400
v -17.408570 -2.185832 16.553620
v -18.299440 -2.185832 16.156410
v -18.836200 -2.185832 15.495780
v -19.020070 -2.185831 14.565970
v -19.020070 -2.185830 4.279709
v -18.836200 -2.185830 3.349896
v -18.299440 -2.185829 2.689268
v -17.408570 -2.185830 2.292057
v -16.081350 -1.468383 2.335784
v 16.081350 -1.468383 2.335784
v 17.298460 -1.468383 2.464458
v 18.135880 -1.468383 2.836296
v 18.633090 -1.468383 3.449560
v 18.804970 -1.468384 4.340014
v 18.804970 -1.468384 14.505660
v 18.633090 -1.468384 15.396120
v 18.135880 -1.468385 16.009380
v 17.298460 -1.468385 16.381220
v 16.081350 -1.468385 16.509890
v -16.081350 -1.468385 16.509890
v -17.298460 -1.468385 16.381220
v -18.135880 -1.468385 16.009380
v -18.633090 -1.468384 15.396120
v -18.804970 -1.468384 14.505660
v -18.804970 -1.468384 4.340014
v -18.633090 -1.468383 3.449560
v -18.135880 -1.468383 2.836296
v -17.298460 -1.468383 2.464458
v -16.081350 -1.468383 2.335784
v 16.081350 -1.468383 2.335784
v 17.298460 -1.468383 2.464458
v 18.135880 -1.468383 2.836296
v 18.633090 -1.468383 3.449560
v 18.804970 -1.468384 4.340014
v 18.804970 -1.468384 14.505660
v 18.633090 -1.468384 15.396120
v 18.135880 -1.468385 16.009380
v 17.298460 -1.468385 16.381220
v 16.081350 -1.468385 16.509890
v -16.081350 -1.468385 16.509890
v -17.298460 -1.468385 16.381220
v -18.135880 -1.468385 16.009380
v -18.633090 -1.468384 15.396120
v -18.804970 -1.468384 14.505660
v -18.804970 -1.468384 4.340014
v -18.633090 -1.468383 3.449560
v -18.135880 -1.468383 2.836296
v -17.298460 -1.468383 2.464458
vt 0.970663 0.440432
vt 0.970663 0.093296
vt 0.966484 0.064043
vt 0.955037 0.044964
vt 0.935957 0.033516
vt 0.906704 0.029337
vt 0.093296 0.029337
vt 0.064043 0.033516
vt 0.044964 0.044964
vt 0.033516 0.064043
vt 0.029337 0.093296
vt 0.029337 0.440432
vt 0.033516 0.469685
vt 0.044964 0.488764
vt 0.064043 0.500212
vt 0.093296 0.504391
vt 0.906704 0.504391
vt 0.935957 0.500212
vt 0.955037 0.488764
vt 0.966484 0.469685
vt 0.807513 0.962051
vt 0.092887 0.962051
vt 0.069873 0.959184
vt 0.055419 0.951609
vt 0.047125 0.939538
vt 0.043984 0.920361
vt 0.043984 0.680464
vt 0.047125 0.661288
vt 0.055419 0.649216
vt 0.069873 0.641642
vt 0.092887 0.638774
vt 0.807513 0.638774
vt 0.830527 0.641642
vt 0.844981 0.649216
vt 0.853275 0.661288
vt 0.856417 0.680464
vt 0.856417 0.920361
vt 0.853275 0.939538
vt 0.844981 0.951609
vt 0.830527 0.959184
vt 0.907367 0.020000
vt 0.092633 0.020000
vt 0.092633 0.020000
vt 0.907367 0.020000
vt 0.980000 0.441095
vt 0.980000 0.092633
vt 0.980000 0.092633
vt 0.980000 0.441095
vt 0.092633 0.513728
vt 0.907367 0.513728
vt 0.907367 0.513728
vt 0.092633 0.513728
vt 0.020000 0.092633
vt 0.020000 0.441095
vt 0.020000 0.441095
vt 0.020000 0.092633
vt 0.939144 0.024540
vt 0.939144 0.024540
vt 0.060856 0.024540
vt 0.060856 0.024540
vt 0.975461 0.472872
vt 0.975461 0.472872
vt 0.060856 0.509189
vt 0.060856 0.509189
vt 0.961842 0.038158
vt 0.961842 0.038158
vt 0.975461 0.060856
vt 0.975461 0.060856
vt 0.038158 0.038158
vt 0.038158 0.038158
vt 0.024540 0.060856
vt 0.024540 0.060856
vt 0.961842 0.495570
vt 0.961842 0.495570
vt 0.939144 0.509189
vt 0.939144 0.509189
vt 0.038158 0.495570
vt 0.038158 0.495570
vt 0.024540 0.472872
vt 0.024540 0.472872
vt 0.864722 0.071013
vt 0.135278 0.071013
vt 0.098621 0.027164
vt 0.901379 0.027164
vt 0.892897 0.074768
vt 0.932820 0.031408
vt 0.913056 0.085463
vt 0.955139 0.044658
vt 0.925356 0.103149
vt 0.968325 0.066878
vt 0.929829 0.128012
vt 0.972369 0.098014
vt 0.929829 0.405716
vt 0.972369 0.435714
vt 0.925356 0.430579
vt 0.968325 0.466850
vt 0.913056 0.448265
vt 0.955139 0.489070
vt 0.892897 0.458960
vt 0.932820 0.502320
vt 0.864722 0.462715
vt 0.901379 0.506564
vt 0.135278 0.462715
vt 0.098621 0.506564
vt 0.107103 0.458960
vt 0.067180 0.502320
vt 0.086944 0.448265
vt 0.044861 0.489070
vt 0.074644 0.430579
vt 0.031675 0.466850
vt 0.070171 0.405716
vt 0.027631 0.435714
vt 0.070171 0.128012
vt 0.027631 0.098014
vt 0.074644 0.103149
vt 0.031675 0.066878
vt 0.086944 0.085463
vt 0.044861 0.044658
vt 0.107103 0.074768
vt 0.067180 0.031408
vt 0.858703 0.078669
vt 0.141297 0.078669
vt 0.141274 0.078299
vt 0.858726 0.078299
vt 0.886424 0.082115
vt 0.886536 0.081756
vt 0.906017 0.092342
vt 0.906269 0.092057
vt 0.917753 0.109360
vt 0.918104 0.109219
vt 0.921706 0.133433
vt 0.922075 0.133403
vt 0.921706 0.400295
vt 0.922075 0.400325
vt 0.917753 0.424368
vt 0.918104 0.424509
vt 0.906017 0.441386
vt 0.906269 0.441671
vt 0.886424 0.451614
vt 0.886536 0.451972
vt 0.858703 0.455059
vt 0.858726 0.455429
vt 0.141297 0.455059
vt 0.141274 0.455429
vt 0.113576 0.451614
vt 0.113464 0.451972
vt 0.093983 0.441386
vt 0.093731 0.441671
vt 0.082247 0.424368
vt 0.081896 0.424509
vt 0.078294 0.400295
vt 0.077925 0.400325
vt 0.078294 0.133433
vt 0.077925 0.133403
vt 0.082247 0.109360
vt 0.081896 0.109219
vt 0.093983 0.092342
vt 0.093731 0.092057
vt 0.113576 0.082115
vt 0.113464 0.081756
vt 0.022334 0.092798
vt 0.022334 0.440929
vt 0.092798 0.511394
vt 0.907202 0.511394
vt 0.977666 0.440929
vt 0.977666 0.092798
vt 0.907202 0.022334
vt 0.092798 0.022334
vt 0.094130 0.021791
vt 0.905870 0.021791
vt 0.978092 0.093978
vt 0.978092 0.439750
vt 0.905870 0.511937
vt 0.094130 0.511937
vt 0.021908 0.439750
vt 0.021908 0.093978
vt 0.026784 0.061653
vt 0.938347 0.026784
vt 0.061653 0.506944
vt 0.973216 0.472075
vt 0.062437 0.026257
vt 0.973677 0.062361
vt 0.026323 0.471367
vt 0.937563 0.507471
vt 0.061653 0.026784
vt 0.039860 0.039860
vt 0.973216 0.061653
vt 0.960141 0.039860
vt 0.026784 0.472075
vt 0.039860 0.493868
vt 0.938347 0.506944
vt 0.960141 0.493868
vt 0.026323 0.062361
vt 0.039834 0.039783
vt 0.937563 0.026257
vt 0.960166 0.039783
vt 0.062437 0.507471
vt 0.039834 0.493945
vt 0.973677 0.471367
vt 0.960166 0.493945
vt 0.139771 0.076416
vt 0.860229 0.076416
vt 0.888145 0.079949
vt 0.908008 0.090361
vt 0.919975 0.107678
vt 0.924075 0.132050
vt 0.924075 0.401678
vt 0.919975 0.426050
vt 0.908008 0.443367
vt 0.888145 0.453779
vt 0.860229 0.457312
vt 0.139771 0.457312
vt 0.111855 0.453779
vt 0.091992 0.443367
vt 0.080025 0.426050
vt 0.075925 0.401678
vt 0.075925 0.132050
vt 0.080025 0.107678
vt 0.091992 0.090361
vt 0.111855 0.079949
vt 0.092480 0.632319
vt 0.807921 0.632319
vt 0.832506 0.635392
vt 0.849406 0.644276
vt 0.859395 0.658853
vt 0.862844 0.679948
vt 0.862844 0.920877
vt 0.859395 0.941972
vt 0.849406 0.956549
vt 0.832506 0.965433
vt 0.807921 0.968506
vt 0.092480 0.968506
vt 0.067895 0.965433
vt 0.050994 0.956549
vt 0.041006 0.941972
vt 0.037556 0.920878
vt 0.037556 0.679948
vt 0.041006 0.658853
vt 0.050994 0.644276
vt 0.067895 0.635392
vt 0.141447 0.081096
vt 0.858553 0.081096
vt 0.885690 0.084468
vt 0.904361 0.094215
vt 0.915447 0.110290
vt 0.919279 0.133631
vt 0.919279 0.400097
vt 0.915447 0.423438
vt 0.904361 0.439513
vt 0.885690 0.449260
vt 0.858553 0.452633
vt 0.141447 0.452633
vt 0.114310 0.449260
vt 0.095639 0.439513
vt 0.084553 0.423438
vt 0.080721 0.400097
vt 0.080721 0.133631
vt 0.084553 0.110290
vt 0.095639 0.094215
vt 0.114310 0.084468
vn 0.090806 0.995839 0.007690
vn 0.090808 0.995839 -0.007690
vn 0.091059 0.995070 -0.039295
vn 0.067071 0.994363 -0.082115
vn 0.030491 0.994043 -0.104638
vn 0.006252 0.994467 -0.104864
vn -0.006252 0.994467 -0.104864
vn -0.030492 0.994043 -0.104638
vn -0.067071 0.994363 -0.082116
vn -0.091059 0.995070 -0.039295
vn -0.090808 0.995839 -0.007690
vn -0.090810 0.995839 0.007690
vn -0.091060 0.995070 0.039295
vn -0.067071 0.994363 0.082115
vn -0.030491 0.994043 0.104638
vn -0.006252 0.994467 0.104864
vn 0.006252 0.994467 0.104864
vn 0.030491 0.994043 0.104638
vn 0.067071 0.994363 0.082116
vn 0.091060 0.995070 0.039295
vn -0.002716 -0.998632 -0.052221
vn 0.002716 -0.998632 -0.052221
vn 0.013484 -0.998528 -0.052539
vn 0.031172 -0.998580 -0.043200
vn 0.044938 -0.998745 -0.022100
vn 0.045499 -0.998955 -0.004431
vn 0.045499 -0.998955 0.004431
vn 0.044939 -0.998745 0.022099
vn 0.031172 -0.998580 0.043200
vn 0.013484 -0.998528 0.052539
vn 0.002716 -0.998632 0.052222
vn -0.002716 -0.998632 0.052220
vn -0.013484 -0.998528 0.052539
vn -0.031172 -0.998580 0.043200
vn -0.044938 -0.998745 0.022099
vn -0.045500 -0.998954 0.004431
vn -0.045498 -0.998955 -0.004431
vn -0.044938 -0.998745 -0.022100
vn -0.031172 -0.998580 -0.043200
vn -0.013484 -0.998528 -0.052539
vn 0.064983 -0.204983 -0.976606
vn -0.064573 -0.204606 -0.976712
vn -0.058795 0.243029 -0.968236
vn 0.058795 0.243029 -0.968236
vn 0.966028 -0.243769 0.085830
vn 0.966270 -0.243092 -0.085025
vn 0.958126 0.275053 -0.079630
vn 0.958126 0.275052 0.079629
vn -0.064984 -0.204988 0.976605
vn 0.064573 -0.204611 0.976711
vn 0.058795 0.243027 0.968236
vn -0.058795 0.243026 0.968236
vn -0.966027 -0.243771 -0.085830
vn -0.966270 -0.243091 0.085025
vn -0.958126 0.275053 0.079630
vn -0.958126 0.275053 -0.079629
vn 0.285246 0.245468 -0.926488
vn 0.295436 -0.228879 -0.927541
vn -0.295497 -0.228527 -0.927608
vn -0.285246 0.245468 -0.926488
vn 0.891849 0.268611 0.363943
vn 0.892640 -0.252049 0.373717
vn -0.285246 0.245466 0.926489
vn -0.295436 -0.228877 0.927541
vn 0.636465 0.257034 -0.727218
vn 0.637626 -0.251257 -0.728220
vn 0.891850 0.268609 -0.363941
vn 0.892636 -0.251460 -0.374123
vn -0.637924 -0.251316 -0.727938
vn -0.636465 0.257034 -0.727218
vn -0.892641 -0.252047 -0.373718
vn -0.891849 0.268609 -0.363942
vn 0.636466 0.257030 0.727219
vn 0.637922 -0.251321 0.727938
vn 0.285246 0.245466 0.926489
vn 0.295497 -0.228526 0.927608
vn -0.636466 0.257031 0.727218
vn -0.637625 -0.251261 0.728219
vn -0.891849 0.268611 0.363943
vn -0.892636 -0.251462 0.374123
vn -0.009423 -0.993110 0.116804
vn 0.009059 -0.993042 0.117410
vn -0.003991 -0.991259 -0.131871
vn 0.004143 -0.991253 -0.131908
vn -0.029667 -0.995379 0.091323
vn 0.027777 -0.992052 -0.122728
vn -0.050660 -0.996750 0.062634
vn 0.068860 -0.993986 -0.085149
vn -0.070367 -0.996890 0.035481
vn 0.102648 -0.994038 -0.036773
vn -0.091906 -0.995702 0.011429
vn 0.107297 -0.994211 -0.005605
vn -0.091147 -0.995766 -0.011921
vn 0.107417 -0.994196 0.005972
vn -0.070126 -0.996920 -0.035104
vn 0.103466 -0.993966 0.036422
vn -0.050808 -0.996751 -0.062498
vn 0.069129 -0.993993 0.084843
vn -0.029715 -0.995344 -0.091693
vn 0.027995 -0.992118 0.122137
vn -0.009059 -0.993042 -0.117410
vn 0.003991 -0.991259 0.131871
vn 0.009423 -0.993110 -0.116805
vn -0.004143 -0.991253 0.131908
vn 0.029667 -0.995379 -0.091322
vn -0.027777 -0.992051 0.122730
vn 0.050660 -0.996750 -0.062633
vn -0.068861 -0.993986 0.085149
vn 0.070367 -0.996890 -0.035483
vn -0.102647 -0.994038 0.036773
vn 0.091905 -0.995702 -0.011430
vn -0.107295 -0.994212 0.005604
vn 0.091149 -0.995766 0.011920
vn -0.107419 -0.994196 -0.005972
vn 0.070126 -0.996920 0.035103
vn -0.103465 -0.993966 -0.036422
vn 0.050809 -0.996751 0.062499
vn -0.069129 -0.993994 -0.084843
vn 0.029715 -0.995344 0.091693
vn -0.027994 -0.992119 -0.122136
vn -0.047792 -0.425514 0.903689
vn 0.047793 -0.425514 0.903689
vn 0.048828 -0.141252 0.988769
vn -0.049170 -0.141045 0.988781
vn -0.236238 -0.422255 0.875153
vn -0.247925 -0.157291 0.955925
vn -0.552261 -0.430481 0.713929
vn -0.593873 -0.181830 0.783743
vn -0.813683 -0.443496 0.375808
vn -0.892040 -0.187500 0.411228
vn -0.884528 -0.458815 0.084254
vn -0.980615 -0.174209 0.089700
vn -0.884529 -0.458814 -0.084255
vn -0.980635 -0.173674 -0.090513
vn -0.813683 -0.443496 -0.375808
vn -0.892526 -0.186584 -0.410591
vn -0.552260 -0.430481 -0.713929
vn -0.594287 -0.181951 -0.783400
vn -0.236237 -0.422255 -0.875153
vn -0.248079 -0.157847 -0.955793
vn -0.047793 -0.425521 -0.903686
vn -0.048829 -0.141253 -0.988769
vn 0.047792 -0.425521 -0.903686
vn 0.049171 -0.141046 -0.988781
vn 0.236238 -0.422255 -0.875153
vn 0.247926 -0.157290 -0.955925
vn 0.552260 -0.430482 -0.713929
vn 0.593871 -0.181828 -0.783745
vn 0.813682 -0.443496 -0.375809
vn 0.892041 -0.187499 -0.411227
vn 0.884529 -0.458814 -0.084254
vn 0.980615 -0.174209 -0.089700
vn 0.884528 -0.458815 0.084254
vn 0.980635 -0.173674 0.090513
vn 0.813683 -0.443497 0.375807
vn 0.892525 -0.186585 0.410591
vn 0.552260 -0.430481 0.713930
vn 0.594287 -0.181953 0.783400
vn 0.236237 -0.422255 0.875153
vn 0.248080 -0.157847 0.955793
vn -0.568328 0.821423 -0.047618
vn -0.568327 0.821423 0.047619
vn -0.036531 0.794950 0.605574
vn 0.036531 0.794950 0.605574
vn 0.568327 0.821424 0.047618
vn 0.568329 0.821423 -0.047618
vn 0.036531 0.794952 -0.605571
vn -0.036531 0.794952 -0.605571
vn -0.035252 -0.754008 -0.655919
vn 0.035933 -0.754262 -0.655589
vn 0.608938 -0.791935 -0.045091
vn 0.608585 -0.792131 0.046386
vn 0.035251 -0.754012 0.655915
vn -0.035933 -0.754266 0.655585
vn -0.608938 -0.791935 0.045091
vn -0.608585 -0.792132 -0.046386
vn -0.547845 0.804639 -0.228960
vn 0.178273 0.786770 -0.590942
vn -0.178273 0.786768 0.590944
vn 0.547844 0.804640 0.228958
vn -0.176450 -0.766311 -0.617764
vn 0.572595 -0.787803 -0.226939
vn -0.572594 -0.787804 0.226939
vn 0.176452 -0.766310 0.617766
vn -0.178273 0.786770 -0.590942
vn -0.395770 0.792025 -0.464826
vn 0.547845 0.804639 -0.228959
vn 0.395769 0.792025 -0.464826
vn -0.547845 0.804639 0.228957
vn -0.395771 0.792023 0.464829
vn 0.178273 0.786769 0.590943
vn 0.395771 0.792023 0.464828
vn -0.573198 -0.787586 -0.226169
vn -0.400684 -0.786267 -0.470358
vn 0.176210 -0.766208 -0.617961
vn 0.400098 -0.786216 -0.470942
vn -0.176210 -0.766207 0.617962
vn -0.400096 -0.786219 0.470938
vn 0.573197 -0.787587 0.226168
vn 0.400682 -0.786270 0.470356
vn 0.037096 -0.711398 0.701810
vn -0.037771 -0.711640 0.701528
vn -0.171478 -0.749048 0.639940
vn -0.374294 -0.787544 0.489570
vn -0.551995 -0.792467 0.259418
vn -0.651523 -0.755971 0.063453
vn -0.650886 -0.756398 -0.064880
vn -0.552483 -0.792560 -0.258091
vn -0.374993 -0.787622 -0.488909
vn -0.171914 -0.749102 -0.639759
vn -0.037097 -0.711398 -0.701810
vn 0.037771 -0.711639 -0.701529
vn 0.171479 -0.749049 -0.639938
vn 0.374295 -0.787542 -0.489572
vn 0.551995 -0.792466 -0.259420
vn 0.651522 -0.755972 -0.063453
vn 0.650887 -0.756397 0.064880
vn 0.552482 -0.792561 0.258090
vn 0.374991 -0.787623 0.488908
vn 0.171914 -0.749102 0.639759
vn 0.021396 -0.912368 0.408812
vn -0.021396 -0.912368 0.408813
vn -0.105866 -0.908208 0.404907
vn -0.244993 -0.911110 0.331446
vn -0.355717 -0.918738 0.171425
vn -0.370036 -0.928328 0.035777
vn -0.370037 -0.928328 -0.035778
vn -0.355717 -0.918738 -0.171423
vn -0.244992 -0.911110 -0.331446
vn -0.105865 -0.908209 -0.404907
vn -0.021395 -0.912371 -0.408806
vn 0.021395 -0.912371 -0.408806
vn 0.105866 -0.908209 -0.404907
vn 0.244993 -0.911110 -0.331446
vn 0.355717 -0.918738 -0.171424
vn 0.370037 -0.928328 -0.035777
vn 0.370037 -0.928328 0.035777
vn 0.355718 -0.918738 0.171423
vn 0.244992 -0.911111 0.331446
vn 0.105866 -0.908208 0.404908
vn 0.021396 -0.912368 0.408812
vn -0.021396 -0.912368 0.408813
vn -0.105866 -0.908208 0.404907
vn -0.244993 -0.911110 0.331446
vn -0.355717 -0.918738 0.171425
vn -0.370036 -0.928328 0.035777
vn -0.370037 -0.928328 -0.035778
vn -0.355717 -0.918738 -0.171423
vn -0.244992 -0.911110 -0.331446
vn -0.105865 -0.908209 -0.404907
vn -0.021395 -0.912371 -0.408806
vn 0.021395 -0.912371 -0.408806
vn 0.105866 -0.908209 -0.404907
vn 0.244993 -0.911110 -0.331446
vn 0.355717 -0.918738 -0.171424
vn 0.370037 -0.928328 -0.035777
vn 0.370037 -0.928328 0.035777
vn 0.355718 -0.918738 0.171423
vn 0.244992 -0.911111 0.331446
vn 0.105866 -0.908208 0.404908
s 1
f 1/1/1 2/2/2 3/3/3
f 1/1/1 3/3/3 4/4/4
f 1/1/1 4/4/4 5/5/5
f 1/1/1 5/5/5 6/6/6
f 6/6/6 7/7/7 8/8/8
f 6/6/6 8/8/8 9/9/9
f 6/6/6 9/9/9 10/10/10
f 6/6/6 10/10/10 11/11/11
f 1/1/1 6/6/6 11/11/11
f 11/11/11 12/12/12 13/13/13
f 11/11/11 13/13/13 14/14/14
f 11/11/11 14/14/14 15/15/15
f 11/11/11 15/15/15 16/16/16
f 1/1/1 11/11/11 16/16/16
f 16/16/16 17/17/17 18/18/18
f 16/16/16 18/18/18 19/19/19
f 16/16/16 19/19/19 20/20/20
f 1/1/1 16/16/16 20/20/20
f 21/21/21 22/22/22 23/23/23
f 21/21/21 23/23/23 24/24/24
f 21/21/21 24/24/24 25/25/25
f 21/21/21 25/25/25 26/26/26
f 26/26/26 27/27/27 28/28/28
f 26/26/26 28/28/28 29/29/29
f 26/26/26 29/29/29 30/30/30
f 26/26/26 30/30/30 31/31/31
f 21/21/21 26/26/26 31/31/31
f 31/31/31 32/32/32 33/33/33
f 31/31/31 33/33/33 34/34/34
f 31/31/31 34/34/34 35/35/35
f 31/31/31 35/35/35 36/36/36
f 21/21/21 31/31/31 36/36/36
f 36/36/36 37/37/37 38/38/38
f 36/36/36 38/38/38 39/39/39
f 36/36/36 39/39/39 40/40/40
f 21/21/21 36/36/36 40/40/40
f 41/41/41 42/42/42 43/43/43
f 43/43/43 44/44/44 41/41/41
f 45/45/45 46/46/46 47/47/47
f 47/47/47 48/48/48 45/45/45
f 49/49/49 50/50/50 51/51/51
f 51/51/51 52/52/52 49/49/49
f 53/53/53 54/54/54 55/55/55
f 55/55/55 56/56/56 53/53/53
f 44/44/44 57/57/57 58/58/58
f 58/58/58 41/41/41 44/44/44
f 42/42/42 59/59/59 60/60/60
f 60/60/60 43/43/43 42/42/42
f 48/48/48 61/61/61 62/62/62
f 62/62/62 45/45/45 48/48/48
f 52/52/52 63/63/63 64/64/64
f 64/64/64 49/49/49 52/52/52
f 57/57/57 65/65/65 66/66/66
f 66/66/66 58/58/58 57/57/57
f 65/65/65 67/67/67 68/68/68
f 68/68/68 66/66/66 65/65/65
f 67/67/67 47/47/47 46/46/46
f 46/46/46 68/68/68 67/67/67
f 59/59/59 69/69/69 70/70/70
f 70/70/70 60/60/60 59/59/59
f 69/69/69 71/71/71 72/72/72
f 72/72/72 70/70/70 69/69/69
f 71/71/71 53/53/53 56/56/56
f 56/56/56 72/72/72 71/71/71
f 61/61/61 73/73/73 74/74/74
f 74/74/74 62/62/62 61/61/61
f 73/73/73 75/75/75 76/76/76
f 76/76/76 74/74/74 73/73/73
f 75/75/75 51/51/51 50/50/50
f 50/50/50 76/76/76 75/75/75
f 63/63/63 77/77/77 78/78/78
f 78/78/78 64/64/64 63/63/63
f 77/77/77 79/79/79 80/80/80
f 80/80/80 78/78/78 77/77/77
f 79/79/79 55/55/55 54/54/54
f 54/54/54 80/80/80 79/79/79
f 81/81/81 82/82/82 83/83/83
f 83/83/83 84/84/84 81/81/81
f 85/85/85 81/81/81 84/84/84
f 84/84/84 86/86/86 85/85/85
f 87/87/87 85/85/85 86/86/86
f 86/86/86 88/88/88 87/87/87
f 89/89/89 87/87/87 88/88/88
f 88/88/88 90/90/90 89/89/89
f 91/91/91 89/89/89 90/90/90
f 90/90/90 92/92/92 91/91/91
f 93/93/93 91/91/91 92/92/92
f 92/92/92 94/94/94 93/93/93
f 95/95/95 93/93/93 94/94/94
f 94/94/94 96/96/96 95/95/95
f 97/97/97 95/95/95 96/96/96
f 96/96/96 98/98/98 97/97/97
f 99/99/99 97/97/97 98/98/98
f 98/98/98 100/100/100 99/99/99
f 101/101/101 99/99/99 100/100/100
f 100/100/100 102/102/102 101/101/101
f 103/103/103 101/101/101 102/102/102
f 102/102/102 104/104/104 103/103/103
f 105/105/105 103/103/103 104/104/104
f 104/104/104 106/106/106 105/105/105
f 107/107/107 105/105/105 106/106/106
f 106/106/106 108/108/108 107/107/107
f 109/109/109 107/107/107 108/108/108
f 108/108/108 110/110/110 109/109/109
f 111/111/111 109/109/109 110/110/110
f 110/110/110 112/112/112 111/111/111
f 113/113/113 111/111/111 112/112/112
f 112/112/112 114/114/114 113/113/113
f 115/115/115 113/113/113 114/114/114
f 114/114/114 116/116/116 115/115/115
f 117/117/117 115/115/115 116/116/116
f 116/116/116 118/118/118 117/117/117
f 119/119/119 117/117/117 118/118/118
f 118/118/118 120/120/120 119/119/119
f 82/82/82 119/119/119 120/120/120
f 120/120/120 83/83/83 82/82/82
f 121/121/121 122/122/122 123/123/123
f 123/123/123 124/124/124 121/121/121
f 125/125/125 121/121/121 124/124/124
f 124/124/124 126/126/126 125/125/125
f 127/127/127 125/125/125 126/126/126
f 126/126/126 128/128/128 127/127/127
f 129/129/129 127/127/127 128/128/128
f 128/128/128 130/130/130 129/129/129
f 131/131/131 129/129/129 130/130/130
f 130/130/130 132/132/132 131/131/131
f 133/133/133 131/131/131 132/132/132
f 132/132/132 134/134/134 133/133/133
f 135/135/135 133/133/133 134/134/134
f 134/134/134 136/136/136 135/135/135
f 137/137/137 135/135/135 136/136/136
f 136/136/136 138/138/138 137/137/137
f 139/139/139 137/137/137 138/138/138
f 138/138/138 140/140/140 139/139/139
f 141/141/141 139/139/139 140/140/140
f 140/140/140 142/142/142 141/141/141
f 143/143/143 141/141/141 142/142/142
f 142/142/142 144/144/144 143/143/143
f 145/145/145 143/143/143 144/144/144
f 144/144/144 146/146/146 145/145/145
f 147/147/147 145/145/145 146/146/146
f 146/146/146 148/148/148 147/147/147
f 149/149/149 147/147/147 148/148/148
f 148/148/148 150/150/150 149/149/149
f 151/151/151 149/149/149 150/150/150
f 150/150/150 152/152/152 151/151/151
f 153/153/153 151/151/151 152/152/152
f 152/152/152 154/154/154 153/153/153
f 155/155/155 153/153/153 154/154/154
f 154/154/154 156/156/156 155/155/155
f 157/157/157 155/155/155 156/156/156
f 156/156/156 158/158/158 157/157/157
f 159/159/159 157/157/157 158/158/158
f 158/158/158 160/160/160 159/159/159
f 122/122/122 159/159/159 160/160/160
f 160/160/160 123/123/123 122/122/122
f 11/11/11 161/161/161 162/162/162
f 162/162/162 12/12/12 11/11/11
f 16/16/16 163/163/163 164/164/164
f 164/164/164 17/17/17 16/16/16
f 1/1/1 165/165/165 166/166/166
f 166/166/166 2/2/2 1/1/1
f 6/6/6 167/167/167 168/168/168
f 168/168/168 7/7/7 6/6/6
f 83/83/83 169/169/169 170/170/170
f 170/170/170 84/84/84 83/83/83
f 92/92/92 171/171/171 172/172/172
f 172/172/172 94/94/94 92/92/92
f 102/102/102 173/173/173 174/174/174
f 174/174/174 104/104/104 102/102/102
f 112/112/112 175/175/175 176/176/176
f 176/176/176 114/114/114 112/112/112
f 56/56/56 161/161/161 177/177/177
f 177/177/177 72/72/72 56/56/56
f 44/44/44 167/167/167 178/178/178
f 178/178/178 57/57/57 44/44/44
f 52/52/52 163/163/163 179/179/179
f 179/179/179 63/63/63 52/52/52
f 48/48/48 165/165/165 180/180/180
f 180/180/180 61/61/61 48/48/48
f 120/120/120 181/181/181 169/169/169
f 169/169/169 83/83/83 120/120/120
f 90/90/90 182/182/182 171/171/171
f 171/171/171 92/92/92 90/90/90
f 110/110/110 183/183/183 175/175/175
f 175/175/175 112/112/112 110/110/110
f 100/100/100 184/184/184 173/173/173
f 173/173/173 102/102/102 100/100/100
f 60/60/60 185/185/185 168/168/168
f 168/168/168 43/43/43 60/60/60
f 70/70/70 186/186/186 185/185/185
f 185/185/185 60/60/60 70/70/70
f 72/72/72 177/177/177 186/186/186
f 186/186/186 70/70/70 72/72/72
f 67/67/67 187/187/187 166/166/166
f 166/166/166 47/47/47 67/67/67
f 65/65/65 188/188/188 187/187/187
f 187/187/187 67/67/67 65/65/65
f 57/57/57 178/178/178 188/188/188
f 188/188/188 65/65/65 57/57/57
f 79/79/79 189/189/189 162/162/162
f 162/162/162 55/55/55 79/79/79
f 77/77/77 190/190/190 189/189/189
f 189/189/189 79/79/79 77/77/77
f 63/63/63 179/179/179 190/190/190
f 190/190/190 77/77/77 63/63/63
f 75/75/75 191/191/191 164/164/164
f 164/164/164 51/51/51 75/75/75
f 73/73/73 192/192/192 191/191/191
f 191/191/191 75/75/75 73/73/73
f 61/61/61 180/180/180 192/192/192
f 192/192/192 73/73/73 61/61/61
f 114/114/114 176/176/176 193/193/193
f 193/193/193 116/116/116 114/114/114
f 116/116/116 193/193/193 194/194/194
f 194/194/194 118/118/118 116/116/116
f 118/118/118 194/194/194 181/181/181
f 181/181/181 120/120/120 118/118/118
f 84/84/84 170/170/170 195/195/195
f 195/195/195 86/86/86 84/84/84
f 86/86/86 195/195/195 196/196/196
f 196/196/196 88/88/88 86/86/86
f 88/88/88 196/196/196 182/182/182
f 182/182/182 90/90/90 88/88/88
f 104/104/104 174/174/174 197/197/197
f 197/197/197 106/106/106 104/104/104
f 106/106/106 197/197/197 198/198/198
f 198/198/198 108/108/108 106/106/106
f 108/108/108 198/198/198 183/183/183
f 183/183/183 110/110/110 108/108/108
f 94/94/94 172/172/172 199/199/199
f 199/199/199 96/96/96 94/94/94
f 96/96/96 199/199/199 200/200/200
f 200/200/200 98/98/98 96/96/96
f 98/98/98 200/200/200 184/184/184
f 184/184/184 100/100/100 98/98/98
f 123/123/123 201/201/201 202/202/202
f 202/202/202 124/124/124 123/123/123
f 124/124/124 202/202/202 203/203/203
f 203/203/203 126/126/126 124/124/124
f 126/126/126 203/203/203 204/204/204
f 204/204/204 128/128/128 126/126/126
f 128/128/128 204/204/204 205/205/205
f 205/205/205 130/130/130 128/128/128
f 130/130/130 205/205/205 206/206/206
f 206/206/206 132/132/132 130/130/130
f 132/132/132 206/206/206 207/207/207
f 207/207/207 134/134/134 132/132/132
f 134/134/134 207/207/207 208/208/208
f 208/208/208 136/136/136 134/134/134
f 136/136/136 208/208/208 209/209/209
f 209/209/209 138/138/138 136/136/136
f 138/138/138 209/209/209 210/210/210
f 210/210/210 140/140/140 138/138/138
f 140/140/140 210/210/210 211/211/211
f 211/211/211 142/142/142 140/140/140
f 142/142/142 211/211/211 212/212/212
f 212/212/212 144/144/144 142/142/142
f 144/144/144 212/212/212 213/213/213
f 213/213/213 146/146/146 144/144/144
f 146/146/146 213/213/213 214/214/214
f 214/214/214 148/148/148 146/146/146
f 148/148/148 214/214/214 215/215/215
f 215/215/215 150/150/150 148/148/148
f 150/150/150 215/215/215 216/216/216
f 216/216/216 152/152/152 150/150/150
f 152/152/152 216/216/216 217/217/217
f 217/217/217 154/154/154 152/152/152
f 154/154/154 217/217/217 218/218/218
f 218/218/218 156/156/156 154/154/154
f 156/156/156 218/218/218 219/219/219
f 219/219/219 158/158/158 156/156/156
f 158/158/158 219/219/219 220/220/220
f 220/220/220 160/160/160 158/158/158
f 160/160/160 220/220/220 201/201/201
f 201/201/201 123/123/123 160/160/160
f 31/31/31 221/221/221 222/222/222
f 222/222/222 32/32/32 31/31/31
f 32/32/32 222/222/222 223/223/223
f 223/223/223 33/33/33 32/32/32
f 33/33/33 223/223/223 224/224/224
f 224/224/224 34/34/34 33/33/33
f 34/34/34 224/224/224 225/225/225
f 225/225/225 35/35/35 34/34/34
f 35/35/35 225/225/225 226/226/226
f 226/226/226 36/36/36 35/35/35
f 36/36/36 226/226/226 227/227/227
f 227/227/227 37/37/37 36/36/36
f 37/37/37 227/227/227 228/228/228
f 228/228/228 38/38/38 37/37/37
f 38/38/38 228/228/228 229/229/229
f 229/229/229 39/39/39 38/38/38
f 39/39/39 229/229/229 230/230/230
f 230/230/230 40/40/40 39/39/39
f 40/40/40 230/230/230 231/231/231
f 231/231/231 21/21/21 40/40/40
f 21/21/21 231/231/231 232/232/232
f 232/232/232 22/22/22 21/21/21
f 22/22/22 232/232/232 233/233/233
f 233/233/233 23/23/23 22/22/22
f 23/23/23 233/233/233 234/234/234
f 234/234/234 24/24/24 23/23/23
f 24/24/24 234/234/234 235/235/235
f 235/235/235 25/25/25 24/24/24
f 25/25/25 235/235/235 236/236/236
f 236/236/236 26/26/26 25/25/25
f 26/26/26 236/236/236 237/237/237
f 237/237/237 27/27/27 26/26/26
f 27/27/27 237/237/237 238/238/238
f 238/238/238 28/28/28 27/27/27
f 28/28/28 238/238/238 239/239/239
f 239/239/239 29/29/29 28/28/28
f 29/29/29 239/239/239 240/240/240
f 240/240/240 30/30/30 29/29/29
f 30/30/30 240/240/240 221/221/221
f 221/221/221 31/31/31 30/30/30
f 161/161/161 56/56/56 55/55/55
f 55/55/55 162/162/162 161/161/161
f 163/163/163 52/52/52 51/51/51
f 51/51/51 164/164/164 163/163/163
f 165/165/165 48/48/48 47/47/47
f 47/47/47 166/166/166 165/165/165
f 167/167/167 44/44/44 43/43/43
f 43/43/43 168/168/168 167/167/167
f 169/169/169 42/42/42 41/41/41
f 41/41/41 170/170/170 169/169/169
f 171/171/171 46/46/46 45/45/45
f 45/45/45 172/172/172 171/171/171
f 173/173/173 50/50/50 49/49/49
f 49/49/49 174/174/174 173/173/173
f 175/175/175 54/54/54 53/53/53
f 53/53/53 176/176/176 175/175/175
f 161/161/161 11/11/11 10/10/10
f 10/10/10 177/177/177 161/161/161
f 167/167/167 6/6/6 5/5/5
f 5/5/5 178/178/178 167/167/167
f 163/163/163 16/16/16 15/15/15
f 15/15/15 179/179/179 163/163/163
f 165/165/165 1/1/1 20/20/20
f 20/20/20 180/180/180 165/165/165
f 181/181/181 59/59/59 42/42/42
f 42/42/42 169/169/169 181/181/181
f 182/182/182 68/68/68 46/46/46
f 46/46/46 171/171/171 182/182/182
f 183/183/183 80/80/80 54/54/54
f 54/54/54 175/175/175 183/183/183
f 184/184/184 76/76/76 50/50/50
f 50/50/50 173/173/173 184/184/184
f 185/185/185 8/8/8 7/7/7
f 7/7/7 168/168/168 185/185/185
f 186/186/186 9/9/9 8/8/8
f 8/8/8 185/185/185 186/186/186
f 177/177/177 10/10/10 9/9/9
f 9/9/9 186/186/186 177/177/177
f 187/187/187 3/3/3 2/2/2
f 2/2/2 166/166/166 187/187/187
f 188/188/188 4/4/4 3/3/3
f 3/3/3 187/187/187 188/188/188
f 178/178/178 5/5/5 4/4/4
f 4/4/4 188/188/188 178/178/178
f 189/189/189 13/13/13 12/12/12
f 12/12/12 162/162/162 189/189/189
f 190/190/190 14/14/14 13/13/13
f 13/13/13 189/189/189 190/190/190
f 179/179/179 15/15/15 14/14/14
f 14/14/14 190/190/190 179/179/179
f 191/191/191 18/18/18 17/17/17
f 17/17/17 164/164/164 191/191/191
f 192/192/192 19/19/19 18/18/18
f 18/18/18 191/191/191 192/192/192
f 180/180/180 20/20/20 19/19/19
f 19/19/19 192/192/192 180/180/180
f 176/176/176 53/53/53 71/71/71
f 71/71/71 193/193/193 176/176/176
f 193/193/193 71/71/71 69/69/69
f 69/69/69 194/194/194 193/193/193
f 194/194/194 69/69/69 59/59/59
f 59/59/59 181/181/181 194/194/194
f 170/170/170 41/41/41 58/58/58
f 58/58/58 195/195/195 170/170/170
f 195/195/195 58/58/58 66/66/66
f 66/66/66 196/196/196 195/195/195
f 196/196/196 66/66/66 68/68/68
f 68/68/68 182/182/182 196/196/196
f 174/174/174 49/49/49 64/64/64
f 64/64/64 197/197/197 174/174/174
f 197/197/197 64/64/64 78/78/78
f 78/78/78 198/198/198 197/197/197
f 198/198/198 78/78/78 80/80/80
f 80/80/80 183/183/183 198/198/198
f 172/172/172 45/45/45 62/62/62
f 62/62/62 199/199/199 172/172/172
f 199/199/199 62/62/62 74/74/74
f 74/74/74 200/200/200 199/199/199
f 200/200/200 74/74/74 76/76/76
f 76/76/76 184/184/184 200/200/200
f 201/201/201 82/82/82 81/81/81
f 81/81/81 202/202/202 201/201/201
f 202/202/202 81/81/81 85/85/85
f 85/85/85 203/203/203 202/202/202
f 203/203/203 85/85/85 87/87/87
f 87/87/87 204/204/204 203/203/203
f 204/204/204 87/87/87 89/89/89
f 89/89/89 205/205/205 204/204/204
f 205/205/205 89/89/89 91/91/91
f 91/91/91 206/206/206 205/205/205
f 206/206/206 91/91/91 93/93/93
f 93/93/93 207/207/207 206/206/206
f 207/207/207 93/93/93 95/95/95
f 95/95/95 208/208/208 207/207/207
f 208/208/208 95/95/95 97/97/97
f 97/97/97 209/209/209 208/208/208
f 209/209/209 97/97/97 99/99/99
f 99/99/99 210/210/210 209/209/209
f 210/210/210 99/99/99 101/101/101
f 101/101/101 211/211/211 210/210/210
f 211/211/211 101/101/101 103/103/103
f 103/103/103 212/212/212 211/211/211
f 212/212/212 103/103/103 105/105/105
f 105/105/105 213/213/213 212/212/212
f 213/213/213 105/105/105 107/107/107
f 107/107/107 214/214/214 213/213/213
f 214/214/214 107/107/107 109/109/109
f 109/109/109 215/215/215 214/214/214
f 215/215/215 109/109/109 111/111/111
f 111/111/111 216/216/216 215/215/215
f 216/216/216 111/111/111 113/113/113
f 113/113/113 217/217/217 216/216/216
f 217/217/217 113/113/113 115/115/115
f 115/115/115 218/218/218 217/217/217
f 218/218/218 115/115/115 117/117/117
f 117/117/117 219/219/219 218/218/218
f 219/219/219 117/117/117 119/119/119
f 119/119/119 220/220/220 219/219/219
f 220/220/220 119/119/119 82/82/82
f 82/82/82 201/201/201 220/220/220
f 241/241/241 122/122/122 121/121/121
f 121/121/121 242/242/242 241/241/241
f 242/242/242 121/121/121 125/125/125
f 125/125/125 243/243/243 242/242/242
f 243/243/243 125/125/125 127/127/127
f 127/127/127 244/244/244 243/243/243
f 244/244/244 127/127/127 129/129/129
f 129/129/129 245/245/245 244/244/244
f 245/245/245 129/129/129 131/131/131
f 131/131/131 246/246/246 245/245/245
f 246/246/246 131/131/131 133/133/133
f 133/133/133 247/247/247 246/246/246
f 247/247/247 133/133/133 135/135/135
f 135/135/135 248/248/248 247/247/247
f 248/248/248 135/135/135 137/137/137
f 137/137/137 249/249/249 248/248/248
f 249/249/249 137/137/137 139/139/139
f 139/139/139 250/250/250 249/249/249
f 250/250/250 139/139/139 141/141/141
f 141/141/141 251/251/251 250/250/250
f 251/251/251 141/141/141 143/143/143
f 143/143/143 252/252/252 251/251/251
f 252/252/252 143/143/143 145/145/145
f 145/145/145 253/253/253 252/252/252
f 253/253/253 145/145/145 147/147/147
f 147/147/147 254/254/254 253/253/253
f 254/254/254 147/147/147 149/149/149
f 149/149/149 255/255/255 254/254/254
f 255/255/255 149/149/149 151/151/151
f 151/151/151 256/256/256 255/255/255
f 256/256/256 151/151/151 153/153/153
f 153/153/153 257/257/257 256/256/256
f 257/257/257 153/153/153 155/155/155
f 155/155/155 258/258/258 257/257/257
f 258/258/258 155/155/155 157/157/157
f 157/157/157 259/259/259 258/258/258
f 259/259/259 157/157/157 159/159/159
f 159/159/159 260/260/260 259/259/259
f 260/260/260 159/159/159 122/122/122
f 122/122/122 241/241/241 260/260/260
