# Cocos Creator 3D Mesh Extracted
# Source file: 179083719893992.bin
# Type: skinned, Vertices: 80, Triangles: 68, Stride: 72 bytes
# Bounding Box: X=[-6.967782, 6.967784], Y=[-10.82862, 12.07004], Z=[7.883523, 13.43332]
o Model_6_skinned
v -2.399668 -10.616830 13.401980
v -2.394279 -10.743980 8.804834
v 0.002218 -10.828620 8.775957
v 0.002217 -10.722230 13.371820
v -3.101450 -10.555470 13.424850
v -3.146939 -10.666240 8.831985
v -4.732738 -10.472140 9.091229
v -4.571053 -10.492040 8.946524
v -4.323282 -10.524480 8.881818
v -4.519656 -10.357830 13.433320
v -4.716031 -10.329230 13.292010
v -4.829435 -10.317500 13.114980
v -4.875929 -10.319190 12.865260
v -4.866405 -10.437640 9.375146
v 2.404099 -10.616670 13.401980
v 2.398703 -10.743830 8.804832
v 3.105877 -10.555270 13.424850
v 3.151364 -10.666030 8.831983
v 4.737167 -10.471820 9.091228
v 4.870831 -10.437320 9.375146
v 4.880352 -10.318860 12.865250
v 4.833862 -10.317180 13.114980
v 4.720452 -10.328910 13.292010
v 4.524083 -10.357530 13.433320
v 4.327704 -10.524200 8.881814
v 4.575475 -10.491740 8.946519
v -4.473089 10.413050 12.975600
v -3.644036 10.895780 12.938620
v -3.884149 11.456290 7.914823
v -4.689773 10.931670 7.956116
v -2.956335 11.108690 12.924250
v 0.013405 11.367650 12.910670
v 0.013400 12.070040 7.883523
v -3.155692 11.755760 7.897111
v 4.499891 10.408040 12.975590
v 4.716576 10.926150 7.956116
v 3.910957 11.451570 7.914821
v 3.670841 10.891560 12.938620
v 2.983138 11.105230 12.924250
v 3.182498 11.751850 7.897107
v -5.298417 10.456510 8.008975
v -5.514740 10.250290 8.342653
v -5.486455 9.776908 12.717460
v -5.255710 9.896335 13.019370
v 5.282510 9.890664 13.019370
v 5.513258 9.771020 12.717460
v 5.541547 10.244090 8.342649
v 5.325222 10.450460 8.008967
v 6.822638 6.415905 12.969560
v 6.817994 6.240723 13.206850
v 6.817987 1.621099 13.206850
v 6.822632 1.445889 12.969560
v 6.956159 1.437669 9.310508
v 6.967784 1.611257 9.073453
v 6.967784 6.683985 9.073452
v 6.956160 6.861814 9.310507
v 6.827279 -1.410607 13.052040
v 6.822951 -1.573195 13.273260
v 6.822950 -7.334837 13.273260
v 6.827272 -7.496521 13.052040
v 6.951755 -7.485241 9.260134
v 6.962596 -7.322385 9.039137
v 6.962593 -1.572656 9.039133
v 6.951755 -1.410527 9.260136
v -6.822635 6.415909 12.969550
v -6.956159 6.861822 9.310510
v -6.967782 6.683983 9.073453
v -6.967782 1.611257 9.073455
v -6.956159 1.437672 9.310510
v -6.822634 1.445891 12.969560
v -6.817988 1.621099 13.206850
v -6.817994 6.240726 13.206850
v -6.827274 -1.410607 13.052040
v -6.951753 -1.410527 9.260134
v -6.962590 -1.572652 9.039139
v -6.962591 -7.322385 9.039139
v -6.951753 -7.485240 9.260139
v -6.827271 -7.496520 13.052040
v -6.822945 -7.334838 13.273260
v -6.822948 -1.573192 13.273250
vt 0.252785 0.597199
vt 0.192831 0.597910
vt 0.191366 0.560455
vt 0.251293 0.559653
vt 0.253245 0.608340
vt 0.193363 0.609867
vt 0.197114 0.635022
vt 0.195190 0.632482
vt 0.194289 0.628556
vt 0.253704 0.630908
vt 0.251910 0.634061
vt 0.249629 0.635895
vt 0.246383 0.636676
vt 0.200854 0.637107
vt 0.251207 0.521525
vt 0.191256 0.522420
vt 0.251942 0.509806
vt 0.192042 0.509882
vt 0.195127 0.484636
vt 0.198809 0.482451
vt 0.244334 0.481664
vt 0.247600 0.482358
vt 0.249928 0.484131
vt 0.251805 0.487234
vt 0.192473 0.491176
vt 0.193270 0.487227
vt 0.713932 0.632013
vt 0.715307 0.617454
vt 0.797477 0.621569
vt 0.795960 0.635982
vt 0.715802 0.606140
vt 0.716175 0.557899
vt 0.798588 0.557899
vt 0.798180 0.609383
vt 0.713931 0.483785
vt 0.795959 0.479816
vt 0.797477 0.494230
vt 0.715307 0.498344
vt 0.715802 0.509658
vt 0.798179 0.506416
vt 0.794313 0.647361
vt 0.788579 0.651361
vt 0.717076 0.650220
vt 0.712385 0.646039
vt 0.712385 0.469759
vt 0.717076 0.465579
vt 0.788578 0.464437
vt 0.794313 0.468437
vt 0.587829 0.391085
vt 0.584935 0.395005
vt 0.508633 0.395005
vt 0.505740 0.391085
vt 0.505604 0.330609
vt 0.508471 0.326689
vt 0.592256 0.326689
vt 0.595194 0.330609
vt 0.449894 0.391866
vt 0.447202 0.395529
vt 0.351798 0.395529
vt 0.349121 0.391866
vt 0.349307 0.329044
vt 0.352004 0.325380
vt 0.447211 0.325380
vt 0.449895 0.329044
vt 0.600824 0.720695
vt 0.609576 0.792558
vt 0.606086 0.797216
vt 0.506524 0.797216
vt 0.503117 0.792558
vt 0.503278 0.720695
vt 0.506717 0.716037
vt 0.597386 0.716037
vt 0.452160 0.722758
vt 0.452161 0.789454
vt 0.449311 0.793343
vt 0.348236 0.793343
vt 0.345373 0.789454
vt 0.345174 0.722758
vt 0.348017 0.718869
vt 0.449302 0.718869
vn -0.063925 -0.997616 0.025998
vn -0.067082 -0.997397 0.026447
vn 0.000032 -0.999656 0.026235
vn 0.000033 -0.999732 0.023142
vn -0.114467 -0.993105 0.025279
vn -0.111628 -0.993361 0.027809
vn -0.128525 -0.991322 0.027594
vn -0.132944 -0.991049 -0.012199
vn -0.120008 -0.992681 0.013503
vn -0.138070 -0.990385 -0.008600
vn -0.140181 -0.989886 0.021802
vn -0.158593 -0.986680 0.036206
vn -0.154000 -0.987475 0.034310
vn -0.183783 -0.982418 0.032842
vn 0.063989 -0.997612 0.025999
vn 0.067153 -0.997392 0.026448
vn 0.114535 -0.993098 0.025278
vn 0.111701 -0.993353 0.027809
vn 0.128588 -0.991314 0.027590
vn 0.183838 -0.982408 0.032842
vn 0.154033 -0.987470 0.034309
vn 0.158513 -0.986694 0.036163
vn 0.140233 -0.989879 0.021786
vn 0.138134 -0.990376 -0.008661
vn 0.120073 -0.992674 0.013491
vn 0.133025 -0.991037 -0.012243
vn -0.523117 0.844627 0.113816
vn -0.401441 0.907098 0.126569
vn -0.453755 0.883512 0.116242
vn -0.567544 0.817014 0.101892
vn -0.190987 0.972246 0.135138
vn 0.000578 0.990380 0.138374
vn 0.000590 0.991008 0.133804
vn -0.234054 0.963823 0.127532
vn 0.523677 0.844293 0.113720
vn 0.567773 0.816897 0.101550
vn 0.454497 0.883143 0.116147
vn 0.402227 0.906762 0.126477
vn 0.192055 0.972043 0.135082
vn 0.235098 0.963578 0.127459
vn -0.607611 0.788708 0.093533
vn -0.608802 0.788192 0.090079
vn -0.566248 0.817702 0.103570
vn -0.550996 0.827538 0.107629
vn 0.551488 0.827223 0.107534
vn 0.566726 0.817381 0.103494
vn 0.612315 0.785599 0.088910
vn 0.609469 0.787760 0.089336
vn 0.999509 0.000850 0.031334
vn 0.999809 -0.000002 0.019565
vn 0.999336 -0.006135 0.035916
vn 0.999070 -0.022958 0.036510
vn 0.999187 -0.000793 0.040305
vn 0.998800 0.000000 0.048980
vn 0.999293 0.004768 0.037299
vn 0.999166 0.014373 0.038212
vn 0.999591 0.000685 0.028600
vn 0.999809 0.000000 0.019559
vn 0.999459 -0.005017 0.032493
vn 0.999300 -0.018097 0.032752
vn 0.999271 -0.000687 0.038165
vn 0.998799 0.000001 0.048997
vn 0.999428 0.005998 0.033278
vn 0.999218 0.022084 0.032802
vn -0.999509 0.000851 0.031330
vn -0.999166 0.014364 0.038212
vn -0.999293 0.004765 0.037299
vn -0.998800 0.000000 0.048970
vn -0.999187 -0.000792 0.040301
vn -0.999070 -0.022958 0.036509
vn -0.999336 -0.006134 0.035916
vn -0.999809 -0.000001 0.019552
vn -0.999591 0.000685 0.028598
vn -0.999218 0.022075 0.032802
vn -0.999428 0.005996 0.033279
vn -0.998800 0.000000 0.048979
vn -0.999272 -0.000686 0.038159
vn -0.999300 -0.018068 0.032752
vn -0.999459 -0.005009 0.032494
vn -0.999809 -0.000001 0.019552
s 1
f 1/1/1 2/2/2 3/3/3
f 3/3/3 4/4/4 1/1/1
f 5/5/5 6/6/6 2/2/2
f 2/2/2 1/1/1 5/5/5
f 7/7/7 8/8/8 9/9/9
f 7/7/7 9/9/9 6/6/6
f 5/5/5 10/10/10 11/11/11
f 6/6/6 5/5/5 11/11/11
f 7/7/7 6/6/6 11/11/11
f 11/11/11 12/12/12 13/13/13
f 7/7/7 11/11/11 13/13/13
f 7/7/7 13/13/13 14/14/14
f 15/15/15 4/4/4 3/3/3
f 3/3/3 16/16/16 15/15/15
f 17/17/17 15/15/15 16/16/16
f 16/16/16 18/18/18 17/17/17
f 19/19/19 20/20/20 21/21/21
f 21/21/21 22/22/22 23/23/23
f 19/19/19 21/21/21 23/23/23
f 23/23/23 24/24/24 17/17/17
f 23/23/23 17/17/17 18/18/18
f 19/19/19 23/23/23 18/18/18
f 19/19/19 18/18/18 25/25/25
f 19/19/19 25/25/25 26/26/26
f 27/27/27 28/28/28 29/29/29
f 29/29/29 30/30/30 27/27/27
f 31/31/31 32/32/32 33/33/33
f 33/33/33 34/34/34 31/31/31
f 28/28/28 31/31/31 34/34/34
f 34/34/34 29/29/29 28/28/28
f 35/35/35 36/36/36 37/37/37
f 37/37/37 38/38/38 35/35/35
f 39/39/39 40/40/40 33/33/33
f 33/33/33 32/32/32 39/39/39
f 38/38/38 37/37/37 40/40/40
f 40/40/40 39/39/39 38/38/38
f 30/30/30 41/41/41 42/42/42
f 30/30/30 42/42/42 43/43/43
f 30/30/30 43/43/43 44/44/44
f 30/30/30 44/44/44 27/27/27
f 36/36/36 35/35/35 45/45/45
f 36/36/36 45/45/45 46/46/46
f 46/46/46 47/47/47 48/48/48
f 36/36/36 46/46/46 48/48/48
f 49/49/49 50/50/50 51/51/51
f 51/51/51 52/52/52 53/53/53
f 53/53/53 54/54/54 55/55/55
f 51/51/51 53/53/53 55/55/55
f 49/49/49 51/51/51 55/55/55
f 49/49/49 55/55/55 56/56/56
f 57/57/57 58/58/58 59/59/59
f 59/59/59 60/60/60 61/61/61
f 61/61/61 62/62/62 63/63/63
f 59/59/59 61/61/61 63/63/63
f 57/57/57 59/59/59 63/63/63
f 57/57/57 63/63/63 64/64/64
f 65/65/65 66/66/66 67/67/67
f 67/67/67 68/68/68 69/69/69
f 69/69/69 70/70/70 71/71/71
f 67/67/67 69/69/69 71/71/71
f 65/65/65 67/67/67 71/71/71
f 65/65/65 71/71/71 72/72/72
f 73/73/73 74/74/74 75/75/75
f 75/75/75 76/76/76 77/77/77
f 77/77/77 78/78/78 79/79/79
f 75/75/75 77/77/77 79/79/79
f 73/73/73 75/75/75 79/79/79
f 73/73/73 79/79/79 80/80/80
