# Cocos Creator 3D Mesh Extracted
# Source file: 1790837205343104.bin
# Type: static, Vertices: 144, Triangles: 124, Stride: 48 bytes
# Bounding Box: X=[-6.967782, 6.967784], Y=[-10.92463, 12.12871], Z=[7.928957, 19.75896]
o Model_14_static
v -2.399668 -10.712840 13.447410
v -2.394279 -10.839990 8.850267
v 0.002218 -10.924630 8.821390
v 0.002217 -10.818240 13.417260
v -3.101450 -10.651480 13.470280
v -3.146939 -10.762250 8.877419
v -4.732738 -10.568140 9.136662
v -4.571053 -10.588050 8.991957
v -4.323282 -10.620490 8.927251
v -4.519656 -10.453840 13.478750
v -4.716031 -10.425230 13.337450
v -4.829435 -10.413500 13.160420
v -4.875929 -10.415190 12.910690
v -4.866405 -10.533650 9.420578
v 2.404099 -10.712680 13.447410
v 2.398703 -10.839840 8.850266
v 3.105877 -10.651270 13.470280
v 3.151364 -10.762030 8.877416
v 4.737167 -10.567830 9.136662
v 4.870831 -10.533330 9.420579
v 4.880352 -10.414870 12.910690
v 4.833862 -10.413190 13.160410
v 4.720452 -10.424920 13.337440
v 4.524083 -10.453540 13.478750
v 4.327704 -10.620210 8.927246
v 4.575475 -10.587750 8.991952
v -4.473089 10.471730 13.021030
v -3.644036 10.954450 12.984050
v -3.884149 11.514970 7.960256
v -4.689773 10.990350 8.001549
v -2.956335 11.167360 12.969690
v 0.013405 11.426330 12.956100
v 0.013400 12.128710 7.928957
v -3.155692 11.814430 7.942544
v 4.499891 10.466710 13.021030
v 4.716576 10.984820 8.001549
v 3.910957 11.510240 7.960254
v 3.670841 10.950240 12.984050
v 2.983138 11.163900 12.969690
v 3.182498 11.810520 7.942540
v -5.298417 10.515190 8.054408
v -5.514740 10.308960 8.388086
v -5.486455 9.835580 12.762890
v -5.255710 9.955008 13.064810
v 5.282510 9.949336 13.064810
v 5.513258 9.829692 12.762890
v 5.541547 10.302760 8.388081
v 5.325222 10.509130 8.054400
v 6.822638 6.415905 13.014990
v 6.817994 6.240723 13.252290
v 6.817987 1.621099 13.252290
v 6.822632 1.445889 13.014990
v 6.956159 1.437669 9.355941
v 6.967784 1.611257 9.118886
v 6.967784 6.683985 9.118884
v 6.956160 6.861814 9.355940
v 6.827279 -1.410607 13.097470
v 6.822951 -1.573195 13.318690
v 6.822950 -7.334837 13.318690
v 6.827272 -7.496521 13.097470
v 6.951755 -7.485241 9.305567
v 6.962596 -7.322385 9.084570
v 6.962593 -1.572656 9.084566
v 6.951755 -1.410527 9.305569
v -6.822635 6.415909 13.014990
v -6.956159 6.861822 9.355943
v -6.967782 6.683983 9.118886
v -6.967782 1.611257 9.118888
v -6.956159 1.437672 9.355943
v -6.822634 1.445891 13.014990
v -6.817988 1.621099 13.252290
v -6.817994 6.240726 13.252290
v -6.827274 -1.410607 13.097470
v -6.951753 -1.410527 9.305567
v -6.962590 -1.572652 9.084572
v -6.962591 -7.322385 9.084572
v -6.951753 -7.485240 9.305572
v -6.827271 -7.496520 13.097470
v -6.822945 -7.334838 13.318690
v -6.822948 -1.573192 13.318680
v -2.399668 -10.494500 19.594270
v -2.394279 -10.621650 15.365540
v 0.002218 -10.706290 15.338980
v 0.002217 -10.599910 19.566530
v -3.101450 -10.433140 19.615300
v -3.146939 -10.543910 15.390520
v -4.732738 -10.349810 15.628990
v -4.571053 -10.369720 15.495880
v -4.323282 -10.402160 15.436360
v -4.519656 -10.235510 19.623100
v -4.716031 -10.206900 19.493120
v -4.829435 -10.195170 19.330270
v -4.875929 -10.196860 19.100560
v -4.866405 -10.315310 15.890150
v 2.404099 -10.494350 19.594270
v 2.398703 -10.621500 15.365540
v 3.105877 -10.432940 19.615300
v 3.151364 -10.543700 15.390520
v 4.737167 -10.349500 15.628990
v 4.870831 -10.314990 15.890150
v 4.880352 -10.196540 19.100560
v 4.833861 -10.194850 19.330270
v 4.720451 -10.206580 19.493110
v 4.524083 -10.235210 19.623100
v 4.327704 -10.401870 15.436360
v 4.575475 -10.369410 15.495870
v -4.473089 9.752115 19.676020
v -3.644036 10.232690 19.602160
v -3.884150 10.624690 15.518130
v -4.689773 10.102450 15.599280
v -2.956335 10.444720 19.571150
v 0.013405 10.595770 19.550860
v 0.013400 11.129260 15.451150
v -3.155692 10.923000 15.476500
v 4.499891 9.747112 19.676480
v 4.716576 10.096930 15.599780
v 3.910957 10.619980 15.518560
v 3.670840 10.228490 19.602550
v 2.983138 10.441260 19.571470
v 3.182498 10.919100 15.476860
v -5.298417 9.629951 15.685190
v -5.514740 9.435240 15.971910
v -5.486456 9.108574 19.527010
v -5.255710 9.237836 19.758440
v 5.282510 9.232176 19.758960
v 5.513258 9.102696 19.527550
v 5.541547 9.429050 15.972480
v 5.325222 9.623911 15.685740
v 6.822638 6.029313 19.454180
v 6.817994 5.854131 19.689270
v 6.817987 -7.227049 19.689270
v 6.822632 -7.402258 19.454180
v 6.956159 -7.410478 15.829180
v 6.967784 -7.236890 15.594330
v 6.967784 6.297392 15.594330
v 6.956160 6.475222 15.829180
v -6.822635 6.029318 19.454180
v -6.956159 6.475231 15.829180
v -6.967782 6.297391 15.594330
v -6.967782 -7.236889 15.594330
v -6.956159 -7.410475 15.829180
v -6.822634 -7.402256 19.454180
v -6.817988 -7.227048 19.689270
v -6.817994 5.854134 19.689270
vt 0.252785 0.597199
vt 0.192831 0.597910
vt 0.191366 0.560455
vt 0.251293 0.559653
vt 0.253245 0.608340
vt 0.193363 0.609867
vt 0.197114 0.635022
vt 0.195190 0.632482
vt 0.194289 0.628556
vt 0.253704 0.630908
vt 0.251910 0.634061
vt 0.249629 0.635895
vt 0.246383 0.636676
vt 0.200854 0.637107
vt 0.251207 0.521525
vt 0.191256 0.522420
vt 0.251942 0.509806
vt 0.192042 0.509882
vt 0.195127 0.484636
vt 0.198809 0.482451
vt 0.244334 0.481664
vt 0.247600 0.482358
vt 0.249928 0.484131
vt 0.251805 0.487234
vt 0.192473 0.491176
vt 0.193270 0.487227
vt 0.713932 0.632013
vt 0.715307 0.617454
vt 0.797477 0.621569
vt 0.795960 0.635982
vt 0.715802 0.606140
vt 0.716175 0.557899
vt 0.798588 0.557899
vt 0.798180 0.609383
vt 0.713931 0.483785
vt 0.795959 0.479816
vt 0.797477 0.494230
vt 0.715307 0.498344
vt 0.715802 0.509658
vt 0.798179 0.506416
vt 0.794313 0.647361
vt 0.788579 0.651361
vt 0.717076 0.650220
vt 0.712385 0.646039
vt 0.712385 0.469759
vt 0.717076 0.465579
vt 0.788578 0.464437
vt 0.794313 0.468437
vt 0.587829 0.391085
vt 0.584935 0.395005
vt 0.508633 0.395005
vt 0.505740 0.391085
vt 0.505604 0.330609
vt 0.508471 0.326689
vt 0.592256 0.326689
vt 0.595194 0.330609
vt 0.449894 0.391866
vt 0.447202 0.395529
vt 0.351798 0.395529
vt 0.349121 0.391866
vt 0.349307 0.329044
vt 0.352004 0.325380
vt 0.447211 0.325380
vt 0.449895 0.329044
vt 0.600824 0.720695
vt 0.609576 0.792558
vt 0.606086 0.797216
vt 0.506524 0.797216
vt 0.503117 0.792558
vt 0.503278 0.720695
vt 0.506717 0.716037
vt 0.597386 0.716037
vt 0.452160 0.722758
vt 0.452161 0.789454
vt 0.449311 0.793343
vt 0.348236 0.793343
vt 0.345373 0.789454
vt 0.345174 0.722758
vt 0.348017 0.718869
vt 0.449302 0.718869
vt 0.252785 0.597199
vt 0.192831 0.597910
vt 0.191366 0.560455
vt 0.251293 0.559653
vt 0.253245 0.608340
vt 0.193363 0.609867
vt 0.197114 0.635022
vt 0.195190 0.632482
vt 0.194289 0.628556
vt 0.253704 0.630908
vt 0.251910 0.634061
vt 0.249629 0.635895
vt 0.246383 0.636676
vt 0.200854 0.637107
vt 0.251207 0.521525
vt 0.191256 0.522420
vt 0.251942 0.509806
vt 0.192042 0.509882
vt 0.195127 0.484636
vt 0.198809 0.482451
vt 0.244334 0.481664
vt 0.247600 0.482358
vt 0.249928 0.484131
vt 0.251805 0.487234
vt 0.192473 0.491176
vt 0.193270 0.487227
vt 0.713932 0.632013
vt 0.715307 0.617454
vt 0.797477 0.621569
vt 0.795960 0.635982
vt 0.715802 0.606140
vt 0.716175 0.557899
vt 0.798588 0.557899
vt 0.798180 0.609383
vt 0.713931 0.483785
vt 0.795959 0.479816
vt 0.797477 0.494230
vt 0.715307 0.498344
vt 0.715802 0.509658
vt 0.798179 0.506416
vt 0.794313 0.647361
vt 0.788579 0.651361
vt 0.717076 0.650220
vt 0.712385 0.646039
vt 0.712385 0.469759
vt 0.717076 0.465579
vt 0.788578 0.464437
vt 0.794313 0.468437
vt 0.587829 0.391085
vt 0.584935 0.395005
vt 0.508633 0.395005
vt 0.505740 0.391085
vt 0.505604 0.330609
vt 0.508471 0.326689
vt 0.592256 0.326689
vt 0.595194 0.330609
vt 0.600824 0.720695
vt 0.609576 0.792558
vt 0.606086 0.797216
vt 0.506524 0.797216
vt 0.503117 0.792558
vt 0.503278 0.720695
vt 0.506717 0.716037
vt 0.597386 0.716037
vn -0.063925 -0.997616 0.025998
vn -0.067082 -0.997397 0.026447
vn 0.000032 -0.999656 0.026235
vn 0.000033 -0.999732 0.023142
vn -0.114467 -0.993105 0.025279
vn -0.111628 -0.993361 0.027809
vn -0.128525 -0.991322 0.027594
vn -0.132944 -0.991049 -0.012199
vn -0.120008 -0.992681 0.013503
vn -0.138070 -0.990385 -0.008600
vn -0.140181 -0.989886 0.021802
vn -0.158593 -0.986680 0.036206
vn -0.154000 -0.987475 0.034310
vn -0.183783 -0.982418 0.032842
vn 0.063989 -0.997612 0.025999
vn 0.067153 -0.997392 0.026448
vn 0.114535 -0.993098 0.025278
vn 0.111701 -0.993353 0.027809
vn 0.128588 -0.991314 0.027590
vn 0.183838 -0.982408 0.032842
vn 0.154033 -0.987470 0.034309
vn 0.158513 -0.986694 0.036163
vn 0.140233 -0.989879 0.021786
vn 0.138134 -0.990376 -0.008661
vn 0.120073 -0.992674 0.013491
vn 0.133025 -0.991037 -0.012243
vn -0.523117 0.844627 0.113816
vn -0.401440 0.907097 0.126569
vn -0.453755 0.883512 0.116242
vn -0.567544 0.817014 0.101892
vn -0.190987 0.972246 0.135138
vn 0.000578 0.990380 0.138374
vn 0.000590 0.991008 0.133804
vn -0.234054 0.963823 0.127532
vn 0.523677 0.844293 0.113720
vn 0.567773 0.816897 0.101550
vn 0.454497 0.883143 0.116147
vn 0.402227 0.906762 0.126477
vn 0.192055 0.972043 0.135082
vn 0.235098 0.963578 0.127459
vn -0.607611 0.788708 0.093533
vn -0.608802 0.788192 0.090079
vn -0.566248 0.817702 0.103570
vn -0.550996 0.827538 0.107629
vn 0.551488 0.827223 0.107534
vn 0.566726 0.817381 0.103494
vn 0.612315 0.785599 0.088910
vn 0.609469 0.787760 0.089336
vn 0.999509 0.000850 0.031334
vn 0.999809 -0.000002 0.019565
vn 0.999336 -0.006135 0.035916
vn 0.999070 -0.022958 0.036510
vn 0.999187 -0.000793 0.040305
vn 0.998800 0.000000 0.048980
vn 0.999293 0.004768 0.037299
vn 0.999166 0.014373 0.038212
vn 0.999591 0.000685 0.028600
vn 0.999809 0.000000 0.019559
vn 0.999459 -0.005017 0.032493
vn 0.999300 -0.018097 0.032752
vn 0.999271 -0.000687 0.038165
vn 0.998799 0.000001 0.048997
vn 0.999428 0.005998 0.033278
vn 0.999218 0.022084 0.032802
vn -0.999509 0.000851 0.031330
vn -0.999166 0.014364 0.038212
vn -0.999293 0.004765 0.037299
vn -0.998800 0.000000 0.048970
vn -0.999187 -0.000792 0.040301
vn -0.999070 -0.022958 0.036509
vn -0.999336 -0.006134 0.035916
vn -0.999809 -0.000001 0.019552
vn -0.999591 0.000685 0.028598
vn -0.999218 0.022075 0.032802
vn -0.999428 0.005996 0.033279
vn -0.998800 0.000000 0.048979
vn -0.999272 -0.000686 0.038159
vn -0.999300 -0.018068 0.032752
vn -0.999459 -0.005009 0.032494
vn -0.999809 -0.000001 0.019552
vn -0.063805 -0.997561 0.028313
vn -0.067050 -0.997335 0.028759
vn 0.000032 -0.999596 0.028411
vn 0.000033 -0.999684 0.025157
vn -0.114498 -0.993041 0.027553
vn -0.111849 -0.993266 0.030216
vn -0.129266 -0.991148 0.030262
vn -0.132942 -0.991035 -0.013260
vn -0.119937 -0.992671 0.014827
vn -0.138069 -0.990379 -0.009350
vn -0.140156 -0.989829 0.024372
vn -0.158575 -0.986562 0.039356
vn -0.154043 -0.987360 0.037304
vn -0.183766 -0.982322 0.035699
vn 0.063869 -0.997557 0.028314
vn 0.067120 -0.997330 0.028759
vn 0.114566 -0.993034 0.027551
vn 0.111922 -0.993258 0.030215
vn 0.129329 -0.991140 0.030258
vn 0.183820 -0.982311 0.035700
vn 0.154074 -0.987355 0.037303
vn 0.158494 -0.986577 0.039309
vn 0.140207 -0.989823 0.024356
vn 0.138133 -0.990369 -0.009415
vn 0.120002 -0.992663 0.014814
vn 0.133023 -0.991024 -0.013309
vn -0.519455 0.848010 0.105096
vn -0.399077 0.909294 0.117995
vn -0.448067 0.887591 0.106854
vn -0.561915 0.822024 0.092344
vn -0.172277 0.976998 0.125684
vn 0.000574 0.991639 0.129040
vn 0.000584 0.992403 0.123032
vn -0.214309 0.969755 0.116816
vn 0.520016 0.847679 0.104992
vn 0.562160 0.821894 0.092009
vn 0.448807 0.887229 0.106754
vn 0.399861 0.908962 0.117896
vn 0.173349 0.976816 0.125625
vn 0.215343 0.969536 0.116739
vn -0.603783 0.792829 0.082868
vn -0.605204 0.792184 0.078567
vn -0.563220 0.821000 0.093505
vn -0.547614 0.830946 0.098224
vn 0.548109 0.830632 0.098121
vn 0.563702 0.820677 0.093430
vn 0.608747 0.789587 0.077328
vn 0.605939 0.791703 0.077752
vn 0.999506 0.000490 0.031410
vn 0.999805 -0.000001 0.019749
vn 0.999326 -0.006259 0.036170
vn 0.999057 -0.022959 0.036852
vn 0.999167 -0.000559 0.040810
vn 0.998777 0.000000 0.049439
vn 0.999275 0.004788 0.037779
vn 0.999153 0.014373 0.038571
vn -0.999507 0.000490 0.031406
vn -0.999153 0.014364 0.038570
vn -0.999275 0.004785 0.037779
vn -0.998778 0.000000 0.049429
vn -0.999167 -0.000559 0.040806
vn -0.999057 -0.022958 0.036852
vn -0.999326 -0.006259 0.036170
vn -0.999805 0.000000 0.019736
s 1
f 1/1/1 2/2/2 3/3/3
f 3/3/3 4/4/4 1/1/1
f 5/5/5 6/6/6 2/2/2
f 2/2/2 1/1/1 5/5/5
f 7/7/7 8/8/8 9/9/9
f 7/7/7 9/9/9 6/6/6
f 5/5/5 10/10/10 11/11/11
f 6/6/6 5/5/5 11/11/11
f 7/7/7 6/6/6 11/11/11
f 11/11/11 12/12/12 13/13/13
f 7/7/7 11/11/11 13/13/13
f 7/7/7 13/13/13 14/14/14
f 15/15/15 4/4/4 3/3/3
f 3/3/3 16/16/16 15/15/15
f 17/17/17 15/15/15 16/16/16
f 16/16/16 18/18/18 17/17/17
f 19/19/19 20/20/20 21/21/21
f 21/21/21 22/22/22 23/23/23
f 19/19/19 21/21/21 23/23/23
f 23/23/23 24/24/24 17/17/17
f 23/23/23 17/17/17 18/18/18
f 19/19/19 23/23/23 18/18/18
f 19/19/19 18/18/18 25/25/25
f 19/19/19 25/25/25 26/26/26
f 27/27/27 28/28/28 29/29/29
f 29/29/29 30/30/30 27/27/27
f 31/31/31 32/32/32 33/33/33
f 33/33/33 34/34/34 31/31/31
f 28/28/28 31/31/31 34/34/34
f 34/34/34 29/29/29 28/28/28
f 35/35/35 36/36/36 37/37/37
f 37/37/37 38/38/38 35/35/35
f 39/39/39 40/40/40 33/33/33
f 33/33/33 32/32/32 39/39/39
f 38/38/38 37/37/37 40/40/40
f 40/40/40 39/39/39 38/38/38
f 30/30/30 41/41/41 42/42/42
f 30/30/30 42/42/42 43/43/43
f 30/30/30 43/43/43 44/44/44
f 30/30/30 44/44/44 27/27/27
f 36/36/36 35/35/35 45/45/45
f 36/36/36 45/45/45 46/46/46
f 46/46/46 47/47/47 48/48/48
f 36/36/36 46/46/46 48/48/48
f 49/49/49 50/50/50 51/51/51
f 51/51/51 52/52/52 53/53/53
f 53/53/53 54/54/54 55/55/55
f 51/51/51 53/53/53 55/55/55
f 49/49/49 51/51/51 55/55/55
f 49/49/49 55/55/55 56/56/56
f 57/57/57 58/58/58 59/59/59
f 59/59/59 60/60/60 61/61/61
f 61/61/61 62/62/62 63/63/63
f 59/59/59 61/61/61 63/63/63
f 57/57/57 59/59/59 63/63/63
f 57/57/57 63/63/63 64/64/64
f 65/65/65 66/66/66 67/67/67
f 67/67/67 68/68/68 69/69/69
f 69/69/69 70/70/70 71/71/71
f 67/67/67 69/69/69 71/71/71
f 65/65/65 67/67/67 71/71/71
f 65/65/65 71/71/71 72/72/72
f 73/73/73 74/74/74 75/75/75
f 75/75/75 76/76/76 77/77/77
f 77/77/77 78/78/78 79/79/79
f 75/75/75 77/77/77 79/79/79
f 73/73/73 75/75/75 79/79/79
f 73/73/73 79/79/79 80/80/80
f 81/81/81 82/82/82 83/83/83
f 83/83/83 84/84/84 81/81/81
f 85/85/85 86/86/86 82/82/82
f 82/82/82 81/81/81 85/85/85
f 87/87/87 88/88/88 89/89/89
f 87/87/87 89/89/89 86/86/86
f 85/85/85 90/90/90 91/91/91
f 86/86/86 85/85/85 91/91/91
f 87/87/87 86/86/86 91/91/91
f 91/91/91 92/92/92 93/93/93
f 87/87/87 91/91/91 93/93/93
f 87/87/87 93/93/93 94/94/94
f 95/95/95 84/84/84 83/83/83
f 83/83/83 96/96/96 95/95/95
f 97/97/97 95/95/95 96/96/96
f 96/96/96 98/98/98 97/97/97
f 99/99/99 100/100/100 101/101/101
f 101/101/101 102/102/102 103/103/103
f 99/99/99 101/101/101 103/103/103
f 103/103/103 104/104/104 97/97/97
f 103/103/103 97/97/97 98/98/98
f 99/99/99 103/103/103 98/98/98
f 99/99/99 98/98/98 105/105/105
f 99/99/99 105/105/105 106/106/106
f 107/107/107 108/108/108 109/109/109
f 109/109/109 110/110/110 107/107/107
f 111/111/111 112/112/112 113/113/113
f 113/113/113 114/114/114 111/111/111
f 108/108/108 111/111/111 114/114/114
f 114/114/114 109/109/109 108/108/108
f 115/115/115 116/116/116 117/117/117
f 117/117/117 118/118/118 115/115/115
f 119/119/119 120/120/120 113/113/113
f 113/113/113 112/112/112 119/119/119
f 118/118/118 117/117/117 120/120/120
f 120/120/120 119/119/119 118/118/118
f 110/110/110 121/121/121 122/122/122
f 110/110/110 122/122/122 123/123/123
f 110/110/110 123/123/123 124/124/124
f 110/110/110 124/124/124 107/107/107
f 116/116/116 115/115/115 125/125/125
f 116/116/116 125/125/125 126/126/126
f 126/126/126 127/127/127 128/128/128
f 116/116/116 126/126/126 128/128/128
f 129/129/129 130/130/130 131/131/131
f 131/131/131 132/132/132 133/133/133
f 133/133/133 134/134/134 135/135/135
f 131/131/131 133/133/133 135/135/135
f 129/129/129 131/131/131 135/135/135
f 129/129/129 135/135/135 136/136/136
f 137/137/137 138/138/138 139/139/139
f 139/139/139 140/140/140 141/141/141
f 141/141/141 142/142/142 143/143/143
f 139/139/139 141/141/141 143/143/143
f 137/137/137 139/139/139 143/143/143
f 137/137/137 143/143/143 144/144/144
