# Cocos Creator 3D Mesh Extracted
# Source file: 1790837203318100.bin
# Type: static, Vertices: 140, Triangles: 208, Stride: 48 bytes
# Bounding Box: X=[-6.096214, 6.096218], Y=[-11.08108, 12.06032], Z=[2.296659, 7.436166]
o Model_11_static
v -3.931141 11.971090 2.871983
v -4.037574 11.915860 3.227553
v -3.966110 11.600570 3.165153
v -3.878360 11.645520 2.871983
v -4.316210 11.769940 3.447306
v -4.195848 11.481980 3.346341
v -4.660619 11.587010 3.447306
v -4.479815 11.333700 3.346341
v -4.939255 11.437030 3.227555
v -4.709550 11.212400 3.165154
v -5.045687 11.379280 2.871984
v -4.797303 11.165760 2.871983
v -4.939253 11.437020 2.516414
v -4.709551 11.212400 2.578815
v -4.660619 11.587010 2.296660
v -4.479814 11.333700 2.397627
v -4.316204 11.769950 2.296660
v -4.195846 11.481970 2.397627
v -4.037569 11.915860 2.516414
v -3.966109 11.600570 2.578815
v -4.154428 12.010720 3.188023
v -4.059831 12.060310 2.871983
v -4.402088 11.879840 3.383345
v -4.708209 11.715990 3.383345
v -4.955871 11.581860 3.188021
v -5.050463 11.530250 2.871982
v -4.955868 11.581850 2.555944
v -4.708208 11.716000 2.360622
v -4.402088 11.879840 2.360623
v -4.154427 12.010730 2.555946
v 3.931145 11.971090 2.871981
v 3.878362 11.645530 2.871982
v 3.966111 11.600570 3.165153
v 4.037574 11.915860 3.227552
v 4.195848 11.481980 3.346339
v 4.316209 11.769950 3.447305
v 4.479818 11.333690 3.346339
v 4.660620 11.587010 3.447306
v 4.709550 11.212400 3.165151
v 4.939256 11.437020 3.227551
v 4.797304 11.165760 2.871981
v 5.045687 11.379280 2.871981
v 4.709551 11.212400 2.578814
v 4.939254 11.437030 2.516412
v 4.479817 11.333690 2.397624
v 4.660622 11.587020 2.296659
v 4.195844 11.481970 2.397624
v 4.316209 11.769950 2.296659
v 3.966113 11.600570 2.578814
v 4.037574 11.915870 2.516414
v 4.154429 12.010730 3.188019
v 4.059835 12.060320 2.871981
v 4.402092 11.879840 3.383343
v 4.708212 11.716000 3.383343
v 4.955865 11.581860 3.188019
v 5.050465 11.530260 2.871981
v 4.955870 11.581870 2.555943
v 4.708214 11.716000 2.360621
v 4.402089 11.879840 2.360621
v 4.154431 12.010730 2.555943
v -4.421317 -11.052040 6.993100
v -4.247509 -11.081070 6.453058
v -4.015537 -10.403360 6.453056
v -4.211088 -10.371250 7.060652
v -4.876348 -10.974370 7.326869
v -4.723038 -10.285150 7.436165
v -5.438802 -10.875090 7.326868
v -5.355844 -10.174740 7.436166
v -5.893836 -10.792150 6.993102
v -5.867794 -10.082200 7.060652
v -6.067642 -10.759850 6.453059
v -6.063341 -10.046100 6.453059
v -5.893834 -10.792150 5.913012
v -5.867794 -10.082200 5.845461
v -5.438802 -10.875090 5.579250
v -5.355843 -10.174740 5.469949
v -4.876352 -10.974370 5.579249
v -4.723039 -10.285150 5.469951
v -4.421315 -11.052030 5.913016
v -4.211086 -10.371250 5.845463
v 4.421323 -11.052040 6.993101
v 4.211086 -10.371250 7.060649
v 4.015543 -10.403360 6.453056
v 4.247513 -11.081080 6.453056
v 4.876354 -10.974370 7.326866
v 4.723038 -10.285160 7.436166
v 5.438806 -10.875100 7.326866
v 5.355845 -10.174750 7.436166
v 5.893841 -10.792150 6.993099
v 5.867798 -10.082200 7.060653
v 6.067647 -10.759850 6.453056
v 6.063347 -10.046110 6.453059
v 5.893835 -10.792150 5.913015
v 5.867794 -10.082210 5.845463
v 5.438800 -10.875100 5.579248
v 5.355849 -10.174740 5.469948
v 4.876352 -10.974370 5.579248
v 4.723045 -10.285160 5.469952
v 4.421319 -11.052040 5.913017
v 4.211089 -10.371250 5.845464
v 4.565087 11.505960 6.293505
v 4.403440 11.591990 5.753461
v 3.948817 10.999780 5.753463
v 4.130681 10.907120 6.361054
v 4.988277 11.277950 6.627268
v 4.606807 10.661200 6.736569
v 5.511373 10.990830 6.627268
v 5.195340 10.350960 6.736570
v 5.934575 10.754580 6.293504
v 5.671467 10.095260 6.361055
v 6.096218 10.663450 5.753463
v 5.853333 9.996568 5.753461
v 5.934568 10.754570 5.213418
v 5.671464 10.095260 5.145866
v 5.511375 10.990840 4.879654
v 5.195342 10.350960 4.770355
v 4.988280 11.277940 4.879653
v 4.606812 10.661210 4.770355
v 4.565084 11.505970 5.213418
v 4.130680 10.907120 5.145867
v -4.565080 11.505970 6.293507
v -4.130677 10.907130 6.361053
v -3.948809 10.999780 5.753461
v -4.403433 11.591990 5.753461
v -4.988275 11.277950 6.627270
v -4.606804 10.661200 6.736568
v -5.511371 10.990840 6.627267
v -5.195333 10.350960 6.736570
v -5.934567 10.754570 6.293506
v -5.671463 10.095270 6.361055
v -6.096214 10.663450 5.753463
v -5.853326 9.996568 5.753463
v -5.934566 10.754570 5.213417
v -5.671463 10.095260 5.145864
v -5.511371 10.990840 4.879652
v -5.195332 10.350960 4.770356
v -4.988274 11.277950 4.879652
v -4.606806 10.661210 4.770355
v -4.565079 11.505970 5.213420
v -4.130677 10.907130 5.145868
vt 0.000210 0.000273
vt 0.000201 0.000245
vt 0.000219 0.000231
vt 0.000233 0.000273
vt 0.000176 0.000227
vt 0.000183 0.000205
vt 0.000146 0.000227
vt 0.000139 0.000205
vt 0.000121 0.000244
vt 0.000102 0.000231
vt 0.000112 0.000273
vt 0.000089 0.000273
vt 0.000121 0.000301
vt 0.000103 0.000315
vt 0.000146 0.000319
vt 0.000139 0.000340
vt 0.000176 0.000319
vt 0.000184 0.000341
vt 0.000201 0.000302
vt 0.000220 0.000315
vt 0.000194 0.000250
vt 0.000202 0.000273
vt 0.000174 0.000235
vt 0.000148 0.000235
vt 0.000128 0.000249
vt 0.000120 0.000273
vt 0.000128 0.000296
vt 0.000148 0.000311
vt 0.000174 0.000311
vt 0.000194 0.000297
vt 0.000210 0.000273
vt 0.000233 0.000273
vt 0.000219 0.000231
vt 0.000201 0.000245
vt 0.000183 0.000205
vt 0.000176 0.000227
vt 0.000139 0.000205
vt 0.000146 0.000227
vt 0.000103 0.000231
vt 0.000122 0.000244
vt 0.000089 0.000273
vt 0.000112 0.000272
vt 0.000103 0.000315
vt 0.000121 0.000301
vt 0.000139 0.000340
vt 0.000146 0.000318
vt 0.000184 0.000340
vt 0.000176 0.000319
vt 0.000220 0.000315
vt 0.000201 0.000301
vt 0.000194 0.000250
vt 0.000202 0.000273
vt 0.000174 0.000235
vt 0.000149 0.000234
vt 0.000128 0.000249
vt 0.000120 0.000273
vt 0.000128 0.000296
vt 0.000149 0.000311
vt 0.000174 0.000311
vt 0.000194 0.000297
vt 0.000216 0.000233
vt 0.000230 0.000273
vt 0.000243 0.000273
vt 0.000227 0.000225
vt 0.000182 0.000208
vt 0.000187 0.000195
vt 0.000140 0.000208
vt 0.000136 0.000195
vt 0.000106 0.000232
vt 0.000095 0.000224
vt 0.000093 0.000272
vt 0.000079 0.000272
vt 0.000106 0.000312
vt 0.000094 0.000319
vt 0.000140 0.000336
vt 0.000135 0.000349
vt 0.000182 0.000337
vt 0.000186 0.000349
vt 0.000217 0.000312
vt 0.000227 0.000320
vt 0.000216 0.000233
vt 0.000227 0.000225
vt 0.000243 0.000273
vt 0.000230 0.000273
vt 0.000182 0.000208
vt 0.000187 0.000195
vt 0.000140 0.000208
vt 0.000136 0.000195
vt 0.000106 0.000232
vt 0.000095 0.000224
vt 0.000093 0.000272
vt 0.000079 0.000272
vt 0.000106 0.000312
vt 0.000094 0.000319
vt 0.000140 0.000336
vt 0.000135 0.000349
vt 0.000182 0.000337
vt 0.000186 0.000349
vt 0.000217 0.000312
vt 0.000227 0.000320
vt 0.000216 0.000233
vt 0.000230 0.000273
vt 0.000243 0.000273
vt 0.000227 0.000225
vt 0.000182 0.000208
vt 0.000187 0.000195
vt 0.000140 0.000208
vt 0.000136 0.000195
vt 0.000106 0.000232
vt 0.000095 0.000224
vt 0.000093 0.000272
vt 0.000079 0.000272
vt 0.000106 0.000312
vt 0.000094 0.000319
vt 0.000140 0.000336
vt 0.000135 0.000349
vt 0.000182 0.000337
vt 0.000186 0.000349
vt 0.000217 0.000312
vt 0.000227 0.000320
vt 0.000216 0.000233
vt 0.000227 0.000225
vt 0.000243 0.000273
vt 0.000230 0.000273
vt 0.000182 0.000208
vt 0.000187 0.000195
vt 0.000140 0.000208
vt 0.000136 0.000195
vt 0.000106 0.000232
vt 0.000095 0.000224
vt 0.000093 0.000272
vt 0.000079 0.000272
vt 0.000106 0.000312
vt 0.000094 0.000319
vt 0.000140 0.000336
vt 0.000135 0.000349
vt 0.000182 0.000337
vt 0.000186 0.000349
vt 0.000217 0.000312
vt 0.000227 0.000320
vn 0.848922 0.528518 0.000166
vn 0.674217 0.435230 0.596663
vn 0.819417 0.073126 0.568515
vn 0.987099 0.160111 -0.000083
vn 0.235442 0.197389 0.951633
vn 0.402413 -0.148502 0.903333
vn -0.290877 -0.093118 0.952218
vn -0.090013 -0.422862 0.901712
vn -0.726505 -0.336939 0.598884
vn -0.492580 -0.659727 0.567560
vn -0.900589 -0.434673 0.000268
vn -0.652354 -0.757914 0.000690
vn -0.726941 -0.336414 -0.598650
vn -0.491682 -0.661124 -0.566714
vn -0.291065 -0.092659 -0.952206
vn -0.088681 -0.423958 -0.901330
vn 0.235639 0.197255 -0.951612
vn 0.403159 -0.148762 -0.902958
vn 0.674586 0.434868 -0.596509
vn 0.819466 0.073208 -0.568433
vn 0.037041 0.933609 0.356373
vn 0.145116 0.989415 0.000337
vn -0.225446 0.794630 0.563683
vn -0.537365 0.625450 0.565730
vn -0.799866 0.481003 0.358959
vn -0.905909 0.423472 0.000131
vn -0.799912 0.480979 -0.358887
vn -0.537650 0.624793 -0.566186
vn -0.225879 0.794729 -0.563369
vn 0.037403 0.933752 -0.355961
vn -0.848919 0.528523 0.000165
vn -0.987098 0.160115 -0.000087
vn -0.819414 0.073126 0.568518
vn -0.674213 0.435241 0.596659
vn -0.402413 -0.148504 0.903333
vn -0.235443 0.197400 0.951630
vn 0.090023 -0.422866 0.901710
vn 0.290878 -0.093123 0.952217
vn 0.492569 -0.659734 0.567562
vn 0.726508 -0.336941 0.598880
vn 0.652350 -0.757917 0.000689
vn 0.900588 -0.434674 0.000262
vn 0.491687 -0.661121 -0.566712
vn 0.726943 -0.336411 -0.598650
vn 0.088690 -0.423951 -0.901332
vn 0.291066 -0.092649 -0.952206
vn -0.403164 -0.148747 -0.902958
vn -0.235640 0.197246 -0.951613
vn -0.819460 0.073210 -0.568441
vn -0.674573 0.434885 -0.596511
vn -0.037030 0.933613 0.356366
vn -0.145098 0.989417 0.000339
vn 0.225445 0.794628 0.563686
vn 0.537369 0.625446 0.565731
vn 0.799860 0.481004 0.358969
vn 0.905910 0.423471 0.000136
vn 0.799896 0.481023 -0.358864
vn 0.537652 0.624792 -0.566185
vn 0.225864 0.794724 -0.563382
vn -0.037383 0.933752 -0.355964
vn 0.446899 -0.790331 0.419116
vn 0.584913 -0.811096 0.000048
vn 0.946091 -0.323900 0.000055
vn 0.759619 -0.292342 0.580961
vn 0.094656 -0.732549 0.674101
vn 0.272232 -0.209561 0.939135
vn -0.337086 -0.657170 0.674166
vn -0.328478 -0.107550 0.938368
vn -0.688070 -0.593227 0.417902
vn -0.814112 -0.025338 0.580155
vn -0.821830 -0.569733 0.000182
vn -0.999982 0.006025 0.000000
vn -0.688072 -0.593231 -0.417891
vn -0.814119 -0.025324 -0.580145
vn -0.337326 -0.656402 -0.674795
vn -0.328511 -0.107460 -0.938367
vn 0.094588 -0.732609 -0.674045
vn 0.272234 -0.209373 -0.939176
vn 0.447476 -0.790028 -0.419072
vn 0.759698 -0.292175 -0.580942
vn -0.446898 -0.790331 0.419118
vn -0.759622 -0.292349 0.580954
vn -0.946092 -0.323898 0.000055
vn -0.584912 -0.811097 0.000049
vn -0.094657 -0.732550 0.674100
vn -0.272234 -0.209568 0.939133
vn 0.337086 -0.657174 0.674163
vn 0.328478 -0.107553 0.938368
vn 0.688071 -0.593227 0.417900
vn 0.814110 -0.025341 0.580158
vn 0.821831 -0.569731 0.000178
vn 0.999982 0.006023 -0.000003
vn 0.688072 -0.593232 -0.417891
vn 0.814118 -0.025325 -0.580148
vn 0.337326 -0.656403 -0.674794
vn 0.328516 -0.107461 -0.938365
vn -0.094595 -0.732604 -0.674050
vn -0.272236 -0.209371 -0.939176
vn -0.447477 -0.790027 -0.419072
vn -0.759699 -0.292173 -0.580941
vn -0.165379 0.888201 0.428659
vn -0.298262 0.954484 0.000647
vn -0.792690 0.609625 0.000735
vn -0.621034 0.518690 0.587604
vn 0.152725 0.722373 0.674427
vn -0.190103 0.284804 0.939547
vn 0.525105 0.517242 0.675815
vn 0.329652 -0.002127 0.944100
vn 0.837575 0.337138 0.429891
vn 0.764311 -0.244362 0.596755
vn 0.964516 0.264026 -0.000116
vn 0.939779 -0.341782 -0.000398
vn 0.837622 0.336700 -0.430142
vn 0.764640 -0.243427 -0.596716
vn 0.525736 0.515760 -0.676457
vn 0.330432 -0.002684 -0.943826
vn 0.153831 0.722587 -0.673947
vn -0.190503 0.282562 -0.940142
vn -0.165571 0.888595 -0.427767
vn -0.622722 0.516886 -0.587406
vn 0.165381 0.888200 0.428660
vn 0.621035 0.518686 0.587605
vn 0.792690 0.609624 0.000732
vn 0.298269 0.954482 0.000642
vn -0.152720 0.722365 0.674437
vn 0.190101 0.284801 0.939548
vn -0.525107 0.517242 0.675813
vn -0.329650 -0.002127 0.944101
vn -0.837580 0.337109 0.429903
vn -0.764309 -0.244365 0.596756
vn -0.964516 0.264025 -0.000114
vn -0.939779 -0.341783 -0.000394
vn -0.837623 0.336700 -0.430141
vn -0.764640 -0.243428 -0.596714
vn -0.525734 0.515758 -0.676459
vn -0.330424 -0.002685 -0.943829
vn -0.153832 0.722593 -0.673940
vn 0.190503 0.282561 -0.940142
vn 0.165572 0.888595 -0.427768
vn 0.622720 0.516888 -0.587407
s 1
f 1/1/1 2/2/2 3/3/3
f 3/3/3 4/4/4 1/1/1
f 2/2/2 5/5/5 6/6/6
f 6/6/6 3/3/3 2/2/2
f 5/5/5 7/7/7 8/8/8
f 8/8/8 6/6/6 5/5/5
f 7/7/7 9/9/9 10/10/10
f 10/10/10 8/8/8 7/7/7
f 9/9/9 11/11/11 12/12/12
f 12/12/12 10/10/10 9/9/9
f 11/11/11 13/13/13 14/14/14
f 14/14/14 12/12/12 11/11/11
f 13/13/13 15/15/15 16/16/16
f 16/16/16 14/14/14 13/13/13
f 15/15/15 17/17/17 18/18/18
f 18/18/18 16/16/16 15/15/15
f 17/17/17 19/19/19 20/20/20
f 20/20/20 18/18/18 17/17/17
f 19/19/19 1/1/1 4/4/4
f 4/4/4 20/20/20 19/19/19
f 21/21/21 2/2/2 1/1/1
f 1/1/1 22/22/22 21/21/21
f 23/23/23 5/5/5 2/2/2
f 2/2/2 21/21/21 23/23/23
f 24/24/24 7/7/7 5/5/5
f 5/5/5 23/23/23 24/24/24
f 25/25/25 9/9/9 7/7/7
f 7/7/7 24/24/24 25/25/25
f 26/26/26 11/11/11 9/9/9
f 9/9/9 25/25/25 26/26/26
f 27/27/27 13/13/13 11/11/11
f 11/11/11 26/26/26 27/27/27
f 28/28/28 15/15/15 13/13/13
f 13/13/13 27/27/27 28/28/28
f 29/29/29 17/17/17 15/15/15
f 15/15/15 28/28/28 29/29/29
f 30/30/30 19/19/19 17/17/17
f 17/17/17 29/29/29 30/30/30
f 22/22/22 1/1/1 19/19/19
f 19/19/19 30/30/30 22/22/22
f 30/30/30 29/29/29 28/28/28
f 28/28/28 27/27/27 26/26/26
f 26/26/26 25/25/25 24/24/24
f 24/24/24 23/23/23 21/21/21
f 26/26/26 24/24/24 21/21/21
f 28/28/28 26/26/26 21/21/21
f 30/30/30 28/28/28 21/21/21
f 30/30/30 21/21/21 22/22/22
f 31/31/31 32/32/32 33/33/33
f 33/33/33 34/34/34 31/31/31
f 34/34/34 33/33/33 35/35/35
f 35/35/35 36/36/36 34/34/34
f 36/36/36 35/35/35 37/37/37
f 37/37/37 38/38/38 36/36/36
f 38/38/38 37/37/37 39/39/39
f 39/39/39 40/40/40 38/38/38
f 40/40/40 39/39/39 41/41/41
f 41/41/41 42/42/42 40/40/40
f 42/42/42 41/41/41 43/43/43
f 43/43/43 44/44/44 42/42/42
f 44/44/44 43/43/43 45/45/45
f 45/45/45 46/46/46 44/44/44
f 46/46/46 45/45/45 47/47/47
f 47/47/47 48/48/48 46/46/46
f 48/48/48 47/47/47 49/49/49
f 49/49/49 50/50/50 48/48/48
f 50/50/50 49/49/49 32/32/32
f 32/32/32 31/31/31 50/50/50
f 51/51/51 52/52/52 31/31/31
f 31/31/31 34/34/34 51/51/51
f 53/53/53 51/51/51 34/34/34
f 34/34/34 36/36/36 53/53/53
f 54/54/54 53/53/53 36/36/36
f 36/36/36 38/38/38 54/54/54
f 55/55/55 54/54/54 38/38/38
f 38/38/38 40/40/40 55/55/55
f 56/56/56 55/55/55 40/40/40
f 40/40/40 42/42/42 56/56/56
f 57/57/57 56/56/56 42/42/42
f 42/42/42 44/44/44 57/57/57
f 58/58/58 57/57/57 44/44/44
f 44/44/44 46/46/46 58/58/58
f 59/59/59 58/58/58 46/46/46
f 46/46/46 48/48/48 59/59/59
f 60/60/60 59/59/59 48/48/48
f 48/48/48 50/50/50 60/60/60
f 52/52/52 60/60/60 50/50/50
f 50/50/50 31/31/31 52/52/52
f 51/51/51 53/53/53 54/54/54
f 54/54/54 55/55/55 56/56/56
f 51/51/51 54/54/54 56/56/56
f 56/56/56 57/57/57 58/58/58
f 51/51/51 56/56/56 58/58/58
f 58/58/58 59/59/59 60/60/60
f 51/51/51 58/58/58 60/60/60
f 51/51/51 60/60/60 52/52/52
f 61/61/61 62/62/62 63/63/63
f 63/63/63 64/64/64 61/61/61
f 65/65/65 61/61/61 64/64/64
f 64/64/64 66/66/66 65/65/65
f 67/67/67 65/65/65 66/66/66
f 66/66/66 68/68/68 67/67/67
f 69/69/69 67/67/67 68/68/68
f 68/68/68 70/70/70 69/69/69
f 71/71/71 69/69/69 70/70/70
f 70/70/70 72/72/72 71/71/71
f 73/73/73 71/71/71 72/72/72
f 72/72/72 74/74/74 73/73/73
f 75/75/75 73/73/73 74/74/74
f 74/74/74 76/76/76 75/75/75
f 77/77/77 75/75/75 76/76/76
f 76/76/76 78/78/78 77/77/77
f 79/79/79 77/77/77 78/78/78
f 78/78/78 80/80/80 79/79/79
f 62/62/62 79/79/79 80/80/80
f 80/80/80 63/63/63 62/62/62
f 61/61/61 65/65/65 67/67/67
f 67/67/67 69/69/69 71/71/71
f 61/61/61 67/67/67 71/71/71
f 71/71/71 73/73/73 75/75/75
f 61/61/61 71/71/71 75/75/75
f 75/75/75 77/77/77 79/79/79
f 61/61/61 75/75/75 79/79/79
f 61/61/61 79/79/79 62/62/62
f 81/81/81 82/82/82 83/83/83
f 83/83/83 84/84/84 81/81/81
f 85/85/85 86/86/86 82/82/82
f 82/82/82 81/81/81 85/85/85
f 87/87/87 88/88/88 86/86/86
f 86/86/86 85/85/85 87/87/87
f 89/89/89 90/90/90 88/88/88
f 88/88/88 87/87/87 89/89/89
f 91/91/91 92/92/92 90/90/90
f 90/90/90 89/89/89 91/91/91
f 93/93/93 94/94/94 92/92/92
f 92/92/92 91/91/91 93/93/93
f 95/95/95 96/96/96 94/94/94
f 94/94/94 93/93/93 95/95/95
f 97/97/97 98/98/98 96/96/96
f 96/96/96 95/95/95 97/97/97
f 99/99/99 100/100/100 98/98/98
f 98/98/98 97/97/97 99/99/99
f 84/84/84 83/83/83 100/100/100
f 100/100/100 99/99/99 84/84/84
f 95/95/95 93/93/93 91/91/91
f 91/91/91 89/89/89 87/87/87
f 87/87/87 85/85/85 81/81/81
f 91/91/91 87/87/87 81/81/81
f 95/95/95 91/91/91 81/81/81
f 81/81/81 84/84/84 99/99/99
f 95/95/95 81/81/81 99/99/99
f 95/95/95 99/99/99 97/97/97
f 101/101/101 102/102/102 103/103/103
f 103/103/103 104/104/104 101/101/101
f 105/105/105 101/101/101 104/104/104
f 104/104/104 106/106/106 105/105/105
f 107/107/107 105/105/105 106/106/106
f 106/106/106 108/108/108 107/107/107
f 109/109/109 107/107/107 108/108/108
f 108/108/108 110/110/110 109/109/109
f 111/111/111 109/109/109 110/110/110
f 110/110/110 112/112/112 111/111/111
f 113/113/113 111/111/111 112/112/112
f 112/112/112 114/114/114 113/113/113
f 115/115/115 113/113/113 114/114/114
f 114/114/114 116/116/116 115/115/115
f 117/117/117 115/115/115 116/116/116
f 116/116/116 118/118/118 117/117/117
f 119/119/119 117/117/117 118/118/118
f 118/118/118 120/120/120 119/119/119
f 102/102/102 119/119/119 120/120/120
f 120/120/120 103/103/103 102/102/102
f 101/101/101 105/105/105 107/107/107
f 107/107/107 109/109/109 111/111/111
f 101/101/101 107/107/107 111/111/111
f 111/111/111 113/113/113 115/115/115
f 101/101/101 111/111/111 115/115/115
f 115/115/115 117/117/117 119/119/119
f 101/101/101 115/115/115 119/119/119
f 101/101/101 119/119/119 102/102/102
f 121/121/121 122/122/122 123/123/123
f 123/123/123 124/124/124 121/121/121
f 125/125/125 126/126/126 122/122/122
f 122/122/122 121/121/121 125/125/125
f 127/127/127 128/128/128 126/126/126
f 126/126/126 125/125/125 127/127/127
f 129/129/129 130/130/130 128/128/128
f 128/128/128 127/127/127 129/129/129
f 131/131/131 132/132/132 130/130/130
f 130/130/130 129/129/129 131/131/131
f 133/133/133 134/134/134 132/132/132
f 132/132/132 131/131/131 133/133/133
f 135/135/135 136/136/136 134/134/134
f 134/134/134 133/133/133 135/135/135
f 137/137/137 138/138/138 136/136/136
f 136/136/136 135/135/135 137/137/137
f 139/139/139 140/140/140 138/138/138
f 138/138/138 137/137/137 139/139/139
f 124/124/124 123/123/123 140/140/140
f 140/140/140 139/139/139 124/124/124
f 135/135/135 133/133/133 131/131/131
f 131/131/131 129/129/129 127/127/127
f 127/127/127 125/125/125 121/121/121
f 131/131/131 127/127/127 121/121/121
f 135/135/135 131/131/131 121/121/121
f 121/121/121 124/124/124 139/139/139
f 135/135/135 121/121/121 139/139/139
f 135/135/135 139/139/139 137/137/137
