# Cocos Creator 3D Mesh Extracted
# Source file: 179083718778170.bin
# Type: static, Vertices: 168, Triangles: 144, Stride: 48 bytes
# Bounding Box: X=[-13.90882, 13.90882], Y=[-13.60957, 13.60957], Z=[-2.777422, 2.777429]
o Model_3_static
v -12.250360 11.301090 -2.777397
v -12.938020 11.301090 -2.777397
v -13.494340 11.705280 -2.777397
v -13.706840 12.359280 -2.777397
v -13.494340 13.013280 -2.777396
v -12.938020 13.417480 -2.777396
v -12.250360 13.417480 -2.777396
v -11.694030 13.013280 -2.777396
v -11.481540 12.359280 -2.777397
v -11.694030 11.705280 -2.777397
v -11.481540 12.359280 -2.777397
v -11.694030 13.013280 -2.777396
v -11.530630 13.132000 2.777429
v -11.279560 12.359280 2.777429
v -12.250360 13.417480 -2.777396
v -12.187950 13.609570 2.777429
v -12.250360 13.417480 -2.777396
v -12.938020 13.417480 -2.777396
v -13.000430 13.609570 2.777429
v -12.187950 13.609570 2.777429
v -13.494340 13.013280 -2.777396
v -13.657750 13.132000 2.777429
v -13.706840 12.359280 -2.777397
v -13.908820 12.359280 2.777429
v -13.494340 11.705280 -2.777397
v -13.657750 11.586560 2.777429
v -12.938020 11.301090 -2.777397
v -13.000430 11.109000 2.777429
v -12.250360 11.301090 -2.777397
v -12.187950 11.109000 2.777429
v -11.694030 11.705280 -2.777397
v -11.530630 11.586560 2.777429
v -11.279560 12.359280 2.777429
v -11.530630 13.132000 2.777429
v -12.187950 13.609570 2.777429
v -13.000430 13.609570 2.777429
v -13.657750 13.132000 2.777429
v -13.908820 12.359280 2.777429
v -13.657750 11.586560 2.777429
v -13.000430 11.109000 2.777429
v -12.187950 11.109000 2.777429
v -11.530630 11.586560 2.777429
v 12.938020 11.301090 -2.777397
v 12.250360 11.301090 -2.777397
v 11.694040 11.705280 -2.777397
v 11.481540 12.359280 -2.777397
v 11.694040 13.013280 -2.777396
v 12.250360 13.417480 -2.777396
v 12.938020 13.417480 -2.777396
v 13.494340 13.013280 -2.777396
v 13.706840 12.359280 -2.777397
v 13.494350 11.705280 -2.777397
v 13.706840 12.359280 -2.777397
v 13.494340 13.013280 -2.777396
v 13.657750 13.132000 2.777429
v 13.908820 12.359280 2.777429
v 12.938020 13.417480 -2.777396
v 13.000430 13.609570 2.777429
v 12.938020 13.417480 -2.777396
v 12.250360 13.417480 -2.777396
v 12.187950 13.609570 2.777429
v 13.000430 13.609570 2.777429
v 11.694040 13.013280 -2.777396
v 11.530630 13.132000 2.777429
v 11.481540 12.359280 -2.777397
v 11.279560 12.359280 2.777429
v 11.694040 11.705280 -2.777397
v 11.530630 11.586560 2.777429
v 12.250360 11.301090 -2.777397
v 12.187950 11.109000 2.777429
v 12.938020 11.301090 -2.777397
v 13.000430 11.109000 2.777429
v 13.494350 11.705280 -2.777397
v 13.657750 11.586560 2.777429
v 13.908820 12.359280 2.777429
v 13.657750 13.132000 2.777429
v 13.000430 13.609570 2.777429
v 12.187950 13.609570 2.777429
v 11.530630 13.132000 2.777429
v 11.279560 12.359280 2.777429
v 11.530630 11.586560 2.777429
v 12.187950 11.109000 2.777429
v 13.000430 11.109000 2.777429
v 13.657750 11.586560 2.777429
v 12.938020 -13.417480 -2.777422
v 12.250360 -13.417480 -2.777422
v 11.694040 -13.013280 -2.777422
v 11.481540 -12.359280 -2.777422
v 11.694040 -11.705280 -2.777421
v 12.250360 -11.301090 -2.777421
v 12.938020 -11.301090 -2.777421
v 13.494340 -11.705280 -2.777421
v 13.706840 -12.359280 -2.777422
v 13.494350 -13.013280 -2.777422
v 13.706840 -12.359280 -2.777422
v 13.494340 -11.705280 -2.777421
v 13.657750 -11.586560 2.777404
v 13.908820 -12.359280 2.777404
v 12.938020 -11.301090 -2.777421
v 13.000430 -11.109000 2.777404
v 12.938020 -11.301090 -2.777421
v 12.250360 -11.301090 -2.777421
v 12.187950 -11.109000 2.777404
v 13.000430 -11.109000 2.777404
v 11.694040 -11.705280 -2.777421
v 11.530630 -11.586560 2.777404
v 11.481540 -12.359280 -2.777422
v 11.279560 -12.359280 2.777404
v 11.694040 -13.013280 -2.777422
v 11.530630 -13.132000 2.777404
v 12.250360 -13.417480 -2.777422
v 12.187950 -13.609570 2.777404
v 12.938020 -13.417480 -2.777422
v 13.000430 -13.609570 2.777404
v 13.494350 -13.013280 -2.777422
v 13.657750 -13.132000 2.777404
v 13.908820 -12.359280 2.777404
v 13.657750 -11.586560 2.777404
v 13.000430 -11.109000 2.777404
v 12.187950 -11.109000 2.777404
v 11.530630 -11.586560 2.777404
v 11.279560 -12.359280 2.777404
v 11.530630 -13.132000 2.777404
v 12.187950 -13.609570 2.777404
v 13.000430 -13.609570 2.777404
v 13.657750 -13.132000 2.777404
v -12.250360 -13.417480 -2.777422
v -12.938020 -13.417480 -2.777422
v -13.494340 -13.013280 -2.777422
v -13.706840 -12.359280 -2.777422
v -13.494340 -11.705280 -2.777421
v -12.938020 -11.301090 -2.777421
v -12.250360 -11.301090 -2.777421
v -11.694030 -11.705280 -2.777421
v -11.481540 -12.359280 -2.777422
v -11.694030 -13.013280 -2.777422
v -11.481540 -12.359280 -2.777422
v -11.694030 -11.705280 -2.777421
v -11.530630 -11.586560 2.777404
v -11.279560 -12.359280 2.777404
v -12.250360 -11.301090 -2.777421
v -12.187950 -11.109000 2.777404
v -12.250360 -11.301090 -2.777421
v -12.938020 -11.301090 -2.777421
v -13.000430 -11.109000 2.777404
v -12.187950 -11.109000 2.777404
v -13.494340 -11.705280 -2.777421
v -13.657750 -11.586560 2.777404
v -13.706840 -12.359280 -2.777422
v -13.908820 -12.359280 2.777404
v -13.494340 -13.013280 -2.777422
v -13.657750 -13.132000 2.777404
v -12.938020 -13.417480 -2.777422
v -13.000430 -13.609570 2.777404
v -12.250360 -13.417480 -2.777422
v -12.187950 -13.609570 2.777404
v -11.694030 -13.013280 -2.777422
v -11.530630 -13.132000 2.777404
v -11.279560 -12.359280 2.777404
v -11.530630 -11.586560 2.777404
v -12.187950 -11.109000 2.777404
v -13.000430 -11.109000 2.777404
v -13.657750 -11.586560 2.777404
v -13.908820 -12.359280 2.777404
v -13.657750 -13.132000 2.777404
v -13.000430 -13.609570 2.777404
v -12.187950 -13.609570 2.777404
v -11.530630 -13.132000 2.777404
vt 0.121885 0.000000
vt 0.050000 0.000000
vt 0.150000 0.000000
vt 0.383688 0.000000
vt 0.661804 0.000000
vt 0.878115 0.000000
vt 0.950000 0.000000
vt 0.850000 0.000000
vt 0.750000 0.000000
vt 0.338197 0.000000
vt 0.750000 0.000000
vt 0.850000 0.000000
vt 0.850000 1.000000
vt 0.750000 1.000000
vt 0.950000 0.000000
vt 0.950000 1.000000
vt -0.050000 0.000000
vt 0.050000 0.000000
vt 0.050000 1.000000
vt -0.050000 1.000000
vt 0.150000 0.000000
vt 0.150000 1.000000
vt 0.250000 0.000000
vt 0.250000 1.000000
vt 0.350000 0.000000
vt 0.350000 1.000000
vt 0.450000 0.000000
vt 0.450000 1.000000
vt 0.550000 0.000000
vt 0.550000 1.000000
vt 0.650000 0.000000
vt 0.650000 1.000000
vt 0.750000 1.000000
vt 0.850000 1.000000
vt 0.950000 1.000000
vt 0.878115 1.000000
vt 0.661803 1.000000
vt 0.383688 1.000000
vt 0.150000 1.000000
vt 0.050000 1.000000
vt 0.121885 1.000000
vt 0.650000 1.000000
vt 0.121885 0.000000
vt 0.050000 0.000000
vt 0.150000 0.000000
vt 0.383688 0.000000
vt 0.661804 0.000000
vt 0.878115 0.000000
vt 0.950000 0.000000
vt 0.850000 0.000000
vt 0.750000 0.000000
vt 0.338197 0.000000
vt 0.750000 0.000000
vt 0.850000 0.000000
vt 0.850000 1.000000
vt 0.750000 1.000000
vt 0.950000 0.000000
vt 0.950000 1.000000
vt -0.050000 0.000000
vt 0.050000 0.000000
vt 0.050000 1.000000
vt -0.050000 1.000000
vt 0.150000 0.000000
vt 0.150000 1.000000
vt 0.250000 0.000000
vt 0.250000 1.000000
vt 0.350000 0.000000
vt 0.350000 1.000000
vt 0.450000 0.000000
vt 0.450000 1.000000
vt 0.550000 0.000000
vt 0.550000 1.000000
vt 0.650000 0.000000
vt 0.650000 1.000000
vt 0.750000 1.000000
vt 0.850000 1.000000
vt 0.950000 1.000000
vt 0.878115 1.000000
vt 0.661803 1.000000
vt 0.383688 1.000000
vt 0.150000 1.000000
vt 0.050000 1.000000
vt 0.121885 1.000000
vt 0.650000 1.000000
vt 0.121885 0.000000
vt 0.050000 0.000000
vt 0.150000 0.000000
vt 0.383688 0.000000
vt 0.661804 0.000000
vt 0.878115 0.000000
vt 0.950000 0.000000
vt 0.850000 0.000000
vt 0.750000 0.000000
vt 0.338197 0.000000
vt 0.750000 0.000000
vt 0.850000 0.000000
vt 0.850000 1.000000
vt 0.750000 1.000000
vt 0.950000 0.000000
vt 0.950000 1.000000
vt -0.050000 0.000000
vt 0.050000 0.000000
vt 0.050000 1.000000
vt -0.050000 1.000000
vt 0.150000 0.000000
vt 0.150000 1.000000
vt 0.250000 0.000000
vt 0.250000 1.000000
vt 0.350000 0.000000
vt 0.350000 1.000000
vt 0.450000 0.000000
vt 0.450000 1.000000
vt 0.550000 0.000000
vt 0.550000 1.000000
vt 0.650000 0.000000
vt 0.650000 1.000000
vt 0.750000 1.000000
vt 0.850000 1.000000
vt 0.950000 1.000000
vt 0.878115 1.000000
vt 0.661803 1.000000
vt 0.383688 1.000000
vt 0.150000 1.000000
vt 0.050000 1.000000
vt 0.121885 1.000000
vt 0.650000 1.000000
vt 0.121885 0.000000
vt 0.050000 0.000000
vt 0.150000 0.000000
vt 0.383688 0.000000
vt 0.661804 0.000000
vt 0.878115 0.000000
vt 0.950000 0.000000
vt 0.850000 0.000000
vt 0.750000 0.000000
vt 0.338197 0.000000
vt 0.750000 0.000000
vt 0.850000 0.000000
vt 0.850000 1.000000
vt 0.750000 1.000000
vt 0.950000 0.000000
vt 0.950000 1.000000
vt -0.050000 0.000000
vt 0.050000 0.000000
vt 0.050000 1.000000
vt -0.050000 1.000000
vt 0.150000 0.000000
vt 0.150000 1.000000
vt 0.250000 0.000000
vt 0.250000 1.000000
vt 0.350000 0.000000
vt 0.350000 1.000000
vt 0.450000 0.000000
vt 0.450000 1.000000
vt 0.550000 0.000000
vt 0.550000 1.000000
vt 0.650000 0.000000
vt 0.650000 1.000000
vt 0.750000 1.000000
vt 0.850000 1.000000
vt 0.950000 1.000000
vt 0.878115 1.000000
vt 0.661803 1.000000
vt 0.383688 1.000000
vt 0.150000 1.000000
vt 0.050000 1.000000
vt 0.121885 1.000000
vt 0.650000 1.000000
vn 0.000000 0.000000 -1.000000
vn 0.000000 0.000000 -1.000000
vn 0.000000 0.000000 -1.000000
vn 0.000000 0.000000 -1.000000
vn 0.000000 0.000000 -1.000000
vn 0.000000 0.000000 -1.000000
vn 0.000000 0.000001 -1.000000
vn 0.000000 0.000001 -1.000000
vn 0.000000 0.000000 -1.000000
vn 0.000000 0.000000 -1.000000
vn 0.999340 0.000000 -0.036337
vn 0.808483 0.587397 -0.036337
vn 0.808483 0.587397 -0.036337
vn 0.999340 0.000000 -0.036337
vn 0.308813 0.950428 -0.036336
vn 0.308813 0.950428 -0.036336
vn 0.308813 0.950428 -0.036336
vn -0.308813 0.950428 -0.036337
vn -0.308813 0.950429 -0.036336
vn 0.308813 0.950428 -0.036336
vn -0.808483 0.587397 -0.036337
vn -0.808483 0.587397 -0.036337
vn -0.999340 0.000000 -0.036337
vn -0.999340 0.000000 -0.036337
vn -0.808483 -0.587397 -0.036336
vn -0.808483 -0.587397 -0.036337
vn -0.308813 -0.950429 -0.036336
vn -0.308813 -0.950429 -0.036336
vn 0.308813 -0.950428 -0.036336
vn 0.308813 -0.950428 -0.036336
vn 0.808483 -0.587397 -0.036337
vn 0.808483 -0.587397 -0.036336
vn 0.000000 0.000000 1.000000
vn 0.000000 0.000000 1.000000
vn 0.000000 0.000000 1.000000
vn 0.000000 0.000000 1.000000
vn 0.000000 0.000000 1.000000
vn 0.000000 0.000000 1.000000
vn 0.000000 0.000000 1.000000
vn 0.000000 0.000000 1.000000
vn 0.000000 0.000000 1.000000
vn 0.000000 0.000000 1.000000
vn 0.000000 0.000000 -1.000000
vn 0.000000 0.000000 -1.000000
vn 0.000000 0.000000 -1.000000
vn 0.000000 0.000000 -1.000000
vn 0.000000 0.000000 -1.000000
vn 0.000000 0.000000 -1.000000
vn 0.000000 0.000001 -1.000000
vn 0.000000 0.000001 -1.000000
vn 0.000000 0.000000 -1.000000
vn 0.000000 0.000000 -1.000000
vn 0.999340 0.000002 -0.036337
vn 0.808483 0.587397 -0.036337
vn 0.808483 0.587397 -0.036337
vn 0.999340 0.000000 -0.036336
vn 0.308814 0.950428 -0.036336
vn 0.308813 0.950429 -0.036337
vn 0.308814 0.950428 -0.036336
vn -0.308813 0.950428 -0.036337
vn -0.308813 0.950429 -0.036336
vn 0.308813 0.950429 -0.036337
vn -0.808483 0.587397 -0.036337
vn -0.808483 0.587397 -0.036336
vn -0.999340 0.000000 -0.036337
vn -0.999340 0.000000 -0.036337
vn -0.808483 -0.587397 -0.036336
vn -0.808483 -0.587397 -0.036337
vn -0.308813 -0.950429 -0.036336
vn -0.308813 -0.950429 -0.036336
vn 0.308813 -0.950429 -0.036336
vn 0.308813 -0.950429 -0.036336
vn 0.808483 -0.587396 -0.036336
vn 0.808483 -0.587397 -0.036336
vn 0.000000 0.000000 1.000000
vn 0.000000 0.000000 1.000000
vn 0.000000 0.000000 1.000000
vn 0.000000 0.000000 1.000000
vn 0.000000 0.000000 1.000000
vn 0.000000 0.000000 1.000000
vn 0.000000 0.000000 1.000000
vn 0.000000 0.000000 1.000000
vn 0.000000 0.000000 1.000000
vn 0.000000 0.000000 1.000000
vn 0.000000 0.000000 -1.000000
vn 0.000000 0.000000 -1.000000
vn 0.000000 0.000000 -1.000000
vn 0.000000 0.000000 -1.000000
vn 0.000000 0.000000 -1.000000
vn 0.000000 0.000000 -1.000000
vn 0.000000 0.000001 -1.000000
vn 0.000000 0.000001 -1.000000
vn 0.000000 0.000000 -1.000000
vn 0.000000 0.000000 -1.000000
vn 0.999340 0.000002 -0.036337
vn 0.808483 0.587397 -0.036337
vn 0.808483 0.587397 -0.036337
vn 0.999340 0.000000 -0.036336
vn 0.308813 0.950428 -0.036336
vn 0.308813 0.950429 -0.036337
vn 0.308813 0.950428 -0.036336
vn -0.308813 0.950429 -0.036336
vn -0.308812 0.950429 -0.036336
vn 0.308813 0.950429 -0.036337
vn -0.808483 0.587397 -0.036337
vn -0.808482 0.587398 -0.036336
vn -0.999340 0.000000 -0.036337
vn -0.999340 0.000000 -0.036337
vn -0.808483 -0.587397 -0.036336
vn -0.808482 -0.587398 -0.036337
vn -0.308813 -0.950429 -0.036336
vn -0.308812 -0.950429 -0.036336
vn 0.308812 -0.950429 -0.036336
vn 0.308812 -0.950429 -0.036336
vn 0.808483 -0.587397 -0.036336
vn 0.808483 -0.587397 -0.036336
vn 0.000000 0.000000 1.000000
vn 0.000000 0.000000 1.000000
vn 0.000000 0.000000 1.000000
vn 0.000000 0.000000 1.000000
vn 0.000000 0.000000 1.000000
vn 0.000000 0.000000 1.000000
vn 0.000000 0.000000 1.000000
vn 0.000000 0.000000 1.000000
vn 0.000000 0.000000 1.000000
vn 0.000000 0.000000 1.000000
vn 0.000000 0.000000 -1.000000
vn 0.000000 0.000000 -1.000000
vn 0.000000 0.000000 -1.000000
vn 0.000000 0.000000 -1.000000
vn 0.000000 0.000000 -1.000000
vn 0.000000 0.000000 -1.000000
vn 0.000000 0.000001 -1.000000
vn 0.000000 0.000001 -1.000000
vn 0.000000 0.000000 -1.000000
vn 0.000000 0.000000 -1.000000
vn 0.999340 0.000000 -0.036336
vn 0.808483 0.587397 -0.036336
vn 0.808483 0.587397 -0.036336
vn 0.999340 0.000000 -0.036336
vn 0.308813 0.950429 -0.036336
vn 0.308813 0.950429 -0.036336
vn 0.308813 0.950429 -0.036336
vn -0.308813 0.950429 -0.036336
vn -0.308813 0.950429 -0.036336
vn 0.308813 0.950429 -0.036336
vn -0.808483 0.587397 -0.036336
vn -0.808483 0.587397 -0.036336
vn -0.999340 0.000000 -0.036336
vn -0.999340 0.000000 -0.036337
vn -0.808483 -0.587397 -0.036336
vn -0.808483 -0.587397 -0.036336
vn -0.308813 -0.950429 -0.036336
vn -0.308813 -0.950429 -0.036336
vn 0.308813 -0.950429 -0.036336
vn 0.308813 -0.950429 -0.036336
vn 0.808483 -0.587397 -0.036336
vn 0.808483 -0.587397 -0.036336
vn 0.000000 0.000000 1.000000
vn 0.000000 0.000000 1.000000
vn 0.000000 0.000000 1.000000
vn 0.000000 0.000000 1.000000
vn 0.000000 0.000000 1.000000
vn 0.000000 0.000000 1.000000
vn 0.000000 0.000000 1.000000
vn 0.000000 0.000000 1.000000
vn 0.000000 0.000000 1.000000
vn 0.000000 0.000000 1.000000
s 1
f 1/1/1 2/2/2 3/3/3
f 3/3/3 4/4/4 5/5/5
f 5/5/5 6/6/6 7/7/7
f 7/7/7 8/8/8 9/9/9
f 5/5/5 7/7/7 9/9/9
f 3/3/3 5/5/5 9/9/9
f 1/1/1 3/3/3 9/9/9
f 10/10/10 1/1/1 9/9/9
f 11/11/11 12/12/12 13/13/13
f 13/13/13 14/14/14 11/11/11
f 12/12/12 15/15/15 16/16/16
f 16/16/16 13/13/13 12/12/12
f 17/17/17 18/18/18 19/19/19
f 19/19/19 20/20/20 17/17/17
f 18/18/18 21/21/21 22/22/22
f 22/22/22 19/19/19 18/18/18
f 21/21/21 23/23/23 24/24/24
f 24/24/24 22/22/22 21/21/21
f 23/23/23 25/25/25 26/26/26
f 26/26/26 24/24/24 23/23/23
f 25/25/25 27/27/27 28/28/28
f 28/28/28 26/26/26 25/25/25
f 27/27/27 29/29/29 30/30/30
f 30/30/30 28/28/28 27/27/27
f 29/29/29 31/31/31 32/32/32
f 32/32/32 30/30/30 29/29/29
f 31/31/31 11/11/11 14/14/14
f 14/14/14 32/32/32 31/31/31
f 33/33/33 34/34/34 35/35/35
f 35/35/35 36/36/36 37/37/37
f 37/37/37 38/38/38 39/39/39
f 39/39/39 40/40/40 41/41/41
f 37/37/37 39/39/39 41/41/41
f 35/35/35 37/37/37 41/41/41
f 33/33/33 35/35/35 41/41/41
f 42/42/42 33/33/33 41/41/41
f 43/43/43 44/44/44 45/45/45
f 45/45/45 46/46/46 47/47/47
f 47/47/47 48/48/48 49/49/49
f 49/49/49 50/50/50 51/51/51
f 47/47/47 49/49/49 51/51/51
f 45/45/45 47/47/47 51/51/51
f 43/43/43 45/45/45 51/51/51
f 52/52/52 43/43/43 51/51/51
f 53/53/53 54/54/54 55/55/55
f 55/55/55 56/56/56 53/53/53
f 54/54/54 57/57/57 58/58/58
f 58/58/58 55/55/55 54/54/54
f 59/59/59 60/60/60 61/61/61
f 61/61/61 62/62/62 59/59/59
f 60/60/60 63/63/63 64/64/64
f 64/64/64 61/61/61 60/60/60
f 63/63/63 65/65/65 66/66/66
f 66/66/66 64/64/64 63/63/63
f 65/65/65 67/67/67 68/68/68
f 68/68/68 66/66/66 65/65/65
f 67/67/67 69/69/69 70/70/70
f 70/70/70 68/68/68 67/67/67
f 69/69/69 71/71/71 72/72/72
f 72/72/72 70/70/70 69/69/69
f 71/71/71 73/73/73 74/74/74
f 74/74/74 72/72/72 71/71/71
f 73/73/73 53/53/53 56/56/56
f 56/56/56 74/74/74 73/73/73
f 75/75/75 76/76/76 77/77/77
f 77/77/77 78/78/78 79/79/79
f 79/79/79 80/80/80 81/81/81
f 81/81/81 82/82/82 83/83/83
f 79/79/79 81/81/81 83/83/83
f 77/77/77 79/79/79 83/83/83
f 75/75/75 77/77/77 83/83/83
f 84/84/84 75/75/75 83/83/83
f 85/85/85 86/86/86 87/87/87
f 87/87/87 88/88/88 89/89/89
f 89/89/89 90/90/90 91/91/91
f 91/91/91 92/92/92 93/93/93
f 89/89/89 91/91/91 93/93/93
f 87/87/87 89/89/89 93/93/93
f 85/85/85 87/87/87 93/93/93
f 94/94/94 85/85/85 93/93/93
f 95/95/95 96/96/96 97/97/97
f 97/97/97 98/98/98 95/95/95
f 96/96/96 99/99/99 100/100/100
f 100/100/100 97/97/97 96/96/96
f 101/101/101 102/102/102 103/103/103
f 103/103/103 104/104/104 101/101/101
f 102/102/102 105/105/105 106/106/106
f 106/106/106 103/103/103 102/102/102
f 105/105/105 107/107/107 108/108/108
f 108/108/108 106/106/106 105/105/105
f 107/107/107 109/109/109 110/110/110
f 110/110/110 108/108/108 107/107/107
f 109/109/109 111/111/111 112/112/112
f 112/112/112 110/110/110 109/109/109
f 111/111/111 113/113/113 114/114/114
f 114/114/114 112/112/112 111/111/111
f 113/113/113 115/115/115 116/116/116
f 116/116/116 114/114/114 113/113/113
f 115/115/115 95/95/95 98/98/98
f 98/98/98 116/116/116 115/115/115
f 117/117/117 118/118/118 119/119/119
f 119/119/119 120/120/120 121/121/121
f 121/121/121 122/122/122 123/123/123
f 123/123/123 124/124/124 125/125/125
f 121/121/121 123/123/123 125/125/125
f 119/119/119 121/121/121 125/125/125
f 117/117/117 119/119/119 125/125/125
f 126/126/126 117/117/117 125/125/125
f 127/127/127 128/128/128 129/129/129
f 129/129/129 130/130/130 131/131/131
f 131/131/131 132/132/132 133/133/133
f 133/133/133 134/134/134 135/135/135
f 131/131/131 133/133/133 135/135/135
f 129/129/129 131/131/131 135/135/135
f 127/127/127 129/129/129 135/135/135
f 136/136/136 127/127/127 135/135/135
f 137/137/137 138/138/138 139/139/139
f 139/139/139 140/140/140 137/137/137
f 138/138/138 141/141/141 142/142/142
f 142/142/142 139/139/139 138/138/138
f 143/143/143 144/144/144 145/145/145
f 145/145/145 146/146/146 143/143/143
f 144/144/144 147/147/147 148/148/148
f 148/148/148 145/145/145 144/144/144
f 147/147/147 149/149/149 150/150/150
f 150/150/150 148/148/148 147/147/147
f 149/149/149 151/151/151 152/152/152
f 152/152/152 150/150/150 149/149/149
f 151/151/151 153/153/153 154/154/154
f 154/154/154 152/152/152 151/151/151
f 153/153/153 155/155/155 156/156/156
f 156/156/156 154/154/154 153/153/153
f 155/155/155 157/157/157 158/158/158
f 158/158/158 156/156/156 155/155/155
f 157/157/157 137/137/137 140/140/140
f 140/140/140 158/158/158 157/157/157
f 159/159/159 160/160/160 161/161/161
f 161/161/161 162/162/162 163/163/163
f 163/163/163 164/164/164 165/165/165
f 165/165/165 166/166/166 167/167/167
f 163/163/163 165/165/165 167/167/167
f 161/161/161 163/163/163 167/167/167
f 159/159/159 161/161/161 167/167/167
f 168/168/168 159/159/159 167/167/167
