# Cocos Creator 3D Mesh Extracted
# Source file: 179083720078495.bin
# Type: skinned, Vertices: 200, Triangles: 304, Stride: 72 bytes
# Bounding Box: X=[-6.096214, 6.096218], Y=[-11.08108, 12.06032], Z=[2.296659, 14.97146]
o Model_9_skinned
v -3.966110 11.600570 3.165153
v -3.878360 11.645520 2.871983
v -3.931141 11.971090 2.871983
v -4.037574 11.915860 3.227553
v -4.195848 11.481980 3.346341
v -4.316210 11.769940 3.447306
v -4.479815 11.333700 3.346341
v -4.660619 11.587010 3.447306
v -4.709550 11.212400 3.165154
v -4.939255 11.437030 3.227555
v -4.797303 11.165760 2.871983
v -5.045687 11.379280 2.871984
v -4.709551 11.212400 2.578815
v -4.939253 11.437020 2.516414
v -4.479814 11.333700 2.397627
v -4.660619 11.587010 2.296660
v -4.195846 11.481970 2.397627
v -4.316204 11.769950 2.296660
v -3.966109 11.600570 2.578815
v -4.037569 11.915860 2.516414
v -4.059831 12.060310 2.871983
v -4.154428 12.010720 3.188023
v -4.402088 11.879840 3.383345
v -4.708209 11.715990 3.383345
v -4.955871 11.581860 3.188021
v -5.050463 11.530250 2.871982
v -4.955868 11.581850 2.555944
v -4.708208 11.716000 2.360622
v -4.402088 11.879840 2.360623
v -4.154427 12.010730 2.555946
v 3.966111 11.600570 3.165153
v 4.037574 11.915860 3.227552
v 3.931145 11.971090 2.871981
v 3.878362 11.645530 2.871982
v 4.195848 11.481980 3.346339
v 4.316209 11.769950 3.447305
v 4.479818 11.333690 3.346339
v 4.660620 11.587010 3.447306
v 4.709550 11.212400 3.165151
v 4.939256 11.437020 3.227551
v 4.797304 11.165760 2.871981
v 5.045687 11.379280 2.871981
v 4.709551 11.212400 2.578814
v 4.939254 11.437030 2.516412
v 4.479817 11.333690 2.397624
v 4.660622 11.587020 2.296659
v 4.195844 11.481970 2.397624
v 4.316209 11.769950 2.296659
v 3.966113 11.600570 2.578814
v 4.037574 11.915870 2.516414
v 4.154429 12.010730 3.188019
v 4.059835 12.060320 2.871981
v 4.402092 11.879840 3.383343
v 4.708212 11.716000 3.383343
v 4.955865 11.581860 3.188019
v 5.050465 11.530260 2.871981
v 4.955870 11.581870 2.555943
v 4.708214 11.716000 2.360621
v 4.402089 11.879840 2.360621
v 4.154431 12.010730 2.555943
v 3.068305 10.544130 14.603770
v 3.070368 10.851750 14.774360
v 2.964141 10.969520 14.438280
v 2.980718 10.640910 14.326680
v 3.308061 10.427460 14.766280
v 3.361153 10.709020 14.971460
v 3.608403 10.333610 14.752120
v 3.725424 10.593090 14.954280
v 3.854614 10.298000 14.566690
v 4.024042 10.547580 14.729390
v 3.952649 10.335750 14.280840
v 4.142948 10.592170 14.382690
v 3.865064 10.433890 14.003740
v 4.036716 10.712000 14.046600
v 3.625308 10.554290 13.841230
v 3.745926 10.860360 13.849500
v 3.324964 10.649070 13.855400
v 3.381657 10.977710 13.866680
v 3.078756 10.681550 14.040820
v 3.083039 11.018470 14.091580
v 3.162576 10.976030 14.781210
v 3.068159 11.081050 14.482480
v 3.421033 10.848210 14.956390
v 3.744812 10.744200 14.941120
v 4.010226 10.703200 14.741230
v 4.115909 10.742720 14.433080
v 4.021490 10.849390 14.134360
v 3.763033 10.981720 13.959170
v 3.439260 11.086860 13.974440
v 3.173842 11.124060 14.174340
v -3.068305 10.544120 14.603770
v -2.980720 10.640920 14.326680
v -2.964138 10.969520 14.438280
v -3.070366 10.851750 14.774360
v -3.308058 10.427460 14.766280
v -3.361151 10.709010 14.971460
v -3.608404 10.333620 14.752120
v -3.725425 10.593080 14.954280
v -3.854616 10.298000 14.566690
v -4.024042 10.547570 14.729390
v -3.952648 10.335750 14.280840
v -4.142946 10.592170 14.382690
v -3.865064 10.433890 14.003740
v -4.036715 10.712000 14.046610
v -3.625308 10.554290 13.841240
v -3.745930 10.860350 13.849500
v -3.324965 10.649070 13.855390
v -3.381658 10.977700 13.866680
v -3.078753 10.681550 14.040820
v -3.083038 11.018470 14.091580
v -3.068157 11.081060 14.482490
v -3.162574 10.976030 14.781210
v -3.421033 10.848210 14.956390
v -3.744810 10.744200 14.941120
v -4.010226 10.703210 14.741230
v -4.115909 10.742720 14.433080
v -4.021490 10.849390 14.134360
v -3.763034 10.981720 13.959170
v -3.439260 11.086860 13.974440
v -3.173838 11.124060 14.174340
v -4.015537 -10.403360 6.453056
v -4.211088 -10.371250 7.060652
v -4.421317 -11.052040 6.993100
v -4.247509 -11.081070 6.453058
v -4.723038 -10.285150 7.436165
v -4.876348 -10.974370 7.326869
v -5.355844 -10.174740 7.436166
v -5.438802 -10.875090 7.326868
v -5.867794 -10.082200 7.060652
v -5.893836 -10.792150 6.993102
v -6.063341 -10.046100 6.453059
v -6.067642 -10.759850 6.453059
v -5.867794 -10.082200 5.845461
v -5.893834 -10.792150 5.913012
v -5.355843 -10.174740 5.469949
v -5.438802 -10.875090 5.579250
v -4.723039 -10.285150 5.469951
v -4.876352 -10.974370 5.579249
v -4.211086 -10.371250 5.845463
v -4.421315 -11.052030 5.913016
v 4.015543 -10.403360 6.453056
v 4.247513 -11.081080 6.453056
v 4.421323 -11.052040 6.993101
v 4.211086 -10.371250 7.060649
v 4.876354 -10.974370 7.326866
v 4.723038 -10.285160 7.436166
v 5.438806 -10.875100 7.326866
v 5.355845 -10.174750 7.436166
v 5.893841 -10.792150 6.993099
v 5.867798 -10.082200 7.060653
v 6.067647 -10.759850 6.453056
v 6.063347 -10.046110 6.453059
v 5.893835 -10.792150 5.913015
v 5.867794 -10.082210 5.845463
v 5.438800 -10.875100 5.579248
v 5.355849 -10.174740 5.469948
v 4.876352 -10.974370 5.579248
v 4.723045 -10.285160 5.469952
v 4.421319 -11.052040 5.913017
v 4.211089 -10.371250 5.845464
v 3.948817 10.999780 5.753463
v 4.130681 10.907120 6.361054
v 4.565087 11.505960 6.293505
v 4.403440 11.591990 5.753461
v 4.606807 10.661200 6.736569
v 4.988277 11.277950 6.627268
v 5.195340 10.350960 6.736570
v 5.511373 10.990830 6.627268
v 5.671467 10.095260 6.361055
v 5.934575 10.754580 6.293504
v 5.853333 9.996568 5.753461
v 6.096218 10.663450 5.753463
v 5.671464 10.095260 5.145866
v 5.934568 10.754570 5.213418
v 5.195342 10.350960 4.770355
v 5.511375 10.990840 4.879654
v 4.606812 10.661210 4.770355
v 4.988280 11.277940 4.879653
v 4.130680 10.907120 5.145867
v 4.565084 11.505970 5.213418
v -3.948809 10.999780 5.753461
v -4.403433 11.591990 5.753461
v -4.565080 11.505970 6.293507
v -4.130677 10.907130 6.361053
v -4.988275 11.277950 6.627270
v -4.606804 10.661200 6.736568
v -5.511371 10.990840 6.627267
v -5.195333 10.350960 6.736570
v -5.934567 10.754570 6.293506
v -5.671463 10.095270 6.361055
v -6.096214 10.663450 5.753463
v -5.853326 9.996568 5.753463
v -5.934566 10.754570 5.213417
v -5.671463 10.095260 5.145864
v -5.511371 10.990840 4.879652
v -5.195332 10.350960 4.770356
v -4.988274 11.277950 4.879652
v -4.606806 10.661210 4.770355
v -4.565079 11.505970 5.213420
v -4.130677 10.907130 5.145868
vt 0.000219 0.000231
vt 0.000233 0.000273
vt 0.000210 0.000273
vt 0.000201 0.000245
vt 0.000183 0.000205
vt 0.000176 0.000227
vt 0.000139 0.000205
vt 0.000146 0.000227
vt 0.000102 0.000231
vt 0.000121 0.000244
vt 0.000089 0.000273
vt 0.000112 0.000273
vt 0.000103 0.000315
vt 0.000121 0.000301
vt 0.000139 0.000340
vt 0.000146 0.000319
vt 0.000184 0.000341
vt 0.000176 0.000319
vt 0.000220 0.000315
vt 0.000201 0.000302
vt 0.000202 0.000273
vt 0.000194 0.000250
vt 0.000174 0.000235
vt 0.000148 0.000235
vt 0.000128 0.000249
vt 0.000120 0.000273
vt 0.000128 0.000296
vt 0.000148 0.000311
vt 0.000174 0.000311
vt 0.000194 0.000297
vt 0.000219 0.000231
vt 0.000201 0.000245
vt 0.000210 0.000273
vt 0.000233 0.000273
vt 0.000183 0.000205
vt 0.000176 0.000227
vt 0.000139 0.000205
vt 0.000146 0.000227
vt 0.000103 0.000231
vt 0.000122 0.000244
vt 0.000089 0.000273
vt 0.000112 0.000272
vt 0.000103 0.000315
vt 0.000121 0.000301
vt 0.000139 0.000340
vt 0.000146 0.000318
vt 0.000184 0.000340
vt 0.000176 0.000319
vt 0.000220 0.000315
vt 0.000201 0.000301
vt 0.000194 0.000250
vt 0.000202 0.000273
vt 0.000174 0.000235
vt 0.000149 0.000234
vt 0.000128 0.000249
vt 0.000120 0.000273
vt 0.000128 0.000296
vt 0.000149 0.000311
vt 0.000174 0.000311
vt 0.000194 0.000297
vt 0.000219 0.000231
vt 0.000201 0.000245
vt 0.000210 0.000273
vt 0.000233 0.000273
vt 0.000183 0.000205
vt 0.000176 0.000227
vt 0.000139 0.000205
vt 0.000146 0.000227
vt 0.000103 0.000231
vt 0.000122 0.000244
vt 0.000089 0.000273
vt 0.000112 0.000272
vt 0.000103 0.000315
vt 0.000121 0.000301
vt 0.000139 0.000340
vt 0.000146 0.000318
vt 0.000184 0.000340
vt 0.000176 0.000319
vt 0.000220 0.000315
vt 0.000201 0.000301
vt 0.000194 0.000250
vt 0.000202 0.000273
vt 0.000174 0.000235
vt 0.000149 0.000234
vt 0.000128 0.000249
vt 0.000120 0.000273
vt 0.000128 0.000296
vt 0.000149 0.000311
vt 0.000174 0.000311
vt 0.000194 0.000297
vt 0.000219 0.000231
vt 0.000233 0.000273
vt 0.000210 0.000273
vt 0.000201 0.000245
vt 0.000183 0.000205
vt 0.000176 0.000227
vt 0.000139 0.000205
vt 0.000146 0.000227
vt 0.000103 0.000231
vt 0.000122 0.000244
vt 0.000089 0.000273
vt 0.000112 0.000272
vt 0.000103 0.000315
vt 0.000121 0.000301
vt 0.000139 0.000340
vt 0.000146 0.000318
vt 0.000184 0.000340
vt 0.000176 0.000319
vt 0.000220 0.000315
vt 0.000201 0.000301
vt 0.000202 0.000273
vt 0.000194 0.000250
vt 0.000174 0.000235
vt 0.000149 0.000234
vt 0.000128 0.000249
vt 0.000120 0.000273
vt 0.000128 0.000296
vt 0.000149 0.000311
vt 0.000174 0.000311
vt 0.000194 0.000297
vt 0.000243 0.000273
vt 0.000227 0.000225
vt 0.000216 0.000233
vt 0.000230 0.000273
vt 0.000187 0.000195
vt 0.000182 0.000208
vt 0.000136 0.000195
vt 0.000140 0.000208
vt 0.000095 0.000224
vt 0.000106 0.000232
vt 0.000079 0.000272
vt 0.000093 0.000272
vt 0.000094 0.000319
vt 0.000106 0.000312
vt 0.000135 0.000349
vt 0.000140 0.000336
vt 0.000186 0.000349
vt 0.000182 0.000337
vt 0.000227 0.000320
vt 0.000217 0.000312
vt 0.000243 0.000273
vt 0.000230 0.000273
vt 0.000216 0.000233
vt 0.000227 0.000225
vt 0.000182 0.000208
vt 0.000187 0.000195
vt 0.000140 0.000208
vt 0.000136 0.000195
vt 0.000106 0.000232
vt 0.000095 0.000224
vt 0.000093 0.000272
vt 0.000079 0.000272
vt 0.000106 0.000312
vt 0.000094 0.000319
vt 0.000140 0.000336
vt 0.000135 0.000349
vt 0.000182 0.000337
vt 0.000186 0.000349
vt 0.000217 0.000312
vt 0.000227 0.000320
vt 0.000243 0.000273
vt 0.000227 0.000225
vt 0.000216 0.000233
vt 0.000230 0.000273
vt 0.000187 0.000195
vt 0.000182 0.000208
vt 0.000136 0.000195
vt 0.000140 0.000208
vt 0.000095 0.000224
vt 0.000106 0.000232
vt 0.000079 0.000272
vt 0.000093 0.000272
vt 0.000094 0.000319
vt 0.000106 0.000312
vt 0.000135 0.000349
vt 0.000140 0.000336
vt 0.000186 0.000349
vt 0.000182 0.000337
vt 0.000227 0.000320
vt 0.000217 0.000312
vt 0.000243 0.000273
vt 0.000230 0.000273
vt 0.000216 0.000233
vt 0.000227 0.000225
vt 0.000182 0.000208
vt 0.000187 0.000195
vt 0.000140 0.000208
vt 0.000136 0.000195
vt 0.000106 0.000232
vt 0.000095 0.000224
vt 0.000093 0.000272
vt 0.000079 0.000272
vt 0.000106 0.000312
vt 0.000094 0.000319
vt 0.000140 0.000336
vt 0.000135 0.000349
vt 0.000182 0.000337
vt 0.000186 0.000349
vt 0.000217 0.000312
vt 0.000227 0.000320
vn 0.819417 0.073126 0.568515
vn 0.987099 0.160111 -0.000083
vn 0.848922 0.528518 0.000166
vn 0.674217 0.435230 0.596663
vn 0.402413 -0.148502 0.903333
vn 0.235442 0.197389 0.951633
vn -0.090013 -0.422862 0.901712
vn -0.290877 -0.093118 0.952218
vn -0.492580 -0.659727 0.567560
vn -0.726505 -0.336939 0.598884
vn -0.652354 -0.757914 0.000690
vn -0.900589 -0.434673 0.000268
vn -0.491682 -0.661124 -0.566714
vn -0.726941 -0.336414 -0.598650
vn -0.088681 -0.423958 -0.901330
vn -0.291065 -0.092659 -0.952206
vn 0.403159 -0.148762 -0.902958
vn 0.235640 0.197255 -0.951612
vn 0.819466 0.073208 -0.568433
vn 0.674586 0.434868 -0.596509
vn 0.145116 0.989415 0.000337
vn 0.037041 0.933609 0.356373
vn -0.225446 0.794630 0.563683
vn -0.537365 0.625450 0.565730
vn -0.799866 0.481003 0.358959
vn -0.905909 0.423472 0.000131
vn -0.799912 0.480979 -0.358887
vn -0.537650 0.624793 -0.566186
vn -0.225879 0.794729 -0.563369
vn 0.037403 0.933752 -0.355961
vn -0.819414 0.073126 0.568518
vn -0.674213 0.435241 0.596659
vn -0.848919 0.528523 0.000165
vn -0.987098 0.160115 -0.000087
vn -0.402413 -0.148504 0.903333
vn -0.235443 0.197400 0.951630
vn 0.090023 -0.422866 0.901710
vn 0.290878 -0.093123 0.952217
vn 0.492569 -0.659734 0.567562
vn 0.726508 -0.336941 0.598880
vn 0.652350 -0.757917 0.000689
vn 0.900588 -0.434674 0.000262
vn 0.491687 -0.661121 -0.566712
vn 0.726943 -0.336411 -0.598650
vn 0.088690 -0.423951 -0.901332
vn 0.291066 -0.092649 -0.952206
vn -0.403164 -0.148747 -0.902958
vn -0.235640 0.197246 -0.951613
vn -0.819460 0.073210 -0.568441
vn -0.674573 0.434885 -0.596511
vn -0.037030 0.933613 0.356366
vn -0.145098 0.989417 0.000339
vn 0.225445 0.794628 0.563686
vn 0.537369 0.625446 0.565731
vn 0.799860 0.481004 0.358969
vn 0.905910 0.423471 0.000136
vn 0.799896 0.481023 -0.358864
vn 0.537652 0.624792 -0.566185
vn 0.225864 0.794724 -0.563382
vn -0.037383 0.933752 -0.355964
vn -0.837802 -0.260442 0.479852
vn -0.781741 0.086583 0.617563
vn -0.944405 0.323100 0.060880
vn -0.998301 -0.034371 -0.047052
vn -0.404276 -0.487369 0.773972
vn -0.321108 -0.158898 0.933617
vn 0.133840 -0.645269 0.752140
vn 0.258186 -0.326090 0.909398
vn 0.605761 -0.679548 0.413846
vn 0.757200 -0.355766 0.547794
vn 0.821202 -0.553274 -0.139695
vn 0.973698 -0.225644 -0.031573
vn 0.672406 -0.311845 -0.671285
vn 0.810663 0.014690 -0.585330
vn 0.238846 -0.068254 -0.968656
vn 0.354390 0.262023 -0.897637
vn -0.313595 0.086644 -0.945596
vn -0.224031 0.427978 -0.875583
vn -0.793411 0.100654 -0.600307
vn -0.726036 0.454080 -0.516413
vn -0.252610 0.774522 0.579917
vn -0.352568 0.907596 0.227957
vn 0.035386 0.627825 0.777550
vn 0.394608 0.520574 0.757158
vn 0.695069 0.492713 0.523559
vn 0.810130 0.562655 0.164646
vn 0.701406 0.693779 -0.163403
vn 0.432119 0.834722 -0.341340
vn 0.097464 0.939052 -0.329670
vn -0.206887 0.970325 -0.125172
vn 0.837797 -0.260447 0.479857
vn 0.998300 -0.034379 -0.047060
vn 0.944410 0.323086 0.060873
vn 0.781741 0.086585 0.617563
vn 0.404275 -0.487376 0.773968
vn 0.321105 -0.158910 0.933616
vn -0.133844 -0.645276 0.752134
vn -0.258193 -0.326107 0.909390
vn -0.605750 -0.679561 0.413840
vn -0.757195 -0.355786 0.547789
vn -0.821197 -0.553282 -0.139695
vn -0.973698 -0.225644 -0.031579
vn -0.672401 -0.311839 -0.671292
vn -0.810662 0.014686 -0.585330
vn -0.238854 -0.068277 -0.968652
vn -0.354399 0.262009 -0.897637
vn 0.313588 0.086642 -0.945598
vn 0.224029 0.427974 -0.875585
vn 0.793412 0.100659 -0.600304
vn 0.726036 0.454075 -0.516418
vn 0.352553 0.907599 0.227972
vn 0.252609 0.774521 0.579919
vn -0.035388 0.627828 0.777547
vn -0.394608 0.520563 0.757165
vn -0.695065 0.492723 0.523555
vn -0.810133 0.562652 0.164643
vn -0.701407 0.693778 -0.163401
vn -0.432119 0.834721 -0.341342
vn -0.097461 0.939050 -0.329677
vn 0.206891 0.970323 -0.125180
vn 0.946091 -0.323900 0.000055
vn 0.759619 -0.292342 0.580961
vn 0.446899 -0.790331 0.419116
vn 0.584913 -0.811096 0.000048
vn 0.272232 -0.209561 0.939135
vn 0.094656 -0.732549 0.674101
vn -0.328478 -0.107550 0.938368
vn -0.337086 -0.657170 0.674166
vn -0.814112 -0.025338 0.580155
vn -0.688070 -0.593227 0.417902
vn -0.999982 0.006025 0.000000
vn -0.821830 -0.569733 0.000182
vn -0.814119 -0.025324 -0.580145
vn -0.688072 -0.593231 -0.417891
vn -0.328511 -0.107460 -0.938367
vn -0.337326 -0.656402 -0.674795
vn 0.272234 -0.209373 -0.939176
vn 0.094588 -0.732609 -0.674045
vn 0.759698 -0.292175 -0.580942
vn 0.447476 -0.790028 -0.419072
vn -0.946092 -0.323898 0.000055
vn -0.584912 -0.811097 0.000049
vn -0.446898 -0.790331 0.419118
vn -0.759622 -0.292349 0.580954
vn -0.094657 -0.732550 0.674100
vn -0.272234 -0.209568 0.939133
vn 0.337086 -0.657174 0.674163
vn 0.328478 -0.107553 0.938368
vn 0.688071 -0.593227 0.417900
vn 0.814110 -0.025341 0.580158
vn 0.821831 -0.569732 0.000178
vn 0.999982 0.006023 -0.000003
vn 0.688072 -0.593232 -0.417891
vn 0.814118 -0.025325 -0.580148
vn 0.337326 -0.656403 -0.674794
vn 0.328516 -0.107461 -0.938365
vn -0.094595 -0.732604 -0.674050
vn -0.272236 -0.209371 -0.939176
vn -0.447477 -0.790027 -0.419072
vn -0.759699 -0.292173 -0.580941
vn -0.792690 0.609625 0.000735
vn -0.621034 0.518690 0.587604
vn -0.165379 0.888201 0.428659
vn -0.298262 0.954484 0.000647
vn -0.190103 0.284804 0.939547
vn 0.152725 0.722373 0.674427
vn 0.329652 -0.002127 0.944100
vn 0.525105 0.517242 0.675815
vn 0.764311 -0.244362 0.596755
vn 0.837575 0.337138 0.429891
vn 0.939779 -0.341782 -0.000398
vn 0.964516 0.264026 -0.000116
vn 0.764640 -0.243427 -0.596716
vn 0.837622 0.336700 -0.430142
vn 0.330432 -0.002684 -0.943826
vn 0.525736 0.515760 -0.676457
vn -0.190503 0.282562 -0.940142
vn 0.153831 0.722587 -0.673947
vn -0.622722 0.516886 -0.587406
vn -0.165571 0.888595 -0.427767
vn 0.792690 0.609624 0.000732
vn 0.298269 0.954482 0.000642
vn 0.165381 0.888200 0.428660
vn 0.621035 0.518686 0.587605
vn -0.152720 0.722365 0.674437
vn 0.190101 0.284801 0.939548
vn -0.525107 0.517242 0.675813
vn -0.329650 -0.002127 0.944101
vn -0.837580 0.337109 0.429903
vn -0.764309 -0.244365 0.596756
vn -0.964516 0.264025 -0.000114
vn -0.939779 -0.341783 -0.000394
vn -0.837623 0.336700 -0.430141
vn -0.764640 -0.243428 -0.596714
vn -0.525734 0.515758 -0.676459
vn -0.330424 -0.002685 -0.943829
vn -0.153832 0.722593 -0.673940
vn 0.190503 0.282561 -0.940142
vn 0.165572 0.888595 -0.427768
vn 0.622720 0.516888 -0.587407
s 1
f 1/1/1 2/2/2 3/3/3
f 3/3/3 4/4/4 1/1/1
f 5/5/5 1/1/1 4/4/4
f 4/4/4 6/6/6 5/5/5
f 7/7/7 5/5/5 6/6/6
f 6/6/6 8/8/8 7/7/7
f 9/9/9 7/7/7 8/8/8
f 8/8/8 10/10/10 9/9/9
f 11/11/11 9/9/9 10/10/10
f 10/10/10 12/12/12 11/11/11
f 13/13/13 11/11/11 12/12/12
f 12/12/12 14/14/14 13/13/13
f 15/15/15 13/13/13 14/14/14
f 14/14/14 16/16/16 15/15/15
f 17/17/17 15/15/15 16/16/16
f 16/16/16 18/18/18 17/17/17
f 19/19/19 17/17/17 18/18/18
f 18/18/18 20/20/20 19/19/19
f 2/2/2 19/19/19 20/20/20
f 20/20/20 3/3/3 2/2/2
f 3/3/3 21/21/21 22/22/22
f 22/22/22 4/4/4 3/3/3
f 4/4/4 22/22/22 23/23/23
f 23/23/23 6/6/6 4/4/4
f 6/6/6 23/23/23 24/24/24
f 24/24/24 8/8/8 6/6/6
f 8/8/8 24/24/24 25/25/25
f 25/25/25 10/10/10 8/8/8
f 10/10/10 25/25/25 26/26/26
f 26/26/26 12/12/12 10/10/10
f 12/12/12 26/26/26 27/27/27
f 27/27/27 14/14/14 12/12/12
f 14/14/14 27/27/27 28/28/28
f 28/28/28 16/16/16 14/14/14
f 16/16/16 28/28/28 29/29/29
f 29/29/29 18/18/18 16/16/16
f 18/18/18 29/29/29 30/30/30
f 30/30/30 20/20/20 18/18/18
f 20/20/20 30/30/30 21/21/21
f 21/21/21 3/3/3 20/20/20
f 26/26/26 25/25/25 24/24/24
f 24/24/24 23/23/23 22/22/22
f 26/26/26 24/24/24 22/22/22
f 22/22/22 21/21/21 30/30/30
f 30/30/30 29/29/29 28/28/28
f 22/22/22 30/30/30 28/28/28
f 26/26/26 22/22/22 28/28/28
f 26/26/26 28/28/28 27/27/27
f 31/31/31 32/32/32 33/33/33
f 33/33/33 34/34/34 31/31/31
f 35/35/35 36/36/36 32/32/32
f 32/32/32 31/31/31 35/35/35
f 37/37/37 38/38/38 36/36/36
f 36/36/36 35/35/35 37/37/37
f 39/39/39 40/40/40 38/38/38
f 38/38/38 37/37/37 39/39/39
f 41/41/41 42/42/42 40/40/40
f 40/40/40 39/39/39 41/41/41
f 43/43/43 44/44/44 42/42/42
f 42/42/42 41/41/41 43/43/43
f 45/45/45 46/46/46 44/44/44
f 44/44/44 43/43/43 45/45/45
f 47/47/47 48/48/48 46/46/46
f 46/46/46 45/45/45 47/47/47
f 49/49/49 50/50/50 48/48/48
f 48/48/48 47/47/47 49/49/49
f 34/34/34 33/33/33 50/50/50
f 50/50/50 49/49/49 34/34/34
f 33/33/33 32/32/32 51/51/51
f 51/51/51 52/52/52 33/33/33
f 32/32/32 36/36/36 53/53/53
f 53/53/53 51/51/51 32/32/32
f 36/36/36 38/38/38 54/54/54
f 54/54/54 53/53/53 36/36/36
f 38/38/38 40/40/40 55/55/55
f 55/55/55 54/54/54 38/38/38
f 40/40/40 42/42/42 56/56/56
f 56/56/56 55/55/55 40/40/40
f 42/42/42 44/44/44 57/57/57
f 57/57/57 56/56/56 42/42/42
f 44/44/44 46/46/46 58/58/58
f 58/58/58 57/57/57 44/44/44
f 46/46/46 48/48/48 59/59/59
f 59/59/59 58/58/58 46/46/46
f 48/48/48 50/50/50 60/60/60
f 60/60/60 59/59/59 48/48/48
f 50/50/50 33/33/33 52/52/52
f 52/52/52 60/60/60 50/50/50
f 56/56/56 57/57/57 58/58/58
f 58/58/58 59/59/59 60/60/60
f 60/60/60 52/52/52 51/51/51
f 58/58/58 60/60/60 51/51/51
f 56/56/56 58/58/58 51/51/51
f 51/51/51 53/53/53 54/54/54
f 56/56/56 51/51/51 54/54/54
f 56/56/56 54/54/54 55/55/55
f 61/61/61 62/62/62 63/63/63
f 63/63/63 64/64/64 61/61/61
f 65/65/65 66/66/66 62/62/62
f 62/62/62 61/61/61 65/65/65
f 67/67/67 68/68/68 66/66/66
f 66/66/66 65/65/65 67/67/67
f 69/69/69 70/70/70 68/68/68
f 68/68/68 67/67/67 69/69/69
f 71/71/71 72/72/72 70/70/70
f 70/70/70 69/69/69 71/71/71
f 73/73/73 74/74/74 72/72/72
f 72/72/72 71/71/71 73/73/73
f 75/75/75 76/76/76 74/74/74
f 74/74/74 73/73/73 75/75/75
f 77/77/77 78/78/78 76/76/76
f 76/76/76 75/75/75 77/77/77
f 79/79/79 80/80/80 78/78/78
f 78/78/78 77/77/77 79/79/79
f 64/64/64 63/63/63 80/80/80
f 80/80/80 79/79/79 64/64/64
f 63/63/63 62/62/62 81/81/81
f 81/81/81 82/82/82 63/63/63
f 62/62/62 66/66/66 83/83/83
f 83/83/83 81/81/81 62/62/62
f 66/66/66 68/68/68 84/84/84
f 84/84/84 83/83/83 66/66/66
f 68/68/68 70/70/70 85/85/85
f 85/85/85 84/84/84 68/68/68
f 70/70/70 72/72/72 86/86/86
f 86/86/86 85/85/85 70/70/70
f 72/72/72 74/74/74 87/87/87
f 87/87/87 86/86/86 72/72/72
f 74/74/74 76/76/76 88/88/88
f 88/88/88 87/87/87 74/74/74
f 76/76/76 78/78/78 89/89/89
f 89/89/89 88/88/88 76/76/76
f 78/78/78 80/80/80 90/90/90
f 90/90/90 89/89/89 78/78/78
f 80/80/80 63/63/63 82/82/82
f 82/82/82 90/90/90 80/80/80
f 86/86/86 87/87/87 88/88/88
f 88/88/88 89/89/89 90/90/90
f 90/90/90 82/82/82 81/81/81
f 88/88/88 90/90/90 81/81/81
f 86/86/86 88/88/88 81/81/81
f 81/81/81 83/83/83 84/84/84
f 86/86/86 81/81/81 84/84/84
f 86/86/86 84/84/84 85/85/85
f 91/91/91 92/92/92 93/93/93
f 93/93/93 94/94/94 91/91/91
f 95/95/95 91/91/91 94/94/94
f 94/94/94 96/96/96 95/95/95
f 97/97/97 95/95/95 96/96/96
f 96/96/96 98/98/98 97/97/97
f 99/99/99 97/97/97 98/98/98
f 98/98/98 100/100/100 99/99/99
f 101/101/101 99/99/99 100/100/100
f 100/100/100 102/102/102 101/101/101
f 103/103/103 101/101/101 102/102/102
f 102/102/102 104/104/104 103/103/103
f 105/105/105 103/103/103 104/104/104
f 104/104/104 106/106/106 105/105/105
f 107/107/107 105/105/105 106/106/106
f 106/106/106 108/108/108 107/107/107
f 109/109/109 107/107/107 108/108/108
f 108/108/108 110/110/110 109/109/109
f 92/92/92 109/109/109 110/110/110
f 110/110/110 93/93/93 92/92/92
f 93/93/93 111/111/111 112/112/112
f 112/112/112 94/94/94 93/93/93
f 94/94/94 112/112/112 113/113/113
f 113/113/113 96/96/96 94/94/94
f 96/96/96 113/113/113 114/114/114
f 114/114/114 98/98/98 96/96/96
f 98/98/98 114/114/114 115/115/115
f 115/115/115 100/100/100 98/98/98
f 100/100/100 115/115/115 116/116/116
f 116/116/116 102/102/102 100/100/100
f 102/102/102 116/116/116 117/117/117
f 117/117/117 104/104/104 102/102/102
f 104/104/104 117/117/117 118/118/118
f 118/118/118 106/106/106 104/104/104
f 106/106/106 118/118/118 119/119/119
f 119/119/119 108/108/108 106/106/106
f 108/108/108 119/119/119 120/120/120
f 120/120/120 110/110/110 108/108/108
f 110/110/110 120/120/120 111/111/111
f 111/111/111 93/93/93 110/110/110
f 114/114/114 113/113/113 112/112/112
f 112/112/112 111/111/111 120/120/120
f 120/120/120 119/119/119 118/118/118
f 112/112/112 120/120/120 118/118/118
f 118/118/118 117/117/117 116/116/116
f 112/112/112 118/118/118 116/116/116
f 114/114/114 112/112/112 116/116/116
f 114/114/114 116/116/116 115/115/115
f 121/121/121 122/122/122 123/123/123
f 123/123/123 124/124/124 121/121/121
f 122/122/122 125/125/125 126/126/126
f 126/126/126 123/123/123 122/122/122
f 125/125/125 127/127/127 128/128/128
f 128/128/128 126/126/126 125/125/125
f 127/127/127 129/129/129 130/130/130
f 130/130/130 128/128/128 127/127/127
f 129/129/129 131/131/131 132/132/132
f 132/132/132 130/130/130 129/129/129
f 131/131/131 133/133/133 134/134/134
f 134/134/134 132/132/132 131/131/131
f 133/133/133 135/135/135 136/136/136
f 136/136/136 134/134/134 133/133/133
f 135/135/135 137/137/137 138/138/138
f 138/138/138 136/136/136 135/135/135
f 137/137/137 139/139/139 140/140/140
f 140/140/140 138/138/138 137/137/137
f 139/139/139 121/121/121 124/124/124
f 124/124/124 140/140/140 139/139/139
f 132/132/132 134/134/134 136/136/136
f 136/136/136 138/138/138 140/140/140
f 140/140/140 124/124/124 123/123/123
f 136/136/136 140/140/140 123/123/123
f 132/132/132 136/136/136 123/123/123
f 123/123/123 126/126/126 128/128/128
f 132/132/132 123/123/123 128/128/128
f 132/132/132 128/128/128 130/130/130
f 141/141/141 142/142/142 143/143/143
f 143/143/143 144/144/144 141/141/141
f 144/144/144 143/143/143 145/145/145
f 145/145/145 146/146/146 144/144/144
f 146/146/146 145/145/145 147/147/147
f 147/147/147 148/148/148 146/146/146
f 148/148/148 147/147/147 149/149/149
f 149/149/149 150/150/150 148/148/148
f 150/150/150 149/149/149 151/151/151
f 151/151/151 152/152/152 150/150/150
f 152/152/152 151/151/151 153/153/153
f 153/153/153 154/154/154 152/152/152
f 154/154/154 153/153/153 155/155/155
f 155/155/155 156/156/156 154/154/154
f 156/156/156 155/155/155 157/157/157
f 157/157/157 158/158/158 156/156/156
f 158/158/158 157/157/157 159/159/159
f 159/159/159 160/160/160 158/158/158
f 160/160/160 159/159/159 142/142/142
f 142/142/142 141/141/141 160/160/160
f 147/147/147 145/145/145 143/143/143
f 143/143/143 142/142/142 159/159/159
f 159/159/159 157/157/157 155/155/155
f 143/143/143 159/159/159 155/155/155
f 155/155/155 153/153/153 151/151/151
f 143/143/143 155/155/155 151/151/151
f 147/147/147 143/143/143 151/151/151
f 147/147/147 151/151/151 149/149/149
f 161/161/161 162/162/162 163/163/163
f 163/163/163 164/164/164 161/161/161
f 162/162/162 165/165/165 166/166/166
f 166/166/166 163/163/163 162/162/162
f 165/165/165 167/167/167 168/168/168
f 168/168/168 166/166/166 165/165/165
f 167/167/167 169/169/169 170/170/170
f 170/170/170 168/168/168 167/167/167
f 169/169/169 171/171/171 172/172/172
f 172/172/172 170/170/170 169/169/169
f 171/171/171 173/173/173 174/174/174
f 174/174/174 172/172/172 171/171/171
f 173/173/173 175/175/175 176/176/176
f 176/176/176 174/174/174 173/173/173
f 175/175/175 177/177/177 178/178/178
f 178/178/178 176/176/176 175/175/175
f 177/177/177 179/179/179 180/180/180
f 180/180/180 178/178/178 177/177/177
f 179/179/179 161/161/161 164/164/164
f 164/164/164 180/180/180 179/179/179
f 172/172/172 174/174/174 176/176/176
f 176/176/176 178/178/178 180/180/180
f 180/180/180 164/164/164 163/163/163
f 176/176/176 180/180/180 163/163/163
f 172/172/172 176/176/176 163/163/163
f 163/163/163 166/166/166 168/168/168
f 172/172/172 163/163/163 168/168/168
f 172/172/172 168/168/168 170/170/170
f 181/181/181 182/182/182 183/183/183
f 183/183/183 184/184/184 181/181/181
f 184/184/184 183/183/183 185/185/185
f 185/185/185 186/186/186 184/184/184
f 186/186/186 185/185/185 187/187/187
f 187/187/187 188/188/188 186/186/186
f 188/188/188 187/187/187 189/189/189
f 189/189/189 190/190/190 188/188/188
f 190/190/190 189/189/189 191/191/191
f 191/191/191 192/192/192 190/190/190
f 192/192/192 191/191/191 193/193/193
f 193/193/193 194/194/194 192/192/192
f 194/194/194 193/193/193 195/195/195
f 195/195/195 196/196/196 194/194/194
f 196/196/196 195/195/195 197/197/197
f 197/197/197 198/198/198 196/196/196
f 198/198/198 197/197/197 199/199/199
f 199/199/199 200/200/200 198/198/198
f 200/200/200 199/199/199 182/182/182
f 182/182/182 181/181/181 200/200/200
f 187/187/187 185/185/185 183/183/183
f 183/183/183 182/182/182 199/199/199
f 199/199/199 197/197/197 195/195/195
f 183/183/183 199/199/199 195/195/195
f 195/195/195 193/193/193 191/191/191
f 183/183/183 195/195/195 191/191/191
f 187/187/187 183/183/183 191/191/191
f 187/187/187 191/191/191 189/189/189
